<svg xmlns="http://www.w3.org/2000/svg" width="220" height="291" fill="none"><g clip-path="url(#a)"><path fill="#9BCD8F" d="M197.032 9.148a11.185 11.185 0 0 0-3.264-4.951 11.372 11.372 0 0 0-5.36-2.618 13.52 13.52 0 0 0-6.16-.543 13.466 13.466 0 0 0-5.749 2.254 10.21 10.21 0 0 0-2.615 3.61 10.104 10.104 0 0 0-.817 4.365l-.47-.493a5.889 5.889 0 0 0-2.226-1.05 5.935 5.935 0 0 0-2.467-.052 37.1 37.1 0 0 0-17.952 7.308 30.263 30.263 0 0 0-5.251 4.785c-2.522 2.9-3.813 5.423-1.613 8.99l1.584 2.523c.528.87 1.995 2.436 1.32 3.422a2.456 2.456 0 0 1-1.056.783c-2.18.657-4.508.657-6.688 0a163.786 163.786 0 0 0-10.12-1.537 37.807 37.807 0 0 0-3.872-.174 28.8 28.8 0 0 0-3.256 0 12.6 12.6 0 0 1-2.933.261 29.595 29.595 0 0 1-2.934-1.015c-.88-.26-1.936-.319-2.757-.667a1.96 1.96 0 0 0-.704 0c-.763 0-1.437.435-1.144.783a8.428 8.428 0 0 0 1.907 4.118 17.73 17.73 0 0 0 2.933 3.248c.939.783 1.995 1.682 3.315 1.218.645-.232.704-.667.85-1.247l.47-1.798c3.34.008 6.665.456 9.885 1.334a38.775 38.775 0 0 1 9.416 2.9c2.933 1.392 5.544 3.074 8.477 4.263a32.576 32.576 0 0 0 9.064 2.233l1.115 1.363c2.405 2.9 6.776 1.276 9.827 0a49.055 49.055 0 0 0 7.714-3.828 49.63 49.63 0 0 0 6.806-4.959c1.672-1.45 4.722-3.654 5.162-5.8v-.145a5.16 5.16 0 0 0-.528-2.29c2.024-4.525 4.635-8.7 7.04-13.05a24.564 24.564 0 0 0 2.552-6.584c.648-2.261.818-4.63.499-6.96Zm-6.131 14.297c-1.144 2.117-2.376 4.205-3.549 6.293-.528.928-1.144 1.885-1.701 2.9a30.087 30.087 0 0 0-1.614-2.9c-2.17-4.176-4.517-8.207-6.893-12.15a27.571 27.571 0 0 1-.469-5.395 10.54 10.54 0 0 1 .528-3.567 7.46 7.46 0 0 1 1.855-2.64 7.56 7.56 0 0 1 2.809-1.623 11.12 11.12 0 0 1 6.512 0 7.905 7.905 0 0 1 1.936.783 7.342 7.342 0 0 1 2.493 2.668c3.021 5.133.792 10.76-1.907 15.631Z"/><path fill="#CD4343" d="M156.699 50.01a143.78 143.78 0 0 1-7.246-10.18l-1.877-2.9c-.147-.26-1.027-.144-.851 0a143.07 143.07 0 0 0 6.982 10.44l2.112 2.9a.582.582 0 0 0 .557.146s.44-.145.323-.406ZM176.411 14.948a17.005 17.005 0 0 0-2.933-3.654.683.683 0 0 0-.616 0s-.294.145-.147.29a16.479 16.479 0 0 1 2.699 3.567c.264.174 1.144.087.997-.203ZM186.179 35.48a32.35 32.35 0 0 0-13.112 3.423 47.605 47.605 0 0 0-5.867 3.422 29.808 29.808 0 0 0-5.309 4.291 10.18 10.18 0 0 0-2.933 6.554c0 .29.88.32.88 0 0-4.495 3.93-7.684 7.421-10.12a41.693 41.693 0 0 1 11.733-5.8 27.864 27.864 0 0 1 7.246-1.218s.44 0 .44-.232-.352-.32-.499-.32Z"/><path fill="#9BCD8F" d="M93.28 49.69h-.234a.435.435 0 0 1-.147-.58 38.283 38.283 0 0 1 2.347-3.334 36.103 36.103 0 0 1 2.933-3.452.443.443 0 0 1 .616 0 .407.407 0 0 1 .102.472.407.407 0 0 1-.102.138 35.335 35.335 0 0 0-2.933 3.364 37.429 37.429 0 0 0-2.318 3.276.442.442 0 0 1-.264.117ZM101.669 40.382a.449.449 0 0 1-.352-.174.414.414 0 0 1-.139-.305.403.403 0 0 1 .139-.304 19.033 19.033 0 0 1 8.067-3.451.444.444 0 0 1 .499.348.444.444 0 0 1-.217.439.446.446 0 0 1-.165.054 18.118 18.118 0 0 0-7.685 3.277.44.44 0 0 1-.147.116ZM95.803 58.448a.44.44 0 0 1-.277-.176.431.431 0 0 1-.075-.317 28.023 28.023 0 0 1 2.933-7.54.44.44 0 0 1 .587-.174.436.436 0 0 1 .176.58 27.21 27.21 0 0 0-2.758 7.308.433.433 0 0 1-.218.294.442.442 0 0 1-.368.025ZM100.906 47.37a.445.445 0 0 1-.264 0 .414.414 0 0 1-.139-.304.402.402 0 0 1 .139-.305 30.094 30.094 0 0 1 6.835-6.177.442.442 0 0 1 .616 0 .433.433 0 0 1 0 .58 29.19 29.19 0 0 0-6.629 6.003.441.441 0 0 1-.558.203ZM105.13 49.777h-.205a.428.428 0 0 1-.176-.58 31.141 31.141 0 0 1 5.603-6.902.442.442 0 0 1 .616 0 .414.414 0 0 1 .139.305.403.403 0 0 1-.139.304 30.307 30.307 0 0 0-5.368 6.67.44.44 0 0 1-.47.203ZM109.354 57.463a.442.442 0 0 1-.371-.322.43.43 0 0 1-.01-.171 30.794 30.794 0 0 1 5.163-13.108.442.442 0 0 1 .707.132.405.405 0 0 1-.091.448 29.925 29.925 0 0 0-5.016 12.76.442.442 0 0 1-.382.26ZM148.104 59.725a.736.736 0 0 0-.44-.522h-.498a2.969 2.969 0 0 0-1.565-.053 2.949 2.949 0 0 0-1.369.749c-.373.34-.629.785-.733 1.276a1.4 1.4 0 0 0 0 .377 68.038 68.038 0 0 0-6.219 5.19l-.88.842c0-1.77.176-3.538.176-5.307a.904.904 0 0 0 .411-.406c.155-.197.265-.425.323-.667a5.42 5.42 0 0 0 .146-.725 5.11 5.11 0 0 0-.469-2.9c0-.174-.323-.232-.587-.203a1.185 1.185 0 0 0-1.349.29c-.224.408-.326.87-.293 1.334-.019.3-.019.6 0 .899v.406c-.044.409.06.82.293 1.16.043.155.113.302.205.435l.176.174c0 2.184-.088 4.37-.264 6.554a45.073 45.073 0 0 0-5.338 6.38 21.448 21.448 0 0 0-2.758 5.568c-.146.493 1.027.55 1.174.145a26.037 26.037 0 0 1 5.632-9.222 67.488 67.488 0 0 1 8.184-7.86l1.906-1.478c.323.11.675.11.998 0h.616c.492-.196.947-.47 1.349-.812l.411-.377c.173-.137.331-.292.469-.464a1.014 1.014 0 0 0 .293-.783Z"/><path fill="#9BCD8F" d="M148.104 59.725a.735.735 0 0 0-.44-.522h-.498a2.969 2.969 0 0 0-1.565-.054 2.948 2.948 0 0 0-1.369.75 1.992 1.992 0 0 0-.704 1.914.833.833 0 0 0 .206.058 1.248 1.248 0 0 0 1.232.406h.616c.492-.196.947-.47 1.349-.812l.411-.377c.173-.137.331-.293.469-.464a1.012 1.012 0 0 0 .293-.9ZM137.515 59.724a5.117 5.117 0 0 0-.528-2.29c0-.175-.323-.233-.587-.204a1.185 1.185 0 0 0-1.349.29c-.225.408-.326.871-.294 1.334-.019.3-.019.6 0 .9v.405c-.044.41.06.82.294 1.16a1.097 1.097 0 0 0 .704.841c1.173.377 1.525-.84 1.642-1.682.059-.248.098-.5.118-.754Z"/><path fill="#FBC9BE" d="M153.766 54.273a.553.553 0 0 0-.176-.29.71.71 0 0 0-.44-.174h-.206v.203a.885.885 0 0 0-.293.232l-.733.696-1.467 1.305c-.997.85-1.975 1.672-2.933 2.465v.145a.381.381 0 0 0 .322 0 52.158 52.158 0 0 0 2.787-2.233l1.32-1.16.616-.58.587-.58h.381c.075.029.159.029.235 0v-.03ZM155.789 59.434a1.17 1.17 0 0 0 0-.145.287.287 0 0 0 0-.174l-.322-.145a.594.594 0 0 0-.47 0 .403.403 0 0 0 0 .29 12.745 12.745 0 0 1-5.866.783c-.235 0-.44.203 0 .232a13.572 13.572 0 0 0 5.866-.754.328.328 0 0 0 .206 0c.124.04.257.04.381 0a.321.321 0 0 0 0-.174l.205.087ZM135.755 57.23a53.208 53.208 0 0 1-4.723-7.191.555.555 0 0 0 .147-.232.201.201 0 0 0 0-.145.297.297 0 0 0-.235 0h-.293a.648.648 0 0 0-.264.174.534.534 0 0 0 0 .232.26.26 0 0 0 0 .29.438.438 0 0 0 .322.145h.235a53.22 53.22 0 0 0 4.664 7.047s.264-.203.147-.32Z"/><path fill="#020808" d="M137.309 48.85s-.205-.203-.322-.203a.802.802 0 0 0-.587 0l-.323.203c.14.095.301.155.47.173a48.778 48.778 0 0 1-.499 8.555h.469a48.7 48.7 0 0 0 .499-8.7.376.376 0 0 0 .176-.173.145.145 0 0 0 .117.145Z"/><path fill="#9BCD8F" d="M128.861 56.418a.67.67 0 0 0-.323.812 1.717 1.717 0 0 0 1.174 1.19c.561.169 1.144.256 1.73.26 1.251.075 2.496.23 3.726.464.329.065.668.065.997 0a6.474 6.474 0 0 0 1.877-1.16c.734-.435 1.496-.812 2.2-1.276a4.974 4.974 0 0 0 2.435-2.9.524.524 0 0 0 0-.26.502.502 0 0 0-.323-.29 2.756 2.756 0 0 0-2.376.492c-.751.455-1.449.99-2.082 1.595.44-.58.85-1.16 1.261-1.74a5.924 5.924 0 0 0 1.261-3.335 1.26 1.26 0 0 0-.316-.75 1.293 1.293 0 0 0-.71-.41 1.688 1.688 0 0 0-1.006.162 1.66 1.66 0 0 0-.725.708 9.848 9.848 0 0 0-1.467 4.96c.054-.844.004-1.691-.146-2.524a9.878 9.878 0 0 0-.616-2.204 3.102 3.102 0 0 0-.792-1.247 1.295 1.295 0 0 0-1.331-.273 1.272 1.272 0 0 0-.84 1.056c-.049.45.001.905.147 1.334a28.757 28.757 0 0 0 1.525 4.205A25 25 0 0 1 132 53.17a7.149 7.149 0 0 0-1.144-1.13 2.13 2.13 0 0 0-1.526-.436c-1.29.232-1.114 1.48-.586 2.291a11.06 11.06 0 0 0 3.608 2.9l-.734-.174a6.579 6.579 0 0 0-2.376-.29l-.381.087ZM146.667 52.997a.706.706 0 0 0-.88-.174 1.7 1.7 0 0 0-.67.524 1.665 1.665 0 0 0-.327.78 5.452 5.452 0 0 0 0 1.683c.151 1.192.22 2.394.205 3.596a2.303 2.303 0 0 0 0 .957c.264.638 1.027 1.073 1.525 1.566.499.493 1.115 1.247 1.702 1.856a5.179 5.179 0 0 0 3.402 1.798h.264a.496.496 0 0 0 .235-.348 2.527 2.527 0 0 0-.939-2.175 11.973 11.973 0 0 0-1.994-1.682l2.024.87a6.517 6.517 0 0 0 3.608.638c.274-.063.521-.214.701-.428a1.27 1.27 0 0 0 .296-.761c0-.725-.557-1.19-1.203-1.48a10.882 10.882 0 0 0-5.016-.521c.872-.107 1.728-.31 2.552-.61.747-.24 1.466-.56 2.142-.956a3.185 3.185 0 0 0 1.114-.957 1.238 1.238 0 0 0-.492-1.784 1.273 1.273 0 0 0-.681-.13c-.471.032-.931.16-1.349.377a31.181 31.181 0 0 0-4.048 2.204 24.442 24.442 0 0 1 1.818-2.436c.36-.39.675-.818.939-1.276a1.929 1.929 0 0 0 .147-1.537c-.44-1.19-1.731-.812-2.435 0a10.59 10.59 0 0 0-2.229 3.915v-.725a5.883 5.883 0 0 0 0-2.32 1.077 1.077 0 0 0-.411-.464ZM117.568 75.762a1.17 1.17 0 0 0-.704-.725 2.966 2.966 0 0 0-2.435.232 3.907 3.907 0 0 0-1.026.812c.264-1.218.498-2.465.704-3.683a64.078 64.078 0 0 0 1.026-8.874 21.166 21.166 0 0 0-.41-4.96c0-.405-1.262-.173-1.174.233a27.13 27.13 0 0 1 0 8.7c0 .957-.234 1.885-.381 2.9a4.083 4.083 0 0 0-.587-1.247 3.315 3.315 0 0 0-.927-.976 3.372 3.372 0 0 0-1.243-.532 1.571 1.571 0 0 0-1.262.319 1.34 1.34 0 0 0-.322 1.189c.12.495.348.959.667 1.36.319.4.722.727 1.181.96a3.79 3.79 0 0 1 1.73 1.769 5.93 5.93 0 0 1-.293 3.132 112.824 112.824 0 0 1-1.173 4.93c0 .435 1.056.319 1.173 0 .117-.32.411-1.624.616-2.436a3.644 3.644 0 0 1 1.995-1.218 5.909 5.909 0 0 0 2.317-.87.961.961 0 0 0 .434-.421.947.947 0 0 0 .094-.594Z"/><path fill="#FBC9BE" d="M111.056 46.906c-.645.261-1.32.551-1.965.783-.749.283-1.475.622-2.171 1.015-.997.493-1.496 1.421-2.2 2.175-.704.754-2.17 2.9-1.408 4.176.206.406.587.696.851 1.073.88 1.363 0 3.48 1.203 4.611.298.245.635.441.997.58.911.481 1.907.786 2.933.9a5.925 5.925 0 0 1 2.376.434 6.866 6.866 0 0 0 2.23 1.073 3.71 3.71 0 0 0 1.408-.203 4.706 4.706 0 0 0 1.056-.406c.821-.493 1.32-1.392 2.141-1.914.497-.318.942-.71 1.32-1.16.499-.522 1.291-.725 1.76-1.334a4.023 4.023 0 0 0 .528-2.668v-2.03a7.403 7.403 0 0 0-.352-1.624c-.176-.667 0-1.363-.323-2.03a3.878 3.878 0 0 0-1.144-1.885 9.847 9.847 0 0 0-2.258-1.45 9.404 9.404 0 0 0-2.728-.203c-.616 0-1.203-.319-1.819-.377a4.8 4.8 0 0 0-2.435.464Z"/><path fill="#6476C0" d="M122.379 50.27a2.554 2.554 0 0 0-1.526-1.421 3.29 3.29 0 0 0-2.152-.012 3.25 3.25 0 0 0-1.69 1.317 8.007 8.007 0 0 0 1.056-2.29 2.102 2.102 0 0 0-.44-2.292 2.222 2.222 0 0 0-.734-.319 11.862 11.862 0 0 0-4.605-.232 2.037 2.037 0 0 0-1.467.667c-.2.493-.2 1.044 0 1.537l.558 3.277a17.525 17.525 0 0 0-3.315-3.132 1.676 1.676 0 0 0-.675-.377 1.774 1.774 0 0 0-1.232.377 18.524 18.524 0 0 0-2.346 1.711 3.995 3.995 0 0 0-.88.986 1.516 1.516 0 0 0-.176 1.247c.234.667.997.957 1.672 1.247a15.78 15.78 0 0 1 1.848.928 4.802 4.802 0 0 0-1.984.231 4.757 4.757 0 0 0-1.712 1.016 3.657 3.657 0 0 0-.901 2.17c-.053.801.161 1.597.607 2.267a4.031 4.031 0 0 0 1.819 1.77c.188.116.397.195.616.231a1.54 1.54 0 0 0 .792-.174 7.84 7.84 0 0 0 1.584-1.102l1.965-1.624-1.789 2.697a3.869 3.869 0 0 0-.763 1.653c0 .87.675 1.566 1.35 2.06.599.462 1.29.794 2.028.974.738.18 1.506.203 2.254.07a1.765 1.765 0 0 0 1.232-.9c.102-.279.151-.573.147-.87l.235-4.292s.293 0 .381.174a51.162 51.162 0 0 1 2.171 3.712.637.637 0 0 0 .264.29.682.682 0 0 0 .44 0l1.232-.348a7.665 7.665 0 0 0 2.258-1.276 6.807 6.807 0 0 0 1.584-1.653 3.101 3.101 0 0 0 .499-2.146 1.65 1.65 0 0 0-.264-.667 2.54 2.54 0 0 0-.616-.55l-2.112-1.509a2.371 2.371 0 0 1 1.584-.174c.322.035.646.035.968 0 .146.024.294.024.44 0 .792-.435.675-1.972.499-2.639a12.699 12.699 0 0 0-.704-2.61Z"/><path fill="#fff" d="M114.693 51.604a1.238 1.238 0 0 0-1.877.61 1.041 1.041 0 0 0-.323-.62 1.061 1.061 0 0 0-.645-.28 1.27 1.27 0 0 0-.984.582 1.23 1.23 0 0 0-.101 1.13.861.861 0 0 0-.646 0 1.007 1.007 0 0 0-.508.216.985.985 0 0 0-.313.45.73.73 0 0 0 .469.84c-1.261.407-.674 2.06.47 2.118-.122.22-.159.477-.105.721.054.245.195.463.398.613a1.127 1.127 0 0 0 1.408-.174s.352.465.44.493c.248.078.515.078.763 0a1.453 1.453 0 0 0 1.173-.9 1.422 1.422 0 0 0 1.525-.172 1.294 1.294 0 0 0 .352-1.421 1.358 1.358 0 0 0 .998-.58.946.946 0 0 0 .234-.812c0-.407-.616-.58-1.056-.667a1.264 1.264 0 0 0 .352-1.015.827.827 0 0 0-.792-.551c-.352.008-.692.13-.968.347.235-.173-.088-.783-.264-.928Z"/><path fill="#FBC9BE" d="m109.677 52.069-1.613-1.48a.472.472 0 0 0-.469 0s-.323.145-.206.261l1.614 1.48a.471.471 0 0 0 .469 0s.323-.145.205-.261ZM108.534 52.446c-.44-.174-.891-.32-1.35-.435h-.498l.645.174h.469a.591.591 0 0 0 .499 0l.235.26ZM107.536 55.548c-.657.128-1.304.303-1.936.522 0 0-.293 0-.205.261s.352 0 .469 0l.91-.26h.821s.352 0 .323-.233c-.03-.232-.294-.319-.382-.29ZM110.939 58.971a.297.297 0 0 0-.176 0h-.264a.39.39 0 0 0-.206 0 26.53 26.53 0 0 0-.792 1.45h.235a.474.474 0 0 0 .411-.203c.234-.464.469-.899.733-1.334.264-.435.088.087.059.087ZM112.053 59.522h-.615c.042.269.042.542 0 .812.004.096.004.193 0 .29 0 .145.175.173.293.173h.264c.121-.414.141-.852.058-1.275ZM118.272 59.145a4.018 4.018 0 0 0-1.056-1.16.416.416 0 0 0-.235 0h-.264.147l.264.26c.166.189.314.393.44.61h.44s.323.435.264.29ZM119.269 57.201l-.85-.377h-.499l.851.377h.498ZM119.093 51.257a4.669 4.669 0 0 0-1.642.609.558.558 0 0 0 .498 0l.323-.174h.704s.352 0 .323-.232c-.03-.232-.088-.203-.206-.203ZM115.046 48.299s-.352 0-.411.203a17.28 17.28 0 0 0-.499 1.71c0 .262.646.175.704 0 .137-.578.303-1.149.499-1.71 0 0-.205-.203-.293-.203Z"/><path fill="#9BCD8F" d="M114.576 52.764a.71.71 0 0 0-.763 0 .95.95 0 0 0 0 .261c.032.07.082.131.147.174a.623.623 0 0 0 .44 0c.099.02.201.01.293-.029a.576.576 0 0 0-.117-.406ZM111.936 53.49a.323.323 0 0 0 0-.145l-.469-.174h-.47a1.17 1.17 0 0 0 0 .493.263.263 0 0 0 .147.203c.17.062.358.062.528 0a.585.585 0 0 0 .293-.203.456.456 0 0 0 0-.232 1.284 1.284 0 0 0 0-.232l-.029.29ZM111.848 55.49a.323.323 0 0 0 0-.144H111.291a.533.533 0 0 0-.352.29.549.549 0 0 0 0 .29.663.663 0 0 0 0 .348.462.462 0 0 0 .352.174h.352a.529.529 0 0 0 .264-.174.341.341 0 0 0 0-.32v-.29l-.059-.173ZM113.784 54.534a.701.701 0 0 0-.264-.145.89.89 0 0 0-.528 0 .618.618 0 0 0 0 .29.646.646 0 0 0 0 .232l.205.145a.742.742 0 0 0 .646 0 .383.383 0 0 0 .205-.232.41.41 0 0 0 0-.203.801.801 0 0 0-.264-.087ZM115.808 54.881a.41.41 0 0 0-.293-.174.802.802 0 0 0-.411 0 .501.501 0 0 0-.235.174.878.878 0 0 0 0 .261.549.549 0 0 0 0 .261c0 .145.352 0 .528 0h.294a.441.441 0 0 0 0-.145 1.263 1.263 0 0 0 0-.174.437.437 0 0 0 .117-.203ZM113.814 56.592a.593.593 0 0 0-.294-.174h-.352a.885.885 0 0 0-.586.174h.264c.154.036.315.036.469 0a.739.739 0 0 0 .44-.232.256.256 0 0 0 .059.232Z"/><path fill="#F9CD75" d="M144.261 69.933c.109-.362.197-.73.264-1.102-1.386.268-2.703.81-3.872 1.595a17.968 17.968 0 0 0-7.099 7.86c-.264.608-1.202 2.03-.205 2.29.997.261 2.2-.87 2.933-1.334a18.354 18.354 0 0 0 7.979-9.309Z"/><path fill="#FBC9BE" d="M86.445 61.871a27.096 27.096 0 0 0-1.026-2.146 34.137 34.137 0 0 0-2.61-4.234 10.32 10.32 0 0 0-1.438-1.71c-.558-.494-1.526-1.016-2.23-.465a1.39 1.39 0 0 0-.38 1.102c-.006.432.054.861.175 1.276l.264.377a2.511 2.511 0 0 0-2.23-.232c-1.26.58-.733 2.146 0 3.074a1.715 1.715 0 0 0-1.173.61c-.645.811.206 1.768.792 2.348a6.616 6.616 0 0 0 2.464 1.48 8.893 8.893 0 0 0 4.166.637c.576.038 1.154.038 1.73 0 .4.032.8-.059 1.144-.26h.176s.294 0 .264-.262a1.95 1.95 0 0 0 .352-.377c-.029-.493-.293-.899-.44-1.218Z"/><path fill="#CD4343" d="M86.856 61.87c-.557-.87-1.437-1.45-2.053-2.29-.71-.95-1.485-1.85-2.318-2.697a3.92 3.92 0 0 0-.909-.754 1.537 1.537 0 0 0-1.173-.145.91.91 0 0 0-.47.319c-.128.21-.189.452-.176.696-.01.965.31 1.906.91 2.668a2.959 2.959 0 0 0-1.643.406.67.67 0 0 0-.264.232.63.63 0 0 0 0 .493c.324.82.954 1.484 1.76 1.856.803.374 1.65.646 2.523.812a7.805 7.805 0 0 0 1.701 0c.448.048.9.048 1.35 0a1.676 1.676 0 0 0 1.055-.928.69.69 0 0 0 0-.551l-.293-.116Z"/><path fill="#FBC9BE" d="M91.725 73.267a10.938 10.938 0 0 0-1.584-3.219A5.199 5.199 0 0 0 87.56 67.7a1.513 1.513 0 0 0-.999-.023 1.494 1.494 0 0 0-.79.603 1.263 1.263 0 0 0 0 .87h-.235a1.392 1.392 0 0 0-.856.17c-.26.146-.463.371-.582.642a1.779 1.779 0 0 0 .411 1.45c.207.302.443.584.704.841a1.828 1.828 0 0 0-1.144.522c-.587.61 0 1.334.44 1.74.592.41 1.277.67 1.995.754.77.074 1.546.074 2.317 0h1.203a2.272 2.272 0 0 0 1.525-.638 1.499 1.499 0 0 0 .176-1.363Z"/><path fill="#CD4343" d="M90.64 72.166a6.467 6.467 0 0 0-.323-.783 3.397 3.397 0 0 0-.88-1.16 1.826 1.826 0 0 0-1.408-.406.622.622 0 0 0-.323 0 .66.66 0 0 0 0 .61 4.24 4.24 0 0 0 .851 1.884 5.158 5.158 0 0 0-1.203 0 .94.94 0 0 0-.5.289.922.922 0 0 0-.233.523c0 .783 1.173.957 1.79 1.16a6.638 6.638 0 0 0 1.76.406c.41 0 .997-.203.997-.696a6.526 6.526 0 0 0-.528-1.827Z"/><path fill="#FBC9BE" d="M99.734 52.91v-.174a1.775 1.775 0 0 0-1.849 0c-.523.37-.962.844-1.29 1.392.14-.64.14-1.303 0-1.943a1.477 1.477 0 0 0-.519-.853 1.507 1.507 0 0 0-1.896 0c-.267.216-.45.518-.519.853a4.591 4.591 0 0 0-.234 1.885 1.178 1.178 0 0 0-.393-.885 1.208 1.208 0 0 0-.927-.304 1.74 1.74 0 0 0-.909.409c-.255.222-.44.513-.528.838a6.484 6.484 0 0 0 .293 2.9 18.349 18.349 0 0 0 1.232 3.538 18.2 18.2 0 0 0 2.259 3.654.765.765 0 0 0 .704.203h.175a.77.77 0 0 0 .587 0c.39-.545.677-1.154.85-1.798.406-.733.856-1.44 1.35-2.117a20.37 20.37 0 0 0 2.142-4.93 2.587 2.587 0 0 0-.528-2.668Z"/><path fill="#CD4343" d="M96.8 55.143a3.967 3.967 0 0 0-.205-.493c-.763-1.508-2.142-1.305-2.64.667A8.27 8.27 0 0 0 93.69 57c-.294-.29-.646-.609-1.056-.522-.411.087-.558.667-.528 1.131.15 1.407.537 2.779 1.144 4.06a9.53 9.53 0 0 0 1.085 2.146.842.842 0 0 0 .528.377.385.385 0 0 0 .44 0 .473.473 0 0 0 .528-.203 17.655 17.655 0 0 0 1.173-6.148 7.888 7.888 0 0 0-.205-2.697Z"/><path fill="#FCC670" d="M102.931 81.417a54.032 54.032 0 0 0-6.131-9.02l-.968-1.101a.201.201 0 0 0 0-.145v-5.8s.499-.406.528-.435l.499-.58c.337-.432.559-.94.645-1.48a1.205 1.205 0 0 0 0-.724.523.523 0 0 0-.484-.313.532.532 0 0 0-.484.313c-.19.39-.47.728-.821.986a.652.652 0 0 1-.558 0l-.234-.145c-.411-.377-1.115-1.363-1.76-.812-.646.55-.176.609 0 .928.23.588.568 1.128.997 1.595.147.174.44.29.557.435.118.145 0 .58 0 .899v4.234a55.866 55.866 0 0 0-5.866-5.452l-1.203-.928s-.557-.32-.616-.464c-.059-.145 0-.406 0-.522a3.212 3.212 0 0 0-.645-2.494.816.816 0 0 0-.528-.348c-.763 0-.646.928-.528 1.363.117.435.176 1.363-.675 1.595-.482.021-.962.07-1.437.145-.5.203-.968.87-.294 1.189.204.04.413.04.616 0a7.972 7.972 0 0 0 2.699-.377h.147a55.919 55.919 0 0 1 5.074 4.263 54.652 54.652 0 0 1 7.158 8.149l.469.667a17.158 17.158 0 0 1-4.605-1.305l-1.086-.493a4.03 4.03 0 0 1-1.085-.551c-.176-.203 0-.348-.176-.638a5.758 5.758 0 0 0-.381-1.19 1.682 1.682 0 0 0-.452-.68 1.708 1.708 0 0 0-.722-.392.623.623 0 0 0-.528 0c0 .203-.176.377 0 .638.176.26.176.493.235.725.06.189.06.391 0 .58a.666.666 0 0 1-.41.377 3.19 3.19 0 0 0-.88.377 1.02 1.02 0 0 0-.323.348.431.431 0 0 0 0 .464.737.737 0 0 0 .645.145l1.379-.174c.37-.122.754-.2 1.144-.232a21.292 21.292 0 0 0 7.714 2.436 53.446 53.446 0 0 1 2.347 3.915c.117.493 1.232.406 1.027.029Z"/><path fill="#9BCD8F" d="M131.707 67.439a1.97 1.97 0 0 0-1.467-.61 4.453 4.453 0 0 0-2.933 1.277c.264-.638.498-1.276.704-1.943.565-1.663.987-3.37 1.261-5.104 0-.377-1.144-.435-1.203 0a33.466 33.466 0 0 1-2.757 8.874 62.21 62.21 0 0 1-1.995 3.944 46.958 46.958 0 0 0-1.173-6.41c0-.434-1.291-.347-1.203 0 .688 2.673 1.14 5.4 1.35 8.15-.47.783-.998 1.537-1.526 2.29a20.797 20.797 0 0 1-1.73 2.118c.266-1.099.462-2.213.586-3.335 0-1.305.44-3.103-.762-4.031a2.179 2.179 0 0 0-1.76-.435 1.794 1.794 0 0 0-1.262 1.102 6.971 6.971 0 0 0-.498 2.059 9.809 9.809 0 0 0 0 2.233c.095.823.292 1.631.586 2.407.246.792.69 1.51 1.291 2.088a.565.565 0 0 0 .499 0s.176 0 .176-.145a.826.826 0 0 0 .498-.145 16.555 16.555 0 0 0 1.819-1.711 4.746 4.746 0 0 1 1.525 0c.615.051 1.234.051 1.848 0a7.344 7.344 0 0 0 1.995-.464 5.54 5.54 0 0 0 1.584-.812 1.714 1.714 0 0 0 .704-1.45 1.37 1.37 0 0 0-.239-.61 1.41 1.41 0 0 0-.494-.434 3.85 3.85 0 0 0-3.227 0c-.49.193-.953.446-1.379.754l.851-1.305a.202.202 0 0 0 .028-.102c0-.035-.01-.07-.028-.101l.528-.9a58.085 58.085 0 0 0 1.76-3.276c1.173-.29 2.376-.522 3.52-.9a4.195 4.195 0 0 0 2.523-1.71 1.268 1.268 0 0 0 0-1.363Z"/><path fill="#C94340" d="M126.133 78.14a.561.561 0 0 0-.498 0 63.644 63.644 0 0 1-4.283 1.188s-.235 0 0 .232a.561.561 0 0 0 .499 0 63.616 63.616 0 0 0 4.282-1.189s.176-.116 0-.232Z"/><path fill="#F9CD75" d="M124.285 66.772h-.792c.521-.37.976-.82 1.35-1.335 0-.144.205-.376 0-.522a.473.473 0 0 0-.352-.174 2.191 2.191 0 0 0-1.35.349c-.387.262-.789.504-1.202.724a5.242 5.242 0 0 0 .586-1.565.865.865 0 0 0-.234-.928.655.655 0 0 0-.616 0 1.375 1.375 0 0 0-.499.377 3.169 3.169 0 0 0-.792 2.175 4.468 4.468 0 0 0-.704-2.002.818.818 0 0 0-.235-.232.621.621 0 0 0-.645 0c-.182.14-.315.333-.381.551a2.185 2.185 0 0 0 .44 2.146 1.334 1.334 0 0 0-.968 0 3.35 3.35 0 0 0-.88.436.754.754 0 0 0-.352.376.494.494 0 0 0 .205.522c.177.111.378.18.587.204.487.056.979.056 1.466 0-.205.377-.645.58-.938.928a1.329 1.329 0 0 0-.294 1.16.297.297 0 0 0 0 .144h.352a8.147 8.147 0 0 0 1.819-1.13 3.067 3.067 0 0 0 0 1.74c.072.225.192.433.352.609a.904.904 0 0 0 .645.29h.264a.634.634 0 0 0 .235-.32 2.88 2.88 0 0 0 .205-1.073v-.985c.252.44.557.85.91 1.218.163.183.362.331.586.434a.773.773 0 0 0 .734 0 .839.839 0 0 0 .293-.521c.074-.348.048-.71-.077-1.043a1.884 1.884 0 0 0-.627-.843 1.567 1.567 0 0 0 1.643-.84.505.505 0 0 0 0-.233c0-.29-.382-.377-.675-.406l-.059-.231ZM131.766 59.783c.381-.348.704-.58.586-1.073a.61.61 0 0 0-.614-.568.62.62 0 0 0-.295.075c-.704.26-.968.812-1.496 1.218a1.954 1.954 0 0 0 0-1.45.438.438 0 0 0-.176-.261h-.528a2.694 2.694 0 0 0-.851 1.363c0-.32-.762-.957-.997-1.044a2.463 2.463 0 0 0-.88-.203.74.74 0 0 0-.469 0 .522.522 0 0 0-.147.55c.077.198.197.376.352.523l.763.783.234.232a6.654 6.654 0 0 1-.821 0c-.147 0-.293 0-.44-.174a.622.622 0 0 0-.733.377c-.058.272-.012.555.129.796.141.24.366.422.633.509h1.174a3.595 3.595 0 0 0-.968.667 1.154 1.154 0 0 0-.323 1.073.435.435 0 0 0 0 .232h.645a5.013 5.013 0 0 0 1.115-.812 2.486 2.486 0 0 0 0 1.276c0 .377.381.783.763.725a.826.826 0 0 0 .645-.116 2.177 2.177 0 0 0 .704-1.74c.215.403.554.728.968.928a.797.797 0 0 0 .88 0 .722.722 0 0 0 .176-.464 1.946 1.946 0 0 0-.131-.887 1.976 1.976 0 0 0-.514-.737c.349.134.736.134 1.085 0a.936.936 0 0 0 .616-.812.456.456 0 0 0 0-.348h-.235a3.202 3.202 0 0 0-1.349 0l.499-.638Z"/><path fill="#fff" d="M122.349 67.41a.691.691 0 0 0-.235-.29.937.937 0 0 0-.352-.145 1.004 1.004 0 0 0-.968 0 .84.84 0 0 0 0 1.015 1.147 1.147 0 0 0 1.232.406.746.746 0 0 0 .323-.986ZM129.917 60.855a.695.695 0 0 0-.264-.406 1.065 1.065 0 0 0-.411-.174 1.304 1.304 0 0 0-.733 0 .69.69 0 0 0-.411.32.41.41 0 0 0 0 .202 1.128 1.128 0 0 0 0 .348.753.753 0 0 0 .235.406c.199.188.459.301.733.32a.922.922 0 0 0 .763-.32.92.92 0 0 0 0-.377c.05-.1.08-.208.088-.319Z"/><path fill="#9BCD8F" d="M108.064 75.965a3.208 3.208 0 0 0 0-1.044.997.997 0 0 0-.44-.667 1.394 1.394 0 0 0-1.437.29 4.268 4.268 0 0 0-1.35 1.71 3.881 3.881 0 0 0-.352 2.03c-.205-.927-.498-1.826-.762-2.725-.196-.49-.353-.994-.47-1.508.013-.452.19-.885.499-1.218a9.666 9.666 0 0 0 1.848-3.161 1.613 1.613 0 0 0-.469-1.624 1.507 1.507 0 0 0-1.878 0 2.545 2.545 0 0 0-.616 1.015 6.828 6.828 0 0 0-.381 2.639c-.21-.66-.455-1.309-.733-1.943v-.464c0-.203 0 0-.147-.145a4.564 4.564 0 0 0 .176-3.422 3.44 3.44 0 0 0-1.701-2.291 2.281 2.281 0 0 0-2.728.464c-.851 1.13 0 2.436.762 3.306a21.56 21.56 0 0 0 2.523 2.117c.235.174.381.783.499 1.015l.528 1.073a6.178 6.178 0 0 0-2.934-1.044 4.477 4.477 0 0 0-2.405.26c-.135.061-.255.15-.352.262a.804.804 0 0 0 0 .609 1.352 1.352 0 0 0 .645.986c.31.16.65.26.998.29.883.133 1.776.19 2.669.174.756.025 1.51.093 2.259.203.285.642.502 1.313.645 2 .205.639.323 1.277.499 1.886a7.143 7.143 0 0 0-2.934-1.827 1.746 1.746 0 0 0-1.73.174 1.294 1.294 0 0 0 0 1.479 4.076 4.076 0 0 0 2.522 1.769c.822.26 1.672.406 2.464.696.792.29.47.203.528.55.059.349.176.929.264 1.393.088.464 1.027.29.968 0l-.264-1.305a15.32 15.32 0 0 0 2.934-3.103 2.597 2.597 0 0 0-.147-.9Z"/><path fill="#CD4343" d="M169.224 290.971c-1.291-6.728-2.611-13.485-4.547-20.068a148.578 148.578 0 0 0-13.2-29.406c0-.261-.674-.348-1.085-.29a44.736 44.736 0 0 0-11-1.972c-7.627-.493-15.371 0-22.997.203h-3.198c-7.509-.174-15.077-.667-22.586-.174a44.732 44.732 0 0 0-11 1.972c-.44 0-.939 0-1.086.29a148.624 148.624 0 0 0-13.2 29.406c-1.906 6.554-3.226 13.282-4.517 19.981l108.416.058Z"/><path fill="#772929" d="M81.635 249.732a150.452 150.452 0 0 0-9.856 30.305c-.626 2.92-1.154 5.82-1.584 8.7 0 .232.733.29.792 0a149.237 149.237 0 0 1 8.008-30.682 168.293 168.293 0 0 1 3.402-8.294c.118-.203-.645-.261-.762-.029ZM81.957 267.77a21.058 21.058 0 0 1-1.701 4.988c0 .261.645.319.763 0a21.443 21.443 0 0 0 1.73-4.988c.059-.377-.616-.406-.792 0ZM121.939 275.919l-.294-12.702-.146-7.047c0-.261-.792-.261-.763 0l.293 12.702.294 12.702.146 7.134c0 .261.792.261.792 0l-.322-12.789ZM159.309 281.14a246.421 246.421 0 0 0-3.608-11.165 219.432 219.432 0 0 0-4.136-10.904 210.334 210.334 0 0 0-2.552-6.09c0-.232-.88-.174-.762 0a266.586 266.586 0 0 1 4.458 10.904 213.173 213.173 0 0 1 3.902 11.078 237.41 237.41 0 0 1 1.965 6.293c.059.232.821.203.733-.116ZM103.429 255.446a144.35 144.35 0 0 0-1.554 13.311c0 .261.762.261.792 0 .312-4.447.831-8.884 1.554-13.311.03-.261-.733-.29-.792 0ZM140.36 275.919c0-.261-.851-.232-.763 0a149.726 149.726 0 0 1 2.67 11.919c0 .261.821.232.762 0a166.6 166.6 0 0 0-2.669-11.919Z"/><path fill="#3E1C1A" d="M156.024 142.142a6.057 6.057 0 0 1-1.349 2.186 6.122 6.122 0 0 1-2.142 1.439 25.25 25.25 0 0 1-5.866 1.798 27.808 27.808 0 0 1-7.07.87 15.228 15.228 0 0 1-6.279-1.905 15.028 15.028 0 0 1-4.867-4.359 33.84 33.84 0 0 1-6.248-11.6 55.049 55.049 0 0 1-2.288-16.762c0-2.9 0-5.8.322-8.7.176-2.378-.264-4.727 0-7.105a23.909 23.909 0 0 1 2.259-7.25 53.224 53.224 0 0 1-12.261-.638 35.067 35.067 0 0 1-12.232-4.524 29.864 29.864 0 0 1-2.288-1.566 15.107 15.107 0 0 1-2.2-2 8.98 8.98 0 0 1-.851-1.132 11.796 11.796 0 0 1-1.115-3.364h48.136a12.88 12.88 0 0 1 1.467 2.9 37.927 37.927 0 0 1 2.933 11.92c.382 3.45.44 6.93.587 10.41.015 1.492.182 2.979.499 4.437a38.26 38.26 0 0 0 3.578 7.569 32.226 32.226 0 0 1 2.934 9.599 37.626 37.626 0 0 0 1.408 8.7c.433.993.923 1.961 1.466 2.9a8.623 8.623 0 0 1 1.467 6.177Z"/><path fill="#9BCD8F" d="M163.328 174.681c-.704 6.641-1.995 13.253-3.315 19.691-1.114 5.394-2.405 10.73-3.08 16.182a71.486 71.486 0 0 0 0 17.11c.646 5.423 1.643 10.469-.264 15.892-1.056 3.045-2.933 3.161-5.661 4.466a40.086 40.086 0 0 1-10.56 3.944c-8.536 1.479-17.6-1.334-26.107-2.146-8.91-.843-17.86-1.22-26.81-1.131-2.49.16-4.992-.045-7.422-.609a8.256 8.256 0 0 1-4.173-2.563 8.105 8.105 0 0 1-1.957-4.455c.1-3.066.433-6.119.997-9.135.368-3.343.18-6.723-.557-10.005-1.232-4.843-2.259-9.802-3.432-14.674-2.083-8.7-3.344-17.4-5.075-26.1a12.85 12.85 0 0 1 .147-6.322 123.265 123.265 0 0 1 0-13.92 62.297 62.297 0 0 1 1.408-13.398c1.584-5.8 5.866-7.917 11.733-8.903 2.493-.406 5.045-.638 7.51-1.131a24.12 24.12 0 0 0 2.933-.783l.498-.174c2.171-.812 4.224-1.914 6.454-2.581a85.979 85.979 0 0 1 8.36-2.088 67.516 67.516 0 0 1 16.925-.957c2.729.067 5.415.689 7.891 1.827a44.539 44.539 0 0 0 9.269 3.683c1.341.355 2.702.626 4.077.812h.616c4.078.522 8.654-.319 12.35 1.74a13.634 13.634 0 0 1 3.978 3.728 13.458 13.458 0 0 1 2.182 4.972 62.316 62.316 0 0 1 1.642 13.311 88.676 88.676 0 0 1-.557 13.717Z"/><path fill="#fff" d="M143.381 137.271a24.502 24.502 0 0 1-2.141 4.437 104.913 104.913 0 0 1-21.56 25.114c-1.144.986-2.024 2.697-3.813 2.552-1.79-.145-2.934-2.117-4.136-3.045a103.339 103.339 0 0 1-13.406-13.717c-2.317-2.9-4.458-5.8-6.629-8.7-.968-1.305-3.227-3.77-4.899-6.264a24.31 24.31 0 0 0 2.934-.783l.498-.174c2.171-.812 4.224-1.914 6.454-2.581a85.979 85.979 0 0 1 8.36-2.088 67.516 67.516 0 0 1 16.925-.957c2.729.067 5.415.689 7.891 1.827a44.572 44.572 0 0 0 9.269 3.683c1.401.323 2.822.556 4.253.696Z"/><path fill="#FFA382" d="M139.304 136.342v.261a17.444 17.444 0 0 1-2.405 6.09 87.6 87.6 0 0 1-18.011 20.967c-.939.812-1.672 2.263-3.168 2.118-1.496-.145-2.523-1.77-3.461-2.553a86.16 86.16 0 0 1-11.264-11.455c-1.936-2.349-3.726-4.843-5.544-7.278a39.81 39.81 0 0 1-5.544-7.831l.498-.174c2.171-.812 4.224-1.914 6.454-2.581a86.561 86.561 0 0 1 8.36-2.088 67.563 67.563 0 0 1 16.925-.957c2.729.068 5.415.69 7.891 1.827a44.488 44.488 0 0 0 9.269 3.654Z"/><path fill="#FBC9BE" d="M44.85 187.847a9.232 9.232 0 0 0-.322-1.595 29.904 29.904 0 0 0-1.232-3.219c-.44-1.044-.88-2.117-1.408-3.161a3.47 3.47 0 0 0-.794-1.176 3.531 3.531 0 0 0-1.2-.767 2.21 2.21 0 0 0-2.435.638 3.228 3.228 0 0 0-.382 2.755 4.81 4.81 0 0 0 1.73 2.581.542.542 0 0 0 .294 0 51.7 51.7 0 0 0 3.432 4.437c.294.348.616.812 1.086.928a1.007 1.007 0 0 0 1.114-.348c.146-.338.187-.712.118-1.073Z"/><path fill="#FFA382" d="M23.672 183.874c1.794.463 3.616.812 5.456 1.044 3.7.399 7.425.554 11.146.464 2.157.161 4.321-.197 6.307-1.044a4.201 4.201 0 0 0 1.286-1.926c.238-.749.26-1.548.063-2.308a36.017 36.017 0 0 0-.997-4.872 79.69 79.69 0 0 0-3.373-10.498 16.766 16.766 0 0 0-1.907-3.509 21.912 21.912 0 0 0-4.253-3.973 14.033 14.033 0 0 0-3.344-2.117c-2.934-1.102-5.544.377-8.184 1.334A79.016 79.016 0 0 0 8.8 164.502c-1.672 1.102-3.256 2.32-4.87 3.509a9.842 9.842 0 0 0-3.637 4.06c-.704 2.204 2.112 3.915 3.637 4.93a35.886 35.886 0 0 0 7.48 3.625c2.494.899 5.046 1.334 7.568 2.059 1.555.348 3.11.783 4.694 1.189Z"/><path fill="#9BCD8F" d="M82.485 139.213c-7.157-1.131-14.02 1.392-20.533 4.147a118.173 118.173 0 0 1-20.885 7.134 94.616 94.616 0 0 1-7.774 1.421l-3.96.464c-1.994.203-2.346 1.421-1.584 3.074a46.238 46.238 0 0 0 3.374 5.8c2.346 3.596 4.664 7.221 6.805 10.933a56.427 56.427 0 0 1 5.573 11.31c.329 1.076.536 2.185.616 3.306a4.989 4.989 0 0 1-.234 2.175.948.948 0 0 0 .117.493 46.015 46.015 0 0 0 6.453-.522c2.435-.174 4.9-.319 7.334-.551a32.712 32.712 0 0 0 15.458-5.133 17.388 17.388 0 0 0 7.128-10.498 85.468 85.468 0 0 0 2.171-15.196c.398-5.797.3-11.618-.293-17.4.733 0 1.29-.783.234-.957Z"/><path fill="#fff" d="M46.933 185.904a24.008 24.008 0 0 0-1.173-5.162 44.308 44.308 0 0 0-4.693-9.918c-3.755-6.206-8.419-11.948-11.734-18.415-1.936.232-2.288 1.421-1.525 3.074a46.24 46.24 0 0 0 3.373 5.8c2.347 3.596 4.664 7.221 6.806 10.933a56.39 56.39 0 0 1 5.573 11.31c.328 1.076.535 2.185.616 3.306a4.993 4.993 0 0 1-.235 2.175c-.02.157 0 .317.059.464a11.3 11.3 0 0 0 3.139 0c0-1.192-.07-2.383-.206-3.567Z"/><path fill="#FFA382" d="M42.475 102.47c-.323-1.566-2.318-2.9-3.726-3.654a7.317 7.317 0 0 0-1.085-.522 6.612 6.612 0 0 0-3.11-.377 8.548 8.548 0 0 0-1.29.174 9.19 9.19 0 0 0-3.696 1.942 9.058 9.058 0 0 0-2.435 3.365c-1.906 3.654-4.546 7.047-6.6 10.672-2.053 3.625-4.077 7.366-5.866 11.165-1.79 3.799-3.579 7.627-5.192 11.6a111.78 111.78 0 0 0-3.872 11.397C3.46 155.25.235 162.297 0 169.866a8.834 8.834 0 0 0 .293 2.9 6.748 6.748 0 0 0 1.877 2.735 6.862 6.862 0 0 0 2.963 1.528c2.244.513 4.59.362 6.747-.435a17.646 17.646 0 0 0 3.843-1.798 33.62 33.62 0 0 1 3.285-2.436c1.16-.339 2.26-.858 3.256-1.537a15.798 15.798 0 0 0 2.67-3.306 37.26 37.26 0 0 0 3.783-6.467 30.453 30.453 0 0 0 1.584-5.626c2.288-11.368 1.38-23.2 4.928-34.307a91.826 91.826 0 0 1 5.662-12.644 10.232 10.232 0 0 0 1.584-6.003Z"/><path fill="#FFA382" d="M70.546 95.742a8.238 8.238 0 0 0-2.757-.493c-.997 0-1.995.406-2.933-.29a3.457 3.457 0 0 1-.763-.957 29.75 29.75 0 0 0-3.99-6.032 4.333 4.333 0 0 1-.586-.696s2.2-2.726 2.435-2.9a65.013 65.013 0 0 0 2.347-3.364c1.466-2.262 2.64-4.64 3.989-6.96.54-.807.91-1.715 1.085-2.668a2.294 2.294 0 0 0-.616-1.972c-.968-.899-2.053-.203-2.61.667a78.004 78.004 0 0 1-10.209 11.745 25.354 25.354 0 0 1-3.226 2.9 5.083 5.083 0 0 0-1.29-.84 4.477 4.477 0 0 0-2.934 0 8.501 8.501 0 0 0-2.67 1.507 1.117 1.117 0 0 1-.351.203 1.216 1.216 0 0 1-.587 0 5.93 5.93 0 0 0-3.403.32 8.031 8.031 0 0 0-2.493 2.32 54.568 54.568 0 0 0-4.459 5.8 52.555 52.555 0 0 0-2.61 4.233 7.79 7.79 0 0 1-1.115 1.682 3.85 3.85 0 0 0-.264 4.379 8.715 8.715 0 0 0 1.496 1.827 10.702 10.702 0 0 0 2.728 2.175 7.5 7.5 0 0 0 4.547.522 27.652 27.652 0 0 1 4.253-.899 26.645 26.645 0 0 0 8.037-1.479c1.32-.435 2.64-.928 3.93-1.45.663-.218 1.31-.48 1.937-.783.352-.203.733-.783 1.232-.667.16.059.302.159.41.29l.998.986a3.315 3.315 0 0 0 4.048 1.015c.498-.319.528-.667.645-1.16a.26.26 0 0 1 0-.145h.323c.246.183.543.284.85.29.381-.02.746-.156 1.046-.39.3-.234.518-.553.626-.915a3.473 3.473 0 0 0-.175-2.523 1.636 1.636 0 0 1-.147-.783c0-.638 1.907-.87 2.464-1.044.43-.11.845-.276 1.232-.493.376-.216.65-.57.762-.986a1.551 1.551 0 0 0-.205-1.044 2.133 2.133 0 0 0-1.026-.928Z"/><path fill="#E26E61" d="M58.667 102.818a19.812 19.812 0 0 1-1.467-1.798h-.176c.21-.263.314-.593.293-.928a3.457 3.457 0 0 0-.586-1.537l-.998-1.71c-.616-1.045-1.173-2.089-1.877-3.075a15.196 15.196 0 0 0-2.728-2.755 34.34 34.34 0 0 1-2.933-2.9c-.176-.174-.91 0-.675.203a34.682 34.682 0 0 0 2.405 2.378c.822.725 1.672 1.392 2.406 2.175.712.831 1.331 1.735 1.848 2.697l1.76 2.9c.31.436.492.948.528 1.48a1.051 1.051 0 0 1-.821 1.044 2.392 2.392 0 0 1-1.438-.32 8.842 8.842 0 0 1-1.29-.725 31.34 31.34 0 0 1-4.254-4.06 5.508 5.508 0 0 0-1.29-1.015 12.602 12.602 0 0 1-1.585-.812 8.255 8.255 0 0 1-2.258-2.755c0-.232-.88-.145-.763 0a9.149 9.149 0 0 0 1.995 2.552 4.64 4.64 0 0 1-2.142.696s-.352 0-.264.232c.088.232.352 0 .47 0a5.531 5.531 0 0 0 2.434-.754c.333.227.686.42 1.056.58.517.22.993.525 1.408.9.792.724 1.467 1.536 2.23 2.32.721.77 1.517 1.47 2.376 2.087a6.314 6.314 0 0 0 2.933 1.276 2.36 2.36 0 0 0 1.32-.261c.438.604.908 1.185 1.408 1.74a.445.445 0 0 0 .235 0h.293s.147.261.147.145ZM65.208 103.747a9.118 9.118 0 0 0-.91-1.682l-1.114-1.769-2.259-3.625a36.972 36.972 0 0 0-2.258-3.277 25.402 25.402 0 0 0-2.934-2.9l-3.578-3.277c-.177-.174-.94 0-.675.203l3.139 2.9c1.03.912 2.01 1.88 2.933 2.9a25.317 25.317 0 0 1 2.23 3.277l2.229 3.538 1.26 2.001c.409.591.753 1.223 1.028 1.885.234.174 1.026.116.909-.174ZM67.467 99.774l-1.027-2.378-.557-1.218a2.346 2.346 0 0 0-.587-.928.238.238 0 0 0-.235 0 .259.259 0 0 0 0 .203c-.023.37.08.738.294 1.044l.528 1.13.997 2.263c.059.203.821.145.587-.116ZM59.459 87.1c-2.024-.956-4.166-1.623-6.16-2.58a.651.651 0 0 0-.557 0s-.147.203 0 .26c2.024.958 4.165 1.625 6.16 2.582a.65.65 0 0 0 .557 0s.146-.203 0-.261ZM42.65 99.745a16.147 16.147 0 0 1-1.583 4.785 7.43 7.43 0 0 1-1.35 2.059 3.835 3.835 0 0 1-1.76.957 3.616 3.616 0 0 1-2.229-.174.67.67 0 0 0-.557 0s-.147.203 0 .261a5.075 5.075 0 0 0 4.546-.377 5.21 5.21 0 0 0 1.672-1.885 16.05 16.05 0 0 0 1.203-2.581 16.59 16.59 0 0 0 .792-3.074c.088-.145-.704-.145-.733.029ZM28.952 160.065a45.293 45.293 0 0 1-7.07 10.295 24.252 24.252 0 0 1-2.669 2.378v.261a.618.618 0 0 0 .528 0 32.897 32.897 0 0 0 8.214-9.628c.616-1.015 1.173-2.059 1.73-3.103.147-.348-.616-.435-.733-.203Z"/><path fill="#FBC9BE" d="M195.8 142.549a5.775 5.775 0 0 0-1.789-3.596 5.648 5.648 0 0 0-4.048-1.189 4.192 4.192 0 0 0-1.92.576 4.128 4.128 0 0 0-1.424 1.396 6.97 6.97 0 0 0-.763 4.089c.079 1.304.335 2.591.763 3.828a15.234 15.234 0 0 0 5.192 7.018.628.628 0 0 0 .528 0s.205 0 .205-.174a4.266 4.266 0 0 0 1.504-1.069 4.197 4.197 0 0 0 .901-1.599 19.57 19.57 0 0 0 .851-4.611 20.031 20.031 0 0 0 0-4.669Z"/><path fill="#FFA382" d="M193.6 40.469a22.51 22.51 0 0 0-3.725.986 3.57 3.57 0 0 0-2.09 1.678 3.502 3.502 0 0 0-.316 2.643c1.15 4.61 2.061 9.276 2.728 13.978 1.056 8.845 2.112 17.719 2.934 26.593.381 4.495.733 8.99.909 13.485v10.237a5.38 5.38 0 0 0 .205 1.711c.266.643.69 1.211 1.232 1.653a20.235 20.235 0 0 0 6.16 3.045 13.566 13.566 0 0 0 6.542 1.566 18.092 18.092 0 0 0 4.928-1.073 13.524 13.524 0 0 0 6.101-3.77c1.349-1.943.675-5.8.381-7.83a138.164 138.164 0 0 0-2.082-11.455 185.661 185.661 0 0 0-8.36-24.65c-3.168-8.207-6.571-16.327-10.032-24.418-.558-1.276-.734-2.9-1.966-3.741a4.797 4.797 0 0 0-3.549-.638Z"/><path fill="#FFA382" d="M202.899 101.195a12.332 12.332 0 0 0-4.459 2.465 31.734 31.734 0 0 0-4.459 5.336 22.713 22.713 0 0 1-5.338 4.611c-4.752 3.364-9.328 6.989-13.816 10.672a26.287 26.287 0 0 0-3.139 2.9 24.119 24.119 0 0 0-4.693 13.804 30.544 30.544 0 0 0 0 7.714 12.027 12.027 0 0 0 3.138 6.902 12.392 12.392 0 0 0 3.432 2.291 9.417 9.417 0 0 0 5.222 1.218 12.182 12.182 0 0 0 3.608-2.378c3.578-2.639 6.805-5.365 10.09-8.323 5.251-4.727 8.243-11.31 12.702-16.733 1.76-2.146 3.696-4.147 5.514-6.235 1.819-2.088 3.579-4.901 5.339-7.279 1.76-2.378 4.224-5.481 3.432-8.7a9.91 9.91 0 0 0-5.133-5.423 16.935 16.935 0 0 0-9.328-3.161 9.656 9.656 0 0 0-2.112.319Z"/><path fill="#9BCD8F" d="M193.395 154.12a12.824 12.824 0 0 1-2.23 2.32 29.4 29.4 0 0 1-5.28 3.248 61.9 61.9 0 0 0-9.24 5.8 131.056 131.056 0 0 0-14.373 13.282c-1.877 1.943-3.931 4.089-6.864 2.668a15.893 15.893 0 0 1-5.867-5.568 43.746 43.746 0 0 1-5.866-17.4 60.197 60.197 0 0 1 0-19.198v-1.102a.377.377 0 0 1 .146-.232 9.01 9.01 0 0 1 2.217-2.974 9.137 9.137 0 0 1 3.239-1.84c3.696-1.392 7.686-1.566 11.323-3.19 3.637-1.624 7.099-3.596 10.619-5.452a45.632 45.632 0 0 0 8.653-5.539l.557-.493c0-.174.176-.29.382-.348.205-.058 2.053 0 1.496.464-.47 12.18-.587 27.057 10.765 35.032.176.145.528.29.323.522Z"/><path fill="#fff" d="M193.395 154.119a12.792 12.792 0 0 1-2.23 2.32 41.637 41.637 0 0 1-2.464-2.668 33.881 33.881 0 0 1-5.162-8.062 52.872 52.872 0 0 1-3.755-19.459 60.677 60.677 0 0 1 0-7.337l.557-.493c0-.174.176-.29.382-.348.205-.058 2.053 0 1.496.464-.47 12.18-.587 27.057 10.765 35.032.264.174.616.319.411.551Z"/><path fill="#FFA382" d="M200.816 16.573a14.4 14.4 0 0 0-1.056-1.334 31.729 31.729 0 0 0-3.725-3.857 11.02 11.02 0 0 0-4.811-2.407c-.851-.174-1.936 0-2.024.928-.016.366.044.73.176 1.073a3.142 3.142 0 0 0-2.64.841 2.876 2.876 0 0 0-.323 3.48 3.41 3.41 0 0 0-1.483.827 3.36 3.36 0 0 0-.893 1.435 3.22 3.22 0 0 0 .763 3.045 4.465 4.465 0 0 0-2.024 1.972 3.041 3.041 0 0 0-.055 2.258 3.09 3.09 0 0 0 1.522 1.686 8.58 8.58 0 0 0 2.464.986c.176.028.34.11.469.232a.78.78 0 0 1 0 .696 29.953 29.953 0 0 0-1.936 10.237 19.51 19.51 0 0 0 1.643 5.365c.217.614.545 1.184.968 1.682.289.282.615.526.968.725a10.122 10.122 0 0 0 3.696 1.45 6.28 6.28 0 0 0 4.018-.522 8.368 8.368 0 0 0 2.083-1.856c.282-.367.472-.795.554-1.249.082-.454.053-.92-.085-1.361a22.948 22.948 0 0 1-.645-7.134c0-1.189.352-2.349.587-3.509l.44-2.291c.352-1.682.674-3.364 1.202-4.988.537-1.42.94-2.886 1.203-4.379a5.747 5.747 0 0 0-1.056-4.031Z"/><path fill="#E26E61" d="M191.752 21.821a14.987 14.987 0 0 0-6.512-1.363s-.381 0-.381.203.293.203.381.203c2.025-.022 4.03.404 5.867 1.247a.65.65 0 0 0 .557 0s.235-.203.088-.29ZM194.891 17.704a14.776 14.776 0 0 0-8.272-2.9s-.382 0-.382.203.294.174.382.203a13.713 13.713 0 0 1 7.597 2.61.621.621 0 0 0 .528 0s.293 0 .147-.116ZM195.507 14.513a24.146 24.146 0 0 0-2.611-2.349 9.98 9.98 0 0 0-2.933-1.363.595.595 0 0 0-.528 0v.261c.969.291 1.881.742 2.698 1.334a26.311 26.311 0 0 1 2.494 2.233c.381.261 1.144.116.88-.116ZM189.405 28.579H188.995l-.44-.203a4.653 4.653 0 0 1-.822-.725.618.618 0 0 0-.528 0s-.264 0 0 .26c.551.467 1.189.821 1.878 1.045a.62.62 0 0 0 .528 0s-.088-.348-.206-.377Z"/><path fill="#324170" d="M162.301 138.517c0-1.295.049-2.59.147-3.886 0-.261-.763-.261-.792 0a78.916 78.916 0 0 0 .293 13.601c.137 1.296.313 2.581.528 3.857 0 .261.822.232.763 0a78.959 78.959 0 0 1-.939-13.572ZM170.573 130.745a161.888 161.888 0 0 0-3.109 11.31 171.16 171.16 0 0 0-2.317 11.6 181.612 181.612 0 0 0-.939 6.525c0 .261.733.261.763 0a169.913 169.913 0 0 1 1.818-11.6 150.517 150.517 0 0 1 2.64-11.368 185.404 185.404 0 0 1 1.878-6.409c.117-.232-.646-.29-.734-.058ZM163.504 169.17c0-.261-.792-.261-.762 0 .103 2 .103 4.004 0 6.003 0 .261.762.261.762 0a57.789 57.789 0 0 0 0-6.003ZM146.315 140.461a11.546 11.546 0 0 0-1.438-2.465.53.53 0 0 0-.469 0s-.381 0-.264.232c.58.76 1.062 1.588 1.437 2.465.059.087.851.029.734-.232ZM66.059 172.564v-3.451c0-.261-.763-.261-.763 0a75.451 75.451 0 0 0 .821 12.209c.176 1.14.372 2.271.587 3.393 0 .261.821.232.763 0a75.574 75.574 0 0 1-1.408-12.151ZM63.507 179.466c-2.67-2.61-5.34-5.249-7.862-8.004a80.169 80.169 0 0 1-7.07-8.7 52.324 52.324 0 0 1-3.255-5.191c0-.232-.88-.145-.763 0a57.963 57.963 0 0 0 6.219 9.251c2.346 2.9 4.898 5.626 7.51 8.294 1.495 1.508 2.932 2.9 4.517 4.495.205.232.968.116.704-.145ZM57.963 179.437c-1.32-.986-2.64-1.972-3.96-2.9a19.839 19.839 0 0 0-4.136-2.291.685.685 0 0 0-.558 0s-.146.203 0 .261a19.438 19.438 0 0 1 3.96 2.262c1.32.928 2.582 1.914 3.902 2.9a.617.617 0 0 0 .528 0s.41-.116.264-.232ZM114.195 247.065a63.039 63.039 0 0 1-7.803-7.134 61.802 61.802 0 0 1-6.453-8.323 52.606 52.606 0 0 1-2.934-5.075c0-.232-.88-.145-.762 0a61.35 61.35 0 0 0 5.602 8.874 63.159 63.159 0 0 0 7.099 7.859 62 62 0 0 0 4.576 3.886.62.62 0 0 0 .528 0s.352.029.147-.087ZM147.371 242.86a37.658 37.658 0 0 1-6.571-5.365c-.176-.174-.909 0-.675.203a37.677 37.677 0 0 0 6.542 5.365.648.648 0 0 0 .528 0s.352-.087.176-.203ZM155.467 217.136l-1.408 11.6c0 .261.733.261.792 0l1.408-11.6c.088-.261-.792-.29-.792 0Z"/><path fill="#FFA382" d="M135.989 136.517c-.616-1.421-2.082-2.233-3.285-3.248a13.14 13.14 0 0 1-4.341-8.7 22.572 22.572 0 0 1 .352-6.757 8.42 8.42 0 0 0 .557-2.9c-.205-.87-1.32-.464-1.965-.377a30.13 30.13 0 0 0-12.174 4.872 30.126 30.126 0 0 0-12.173-4.756c-.645 0-1.76-.493-1.965.377a8.42 8.42 0 0 0 .557 2.9c.456 2.222.575 4.5.352 6.757a13.112 13.112 0 0 1-4.341 8.7c-1.203 1.015-2.699 1.827-3.286 3.248a.989.989 0 0 0 .381 1.102 10.774 10.774 0 0 0 5.867 1.363c2.259.232 4.43.899 6.688 1.247 2.693.404 5.437.315 8.096-.261 2.604.494 5.277.523 7.891.087 2.229-.348 4.429-1.015 6.688-1.247a10.778 10.778 0 0 0 5.867-1.363.988.988 0 0 0 .381-.522.944.944 0 0 0-.147-.522Z"/><path fill="#E26E61" d="M126.515 117.986a4.369 4.369 0 0 0-.419-2.201 4.42 4.42 0 0 0-1.458-1.714 9.5 9.5 0 0 0-4.371-2.436h-.352a16.944 16.944 0 0 0-4.781-.464 16.934 16.934 0 0 0-4.782.261H110a9.49 9.49 0 0 0-4.4 2.639 4.418 4.418 0 0 0-1.475 1.709 4.37 4.37 0 0 0-.432 2.206 5.146 5.146 0 0 0 .587 2.494 11.672 11.672 0 0 0 4.582 4.318 11.845 11.845 0 0 0 6.184 1.337c2.146.123 4.285-.34 6.183-1.337a11.672 11.672 0 0 0 4.582-4.318 5.147 5.147 0 0 0 .704-2.494Z"/><path fill="#3E1C1A" d="M93.427 78.227a.882.882 0 0 0-.705-.232l.382-.493h-1.672c-5.486 6.96-5.104 16.849-6.043 25.114a19.064 19.064 0 0 1-.704 3.741 19.995 19.995 0 0 1-1.672 3.567 38.508 38.508 0 0 0-4.165 7.859 72.51 72.51 0 0 0-1.643 12.122 25.193 25.193 0 0 1-2.464 10.904c-1.026 1.624-2.258 3.103-3.11 4.785a19.06 19.06 0 0 0-1.7 11.774c.205 1.189.528 2.349.645 3.538a18.566 18.566 0 0 1-.997 6.641c-.792 2.9-2.054 6.351-.763 9.164a8.49 8.49 0 0 0 2.654 3.226 8.629 8.629 0 0 0 3.887 1.588c.645 0 1.29 0 1.936.203a19.233 19.233 0 0 1 5.221 2.9 11.538 11.538 0 0 0 5.72 1.515c2.009 0 3.981-.522 5.72-1.515a11.629 11.629 0 0 0 3.345-4.091 11.493 11.493 0 0 0 1.173-5.131 35.775 35.775 0 0 0-1.173-6.38 16.862 16.862 0 0 1 0-5.8 39.237 39.237 0 0 1 3.079-8.99 19.332 19.332 0 0 0 1.672-9.454 97.031 97.031 0 0 1-.88-10.411c0-2.9 1.262-5.481 1.467-8.294a22.66 22.66 0 0 0-.968-8.41 18.114 18.114 0 0 1-.88-3.248 15.232 15.232 0 0 1 .499-4.582c.68-3.302.799-6.693.352-10.034a51.24 51.24 0 0 0-8.213-21.576Z"/><path fill="#FFA382" d="M123.669 84.346c-3.96-.725-7.949-.551-11.939-.986a13.174 13.174 0 0 1-5.116-1.95 13.014 13.014 0 0 1-3.86-3.85h-.41a5.268 5.268 0 0 0-1.819.55c-1.115 3.887-4.136 7.164-6.072 10.76V92.466c.114 2.38.368 4.753.763 7.105.381 1.972.235 4.002.616 6.003a26.396 26.396 0 0 0 4.928 10.904 28.726 28.726 0 0 0 9.914 7.047 8.6 8.6 0 0 0 2.435.899c.83.055 1.663.055 2.493 0a7.764 7.764 0 0 0 3.99-1.015 28.726 28.726 0 0 0 9.914-7.047 26.35 26.35 0 0 0 4.899-10.991c.381-2.001.235-4.031.616-6.003.29-1.776.466-3.568.528-5.365v-1.914a28.665 28.665 0 0 0-2.933-3.335 17.678 17.678 0 0 0-8.947-4.408Z"/><path fill="#3E1C1A" d="M139.48 95.975c-.205.667-1.789 1.218-2.259.522l-1.672-2.291-.938-1.247a26.903 26.903 0 0 0-3.96-4.147 18.852 18.852 0 0 0-10.619-3.741c-2.112-.203-4.224-.29-6.336-.377a19.129 19.129 0 0 1-5.427-.812 14.653 14.653 0 0 1-6.336-4.756 27.678 27.678 0 0 1-3.667 6.467 22.038 22.038 0 0 0-3.666 6.989 9.292 9.292 0 0 0-.206 3.393c0 .783-1.378.145-1.613 0a3.45 3.45 0 0 1-.921-1.316 3.414 3.414 0 0 1-.223-1.584 25.155 25.155 0 0 1 2.23-11.107l.205-.435a13.187 13.187 0 0 1 2.728-4.06h25.285a30.4 30.4 0 0 1 7.95 3.277 21.168 21.168 0 0 1 6.922 7.714 28.801 28.801 0 0 1 2.523 6.148c.128.445.128.917 0 1.363Z"/><path fill="#FFA382" d="M132 105.516a6.749 6.749 0 0 1 0-3.335c.235-.928.763-1.682.968-2.61a6.961 6.961 0 0 1 2.405-4.785 2.958 2.958 0 0 1 2.67-.32 3.23 3.23 0 0 1 1.525 1.74c.441.997.644 2.08.594 3.167a7.026 7.026 0 0 1-.887 3.098 9.205 9.205 0 0 1-5.222 3.944 1.716 1.716 0 0 1-1.525 0 1.45 1.45 0 0 1-.528-.899ZM98.179 105.516a6.742 6.742 0 0 0 0-3.335c-.235-.928-.763-1.682-.968-2.61a6.961 6.961 0 0 0-2.406-4.785 2.954 2.954 0 0 0-2.669-.32 3.23 3.23 0 0 0-1.525 1.74 7.006 7.006 0 0 0 .322 6.265 9.204 9.204 0 0 0 5.222 3.944 1.721 1.721 0 0 0 1.525 0c.271-.23.449-.55.499-.899Z"/><path fill="#3E1C1A" d="M109.677 90.87c-.176-.754-1.026-.87-1.818-1.073a10.942 10.942 0 0 0-3.403-.435 13.5 13.5 0 0 0-3.989.957l-.587.232-.44.232c-.41.232-1.173.551-1.379 1.015-.205.464.264.261.587.145l1.936-.609a12.73 12.73 0 0 1 2.083-.464 9.28 9.28 0 0 1 3.872.464c.528.174 2.522.928 2.933.348a.684.684 0 0 0 0-.348c.095-.141.165-.298.205-.464ZM120.443 90.87c.176-.754 1.027-.87 1.819-1.073a10.936 10.936 0 0 1 3.402-.435c1.372.115 2.717.437 3.99.957l.586.232.44.232c.411.232 1.174.551 1.379 1.015.205.464-.264.261-.587.145l-1.936-.609a12.709 12.709 0 0 0-2.2-.522 9.28 9.28 0 0 0-3.872.464c-.528.174-2.522.928-2.933.348a.684.684 0 0 1 0-.348 1.45 1.45 0 0 1-.088-.406Z"/><path fill="#020808" d="M105.6 95.54a1.711 1.711 0 0 0-1.404-.274 1.71 1.71 0 0 0-1.119.882 2.874 2.874 0 0 0 .704 3.422 1.716 1.716 0 0 0 1.672 0 1.401 1.401 0 0 0 .792-.986c.235-.928.294-2.378-.645-3.045ZM126.515 95.54a1.711 1.711 0 0 0-1.404-.274 1.71 1.71 0 0 0-1.119.882 2.87 2.87 0 0 0-.254 1.818c.116.617.432 1.18.899 1.604a1.69 1.69 0 0 0 1.672 0 1.387 1.387 0 0 0 .792-.986c.264-.928.323-2.378-.586-3.045Z"/><path fill="#E26E61" d="M114.4 107.922a7.823 7.823 0 0 0-1.76-1.015.688.688 0 0 0-.557 0l.85.435.763.522a.617.617 0 0 0 .528 0s.176.145.176.058ZM118.008 107.023a3.245 3.245 0 0 0-1.291.319 7.56 7.56 0 0 0-1.056.522.64.64 0 0 0 .557 0l.939-.493.44-.174h.411s.381 0 .381-.203-.264.029-.381.029ZM113.08 92.64c-.205 0-.909 0-.557.26a4.669 4.669 0 0 1 1.474 2.125c.28.83.318 1.722.11 2.574 0 .986-.294 2-.411 2.9-.117.899-.264 2.03-.352 3.074 0 .261.763.261.792 0 .098-1.083.225-2.156.381-3.219 0-1.044.323-2.088.411-3.132.152-.858.06-1.741-.267-2.55a4.698 4.698 0 0 0-1.581-2.032Z"/><path fill="#fff" d="M120.266 112.04h-10.53c-.176 0-1.907 0-1.379.406a28.063 28.063 0 0 0 3.549 2.9 5.26 5.26 0 0 0 1.144.464l.792.174c.799.1 1.607.1 2.406 0l.792-.174a5.26 5.26 0 0 0 1.144-.464 27.752 27.752 0 0 0 3.549-2.9c.557-.435-1.173-.406-1.467-.406Z"/><path fill="#020808" d="M84.715 114.651a15.27 15.27 0 0 0-2.934 5.8 23.913 23.913 0 0 0-1.29 6.757 9.503 9.503 0 0 0 .704 3.712c0 .232.85.174.762 0a11.475 11.475 0 0 1-.352-6.612c.206-1.131.528-2.233.85-3.335.286-.986.629-1.954 1.028-2.9a11.575 11.575 0 0 1 1.877-3.103c.264-.406-.499-.522-.645-.319ZM86.064 128.077a12.245 12.245 0 0 1-.322-5.8c0-.232-.734-.29-.763 0a12.418 12.418 0 0 0 .352 5.8c.059.348.821.29.733 0ZM77.88 148.407a13.418 13.418 0 0 0-.528 10.44c0 .232.85.174.763 0a13.202 13.202 0 0 1 .528-10.237c.117-.348-.646-.435-.763-.203ZM81.81 153.336c0-.232-.732-.261-.762 0a18.922 18.922 0 0 0 0 3.77c0 .261.792.261.792 0a18.922 18.922 0 0 1-.03-3.77ZM93.867 174.159c0-.261-.822-.232-.763 0a6.224 6.224 0 0 1 0 3.799 5.85 5.85 0 0 1-2.67 2.349v.261a.653.653 0 0 0 .558 0 6.472 6.472 0 0 0 2.933-2.436 6.197 6.197 0 0 0-.058-3.973ZM144.672 116.623c-.176-.174-.939 0-.675.203a9.616 9.616 0 0 1 2.344 3.531 9.533 9.533 0 0 1 .59 4.183c0 .261.762.261.792 0a9.788 9.788 0 0 0-.625-4.298 9.876 9.876 0 0 0-2.426-3.619ZM114.605 82.17a13.24 13.24 0 0 1-7.333-2.493.621.621 0 0 0-.528 0s-.293.145 0 .26a14.394 14.394 0 0 0 8.008 2.669s.381 0 .381-.203-.41-.232-.528-.232ZM137.691 80.46c-.176-.174-.939 0-.675.203a11.144 11.144 0 0 1 3.52 7.308c0 .261.792.261.792 0a11.546 11.546 0 0 0-3.637-7.511ZM135.755 87.217a8.683 8.683 0 0 0-2.288-4.176c-.176-.174-.91 0-.675.203a8.406 8.406 0 0 1 2.141 3.973c0 .261.88.232.822 0Z"/></g><defs><clipPath id="a"><path fill="#fff" d="M0 .97h220v290H0z"/></clipPath></defs></svg>