<svg xmlns="http://www.w3.org/2000/svg" width="360" height="227" fill="none"><g clip-path="url(#a)"><path fill="#9BCD8F" d="M360 226.971H0l18.411-28.376.54-.828.9-1.382.566-.878.643-.98.617-.954 4.063-6.278 2.211-3.39H332.05L360 226.971Z"/><path fill="#9BCD8F" d="M52.56 216.725c-1.692-4.225-4.73-7.808-8.666-10.22a34.546 34.546 0 0 0-13.32-3.892c-4.551-.678-9.103-1.407-13.705-1.633L0 226.97h55.517a89.995 89.995 0 0 0-2.957-10.245ZM40.423 190.71a74.574 74.574 0 0 1 21.214 5.022c6.18 2.298 11.603 6.196 15.686 11.275 3.883 5.022 5.889 11.074 8.589 16.749a93.17 93.17 0 0 0 1.62 3.214H144l-1.44-.652c-10.388-4.37-22.86-4.495-31.988-11.903-4.5-3.717-7.303-9.015-11.572-12.983a40.511 40.511 0 0 0-13.731-7.734c-18.72-6.905-39.24-7.382-59.555-6.403l-2.057 3.164c5.587-.344 11.193-.26 16.766.251ZM345.6 226.971h-27.951a91.454 91.454 0 0 0-4.115-16.749c-3.894-10.852-11.399-20.117-21.317-26.317h13.32a113.155 113.155 0 0 1 20.417 15.067 99.428 99.428 0 0 1 19.646 27.999Z"/><path fill="#9BCD8F" d="M297.283 191.087a48.866 48.866 0 0 0-7.714-7.182h-1.98c13.937 10.045 20.571 26.794 22.705 43.066h1.646c-1.62-12.983-5.786-25.588-14.657-35.884Zm-13.063-7.182h-1.98c13.783 10.045 20.366 26.844 22.423 43.066h1.646c-1.672-13.083-5.812-25.764-14.735-36.11a48.79 48.79 0 0 0-7.354-6.956Zm-5.4 0h-1.954c13.628 10.22 20.134 26.894 22.14 43.066h1.645c-1.645-13.158-5.785-25.94-14.785-36.361a48.578 48.578 0 0 0-7.02-6.705h-.026ZM66.857 208.237a42.222 42.222 0 0 0-14.631-9.617 64.522 64.522 0 0 0-17.1-5.023 48.666 48.666 0 0 0-13.423 0l-.617.955a53.444 53.444 0 0 1 28.8 4.269 43.124 43.124 0 0 1 14.914 9.366 44.974 44.974 0 0 1 8.486 14.113 147.56 147.56 0 0 1 1.825 4.695h1.775a55.436 55.436 0 0 0-10.029-18.758Zm-17.074-5.926a64.288 64.288 0 0 0-16.766-5.926 49.002 49.002 0 0 0-12.549-.879l-.591.904a53.836 53.836 0 0 1 27.514 5.951 42.808 42.808 0 0 1 14.323 10.195 44.653 44.653 0 0 1 7.56 14.414h1.749a45.444 45.444 0 0 0-7.277-14.238 41.939 41.939 0 0 0-14.015-10.421h.052Zm-14.863-2.687a69.356 69.356 0 0 0-15.943-1.833l-.54.829a52.998 52.998 0 0 1 27.18 6.403 30.548 30.548 0 0 1 9.694 9.04 48.584 48.584 0 0 1 5.683 12.782v.125h1.723a50.921 50.921 0 0 0-5.143-12.304c-5.268-7.704-13.404-13.1-22.68-15.042h.026ZM265.114 213.511a115.602 115.602 0 0 0-10.028-6.152c-3.086-1.632-6.429-2.988-9.695-4.344-6.403-2.712-12.857-5.801-16.971-11.376a26.693 26.693 0 0 1-4.063-7.759h-1.723a26.98 26.98 0 0 0 2.572 5.625c3.631 5.518 8.895 9.828 15.094 12.354 3.24 1.507 6.583 2.788 9.848 4.269a78.136 78.136 0 0 1 10.286 5.625 70.784 70.784 0 0 1 16.766 13.259 27.704 27.704 0 0 1 1.466 1.933h1.62a53.572 53.572 0 0 0-15.172-13.434Zm-10.466 0a115.206 115.206 0 0 0-10.028-6.152c-3.137-1.632-6.429-2.963-9.669-4.344-6.403-2.712-12.857-5.801-16.971-11.376a26.632 26.632 0 0 1-4.063-7.759h-1.723a26.98 26.98 0 0 0 2.572 5.625c3.624 5.515 8.879 9.823 15.068 12.354 3.24 1.507 6.583 2.788 9.849 4.269a78.188 78.188 0 0 1 10.285 5.625 70.784 70.784 0 0 1 16.766 13.259 27.704 27.704 0 0 1 1.466 1.933h1.8a53.604 53.604 0 0 0-15.429-13.434h.077Zm-10.465 0a115.373 115.373 0 0 0-10.029-6.152c-3.137-1.632-6.428-2.963-9.668-4.344-6.403-2.712-12.858-5.801-16.972-11.376a26.608 26.608 0 0 1-4.063-7.759h-1.748a26.953 26.953 0 0 0 2.571 5.625c3.638 5.522 8.912 9.832 15.12 12.354 3.24 1.507 6.583 2.788 9.849 4.269a78.188 78.188 0 0 1 10.285 5.625 70.764 70.764 0 0 1 16.766 13.259 27.704 27.704 0 0 1 1.466 1.933h1.826a53.604 53.604 0 0 0-15.3-13.434h-.103Zm-10.466 0a115.574 115.574 0 0 0-10.003-6.127c-3.137-1.632-6.428-2.963-9.668-4.344-6.403-2.712-12.858-5.801-16.972-11.376a26.632 26.632 0 0 1-4.063-7.759h-1.723a26.957 26.957 0 0 0 2.572 5.625c3.628 5.505 8.883 9.805 15.068 12.329 3.24 1.507 6.583 2.788 9.849 4.269a78.06 78.06 0 0 1 10.08 5.776 70.784 70.784 0 0 1 16.766 13.259 27.155 27.155 0 0 1 1.465 1.933h1.826a53.558 53.558 0 0 0-15.171-13.585h-.026Zm-10.466 0a115.206 115.206 0 0 0-10.028-6.152c-3.137-1.632-6.429-2.963-9.669-4.344-6.403-2.712-12.857-5.801-16.971-11.376a26.587 26.587 0 0 1-4.012-7.734h-1.748c.638 1.963 1.5 3.85 2.571 5.625 3.628 5.505 8.883 9.805 15.069 12.329 3.24 1.507 6.583 2.788 9.848 4.269a78.094 78.094 0 0 1 10.26 5.776 70.784 70.784 0 0 1 16.766 13.259 27.47 27.47 0 0 1 1.466 1.933h1.825a53.565 53.565 0 0 0-15.351-13.585h-.026Z"/><path fill="#9BCD8F" d="M133.226 185.838c0 2.511-22.886 4.47-51.146 4.47s-51.223-2.009-51.223-4.47c0-.678 1.774-1.331 4.937-1.908h92.52c3.163.552 4.912 1.205 4.912 1.908ZM166.783 218.03c69.347 0 125.563-5.632 125.563-12.58s-56.216-12.581-125.563-12.581c-69.346 0-125.563 5.633-125.563 12.581 0 6.948 56.217 12.58 125.563 12.58Z" opacity=".6" style="mix-blend-mode:multiply"/><path fill="#9BCD8F" d="M100.286 124.341a10.51 10.51 0 0 0-2.109-2.838 5.893 5.893 0 0 1-1.671-3.44 15.331 15.331 0 0 0-1.594-5.75 9.31 9.31 0 0 0-5.452-3.365 58.22 58.22 0 0 1-7.045-3.641 17.226 17.226 0 0 0-7.91-2.074 17.25 17.25 0 0 0-7.982 1.798c-.308.15-.386.376-.283.552a11.28 11.28 0 0 0-2.828 3.691 4.917 4.917 0 0 0 .462 4.294c1.955 3.692 3.91 7.534 6.12 10.999 2.212 3.465 5.375 5.324 7.895 8.111a47.82 47.82 0 0 1 6.351 9.191c2.006 3.666 3.677 7.533 5.323 11.325.309.703 2.263.477 2.572-.151a48.615 48.615 0 0 1 3.78-6.428 30.176 30.176 0 0 0 2.57-7.207c1.39-4.596 3.91-10.371 1.801-15.067Z"/><path fill="#E8EFF5" d="M88.586 139.885a31.167 31.167 0 0 1-3.986-6.981 63.294 63.294 0 0 0-3.24-7.006 19.441 19.441 0 0 0-1.157-1.758s.18 0 .18-.176a33.138 33.138 0 0 1 .206-7.533 65.75 65.75 0 0 0 1.491-7.282 9.116 9.116 0 0 0-.54-3.968c0-.226-.874-.125-.746.151a11.98 11.98 0 0 1 0 7.232c-.282 1.18-.617 2.335-.848 3.54a21.382 21.382 0 0 0-.386 3.692v3.591l-.514-.628a23.936 23.936 0 0 1-2.443-3.214 32.53 32.53 0 0 0-4.011-6.303c-1.08-1.105-2.366-2.009-3.498-3.039-1.131-1.029-2.314-2.209-3.445-3.365-.18-.175-.926 0-.669.226 1.003 1.005 2.006 2.034 3.06 2.989 1.054.954 2.134 1.808 3.189 2.712a22.57 22.57 0 0 1 4.268 6.227 20.015 20.015 0 0 0 2.186 3.139c.931.996 1.79 2.053 2.571 3.164a45.138 45.138 0 0 1 3.318 6.906l.231.552a7.152 7.152 0 0 1-1.26-.301 8.74 8.74 0 0 0-1.26-.377c-.977-.176-1.954-.301-2.906-.427a.628.628 0 0 0-.54 0s0 .226.155.251c1.002.151 2.031.251 3.008.452.444.113.882.247 1.312.402a8.5 8.5 0 0 0 1.465.301h.18a31.468 31.468 0 0 0 3.909 6.856c.128.326.874.176.72-.025Z"/><path fill="#9BCD8F" d="M109.826 101.942c-1.003 2.11-2.109 4.169-2.958 6.328-.848 2.16-1.62 4.746-2.571 7.082a78.802 78.802 0 0 1-3.703 8.412c-.72 1.406-2.571 6.428-4.757 5.851-2.186-.578-2.571-5.851-2.829-7.785a61.367 61.367 0 0 0-.797-7.307 24.596 24.596 0 0 0-5.425-10.044c-2.572-2.964-5.323-5.625-7.946-8.463a21.37 21.37 0 0 1-3.446-4.645 13.316 13.316 0 0 1-.514-10.045 7.107 7.107 0 0 1 2.109-2.963 12.893 12.893 0 0 1 12.24-.954 29.935 29.935 0 0 1 10.62 5.75 20.02 20.02 0 0 0 3.394 3.064c.687.402 1.42.723 2.185.954 1.003.326 2.058.578 3.035.93 6.351 2.26 3.445 9.491 1.363 13.835Z"/><path fill="#E8EFF5" d="M105.428 87.102a15.194 15.194 0 0 1-3.728-1.005 76.26 76.26 0 0 1-7.509-4.067 16.238 16.238 0 0 0-8.151-2.512c-2.058.14-4.099.469-6.094.98a36.652 36.652 0 0 1-3.806.678 4.244 4.244 0 0 1-1.26 0 7.106 7.106 0 0 1 2.109-2.963 12.893 12.893 0 0 1 12.24-.954 29.935 29.935 0 0 1 10.62 5.75 20.016 20.016 0 0 0 3.394 3.063c.683.429 1.417.775 2.185 1.03ZM93.806 117.762c-.12-1.006-.3-2.003-.54-2.988a14.143 14.143 0 0 0-1.055-2.762 32.82 32.82 0 0 0-1.722-3.064c-.129-.226-.9 0-.746.151a20.693 20.693 0 0 1 2.571 5.323c.474 2.018.8 4.065.978 6.127l.462 3.591c0 .277.823.201.772 0l-.72-6.378Z"/><path fill="#E8EFF5" d="M109.106 90.642A6.543 6.543 0 0 1 108 94.434c-.772 1.18-1.517 2.31-2.186 3.54a38.377 38.377 0 0 1-4.166 6.78 12.064 12.064 0 0 1-2.777 2.511c0-1.305-.231-2.511-.385-3.892a13.577 13.577 0 0 0-.772-3.993 6.286 6.286 0 0 0-2.211-2.636c.514-4.796-1.415-9.367-3.035-13.811a52.083 52.083 0 0 1-1.337-3.993c0-.276-.848-.176-.797 0 1.312 4.62 3.626 8.965 4.294 13.761a16.877 16.877 0 0 1 0 3.59c-1.26-.752-2.571-1.405-3.78-2.209-1.208-.803-2.571-1.858-3.96-2.863h-.308c-1.054-.853-2.109-1.707-3.137-2.51a47.494 47.494 0 0 1-4.012-3.617 14.13 14.13 0 0 1-2.571-4.143c0-.226-.874-.126-.746.15a14.15 14.15 0 0 0 2.289 3.742 31.385 31.385 0 0 0 3.42 3.214c1.337 1.155 2.571 2.31 4.063 3.415-3.266.653-6.969 1.206-9.772-.903-.206-.151-.951 0-.668.226 3.111 2.335 7.251 1.732 10.851 1.004a53.649 53.649 0 0 0 2.803 2.084 42.41 42.41 0 0 0 3.908 2.511 8.747 8.747 0 0 1 3.343 2.511 9.163 9.163 0 0 1 1.235 3.817 91.78 91.78 0 0 1 .488 4.571c.192 2.221.243 4.452.154 6.679-.154-.301-.282-.628-.411-.929a4.418 4.418 0 0 0-1.363-1.381 18.41 18.41 0 0 1-1.671-1.632l-1.697-1.783a.52.52 0 0 0-.489 0s-.386.125-.257.251l1.697 1.783a20.895 20.895 0 0 0 1.646 1.632c.283.251.591.452.874.703.229.224.412.488.54.779a3.94 3.94 0 0 0 .926 1.556h.128c0 .955-.18 1.934-.334 2.888 0 .226.746.226.797 0 .484-3.2.588-6.444.309-9.668v-.326a14.738 14.738 0 0 0 5.143-5.399c1.491-2.511 2.571-5.022 4.268-7.383a8.309 8.309 0 0 0 1.106-2.059 6.605 6.605 0 0 0 .334-2.235c.129-.426-.668-.401-.668-.125Z"/><path fill="#E8EFF5" d="M124.586 126.526c-.617-2.135-.669-4.319-1.131-6.454-1.8-8.261-12.626-9.241-19.415-6.328a17.834 17.834 0 0 0-7.843 7.157 36.23 36.23 0 0 1-6.377 8.588c-1.645 1.381-3.523 2.511-4.268 4.57a11.95 11.95 0 0 0 0 6.127 88.554 88.554 0 0 0 1.62 7.358c.067.94.33 1.857.771 2.694a6.952 6.952 0 0 0 1.8 2.177 2.194 2.194 0 0 0 1.8 0c.231 0 .669-.401.617-.652 2.61-3.581 6.35-6.227 10.646-7.534a55.133 55.133 0 0 0 6.274-1.456 54.613 54.613 0 0 0 6.326-2.662 25 25 0 0 0 5.451-3.013 15.623 15.623 0 0 0 3.498-4.897 7.233 7.233 0 0 0 .231-5.675Z"/><path fill="#9BCD8F" d="M124.2 131.096c0-.151-.36 0-.489 0a9.703 9.703 0 0 0-3.522.954c-1.08.603-1.955 1.432-3.086 1.934a26.888 26.888 0 0 1-3.677 1.281 12.264 12.264 0 0 1-3.986.426c-1.19-.08-2.384-.08-3.574 0A30.72 30.72 0 0 0 108 133.18a.192.192 0 0 0 .084-.059.2.2 0 0 0 .045-.091 30.787 30.787 0 0 0 2.571-3.943 21.005 21.005 0 0 1 2.443-3.691 10.872 10.872 0 0 0 2.186-3.214c.977-2.662.437-5.65 1.774-8.212.128-.251-.643-.301-.772 0a28.619 28.619 0 0 0-1.491 7.232 8.125 8.125 0 0 1-1.826 3.441 32.86 32.86 0 0 0-1.26 1.506 15.067 15.067 0 0 0-1.105 1.758c-.695 1.23-1.363 2.511-2.16 3.616l-.283.402a21.29 21.29 0 0 0-.952-5.977c-.694-2.26-1.928-4.344-2.571-6.629a7.925 7.925 0 0 1 0-3.942c0-.302-.694-.302-.772 0a10.671 10.671 0 0 0 1.055 6.754c.463 1.105.951 2.185 1.363 3.29.405 1.169.706 2.371.9 3.591.211 1.329.297 2.673.257 4.018-.48.619-.986 1.222-1.517 1.808l-.952.979s-.154 0-.154.151a38.207 38.207 0 0 1-1.929 1.757c-1.147.9-2.19 1.919-3.111 3.039a16.657 16.657 0 0 0-2.109 3.591 5.04 5.04 0 0 1-2.263 2.888c-.154 0 0 .2 0 .276a.687.687 0 0 0 .566 0 4.732 4.732 0 0 0 2.134-2.386c.465-1.13.989-2.236 1.569-3.314a32.322 32.322 0 0 1 5.709-5.826c1.256-.13 2.523-.13 3.78 0a13.698 13.698 0 0 0 3.934-.352 31.685 31.685 0 0 0 3.703-1.18 10.617 10.617 0 0 0 1.671-.778c.514-.302.977-.653 1.44-1.005a6.544 6.544 0 0 1 1.8-.929c.707-.194 1.43-.328 2.16-.402 0 0 .36-.1.283-.251Z"/><path fill="#9BCD8F" d="M94.886 143.325a39.453 39.453 0 0 0-1.646-3.29c-.566-1.029-1.234-2.008-1.723-3.063a10.022 10.022 0 0 1-.746-3.265 8.196 8.196 0 0 0-.771-3.465c-.129-.226-.9 0-.746.151 1.132 1.883.643 4.193 1.414 6.202a21.484 21.484 0 0 0 1.646 3.064 47.71 47.71 0 0 1 1.672 3.214 7.4 7.4 0 0 1 1.105 3.892c0 .251.746.226.797 0a6.49 6.49 0 0 0-1.002-3.44Z"/><path fill="#E8EFF5" d="M91.234 162.41c-.951 0-2.108 0-2.571-.477a48.952 48.952 0 0 0-3.806-4.771 28.37 28.37 0 0 0-5.143-3.013 36.007 36.007 0 0 1-5.142-3.817 12.032 12.032 0 0 0-1.39-1.005 12.794 12.794 0 0 0-4.5-1.682c-2.236-.427-4.525-.553-6.762-.779-2.06-.082-4.1-.428-6.069-1.029-1.62-.628-1.131-2.511-.514-3.641a10.127 10.127 0 0 1 3.806-4.169 15.551 15.551 0 0 1 6.788-1.456c.717-.003 1.432.064 2.135.201a32.173 32.173 0 0 1 13.5 6.729 15.094 15.094 0 0 0 5.323 3.717 7.692 7.692 0 0 1 3.883 2.913 8.225 8.225 0 0 1 2.365 5.022c.18 1.934 0 3.917 0 5.851a1.322 1.322 0 0 1-.283 1.155 1.284 1.284 0 0 1-.591.226l-1.029.025Z"/><path fill="#9BCD8F" d="M73.106 149.327a12.795 12.795 0 0 0-4.5-1.682c-2.237-.427-4.526-.553-6.763-.779-2.06-.082-4.1-.429-6.069-1.029-1.62-.628-1.131-2.512-.514-3.642a10.138 10.138 0 0 1 3.883-4.168 15.314 15.314 0 0 1 3.728-1.256 10.803 10.803 0 0 0 2.803 4.495l.875.879a58.613 58.613 0 0 1 4.962 4.671 14.449 14.449 0 0 1 1.595 2.511ZM130.706 152.44a8.414 8.414 0 0 1-4.294 1.733c-.85.185-1.708.327-2.572.427a27.312 27.312 0 0 1-9.077-.502 23.04 23.04 0 0 0-5.966-1.457c-1.903 0-3.6 1.482-5.528 1.758-1.929.276-3.215 0-4.809.226a18.618 18.618 0 0 0-4.32 1.356 9.582 9.582 0 0 0-2.854 1.657 10.314 10.314 0 0 0-1.929 2.788 7.697 7.697 0 0 0-1.08 2.837 10.312 10.312 0 0 1-.488-5.75 21.173 21.173 0 0 1 1.62-6.027 10.047 10.047 0 0 1 3.04-4.284 10.394 10.394 0 0 1 4.828-2.22 15.868 15.868 0 0 1 3.215-.201c2.979.327 5.975.495 8.974.503 2.186-.176 4.294-.879 6.454-1.13a19.605 19.605 0 0 1 5.323 0 15.128 15.128 0 0 1 9.257 4.494c.53.484.847 1.149.886 1.856a2.7 2.7 0 0 1-.68 1.936Z"/><path fill="#E8EFF5" d="M130.706 152.44a4.598 4.598 0 0 1-1.646 1.03l-.694.251c-.669.201-1.337.326-1.954.452-.85.185-1.708.327-2.572.427-2.237-.603-4.423-1.482-6.686-1.959-1.002-.201-2.005-.326-3.008-.577l-.566-.151-.617-.276a27.447 27.447 0 0 1-3.651-2.185c-1.466-.854-2.983-1.632-4.5-2.511l-2.726-1.381a4.289 4.289 0 0 1-1.543-.954 84.34 84.34 0 0 0 8.974.502l1.286-.151.746-.125c1.465-.277 2.931-.653 4.423-.829H118.62a20.34 20.34 0 0 1 2.572.251 15.13 15.13 0 0 1 9.257 4.495c.508.472.816 1.113.864 1.797a2.696 2.696 0 0 1-.607 1.894Z"/><path fill="#9BCD8F" d="M130.423 151.034a5.706 5.706 0 0 0-3.395-1.28 12.435 12.435 0 0 1 1.543 2.661l.463 1.055-.694.251-.643-1.456a12.415 12.415 0 0 0-1.054-1.909 8.989 8.989 0 0 0-1.517-1.632 29.76 29.76 0 0 0-3.678-2.737c-1.3-.799-2.7-1.432-4.165-1.883h1.388a23.715 23.715 0 0 1 7.329 4.595c.217.198.423.408.617.628h.18a7.099 7.099 0 0 1 4.243 1.481c.308.251-.463.402-.617.226ZM114.12 152.039h-.514l-1.157-2.009a9.378 9.378 0 0 1-.926-1.883c-.231-.728-.257-1.482-.437-2.21a4.704 4.704 0 0 0-.232-.703l.746-.126c.08.197.149.399.206.603.206.703.231 1.431.411 2.135.232.725.56 1.417.977 2.059l1.158 2.009s-.052.075-.232.125Z"/><path fill="#CD4343" d="M107.177 160.1H69.969v27.647h37.208V160.1Z"/><path fill="#FBC9BE" d="M107.177 160.1H69.969v2.26h37.208v-2.26Z"/><path fill="#9BCD8F" d="M279.128 193.397c18.534 0 33.558-2.002 33.558-4.47 0-2.469-15.024-4.47-33.558-4.47-18.533 0-33.557 2.001-33.557 4.47 0 2.468 15.024 4.47 33.557 4.47Z" opacity=".6" style="mix-blend-mode:multiply"/><path fill="#E8EFF5" d="M310.474 81.326c0-.276-.462-.351-.668-.326a54.045 54.045 0 0 0-16.354 3.239 15.489 15.489 0 0 0-6.326 3.792 7.858 7.858 0 0 0-1.723 2.938 6.526 6.526 0 0 0 0 3.566 34.47 34.47 0 0 0 1.569 4.243l1.774 4.42c0 .176.36.251.668.251h.206a1.104 1.104 0 0 0 .926 0 44.155 44.155 0 0 1 5.374-3.842c1.826-1.105 3.729-2.034 5.632-2.988a31.544 31.544 0 0 0 5.142-3.089 9.34 9.34 0 0 0 3.626-4.67c.275-1.195.387-2.419.334-3.642 0-1.239-.06-2.536-.18-3.892Z"/><path fill="#9BCD8F" d="M295.457 92.802c.386-.453.797-.93 1.183-1.457a6.046 6.046 0 0 0 1.003-3.968 17.868 17.868 0 0 0-.9-4.067 1.064 1.064 0 0 0-.206-.453.936.936 0 0 0-.463-.225 3.302 3.302 0 0 0-2.365.451 9.145 9.145 0 0 0-1.852 1.557 11.113 11.113 0 0 0-2.571 3.44 11.585 11.585 0 0 0-.309 5.977c.309 1.783 1.157 3.616 1.337 5.374a31.676 31.676 0 0 1-.565 5.424 104.54 104.54 0 0 0-.283 5.7c0 3.29 0 6.579-.309 9.869a73.589 73.589 0 0 1-1.337 10.044c-.617 3.114-1.414 6.178-2.237 9.241-2.083-5.449-4.552-10.722-6.737-16.121a195.032 195.032 0 0 1-6.84-19.662 205.742 205.742 0 0 1-4.809-20.566 195.915 195.915 0 0 1-1.826-12.204c-.231-1.833-.617-3.792-.642-5.625 0-3.566 1.98-6.755.308-10.346-.848-1.808-2.571-3.189-3.214-5.022a15.803 15.803 0 0 0-1.543-4.118 6.65 6.65 0 0 0-2.854-1.808 39.241 39.241 0 0 0-3.96-1.356 2.894 2.894 0 0 0-2.572.125c-.797.628-.617 1.833-.36 2.813a37.867 37.867 0 0 0 4.526 10.697 23.17 23.17 0 0 0 3.754 4.52c1.517 1.381 3.395 2.235 4.32 4.143.502 1.491.754 3.051.746 4.62.411 3.684.926 7.358 1.543 11.024a203.982 203.982 0 0 0 4.5 20.441c1.671 6.102 4.217 12.028 5.837 18.13a59.08 59.08 0 0 0 1.877 7.082l1.826 4.62a14.826 14.826 0 0 1 1.568 4.018 105.219 105.219 0 0 1 3.909 11.124 52.063 52.063 0 0 1 1.774 12.556 4.933 4.933 0 0 0 .797 3.164c.232.276 2.006 1.531 2.109.502a35.967 35.967 0 0 0 0-8.538c-.489-3.516-1.851-6.931-2.006-10.496.242-3.72.679-7.424 1.312-11.1.231-3.44 1.105-6.83 1.363-10.295.514-6.529.18-13.083.925-19.587.077-1.545.327-3.078.746-4.57a15.283 15.283 0 0 1 3.497-5.072Z"/><path fill="#F9CD75" d="M305.152 151.486h-50.889c-.566 1.08-3.729 5.952-6.531 10.271a12.852 12.852 0 0 0-2.122 7.204 12.86 12.86 0 0 0 2.276 7.159l8.331 12.129a4.717 4.717 0 0 0 1.716 1.514 4.857 4.857 0 0 0 2.244.545h39.086a4.854 4.854 0 0 0 2.244-.545 4.717 4.717 0 0 0 1.716-1.514l8.332-12.129a12.876 12.876 0 0 0 2.276-7.159 12.86 12.86 0 0 0-2.122-7.204c-2.855-4.319-5.992-9.166-6.557-10.271Z"/><path fill="#CD4343" d="M272.366 182.047h-4.937c-.335 0-1.08 0-1.08.527 0 .528.771.528 1.08.528h4.988c.334 0 1.08 0 1.08-.528 0-.527-.926-.527-1.131-.527ZM275.554 179.26h-2.777c-.334 0-1.08 0-1.08.527s.797.527 1.08.527h2.777c.335 0 1.08 0 1.08-.527s-.797-.527-1.08-.527ZM296.023 161.682h-3.6c-.335 0-1.08 0-1.08.527s.771.527 1.08.527h3.6c.334 0 1.08 0 1.08-.527s-.772-.527-1.08-.527ZM298.286 164.771h-1.518c-.334 0-1.08 0-1.08.527s.772.527 1.08.527h1.518c.334 0 1.08 0 1.08-.527s-.669-.527-1.08-.527ZM302.271 182.047h-2.365c-.335 0-1.08 0-1.08.527 0 .528.797.528 1.08.528h2.365c.335 0 1.08 0 1.08-.528 0-.527-.797-.527-1.08-.527ZM253.543 163.59h-2.083c-.334 0-1.08 0-1.08.527 0 .528.797.528 1.08.528h2.083c.334 0 1.08 0 1.08-.528 0-.527-.797-.527-1.08-.527ZM256.037 177.929h-2.366c-.334 0-1.08 0-1.08.527s.797.527 1.08.527h2.366c.334 0 1.08 0 1.08-.527s-.797-.527-1.08-.527ZM277.071 168.11h-3.034c-.334 0-1.08 0-1.08.528 0 .527.771.527 1.08.527h3.034c.335 0 1.08 0 1.08-.527 0-.528-.771-.528-1.08-.528ZM279.412 165.851h-.978a1.761 1.761 0 0 0-.771.15c-.129 0-.309.201-.309.377s.772.527 1.08.527h.978a1.78 1.78 0 0 0 .874-.201c.128 0 .308-.201.308-.376 0-.176-.874-.477-1.182-.477ZM302.683 153.495h-2.211c-.335 0-1.08 0-1.08.527 0 .528.797.528 1.08.528h2.211c.334 0 1.08 0 1.08-.528 0-.527-.797-.527-1.08-.527ZM288.849 186.793h-2.212c-.334 0-1.08 0-1.08.527 0 .528.797.528 1.08.528h2.212c.334 0 1.08 0 1.08-.528 0-.527-.798-.527-1.08-.527ZM310.989 170.094h-1.517c-.335 0-1.08 0-1.08.527s.771.527 1.08.527h1.517c.334 0 1.08 0 1.08-.527s-.772-.527-1.08-.527Z"/><path fill="#E8EFF5" d="M290.237 77.685c3.663-3.241 6.032-7.645 6.686-12.43a2.657 2.657 0 0 0-.257-1.456 2.545 2.545 0 0 0-.952-.88 12.945 12.945 0 0 0-7.997-1.205 32.923 32.923 0 0 0-13.397 3.867 20.557 20.557 0 0 0-7.545 7.449 19.945 19.945 0 0 0-2.741 10.13 4.667 4.667 0 0 0 .294 2.038c.249.65.64 1.24 1.146 1.728a4 4 0 0 0 3.112.603c1.748-.327 3.651-.955 5.374-1.432 1.723-.477 4.011-1.18 5.966-1.933a28.575 28.575 0 0 0 10.311-6.48ZM288.746 137.651a9.471 9.471 0 0 0-2.112-4.029 9.765 9.765 0 0 0-3.777-2.626 11.007 11.007 0 0 0-1.671-.502 12.718 12.718 0 0 0-9.283-.904 15.61 15.61 0 0 0-7.946 5.173 25.706 25.706 0 0 0-4.577 8.538 36.578 36.578 0 0 0-1.877 10.898 20.631 20.631 0 0 0 .334 5.022 5.11 5.11 0 0 0 .764 1.962c.389.596.9 1.108 1.499 1.504a7.204 7.204 0 0 0 5.143.477 16.562 16.562 0 0 0 4.937-2.11c1.595-.954 3.112-2.009 4.629-3.063a107.252 107.252 0 0 0 4.706-3.466 31.384 31.384 0 0 0 7.2-7.357 12.62 12.62 0 0 0 2.031-9.517ZM244.106 71.658c1.328.185 2.671.252 4.011.2 2.443 0 4.886-.326 7.329-.175 2.456.047 4.834.856 6.788 2.31.42.428.917.777 1.466 1.03 1.929.653 1.389-1.457 1.234-2.511a16.982 16.982 0 0 0-1.62-4.495 13.358 13.358 0 0 0-5.143-5.45 25.676 25.676 0 0 0-10.285-3.992 21.486 21.486 0 0 0-14.195 2.662c-.334.2-.694.452-.72.828-.18 1.658 1.8 3.315 2.752 4.52a14.901 14.901 0 0 0 5.143 4.069c1.025.483 2.116.821 3.24 1.004Z"/><path fill="#9BCD8F" d="M279.334 116.683a5.84 5.84 0 0 0-.951-1.055 12.19 12.19 0 0 0-1.44-1.004 40.887 40.887 0 0 0-5.734-2.988 31.36 31.36 0 0 0-5.837-1.934 23.687 23.687 0 0 0-10.229-.019 23.392 23.392 0 0 0-9.237 4.288 18.97 18.97 0 0 0-5.319 6.14 18.522 18.522 0 0 0-2.215 7.746 1.717 1.717 0 0 0 .385 1.331c.295.223.656.346 1.029.352 1.382.069 2.767.019 4.14-.151 5.374-.376 10.774.728 16.174.502 6.687-.305 13.109-2.65 18.36-6.704 1.466-1.13 2.237-1.733 2.006-3.666a6.468 6.468 0 0 0-1.132-2.838ZM270 97.674c1.826-4.696-3.471-8.237-6.326-11.15a26.413 26.413 0 0 0-4.448-3.867 24.452 24.452 0 0 0-5.4-2.51 32.092 32.092 0 0 0-8.383-1.884 38.958 38.958 0 0 0-11.134 1.532 1.323 1.323 0 0 0-.849.427 1.13 1.13 0 0 0 .206 1.205 14.715 14.715 0 0 0 7.431 5.298c2.932 1.105 5.992 1.834 8.82 3.164a42.602 42.602 0 0 1 4.397 2.511 39.689 39.689 0 0 0 4.243 2.687c.926.719 1.74 1.565 2.417 2.511 1.672 1.884 4.449 3.993 6.995 2.31A5.065 5.065 0 0 0 270 97.675Z"/><path fill="#E8EFF5" d="m301.757 130.895 1.028-.226 15.635-3.49a4.247 4.247 0 0 0 1.44-.527c.337-.263.611-.594.803-.972.191-.378.294-.792.302-1.213a6.574 6.574 0 0 0-.96-3.449 6.789 6.789 0 0 0-2.64-2.477 16.97 16.97 0 0 0-7.2-1.884 55.688 55.688 0 0 0-18.668 1.607c-3.574.93-7.457 2.512-8.64 6.002a10.92 10.92 0 0 0 1.26 7.985c2.134 2.085 4.911.98 7.534.628 3.394-.502 6.763-1.331 10.106-1.984ZM279.591 101.089c.746-5.022-.72-10.045-6.454-12.079a28.498 28.498 0 0 0-6.454-.954c-4.834-.527-10.492-3.842-15.017-.628a11.609 11.609 0 0 0-3.146 4.3 11.357 11.357 0 0 0-.866 5.217 10.245 10.245 0 0 0 1.029 5.023 11.934 11.934 0 0 0 2.571 3.013 51.061 51.061 0 0 0 21.009 11.174 3.032 3.032 0 0 0 2.571 0c.318-.24.573-.55.746-.904a22.714 22.714 0 0 0 1.851-4.871 136.196 136.196 0 0 0 1.98-7.709c.026-.578.103-1.08.18-1.582Z"/><path fill="#9BCD8F" d="m310.294 106.914-.463-1.005a13.17 13.17 0 0 0-2.571-4.218c-4.166-4.043-11.212.376-15.429 1.933-3.23 1.148-5.912 3.419-7.534 6.379a3.758 3.758 0 0 0-.514 3.54 2.944 2.944 0 0 0 1.774 1.331c1.766.276 3.571.182 5.297-.276a31.172 31.172 0 0 1 6.994.251c5.125.524 10.278.733 15.429.628a5.585 5.585 0 0 0-.72-3.842l-2.263-4.721ZM271.928 110.531c-1.002-2.838-.874-5.901-1.697-8.764a27.138 27.138 0 0 0-1.697-4.194c-.694-1.456-1.44-2.887-2.134-4.344l-.643-1.306a12.72 12.72 0 0 0-1.157-3.314.733.733 0 0 0-.617-.226c-.206-.402-1.543-.276-1.312.175l1.749 3.541.283 1.105c.18.74.429 1.464.745 2.16.36.753.875 1.456 1.286 2.184a28.476 28.476 0 0 1 2.263 8.563c.284 1.618.84 3.18 1.646 4.621.205.326 1.465.326 1.285-.201ZM292.423 63.748a1.13 1.13 0 0 0-.875 0l-7.225 2.336c-1.65.397-3.266.917-4.835 1.556l-2.571.88a14.204 14.204 0 0 0-5.683 3.39 25.989 25.989 0 0 0-2.108 2.711 37.433 37.433 0 0 0-1.903 2.888 14.588 14.588 0 0 0-2.135 5.876 4.103 4.103 0 0 0 0 1.507c0 .477 1.415.427 1.363 0-.051-.427 0-.151 0-.226a.224.224 0 0 0 0-.126c-.02-.36-.02-.72 0-1.08a9.611 9.611 0 0 1 .72-1.958l1.569-3.39a20.509 20.509 0 0 1 1.594-3.064 11.652 11.652 0 0 1 2.366-2.511 30.737 30.737 0 0 1 7.714-4.545l3.549-1.13 1.105-.352c1.158-.276 2.34-.527 3.498-.879a26.348 26.348 0 0 0 3.882-1.531c.129.025.18-.176-.025-.352ZM260.151 64.929a35.502 35.502 0 0 0-10.08-3.466 23.679 23.679 0 0 0-9.874-.552 23.211 23.211 0 0 0-5.271 1.481c-.155 0-.258.226-.129.352a.8.8 0 0 0 .617.2c3.626 0 7.02-1.48 10.723-.878 1.749.276 3.42.954 5.143 1.356 1.723.402 4.088.603 6.094 1.055 1.407.32 2.77.8 4.063 1.43-.401-.359-.831-.686-1.286-.978ZM319.423 124.743a53.31 53.31 0 0 0-14.812-3.918 37.271 37.271 0 0 0-11.34.528 12.579 12.579 0 0 0-5.451.954 10.174 10.174 0 0 0-4.963 4.721c0 .201 0 .326.36.376.125.078.265.129.411.151a.912.912 0 0 0 .823-.226 18.367 18.367 0 0 1 2.212-2.511 9.785 9.785 0 0 1 2.931-1.682 25.57 25.57 0 0 1 3.96-1.181h1.209c1.306.133 2.62.192 3.934.176 1.311 0 2.571-.326 3.934-.251a19.18 19.18 0 0 1 3.755.753l3.882 1.005 4.372 1.13a12.32 12.32 0 0 0 4.448.427c.309.075.798-.251.335-.452ZM280.8 130.795a1.07 1.07 0 0 0-.926 0 9.632 9.632 0 0 0-5.143 3.968 47.752 47.752 0 0 0-3.497 6.227c-.9 1.783-1.8 3.591-2.828 5.324l-1.029 1.506-.848 1.356c-.335.452-.669.879-1.029 1.306a26.84 26.84 0 0 0-2.314 2.963 21.783 21.783 0 0 0-2.572 7.785c0 .427 1.209.452 1.337 0a65.472 65.472 0 0 1 5.992-12.104l.566-.778c.437-.628.822-1.281 1.208-1.934l2.572-3.515a29.868 29.868 0 0 0 1.851-3.014c.54-1.029 1.029-2.109 1.543-3.164a11.15 11.15 0 0 1 4.448-5.173H280.569c.231-.376.462-.552.231-.753Z"/><path fill="#E8EFF5" d="M270.797 113.141a19.698 19.698 0 0 0-7.123.176 9.887 9.887 0 0 0-3.111 1.432c-.926.627-1.749 1.381-2.571 2.034-.915.7-1.94 1.251-3.035 1.632a20.154 20.154 0 0 1-3.6.778c-1.269.169-2.513.49-3.703.954a33.176 33.176 0 0 0-3.265 1.582 8.417 8.417 0 0 0-2.855 2.512 19.015 19.015 0 0 0-1.774 3.189c-.257.552.977.351 1.157.201.18-.151.54-1.306.849-1.708a15.789 15.789 0 0 1 4.551-3.792 16.479 16.479 0 0 1 4.629-1.607l5.194-1.532a14.385 14.385 0 0 0 4.552-2.009 14.796 14.796 0 0 1 2.057-1.356 11.227 11.227 0 0 1 2.237-.778c1.903-.477 3.883-.753 5.811-1.105.155 0 .489 0 .489-.326 0-.327-.334-.277-.489-.277ZM310.731 113.317a3.458 3.458 0 0 0-2.134-1.255l-1.954-1.105-.669-.703a11.551 11.551 0 0 0-1.723-1.432 32.267 32.267 0 0 0-4.063-2.26 21.96 21.96 0 0 0-4.654-1.833 9.843 9.843 0 0 0-5.58.176c-.206 0-.463.251-.231.452a1.013 1.013 0 0 0 .797.151c.161.029.327.029.488 0a11.297 11.297 0 0 1 7.149 1.632c2.571 1.281 4.86 2.712 7.277 4.068h.154l.54.452c.479.324 1.009.57 1.569.728l1.954 1.105c.265.099.558.099.823 0 .077.176.36.025.257-.176ZM258.968 83.31a18.067 18.067 0 0 0-4.397-1.658 50.555 50.555 0 0 0-4.783-1.055 52.782 52.782 0 0 0-9.668-.778c-1.865.02-3.728.138-5.58.352-.206 0-.592.15-.463.401.129.251.617.251.823.226a50.362 50.362 0 0 1 18.386 1.256c1.608.368 3.157.951 4.602 1.733a1.13 1.13 0 0 0 .952 0c.386-.126.36-.327.128-.478Z"/><path fill="#3E1C1A" d="M144 92.425c.109-1.54.35-3.07.72-4.57a12.394 12.394 0 0 0-7.817 3.515 9.861 9.861 0 0 0-1.774 6.504c0 2.285.462 4.57.308 6.855-.334 5.022-3.368 7.533-7.148 10.497a10.072 10.072 0 0 0-3.601 4.664 9.831 9.831 0 0 0-.334 5.832c.433 1.068.743 2.18.926 3.315 0 2.285-1.929 3.465-2.88 5.298a9.847 9.847 0 0 0-1.466 7.533 7.476 7.476 0 0 0 1.415 2.386 14.618 14.618 0 0 0 5.722 3.812 14.935 14.935 0 0 0 6.878.808c4.66-.588 9.042-2.5 12.6-5.499a21.21 21.21 0 0 0 4.165-4.294 16.806 16.806 0 0 0 3.06-10.898 31.356 31.356 0 0 0-3.291-10.371 9.534 9.534 0 0 1-1.363-3.993c.125-1.255.392-2.493.797-3.691a8.92 8.92 0 0 0-.056-3.965 9.034 9.034 0 0 0-1.77-3.568c-2.082-2.511-4.988-3.817-5.142-7.383a27 27 0 0 1 .051-2.787Z"/><path fill="#FFA382" d="M182.134 88.131c.309 1.13.926 2.21 1.312 3.34l.128.376 2.932 8.212c.56 1.119.983 2.299 1.26 3.515a3.826 3.826 0 0 1-.772 2.863c-.977 1.18-2.571 1.306-3.805 1.858-1.235.553-2.778 1.356-4.32 1.833a56.612 56.612 0 0 1-9.129 1.783 1.75 1.75 0 0 1-.669 0 1.152 1.152 0 0 1-.535-.377 1.12 1.12 0 0 1-.236-.602 3.76 3.76 0 0 1 .18-1.306c1.003-4.294-.617-7.885-2.006-11.852a8.821 8.821 0 0 1 .36-6.404 14.553 14.553 0 0 1 6.069-6.73 4.49 4.49 0 0 1 2.571-.878c.605.07 1.206.171 1.8.301l1.157.226h.438a4.309 4.309 0 0 1 1.568.527 4.978 4.978 0 0 1 1.697 3.315Z"/><path fill="#ED7D6B" d="M182.134 88.132c.309 1.13.926 2.21 1.311 3.34l.129.376c-.285.273-.605.51-.951.703a12.732 12.732 0 0 1-6.326 1.657 3.677 3.677 0 0 1-2.292-.8 3.526 3.526 0 0 1-1.257-2.037 4.643 4.643 0 0 1 .746-2.913 8.186 8.186 0 0 1 2.854-2.813l.797-.451c.532-.31 1.091-.57 1.672-.779a4.309 4.309 0 0 1 1.568.527 4.986 4.986 0 0 1 1.749 3.19Z"/><path fill="#FFA382" d="M155.751 95.439a14.803 14.803 0 0 1-4.885-2.662 15.57 15.57 0 0 1-4.809-7.006 7.367 7.367 0 0 1-.206-5.223 37.039 37.039 0 0 1 2.726-5.274 14.757 14.757 0 0 1 7.329-6.303 7.412 7.412 0 0 1 6.3.477 26.792 26.792 0 0 1 2.571 1.683 9.37 9.37 0 0 0 4.191 2.26 8.18 8.18 0 0 0 2.752-.301l2.983-.678c1.234-.277 2.803-.302 3.137 1.205.046.4.046.805 0 1.205a3.122 3.122 0 0 0 .214 1.55c.202.49.526.924.943 1.263l2.443 1.833c1.491 1.08 3.317 2.511 3.266 4.47a4.732 4.732 0 0 1-.9 2.51 18.393 18.393 0 0 1-8.255 6.178 36.712 36.712 0 0 1-3.985 1.08c-4.192 1.03-8.358 2.662-12.678 2.31a14.139 14.139 0 0 1-3.137-.578Z"/><path fill="#3E1C1A" d="M163.903 76.304c-.023.385-.023.77 0 1.155.038.233.038.47 0 .703 0 0 0 .176-.206.176-.205 0-.128 0-.18-.15a4.555 4.555 0 0 1 0-3.943 6.03 6.03 0 0 1 .695-1.03c.12-.182.289-.33.488-.427.823-.326.695.704.489 1.105a8.652 8.652 0 0 0-1.286 2.411Z"/><path fill="#000" d="M166.834 75.902a.998.998 0 0 0-1.092.264.953.953 0 0 0-.193.338c-.206.754.925 1.406 1.542 1.557a.84.84 0 0 0 .898-.001.803.803 0 0 0 .303-.349.778.778 0 0 0 .059-.453 1.979 1.979 0 0 0-.569-.88 2.051 2.051 0 0 0-.948-.476Z"/><path fill="#fff" d="m177.12 79.92-1.388 2.059c-.283.452-1.183 1.28-.9 1.858.283.578 2.237.427 2.88.15.643-.275 2.083-1.43 2.057-2.36a7.304 7.304 0 0 0-2.109-2.51l-.54.803Z"/><path fill="#3E1C1A" d="M160.123 75.6c-.566-1.857-1.209-3.69-1.852-5.523a2.696 2.696 0 0 0-.429-1.031 2.777 2.777 0 0 0-.814-.78 2.865 2.865 0 0 0-2.202-.35c-1.473.258-2.88.795-4.14 1.583a18.296 18.296 0 0 0-5.926 5.2 17.799 17.799 0 0 0-3.126 7.155 11.045 11.045 0 0 0 1.235 7.533 23.72 23.72 0 0 0 8.177 8.086c3.624 2.255 8 3.056 12.214 2.235a5.141 5.141 0 0 0 3.163-2.21c1.98-3.44-.669-7.182-2.237-10.17a23.802 23.802 0 0 1-1.929-3.114c-.334-1.03-.308-2.134-.566-3.164a83.965 83.965 0 0 0-.977-3.616l-.591-1.833Z"/><path fill="#FFA382" d="M167.837 87.604a11.195 11.195 0 0 0-3.266-3.49 3.68 3.68 0 0 0-2.571-.855 3.54 3.54 0 0 0-2.005 1.161 3.397 3.397 0 0 0-.824 2.13c.042.57.209 1.127.489 1.631a4.296 4.296 0 0 0 1.8 2.06 5.65 5.65 0 0 0 2.777.35c1.749-.074 4.783-.577 3.6-2.987ZM237.96 168.713c-1.132-1.808-2.392-3.541-3.6-5.299a21.881 21.881 0 0 1-4.552-10.396 79.976 79.976 0 0 0-1.337-11.928 94.833 94.833 0 0 0-2.854-10.044 91.764 91.764 0 0 1-3.369-10.723 43.1 43.1 0 0 0-4.628-10.37 20.697 20.697 0 0 0-5.966-7.785c-3.06-2.159-6.968-2.737-10.517-4.093a103.045 103.045 0 0 0-11.134-4.771c-1.235-.302-2.083-.754-3.266 0a7.905 7.905 0 0 0-1.569 1.431c-2.108 2.31-4.088 4.847-6.402 6.981a44.765 44.765 0 0 1-7.02 4.52 13.034 13.034 0 0 0-5.658 5.926 15.032 15.032 0 0 0-.72 3.164 67.299 67.299 0 0 0-1.054 17.905 4.93 4.93 0 0 0 .489 1.808c.285.467.641.89 1.054 1.255a48.284 48.284 0 0 1 6.146 6.027 172.256 172.256 0 0 0 4.731 6.378c2.006 2.511 4.114 5.022 6.017 7.784 3.677 5.148.36 11.627-1.285 16.976a17.654 17.654 0 0 0 0 13.032c2.03 3.468 5.388 6.006 9.334 7.056a34.398 34.398 0 0 0 14.606.93c5.142-.653 10.285-2.085 15.428-2.512 2.597-.15 5.452-.15 8.023-.678a16.535 16.535 0 0 0 6.132-2.676 16.104 16.104 0 0 0 4.514-4.857 11.169 11.169 0 0 0 1.363-2.511 8.166 8.166 0 0 0 .385-3.064 16.377 16.377 0 0 0-.694-4.218 23.26 23.26 0 0 0-2.597-5.248ZM148.114 13.702a2.739 2.739 0 0 0-.257-3.24 13.162 13.162 0 0 0-6.017-4.746 66.593 66.593 0 0 0-12.112-3.892 52.891 52.891 0 0 0-8.177-.653l-3.574-.2c-1.44 0-6.223-.679-6.069 1.456a2.9 2.9 0 0 0 .618 1.456.813.813 0 0 0-.469.13.784.784 0 0 0-.303.373c-.411 1.18 1.852 2.084 2.572 2.51a27.38 27.38 0 0 0 7.045 2.512c1.389.318 2.777.603 4.166.854.951.175 3.6 1.43 1.311 1.958-.527.09-1.066.09-1.594 0l-2.057-.226a5.916 5.916 0 0 0-1.517 0c-1.234.176-1.723 1.105-.823 2.06a3.946 3.946 0 0 0 2.211 1.054c.995.028 1.982.188 2.932.477.972.434 1.989.763 3.034.98 2.051.433 4.172.433 6.223 0 1.929-.427 3.78-1.206 5.709-1.583a20.552 20.552 0 0 1 4.525-.3 3.68 3.68 0 0 0 1.826-.252c.329-.167.604-.419.797-.728Z"/><path fill="#FFA382" d="M215.486 104.579a111.373 111.373 0 0 0-4.938-10.245 147.3 147.3 0 0 1-7.045-20.09 59.092 59.092 0 0 0-4.346-10.345 320.925 320.925 0 0 0-4.32-11.074 78.13 78.13 0 0 0-7.431-14.64 36.678 36.678 0 0 0-6.069-6.905h-.206a75.637 75.637 0 0 0-8.331-7.785A105.328 105.328 0 0 0 162 15.56l-5.143-3.314a40.83 40.83 0 0 0-6.249-2.512c-2.288-.979-4.602-1.858-6.942-2.762a1.289 1.289 0 0 0-1.08 0 .504.504 0 0 0-.206.226 2.922 2.922 0 0 0-1.3 1.28 2.833 2.833 0 0 0-.269 1.784 6.255 6.255 0 0 0 2.006 3.817c.228.145.504.2.771.15a62.505 62.505 0 0 1 13.063 12.556 96.915 96.915 0 0 0 7.046 7.282 92.999 92.999 0 0 0 4.166 3.591c1.388 1.105 2.828 2.134 4.165 3.315a22.67 22.67 0 0 1 4.578 5.951v.276c.642 1.733 1.465 3.415 2.005 5.148.952 3.089 2.855 6.002 4.063 9.065a71.464 71.464 0 0 1 2.957 10.522 67.37 67.37 0 0 1 1.492 16.925 51.558 51.558 0 0 0 .385 9.793 33.574 33.574 0 0 0 2.572 8.513.148.148 0 0 0 0 .2l.154.176a.356.356 0 0 0 .154.151c6.532 7.282 17.64 6.177 26.589 7.91.177.047.363.047.54 0 .257 0 .463-.176.437-.352a42.86 42.86 0 0 0-2.468-10.672Z"/><path fill="#E26E61" d="M142.328 10.036a15.246 15.246 0 0 1-2.571-.427 7.369 7.369 0 0 1-2.109-1.105c-1.414-1.005-2.777-2.135-4.114-3.24a.602.602 0 0 0-.514 0s-.283.151-.129.252l2.212 1.782c.694.553 1.388 1.105 2.134 1.608.697.486 1.47.86 2.289 1.104.842.228 1.702.387 2.571.478.129 0 .411 0 .463-.126.051-.126-.129-.301-.232-.326ZM133.457 12.924a9.297 9.297 0 0 1-2.803-.754c-.926-.376-1.826-.803-2.751-1.23a.657.657 0 0 0-.54 0c-.129 0-.155.2 0 .251a18.27 18.27 0 0 0 5.888 2.06c.129 0 .386 0 .463-.126.077-.126-.154-.176-.257-.201ZM128.726 4.963l-1.389-.327-2.751-.552-2.855-.603a13.317 13.317 0 0 1-2.571-.502 2.57 2.57 0 0 1-.874-.552c-.18-.201-.309-.779 0-.88.308-.1.257-.15.128-.25a.602.602 0 0 0-.514 0 .804.804 0 0 0-.407.222.77.77 0 0 0-.21.405.952.952 0 0 0 .069.503.982.982 0 0 0 .316.401 5.002 5.002 0 0 0 2.366.955c.926.175 1.852.301 2.777.452l2.957.552 1.62.352.798.175c.268.082.544.14.822.176.18 0 .412 0 .309-.301-.103-.301-.463-.201-.591-.226Z"/><path fill="#E26E61" d="m128.031 7.374-3.394-.628c-1.209-.176-2.211-.377-3.266-.753a30.023 30.023 0 0 1-5.888-2.285 6.138 6.138 0 0 1-1.44-.88 1.204 1.204 0 0 1-.421-.644 1.174 1.174 0 0 1 .061-.761c.128-.252-.617-.327-.746 0-.489.929.411 1.757 1.183 2.21.981.543 1.994 1.029 3.034 1.456a31.002 31.002 0 0 0 6.609 1.908l4.037.728c.128 0 .411 0 .463-.125.051-.126-.129-.226-.232-.226ZM127.106 9.207a50.351 50.351 0 0 1-6.249-1.356 40.148 40.148 0 0 1-5.76-2.06 4.613 4.613 0 0 1-1.954-1.732c0-.226-.874-.125-.746 0a4.617 4.617 0 0 0 1.903 1.683c.89.443 1.81.829 2.751 1.155a50.601 50.601 0 0 0 6.275 1.883c1.217.285 2.443.52 3.677.703.128 0 .411 0 .463-.125.051-.126-.283-.126-.36-.151ZM144.823 14.254a13.278 13.278 0 0 0-1.8-1.155.632.632 0 0 0-.54 0v.251c.596.313 1.163.674 1.697 1.08a.602.602 0 0 0 .514 0s.257-.05.129-.176ZM208.286 94.71c-2.366-3.665-6.378-5.875-9.206-9.14a12.366 12.366 0 0 1-1.929-2.988c0-.226-.848-.15-.745 0 1.774 3.968 5.785 6.353 8.794 9.341a16.567 16.567 0 0 1 2.314 2.788c.103.326.772.226.772 0Z"/><path fill="#FFA382" d="M76.217 200.83c-.283-.704-.694-1.382-.925-2.11-.345-1.55-.5-3.135-.463-4.721-.129-1.632-1.132-2.862-1.26-4.444a9.637 9.637 0 0 0-.36-2.059 6.545 6.545 0 0 0-2.16-3.215 3.573 3.573 0 0 0-1.386-.893 3.637 3.637 0 0 0-1.649-.186 11.208 11.208 0 0 0-4.834 3.59c-1.44 1.457-2.777 3.039-4.063 4.646l-1.825 2.235a11.238 11.238 0 0 1-2.16 2.109 24.055 24.055 0 0 1-4.912 2.185c-.914.362-1.777.835-2.571 1.406-.335.251-.849.628-.849 1.08 0 .452.54.979.823.829l-1.337.577c-.24.104-.465.24-.669.402-.848.728-.154 1.632.72 1.808a10.187 10.187 0 0 0 7.406-1.708l-.232.377c-.385.653-1.028 1.833.18 2.16a2.127 2.127 0 0 0 1.492-.277 11.89 11.89 0 0 0 3.78-3.967 9.658 9.658 0 0 1 3.111-3.064 11.75 11.75 0 0 1 4.783-1.18 3.908 3.908 0 0 1 2.983.804 13.28 13.28 0 0 1 1.774 3.164 6.501 6.501 0 0 0 1.98 2.31c.643.427 1.903.828 2.572.201a1.404 1.404 0 0 0 .231-1.407 5.478 5.478 0 0 0-.18-.652Z"/><path fill="#FFA382" d="M170.074 133.834a16.105 16.105 0 0 0 3.925-6.477c.768-2.431.939-5.004.498-7.51a14.574 14.574 0 0 0-1.646-4.646c-.72-1.281-1.26-3.038-2.828-3.541a6.068 6.068 0 0 0-2.572-.125c-4.699.778-9.027 2.984-12.368 6.303-3.626 3.314-6.429 7.307-9.849 10.772-3.42 3.466-7.483 7.534-11.417 11.175a187.3 187.3 0 0 1-6.146 5.399 80.77 80.77 0 0 1-16.663 10.044 116.942 116.942 0 0 0-17.022 9.869l-.9.603a296.383 296.383 0 0 0-25.715 18.18 15.717 15.717 0 0 0-3.574 3.867 4.19 4.19 0 0 0-.669 2.787c.438 2.512 3.549 2.712 5.503 2.135.307.114.645.114.952 0 4.474-2.712 8.203-6.403 13.063-8.638 1.157-.528 2.365-.98 3.574-1.432l22.423-8.462a130.533 130.533 0 0 0 18.72-10.045 168.13 168.13 0 0 0 29.803-21.068 50.41 50.41 0 0 1 5.811-5.022 44.836 44.836 0 0 1 7.174-3.641c.232-.151.129-.301-.077-.527Z"/><path fill="#E26E61" d="M55.852 195.959a21.147 21.147 0 0 1-8.769 4.972s-.257.125-.128.251a.6.6 0 0 0 .514 0 22.02 22.02 0 0 0 9.051-5.073c.232-.201-.488-.326-.668-.15ZM63.514 196.611a.6.6 0 0 0-.514 0 15.131 15.131 0 0 0-4.68 2.335l-4.783 3.315c-.154 0 0 .226.129.251a.632.632 0 0 0 .514 0l4.654-3.239a14.557 14.557 0 0 1 4.526-2.436s.257 0 .154-.226ZM73.774 190.057v-1.381c0-.477 0-.904-.488-.879 0 0-.36 0-.386.176a2.721 2.721 0 0 0-.007 1.329c.107.438.321.843.624 1.182a.26.26 0 0 0 .206 0 .189.189 0 0 0 .097-.04.173.173 0 0 0 .057-.086.515.515 0 0 0 0-.201l-.103-.1Z"/><path fill="#FFE8D8" d="M226.286 132.954c-2.366.929-4.783 1.808-7.123 2.787-2.34.98-5.143 2.16-7.715 3.265l-.642.276-.618.276-1.157.503a148.392 148.392 0 0 0-10.285 5.022l-.515.251-.72.377-8.125 4.168c-1.672.879-3.369 1.758-5.143 2.511a12.19 12.19 0 0 1-3.677 1.205l-3.806-4.821a178.647 178.647 0 0 1-4.732-6.378l-.411-.553a13.993 13.993 0 0 0 1.234-4.344c.206-2.511.309-4.871.36-7.282a29.988 29.988 0 0 0-2.288-13.51 15.072 15.072 0 0 0-2.417-3.641 15.345 15.345 0 0 0-1.723-2.185 11.513 11.513 0 0 1 2.34-2.636c1.08 1.23 2.185 2.511 3.214 3.691 1.44 1.758 2.571 3.666 4.037 5.474a11.673 11.673 0 0 0 4.552 4.093l.617.226h.18l.617.126c1.6.185 3.222-.04 4.706-.653a19.25 19.25 0 0 0 3.934-1.08 17.339 17.339 0 0 0 6.403-4.168 12.407 12.407 0 0 0 2.828-3.968c.067-.205.119-.415.155-.627a3.028 3.028 0 0 0 0-.829 2.842 2.842 0 0 0-.978-1.808 10.523 10.523 0 0 0-1.774-2.16c-.823-.828-1.594-1.657-2.391-2.511-1.749-1.883-3.677-3.641-5.426-5.55a44.272 44.272 0 0 1-3.651-4.62c.184-.165.382-.316.591-.452.185-.122.383-.223.591-.301l1.003.879a46.674 46.674 0 0 0 4.012 2.762 92.374 92.374 0 0 0 8.871 5.022c3.086 1.557 6.172 3.064 9.412 4.319 1.954.754 3.96 1.407 5.965 2.009.36.628.695 1.256 1.003 1.884a43.141 43.141 0 0 1 4.629 10.37 91.51 91.51 0 0 0 3.368 10.723l.695 1.858Z"/><path fill="#E26E61" d="M176.066 110.379c0-.15-.335-.15-.463-.125l-3.034.326s-.335 0-.258.226c.078.226.335.151.463.126l3.035-.327s.308-.1.257-.226ZM187.251 95.288c0-.276-.771-.251-.771 0 .189 2.193.429 4.386.72 6.579 0 .276.797.251.771 0-.291-2.177-.531-4.37-.72-6.58ZM166.783 135.541a17.83 17.83 0 0 0-8.074-5.023.618.618 0 0 0-.515 0s0 .226.129.251a17.236 17.236 0 0 1 7.714 4.772c.257.351 1.106.251.746 0Z"/><path fill="#FFE8D8" d="M221.606 209.518a51.055 51.055 0 0 1-16.509-1.808c-1.8-.527-3.471-1.456-5.143-2.134-.257-1.557 1.363-2.762 2.803-3.516a70.584 70.584 0 0 1 8.357-3.465l4.32-1.557a231.15 231.15 0 0 0 27.823-13.083c6.429-3.415 12.857-6.855 19.44-10.044a40.379 40.379 0 0 1 9.875-3.767 26.324 26.324 0 0 1 11.211 0c2.726.678 6.249 2.059 7.457 4.696a6.627 6.627 0 0 1 .463 4.168 10.98 10.98 0 0 1-2.134 4.144 40.075 40.075 0 0 1-10.929 9.542 78.357 78.357 0 0 1-13.011 6.755c-1.569.602-3.189 1.13-4.809 1.632l-12.523 4.018c-1.98.627-3.96 1.28-5.991 1.808a71.288 71.288 0 0 1-9.874 1.607 97.37 97.37 0 0 1-10.826 1.004Z"/><path fill="#FFE8D8" d="M241.226 178.331a16.336 16.336 0 0 0-.695-4.219 23.24 23.24 0 0 0-2.571-5.399c-1.131-1.808-2.391-3.541-3.6-5.298a33.739 33.739 0 0 1-3.549-6.178c-1.388.402-2.802.804-4.217 1.181-1.414.376-2.571.778-3.754 1.13-3.523.929-7.097 1.707-10.62 2.511-2.571.653-5.374 1.28-8.1 1.707l-1.62.402a28.9 28.9 0 0 1-5.143.804c-.736.04-1.475.04-2.211 0a60.128 60.128 0 0 1-11.057-.578 72.755 72.755 0 0 1-2.726 9.04 17.657 17.657 0 0 0 0 13.033c2.03 3.467 5.388 6.005 9.334 7.056a34.384 34.384 0 0 0 14.606.929c5.143-.653 10.286-2.084 15.428-2.511 2.7-.126 5.555-.126 8.126-.653a16.535 16.535 0 0 0 6.132-2.676 16.115 16.115 0 0 0 4.514-4.857 11.19 11.19 0 0 0 1.363-2.511 8.17 8.17 0 0 0 .36-2.913Z"/><path fill="#FFE8D8" d="M291.266 171.927a12.924 12.924 0 0 0-5.837-5.223 25.859 25.859 0 0 0-8.409-1.858 38.18 38.18 0 0 0-9.257.527 133.72 133.72 0 0 0-15.789 3.415 289.868 289.868 0 0 0-28.285 10.346 81.11 81.11 0 0 1-12.446 1.532 1.108 1.108 0 0 0-.437 0c-3.292 0-6.609-.151-9.9-.478-1.286 0-2.572-.351-3.806-.401a93.417 93.417 0 0 1-4.217-.302 196.577 196.577 0 0 1-27.797-5.976 94.475 94.475 0 0 0-27.772-3.767 14.147 14.147 0 0 0-6.12 1.381c-1.517.829-3.368 2.16-2.905 4.093a12.046 12.046 0 0 0 4.14 5.776 42.683 42.683 0 0 0 7.714 5.399 72.446 72.446 0 0 0 18.926 6.956c3.857.904 7.714 1.657 11.674 2.511a108.824 108.824 0 0 0 39.137 7.759 119.145 119.145 0 0 0 22.114-2.938c7.715-1.582 15.172-3.239 22.783-4.871a216.512 216.512 0 0 0 22.037-5.249c5.838-1.908 12.42-4.721 14.812-10.622a9.198 9.198 0 0 0-.36-8.01Z"/><path fill="#FFA382" d="M244.286 197.716c-1.752-.067-3.5.206-5.143.803-3.72.901-7.489 1.597-11.289 2.085a77.416 77.416 0 0 1-10.568.552 18.852 18.852 0 0 0-10.054 2.235c-1.106.678-2.7 2.034-2.803 3.365.068.724.319 1.42.733 2.025.413.606.974 1.1 1.632 1.44a10.802 10.802 0 0 0 4.526 1.206c1.851.104 3.691.347 5.503.728 1.877.452 3.754.854 5.683 1.13a39.04 39.04 0 0 0 14.348-.226c.887-.18 1.75-.458 2.572-.829a2.146 2.146 0 0 0 1.003-.829.807.807 0 0 0 .072-.612.83.83 0 0 0-.381-.492 2.615 2.615 0 0 0 1.723-.503 1.112 1.112 0 0 0 .206-1.557c.305.01.608-.065.872-.216a1.6 1.6 0 0 0 .619-.637c.121-.274.127-.583.016-.86a1.142 1.142 0 0 0-.607-.622 2.297 2.297 0 0 0 1.061-.642c.286-.306.48-.684.559-1.091a4.236 4.236 0 0 0 0-1.079c0-.352-.36-.779-.18-1.13.18-.352.463-.327.643-.503.559-.501.9-1.193.951-1.933a1.425 1.425 0 0 0 0-.402 1.32 1.32 0 0 0-.206-.427 2.298 2.298 0 0 0-1.491-.979ZM155.88 197.666h.206c1.673.099 3.33.386 4.937.854 3.711.899 7.471 1.595 11.263 2.084 3.505.425 7.036.61 10.568.552a18.857 18.857 0 0 1 10.055 2.235c1.105.678 2.7 2.034 2.802 3.365a4.297 4.297 0 0 1-.732 2.026 4.455 4.455 0 0 1-1.633 1.44 10.801 10.801 0 0 1-4.526 1.205 36.338 36.338 0 0 0-4.243.402c-1.337.276-2.571.728-3.986.929-1.774.251-3.548.376-5.322.552a64.075 64.075 0 0 1-6.583.402 19.936 19.936 0 0 1-5.889-.728 2.59 2.59 0 0 1-1.054-.553.939.939 0 0 1-.232-1.079 4.753 4.753 0 0 1-1.337 0 1.556 1.556 0 0 1-1.028-.754.885.885 0 0 1-.103-.657.902.902 0 0 1 .386-.548 2.42 2.42 0 0 1-1.033-.142 2.358 2.358 0 0 1-.87-.561 2.92 2.92 0 0 1-.669-1.808 2.075 2.075 0 0 0-.643-1.055 3.366 3.366 0 0 1-.752-1.511 3.307 3.307 0 0 1 .084-1.678.956.956 0 0 0 0-.753.894.894 0 0 0-.335-.302 4.47 4.47 0 0 1-1.44-1.305 1.736 1.736 0 0 1-.264-.917c0-.323.092-.641.264-.917.259-.289.587-.511.955-.647a2.448 2.448 0 0 1 1.154-.131Z"/><path fill="#FFE8D8" d="M207.488 198.996a288.82 288.82 0 0 1-29.417-12.204c-6.685-3.063-13.371-6.152-20.237-8.864-1.723-.678-3.446-1.306-5.143-1.984-1.697-.678-2.571-1.406-4.088-1.933a84.91 84.91 0 0 0-11.212-3.189 11.404 11.404 0 0 0-6.068 0c-8.1 2.963-5.143 13.735-1.697 18.959 4.404 6.28 10.858 10.919 18.308 13.158 11.34 3.942 23.323 3.792 35.152 4.796 7.543.311 15.054 1.15 22.474 2.511.503.134 1.021.21 1.543.226a6.33 6.33 0 0 0 2.604-1.002 6.145 6.145 0 0 0 1.896-2.011 7.772 7.772 0 0 0 2.185-5.022c-.231-1.758-2.262-2.286-3.831-2.788l-2.469-.653Z"/><path fill="#E26E61" d="M244.286 201.86c0-.151-.335-.151-.463-.126a23.14 23.14 0 0 1-4.346.226s-.386 0-.386.176.283.176.386.176a24.308 24.308 0 0 0 4.551-.251s.258.05.258-.201ZM243.514 205.751c0-.15-.334-.15-.462-.125a9.837 9.837 0 0 1-3.035 0c-.128 0-.411 0-.462.125-.052.126.154.201.257.226a11.18 11.18 0 0 0 3.445 0s.335-.075.257-.226ZM241.868 208.062c0-.126-.334-.151-.462-.126a5.082 5.082 0 0 1-2.572-.175.6.6 0 0 0-.514 0c-.129 0 0 .226.128.251a6.324 6.324 0 0 0 3.24.226s.258-.025.18-.176ZM239.76 210.447a.599.599 0 0 0-.514 0h-.952a3.522 3.522 0 0 1-.951 0 .599.599 0 0 0-.514 0s0 .226.128.251c.842.224 1.73.224 2.572 0 0 0 .36-.125.231-.251Z"/><path fill="#772929" d="M204.737 180.188c-3.086-.151-6.197-.301-9.283-.577a94.012 94.012 0 0 1-9.206-1.181 70.835 70.835 0 0 1-5.142-1.155.607.607 0 0 0-.515 0s0 .226.129.251a68.37 68.37 0 0 0 9.206 1.833c3.111.402 6.248.653 9.385.854l5.349.276s.386 0 .386-.175c0-.176-.206-.101-.309-.126ZM240.146 172.881a.662.662 0 0 0-.54 0 131.276 131.276 0 0 1-15.429 6.052l-4.526 1.582s-.257.126-.128.251a.6.6 0 0 0 .514 0l8.152-2.888c2.571-.929 5.142-1.833 7.714-2.887a64.65 64.65 0 0 0 4.243-1.934c.128.025.128-.1 0-.176ZM277.946 170.571a26.01 26.01 0 0 0-14.04 1.858 110.004 110.004 0 0 0-13.14 6.83c-4.475 2.512-8.923 5.023-13.449 7.534s-8.743 4.369-13.243 6.278a184.806 184.806 0 0 1-13.783 5.223l-1.722.552c-.129 0-.258.126-.129.251a.6.6 0 0 0 .514 0 179.006 179.006 0 0 0 13.629-5.022 189.905 189.905 0 0 0 13.14-6.052c4.474-2.285 8.846-4.771 13.243-7.232l6.685-3.716c2.083-1.155 4.166-2.285 6.326-3.29a28.03 28.03 0 0 1 14.014-3.063c.592 0 1.183.125 1.749.226.566.1.72-.277.206-.377ZM211.86 201.232a1391.545 1391.545 0 0 1-14.451-6.253 1107.89 1107.89 0 0 1-14.297-6.403c-4.783-2.177-9.54-4.386-14.272-6.63a77.479 77.479 0 0 0-13.808-5.65 30.392 30.392 0 0 0-14.58 0l-1.8.503c-.129 0-.258.125-.129.251a.599.599 0 0 0 .514 0 28.931 28.931 0 0 1 14.632-.678 64.634 64.634 0 0 1 13.654 5.399 960.32 960.32 0 0 0 13.963 6.478c4.68 2.126 9.394 4.244 14.143 6.353a1334.16 1334.16 0 0 0 14.194 6.153l1.774.753a.662.662 0 0 0 .54 0s.077-.201-.077-.276Z"/><path fill="#FBC9BE" d="M157.243 69.398c0-.225-.72-.2-.669 0 .625 2.72.568 5.546-.166 8.24a17.182 17.182 0 0 1-4.051 7.229 18.23 18.23 0 0 1-3.394 2.863c-.129 0 0 .2 0 .226a.548.548 0 0 0 .463 0 18.273 18.273 0 0 0 5.528-5.625 17.224 17.224 0 0 0 2.16-12.882l.129-.05Z"/><path fill="#FBC9BE" d="M152.228 80.85a13.323 13.323 0 0 1-4.628 4.67c-.309.2.283.351.463.226a13.795 13.795 0 0 0 4.783-4.822c.154-.175-.515-.25-.618-.075ZM145.003 76.103a12.702 12.702 0 0 0-1.774 9.492c0 .2.72.176.642 0a12.53 12.53 0 0 1 1.775-9.291c.103-.327-.54-.402-.643-.201ZM160.226 96.77a.528.528 0 0 0-.463 0c-1.554.328-3.16.35-4.723.066a12.118 12.118 0 0 1-4.38-1.724 20.273 20.273 0 0 1-2.16-1.457.556.556 0 0 0-.463 0s-.231.126 0 .226a15.635 15.635 0 0 0 9.257 3.591c.98.012 1.958-.106 2.906-.351 0 0 .128-.251.026-.352ZM163.157 93.103a.525.525 0 0 0-.463 0c-1.251.285-2.52.511-3.805.678 0 0-.283 0-.232.201.052.201.309.126.412 0a39.16 39.16 0 0 0 3.96-.703s.231-.075.128-.175ZM148.5 107.994a9.326 9.326 0 0 0-1.44-3.314 27.102 27.102 0 0 0-3.06-3.114 6.129 6.129 0 0 1-2.057-4.043c0-.226-.669-.226-.669 0 0 2.938 2.88 4.646 4.603 6.705a9.332 9.332 0 0 1 2.032 6.855 9.022 9.022 0 0 1-1.312 3.867c0 .201.515.276.643 0a9.471 9.471 0 0 0 1.26-6.956Z"/><path fill="#FBC9BE" d="M144.9 108.948c0-.201-.72-.151-.643 0 .274.838.349 1.725.22 2.595-.13.87-.46 1.7-.965 2.427-.129.176.514.276.642 0a5.893 5.893 0 0 0 .946-2.43 5.834 5.834 0 0 0-.2-2.592ZM131.143 116.482s-.155-.201-.232-.201a.444.444 0 0 0-.411 0 10.377 10.377 0 0 0-2.486 4.409 10.22 10.22 0 0 0-.086 5.032 5.641 5.641 0 0 0 1.415 2.185c.154.151.797 0 .565-.176a5.902 5.902 0 0 1-1.722-4.143 9.338 9.338 0 0 1 1.337-4.771 20.994 20.994 0 0 1 1.62-2.335ZM134.151 127.605a4.083 4.083 0 0 1-1.369-2.104 4 4 0 0 1 .135-2.491c0-.226-.566-.276-.643 0a4.2 4.2 0 0 0-.155 2.625 4.29 4.29 0 0 0 1.441 2.222.528.528 0 0 0 .463 0s.231-.151.128-.252ZM128.443 141.316c0-.125-.309 0-.412 0a1.757 1.757 0 0 1-.689-.147 1.723 1.723 0 0 1-.571-.405 2.833 2.833 0 0 1-.771-1.683 5.526 5.526 0 0 1 .283-3.415c0-.226-.54-.276-.643 0-.952 2.009-.54 6.052 2.571 5.826.077.101.36-.05.232-.176Z"/><path fill="#CD4343" d="M211.371 138.554c-.462-2.084-.951-4.244-1.388-6.353-.669-3.264-1.363-6.629-2.34-9.919a26.599 26.599 0 0 0-3.266-7.382 13.816 13.816 0 0 0-3.806-4.37c.039.275.039.554 0 .829a4.262 4.262 0 0 1-.154.628 14.855 14.855 0 0 1 2.726 3.591 25.381 25.381 0 0 1 3.111 7.056c.952 3.239 1.646 6.579 2.315 9.818.437 2.135.925 4.294 1.388 6.378l.129.603v.151l.617-.276.643-.277.025-.477Zm-15.274 3.541a35.94 35.94 0 0 0-1.825-2.16l-.566-.602a87.667 87.667 0 0 1-6.249-7.132 27.391 27.391 0 0 1-4.577-8.713l-.309-.603c0-.377-.231-.728-.308-1.055l-.617-.125h-.18l-.54-.201c.115.611.27 1.215.463 1.808l.154.527a28.607 28.607 0 0 0 4.783 9.115 87.955 87.955 0 0 0 6.351 7.258l.566.602c.617.653 1.208 1.381 1.774 2.084.566.704 1.26 1.557 1.954 2.286l.463.477.72-.377.515-.251-.669-.728c-.694-.703-1.311-1.482-1.903-2.21Z"/><path fill="#E8EFF5" d="M60.891 146.037c-.205-2.134 1.132-4.369.258-6.328-.978 2.009-3.318 3.089-4.5 5.022-.49.804-.772 1.708-1.312 2.511A14.744 14.744 0 0 1 53.691 149a10.82 10.82 0 0 0-2.571 4.344.493.493 0 0 0 0 .302c.036.084.1.154.18.201.155.101.33.17.514.2h1.414c1.543.226.258 2.235 0 2.913a20.097 20.097 0 0 0-1.825 9.794c.18 2.511 1.183 5.248 0 7.684-.206.452 1.08.552 1.26.175.686-2.117.74-4.382.154-6.528a19.827 19.827 0 0 1 .231-6.806 19.28 19.28 0 0 1 1.029-3.339 30.544 30.544 0 0 0 1.363-3.089 2.95 2.95 0 0 1 .558-1.206c.276-.357.63-.648 1.036-.853.72-.402 1.517-.653 2.212-1.13a4.476 4.476 0 0 0 1.515-1.731 4.357 4.357 0 0 0 .439-2.237c-.103-.678-.257-1.079-.309-1.657Z"/><path fill="#9BCD8F" d="M49.294 163.339a26.749 26.749 0 0 1-3.394-8.011c.413-.651.757-1.341 1.029-2.059.743.003 1.484-.073 2.211-.226.36-.084.684-.278.924-.553s.385-.618.413-.979c0-1.054-.797-1.883-1.234-2.787a3.464 3.464 0 0 0-1.723-1.908 12.43 12.43 0 0 0-3.009-.829 26.962 26.962 0 0 1-7.354-1.532c-.18 0-1.388 0-1.105.301a20.16 20.16 0 0 1 2.52 4.37 17.786 17.786 0 0 0 2.005 4.746 5.262 5.262 0 0 0 1.465 1.462 5.404 5.404 0 0 0 1.93.798c.23.036.464.036.694 0a30.528 30.528 0 0 0 3.086 6.855 17.534 17.534 0 0 1 1.722 10.597c0 .402 1.235.477 1.312 0a17.697 17.697 0 0 0-1.492-10.245ZM66.857 158.618c-2.095.281-4.211.39-6.326.326a18.42 18.42 0 0 0-5.631-.577c-.33.032-.648.131-.936.291a2.34 2.34 0 0 0-.734.638 2.255 2.255 0 0 0-.413 1.833c.177.506.474.963.867 1.334.394.371.872.646 1.396.8 0 .201-.617.377-.72.503a1.193 1.193 0 0 0-.309.627 18.289 18.289 0 0 0-.18 2.21l-.36 4.847c0 .427 1.286.452 1.312 0l.334-4.746c-.002-.741.058-1.48.18-2.21a.648.648 0 0 1 .334-.402c.033.519.243 1.011.598 1.399.355.387.833.646 1.357.736.282.052.572.046.851-.019.28-.065.541-.187.769-.358.227-.249.417-.528.565-.829a3.34 3.34 0 0 1 .798-.828 39.444 39.444 0 0 1 4.371-2.034 6.136 6.136 0 0 0 2.571-3.089c.232-.452-.514-.477-.694-.452Z"/><path fill="#E8EFF5" d="M48.034 172.931c-.514-2.059-1.028-4.118-1.594-6.152a16.35 16.35 0 0 0-1.106-2.963 7.67 7.67 0 0 0-.488-.854 1.38 1.38 0 0 0 0-1.13 2.538 2.538 0 0 0-.77-.865 2.615 2.615 0 0 0-1.082-.441 12.458 12.458 0 0 0-5.657-.176 12.537 12.537 0 0 0-4.68 1.909 9.215 9.215 0 0 0-1.594.552c-.566.251.206.528.463.553.231.109.49.153.746.125.797.226 1.542.653 2.288.954.959.37 1.978.566 3.009.578 1.202.001 2.4-.126 3.574-.377a7.998 7.998 0 0 0 2.803-.828c.18.376.334.753.463 1.079.333.82.617 1.659.848 2.512.489 1.808.926 3.616 1.389 5.424.206.552 1.491.477 1.388.1ZM47.005 152.541a24.187 24.187 0 0 0-2.777-3.415c.428-.263.773-.638.995-1.081.223-.444.315-.939.265-1.43 0-.151-.411-.126-.385 0 .053.454-.022.914-.217 1.33a2.528 2.528 0 0 1-.89 1.03l-.18-.201a9.08 9.08 0 0 0-1.902-1.532 11.913 11.913 0 0 0-2.057-.828 6.734 6.734 0 0 1-2.237-1.105.315.315 0 0 0-.283 0s-.129 0 0 .125a10.804 10.804 0 0 0 3.343 1.507c-.699.293-1.422.528-2.16.703v.126a.314.314 0 0 0 .283 0 14.488 14.488 0 0 0 2.288-.728l.334.15a7.396 7.396 0 0 1 1.93 1.406 23.395 23.395 0 0 1 1.722 1.834l.823 1.054a6.752 6.752 0 0 1-2.572 1.005 8.828 8.828 0 0 1-1.337.15 1.938 1.938 0 0 1-1.285-.251.314.314 0 0 0-.283 0s-.155 0 0 .126c.417.27.915.394 1.414.351a9.27 9.27 0 0 0 1.569-.15 7.458 7.458 0 0 0 2.57-1.005l.695 1.005s.412-.076.334-.176ZM66.677 159.773a.314.314 0 0 0-.283 0c-.37.247-.778.433-1.208.553.157-.329.385-.62.668-.854v-.125a.303.303 0 0 0-.141-.034.303.303 0 0 0-.141.034c-.357.276-.632.64-.798 1.054-.962.15-1.932.243-2.905.276-.598.049-1.191.141-1.775.277h-.231a11.31 11.31 0 0 0-2.572.929c-.205-.98-.514-2.185.206-2.988 0-.126-.257-.201-.334 0-.823.929-.411 2.209-.231 3.289-.703.397-1.358.869-1.955 1.406-.128 0 .257.176.335 0a10.873 10.873 0 0 1 4.19-2.335h.412a8.495 8.495 0 0 0 3.909.753h.591-.231a7.877 7.877 0 0 1-3.677-.627c.517-.11 1.04-.185 1.568-.226.797 0 1.595 0 2.392-.201a5.571 5.571 0 0 0 2.391-.829s0-.326-.18-.352Z"/><path fill="#9BCD8F" d="M60.969 141.392a13.794 13.794 0 0 1-1.26 2.511c-.155-.528-.643-.98-.515-1.557 0 0-.36-.151-.385 0-.154.703.566 1.205.566 1.883a13.81 13.81 0 0 1-1.492 1.858c-.343.321-.63.694-.849 1.105-.18.402-.257.829-.411 1.231-.104.29-.27.556-.489.778 0-.653-.411-1.281-.462-1.933 0-.126-.412-.126-.386 0 .21.724.365 1.463.463 2.209-.335.251-.72.427-1.055.703a1.624 1.624 0 0 0-.467.519 1.578 1.578 0 0 0-.201.662c.015.298.067.593.154.879l.206.878c0 .151.411 0 .386 0a14.47 14.47 0 0 1-.258-1.481 1.323 1.323 0 0 1 .088-.663c.085-.211.223-.397.401-.542.643-.578 1.543-.854 1.954-1.658.162-.393.3-.796.412-1.205a3.3 3.3 0 0 1 .771-1.18 15.719 15.719 0 0 0 1.774-2.185c.58-.89 1.055-1.842 1.415-2.838.077-.075-.309-.1-.36.026ZM42.3 162.033a1.675 1.675 0 0 0-.591-.878 7.172 7.172 0 0 0-1.132-.678h.489-.232c-.598.102-1.19.236-1.774.401h-.308a6.585 6.585 0 0 0-1.106 0h-.206H38.366l-.952.452c-.56.245-1.147.43-1.748.553l-1.929.477-1.08.251c-.154 0-.565.176-.411.402.154.226.463 0 .386 0-.078 0 .54-.251.643-.276l.874-.226 1.26-.302c.062.669-.1 1.339-.463 1.909 0 0 .309.175.386 0 .398-.613.57-1.339.488-2.059a9.223 9.223 0 0 0 1.62-.503c.5-.262 1.016-.497 1.543-.703.38-.122.766-.223 1.157-.301.397.184.776.402 1.132.653.286.221.485.531.565.879a3.716 3.716 0 0 1-.385 2.26c0 .15.334.175.385 0a3.72 3.72 0 0 0 .463-2.311Z"/><path fill="#FBC9BE" d="m61.406 167.809-1.003 6.127-.051.376-.438 2.712-.051.352-.437 2.712-.077.377-.592 3.666-.051.376-.206 1.231H42.583l-.206-1.256-.077-.376-.411-2.562-.052-.376-.643-3.918-.051-.376-.463-2.888-.051-.377-.952-5.8h21.729Z"/><path fill="#FCC670" d="M61.534 173.358H39.548l-.668-5.549h23.323l-.669 5.549Z"/></g><defs><clipPath id="a"><path fill="#fff" d="M0 .97h360v226H0z"/></clipPath></defs></svg>