<svg xmlns="http://www.w3.org/2000/svg" id="Слой_1" data-name="Слой 1" viewBox="0 0 65 65"><defs><style>.cls-3{fill:#423e4f}</style></defs><path d="M23.94 63.86a32.51 32.51 0 0 1 0-62.72C12.76 6.59 5 18.59 5 32.5s7.76 25.91 18.94 31.36Z" style="fill:#e06369"/><path d="M32.5 0a32.624 32.624 0 0 0-8.56 1.14C12.76 6.59 5 18.59 5 32.5s7.76 25.91 18.94 31.36A32.503 32.503 0 1 0 32.5 0Z" style="fill:#ff7374"/><path d="M24.058 48.747a1.996 1.996 0 0 1-1.737-2.975 12.649 12.649 0 0 1 9.013-5.76 11.904 11.904 0 0 1 11.303 5.623 2 2 0 0 1-3.395 2.115 7.889 7.889 0 0 0-7.468-3.762 8.662 8.662 0 0 0-5.977 3.763 2.018 2.018 0 0 1-1.74.996Z" class="cls-3"/><rect width="5.036" height="7.554" x="15.344" y="24.002" class="cls-3" rx="2.518" ry="2.518"/><rect width="5.036" height="7.554" x="44.619" y="24.002" class="cls-3" rx="2.518" ry="2.518"/><path d="M21.01 26.854a1.992 1.992 0 0 1-.606-.095l-6.292-1.995a2 2 0 0 1 1.21-3.812l6.291 1.995a2 2 0 0 1-.603 3.907ZM43.99 26.854a2 2 0 0 1-.603-3.907l6.292-1.995a2 2 0 0 1 1.209 3.812l-6.292 1.995a1.996 1.996 0 0 1-.606.095Z" class="cls-3"/></svg>