<svg xmlns="http://www.w3.org/2000/svg" viewBox="0 0 65 65"><defs><style>.cls-3{fill:#423e4f}</style></defs><g id="Слой_2" data-name="Слой 2"><path d="M23.94 63.86a32.51 32.51 0 0 1 0-62.72C12.76 6.59 5 18.59 5 32.5s7.76 25.91 18.94 31.36Z" style="fill:#9d75cc"/><path d="M32.5 0a32.624 32.624 0 0 0-8.56 1.14C12.76 6.59 5 18.59 5 32.5s7.76 25.91 18.94 31.36A32.503 32.503 0 1 0 32.5 0Z" style="fill:#cca5f2"/><path d="M17.7 25.56a2.007 2.007 0 0 1-1.739-3.01 6.537 6.537 0 0 1 4.726-3.036 6.247 6.247 0 0 1 5.935 2.938 2 2 0 1 1-3.395 2.115 2.235 2.235 0 0 0-2.099-1.078 2.556 2.556 0 0 0-1.71 1.072 1.967 1.967 0 0 1-1.717 1ZM40.076 25.56a2.007 2.007 0 0 1-1.74-3.01 6.537 6.537 0 0 1 4.726-3.036 6.245 6.245 0 0 1 5.935 2.938 2 2 0 1 1-3.395 2.115 2.235 2.235 0 0 0-2.099-1.078 2.556 2.556 0 0 0-1.71 1.072 1.967 1.967 0 0 1-1.717 1ZM32.5 48.4a12.597 12.597 0 0 0-3.112.875C18.358 54.038 13.971 33 32.5 32.992c18.53.007 14.142 21.046 3.112 16.283A12.597 12.597 0 0 0 32.5 48.4Z" class="cls-3"/></g></svg>