<svg xmlns="http://www.w3.org/2000/svg" id="Слой_1" data-name="Слой 1" viewBox="0 0 65 65"><defs><style>.cls-3{fill:#423e4f}</style></defs><path d="M23.94 63.86a32.51 32.51 0 0 1 0-62.72C12.76 6.59 5 18.59 5 32.5s7.76 25.91 18.94 31.36Z" style="fill:#71a862"/><path d="M32.5 0a32.624 32.624 0 0 0-8.56 1.14C12.76 6.59 5 18.59 5 32.5s7.76 25.91 18.94 31.36A32.503 32.503 0 1 0 32.5 0Z" style="fill:#9bcd8f"/><path d="M32.436 48.758a11.978 11.978 0 0 1-10.073-5.69 2 2 0 1 1 3.395-2.115 7.9 7.9 0 0 0 7.467 3.762 8.665 8.665 0 0 0 5.978-3.764 2.014 2.014 0 0 1 2.732-.728 1.99 1.99 0 0 1 .744 2.71 12.663 12.663 0 0 1-9.013 5.757 11.206 11.206 0 0 1-1.23.068Z" class="cls-3"/><rect width="5.036" height="7.554" x="15.083" y="24.002" class="cls-3" rx="2.518" ry="2.518"/><rect width="5.036" height="7.554" x="44.881" y="24.002" class="cls-3" rx="2.518" ry="2.518"/></svg>