<svg xmlns="http://www.w3.org/2000/svg" id="Слой_1" data-name="Слой 1" viewBox="0 0 65 65"><defs><style>.cls-3{fill:#423e4f}</style></defs><path d="M23.94 63.86a32.51 32.51 0 0 1 0-62.72C12.76 6.59 5 18.59 5 32.5s7.76 25.91 18.94 31.36Z" style="fill:#e0a34b"/><path d="M32.5 0a32.624 32.624 0 0 0-8.56 1.14C12.76 6.59 5 18.59 5 32.5s7.76 25.91 18.94 31.36A32.503 32.503 0 1 0 32.5 0Z" style="fill:#ffc75b"/><path d="M40.527 28.197a2.008 2.008 0 0 1-1.741-3.008 6.523 6.523 0 0 1 4.727-3.04 6.26 6.26 0 0 1 5.935 2.939 2 2 0 0 1-3.396 2.115 2.207 2.207 0 0 0-2.098-1.078 2.55 2.55 0 0 0-1.708 1.07 1.965 1.965 0 0 1-1.719 1.002ZM32.437 48.759a11.979 11.979 0 0 1-10.074-5.69 2 2 0 1 1 3.395-2.116 7.883 7.883 0 0 0 7.467 3.762 8.655 8.655 0 0 0 5.977-3.762 2.013 2.013 0 0 1 2.73-.73 1.989 1.989 0 0 1 .748 2.707 12.643 12.643 0 0 1-9.014 5.761 11.294 11.294 0 0 1-1.23.068Z" class="cls-3"/><rect width="5.036" height="7.554" x="15.083" y="21.366" class="cls-3" rx="2.518" ry="2.518"/></svg>