<svg xmlns="http://www.w3.org/2000/svg" id="Слой_1" data-name="Слой 1" viewBox="0 0 65 65"><defs><style>.cls-3{fill:#423e4f}</style></defs><path d="M23.94 63.86a32.51 32.51 0 0 1 0-62.72C12.76 6.59 5 18.59 5 32.5s7.76 25.91 18.94 31.36Z" style="fill:#447784"/><path d="M32.5 0a32.624 32.624 0 0 0-8.56 1.14C12.76 6.59 5 18.59 5 32.5s7.76 25.91 18.94 31.36A32.503 32.503 0 1 0 32.5 0Z" style="fill:#5c8d9f"/><rect width="5.036" height="7.554" x="15.083" y="24.002" class="cls-3" rx="2.518" ry="2.518"/><rect width="5.036" height="7.554" x="44.881" y="24.002" class="cls-3" rx="2.518" ry="2.518"/><path d="M17.441 25.73a8.145 8.145 0 0 1-4.167-1.065 2 2 0 1 1 2.067-3.426 4.907 4.907 0 0 0 4.167.043 1.972 1.972 0 0 1 2.803-.105 2.026 2.026 0 0 1 .104 2.847 7.025 7.025 0 0 1-4.974 1.705ZM42.158 44.168a2.001 2.001 0 0 1-.719-.135c-6.432-2.478-11.646-2.723-18.478-2.32a2 2 0 1 1-.238-3.991c7.381-.444 13.045-.16 20.154 2.579a2 2 0 0 1-.719 3.867Z" class="cls-3"/></svg>