<svg xmlns="http://www.w3.org/2000/svg" id="Слой_1" data-name="Слой 1" viewBox="0 0 65 65"><defs><style>.cls-3{fill:#423e4f}</style></defs><path d="M23.94 63.86a32.51 32.51 0 0 1 0-62.72C12.76 6.59 5 18.59 5 32.5s7.76 25.91 18.94 31.36Z" style="fill:#70b0c1"/><path d="M32.5 0a32.624 32.624 0 0 0-8.56 1.14C12.76 6.59 5 18.59 5 32.5s7.76 25.91 18.94 31.36A32.503 32.503 0 1 0 32.5 0Z" style="fill:#8bd5f0"/><path d="M24.057 48.746a1.996 1.996 0 0 1-1.736-2.975 12.655 12.655 0 0 1 9.014-5.758 11.914 11.914 0 0 1 11.302 5.623 2 2 0 0 1-3.395 2.115 7.866 7.866 0 0 0-7.466-3.762 8.66 8.66 0 0 0-5.98 3.762 2.019 2.019 0 0 1-1.739.995Z" class="cls-3"/><rect width="5.036" height="7.554" x="15.083" y="24.002" class="cls-3" rx="2.518" ry="2.518"/><rect width="5.036" height="7.554" x="44.881" y="24.002" class="cls-3" rx="2.518" ry="2.518"/></svg>