<svg xmlns="http://www.w3.org/2000/svg" width="170" height="105" fill="none"><g clip-path="url(#a)"><path fill="#000" stroke="#000" stroke-miterlimit="10" stroke-width=".5" d="M72.92 104.976c3.192.296 6.437.114 9.584.817 1.167.249 2.295.655 3.353 1.207h.36a16.398 16.398 0 0 0-6.67-1.838c-3.224-.291-6.51-.096-9.679-.858a9.924 9.924 0 0 1-6.77-4.856 5.969 5.969 0 0 1-.565-3.898 6.238 6.238 0 0 1 1.684-3.063 12.1 12.1 0 0 1 6.553-3.148 28.704 28.704 0 0 1 9.88.244 67.81 67.81 0 0 1 9.923 2.68 156.018 156.018 0 0 1 16.1 6.206A52.825 52.825 0 0 1 120.065 107h.291a48.162 48.162 0 0 0-10.047-6.936 113.75 113.75 0 0 0-15.394-6.491c-6.376-2.268-12.957-4.635-19.803-4.724a18.267 18.267 0 0 0-8.064 1.458 8.036 8.036 0 0 0-4.618 4.854 6.894 6.894 0 0 0 2.302 6.738c2.226 2.077 5.234 2.803 8.188 3.077ZM174.501 72.668a78.243 78.243 0 0 1-1.148-2.926 44.856 44.856 0 0 0-3.204-7.442 16.645 16.645 0 0 0-5.5-5.589c-2.258-1.454-4.733-2.646-6.689-4.523-4.173-4.003-4.103-10.462-1.806-15.425 2.55-5.51 7.376-9.483 11.686-13.576a43.204 43.204 0 0 0 6.661-7.646v-.34a36.98 36.98 0 0 1-5.306 6.407c-4.243 4.216-9.128 7.976-12.219 13.195-2.635 4.45-3.753 10.433-1.046 15.125 2.79 4.835 8.893 6.003 12.406 10.129a25.285 25.285 0 0 1 4.069 7.662c.688 1.828 1.343 3.664 2.096 5.462v-.513Z"/><path fill="#000" d="M131.123 49.857a6.428 6.428 0 0 0-.349-3.487 9.608 9.608 0 0 0-1.83-2.813 29.713 29.713 0 0 0-2.552-2.437 36.65 36.65 0 0 1-2.609-2.595c-1.65-1.772-3.388-3.653-5.738-4.464a8.886 8.886 0 0 0-6.65.394 7.495 7.495 0 0 0-2.658 2.103 7.965 7.965 0 0 0-1.509 3.328 10.664 10.664 0 0 0-.057 3.77 13.96 13.96 0 0 0 1.116 3.586 16.328 16.328 0 0 0 3.603 5.253 12.709 12.709 0 0 0 5.175 2.937c1.065.303 2.158.495 3.263.571 1.356.115 2.72.05 4.059-.193a8.531 8.531 0 0 0 6.18-4.288 6.162 6.162 0 0 0 .556-1.665c.021-.12-.162-.172-.184-.05a7.342 7.342 0 0 1-4.766 5.301c-1.318.485-2.711.74-4.116.752a17.242 17.242 0 0 1-3.528-.278 13.006 13.006 0 0 1-5.445-2.328 14.375 14.375 0 0 1-3.883-4.604 14.013 14.013 0 0 1-1.98-6.881 7.931 7.931 0 0 1 2.937-6.34 8.547 8.547 0 0 1 6.368-1.545 8.296 8.296 0 0 1 3.202 1.206 15.752 15.752 0 0 1 2.76 2.344c.85.87 1.654 1.784 2.512 2.647.81.816 1.702 1.543 2.541 2.328 1.619 1.516 3.213 3.338 3.46 5.635.061.587.04 1.18-.062 1.762-.02.12.163.172.184.05Z"/><path stroke="#000" stroke-miterlimit="10" stroke-width=".5" d="M131.123 49.857a6.428 6.428 0 0 0-.349-3.487 9.608 9.608 0 0 0-1.83-2.813 29.713 29.713 0 0 0-2.552-2.437 36.65 36.65 0 0 1-2.609-2.595c-1.65-1.772-3.388-3.653-5.738-4.464a8.886 8.886 0 0 0-6.65.394 7.495 7.495 0 0 0-2.658 2.103 7.965 7.965 0 0 0-1.509 3.328 10.664 10.664 0 0 0-.057 3.77c.209 1.24.584 2.446 1.116 3.586a16.328 16.328 0 0 0 3.603 5.253 12.709 12.709 0 0 0 5.175 2.937c1.065.303 2.158.495 3.263.571 1.356.115 2.72.05 4.059-.193a8.531 8.531 0 0 0 6.18-4.288 6.162 6.162 0 0 0 .556-1.665Zm0 0c.021-.12-.162-.172-.184-.05m.184.05c-.021.12-.204.07-.184-.05m0 0a7.342 7.342 0 0 1-4.766 5.301c-1.318.485-2.711.74-4.116.752a17.242 17.242 0 0 1-3.528-.278 13.006 13.006 0 0 1-5.445-2.328 14.375 14.375 0 0 1-3.883-4.604 14.013 14.013 0 0 1-1.98-6.881 7.931 7.931 0 0 1 2.937-6.34 8.547 8.547 0 0 1 6.368-1.545 8.296 8.296 0 0 1 3.202 1.206 15.752 15.752 0 0 1 2.76 2.344c.85.87 1.654 1.784 2.512 2.647.81.816 1.702 1.543 2.541 2.328 1.619 1.516 3.213 3.338 3.46 5.635.061.587.04 1.18-.062 1.762Z"/><path fill="#000" stroke="#000" stroke-miterlimit="10" stroke-width=".5" d="M174.5 85.4a48.431 48.431 0 0 1-3.032-4.14c-2.922-4.491-4.683-9.525-7.154-14.249a26.34 26.34 0 0 0-4.483-6.409c-1.703-1.72-3.729-3.07-5.572-4.63-1.812-1.533-3.535-3.35-4.087-5.732-.71-3.064.73-6.06 1.538-8.95a16.217 16.217 0 0 0-2.719-13.859 24.651 24.651 0 0 0-12.319-8.853c-5.579-1.93-11.534-2.405-17.387-2.754-5.977-.357-12.263-.892-18.012 1.169-8.98 3.219-15.08 12.7-14.856 22.152.13 5.505 2.334 10.793 5.369 15.315a48.111 48.111 0 0 0 10.66 10.975c3.832 2.994 7.799 5.94 10.527 10.042 3.383 5.087 3.988 11.157 5.657 16.89 1.558 5.35 4.387 10.036 7.399 14.633h.206c-1.463-2.227-2.886-4.479-4.147-6.83a40.648 40.648 0 0 1-3.236-7.725c-.857-2.908-1.397-5.896-2.184-8.822a28.28 28.28 0 0 0-3.116-7.597 27.089 27.089 0 0 0-4.465-5.377c-3.492-3.303-7.57-5.908-11.087-9.183a38.15 38.15 0 0 1-9.56-13.717 23.329 23.329 0 0 1 7.716-27.813c4.728-3.451 10.429-4.317 16.162-4.239 3.017.042 6.037.244 9.046.45 3.026.176 6.039.519 9.027 1.025 5.619 1.012 11.191 2.988 15.433 6.936 3.758 3.5 6.539 8.45 6.292 13.707-.138 2.926-1.44 5.562-2.051 8.388a8.578 8.578 0 0 0 1.054 6.685 20.49 20.49 0 0 0 4.796 4.658 29.187 29.187 0 0 1 5.52 5.2c3.261 4.287 4.935 9.496 7.352 14.253a47.972 47.972 0 0 0 5.713 8.7v-.3Z"/><path fill="#000" stroke="#000" stroke-miterlimit="10" stroke-width=".5" d="M174.5 93.78a39.573 39.573 0 0 1-4.492-4.927c-3.098-4.065-5.287-8.71-7.599-13.242-2.278-4.465-4.732-8.938-8.273-12.544-1.729-1.762-3.706-3.28-5.309-5.165a9.886 9.886 0 0 1-2.463-7.557c.25-2.797 1.227-5.48 1.365-8.292a14.422 14.422 0 0 0-.814-5.575 18.747 18.747 0 0 0-6.74-8.464 38.563 38.563 0 0 0-10.564-5.334 51.47 51.47 0 0 0-13.754-2.72 27.387 27.387 0 0 0-15.421 3.247 17.833 17.833 0 0 0-8.445 10.49c-1.34 5.007-.119 10.362 2.22 14.876 2.516 4.852 6.419 8.817 10.372 12.515 4.011 3.751 8.216 7.344 11.632 11.672a31.478 31.478 0 0 1 4.309 7.079 39.772 39.772 0 0 1 2.307 8.477 78.192 78.192 0 0 0 1.807 8.456c.826 2.62 1.99 5.121 3.461 7.44.584.946 1.201 1.87 1.828 2.788h.23a38.775 38.775 0 0 1-5.074-9.457c-1.818-5.438-1.933-11.3-3.946-16.685-1.843-4.93-5.204-9.09-8.866-12.795-7.587-7.678-17.562-14.407-20.122-25.57a16.843 16.843 0 0 1 3.222-14.812 21.769 21.769 0 0 1 12.863-7.109c5.666-1.028 11.585-.322 17.131 1.058a46.329 46.329 0 0 1 10.906 4.139 24.088 24.088 0 0 1 8.913 7.67 14.56 14.56 0 0 1 2.137 5.264 18.188 18.188 0 0 1-.336 7.104c-.541 2.586-1.25 5.291-.623 7.93a12.205 12.205 0 0 0 3.598 5.657c1.753 1.737 3.669 3.29 5.288 5.161a41.035 41.035 0 0 1 4.416 6.35c2.522 4.355 4.529 8.986 7.065 13.334a42.956 42.956 0 0 0 7.771 9.806v-.264Z"/><path fill="#000" stroke="#000" stroke-miterlimit="10" stroke-width=".5" d="M174.5 101.765c-2.057-1.318-4.066-2.706-5.982-4.205-3.737-2.925-7.2-6.432-9.171-10.813-2.103-4.676-1.705-10.11-4.237-14.622-2.058-3.67-5.368-6.39-8.023-9.596a16.937 16.937 0 0 1-3.233-5.496c-.857-2.65-.612-5.44-.436-8.172.29-2.547.079-5.126-.618-7.592a17.128 17.128 0 0 0-3.319-5.706c-3.296-3.84-7.878-6.2-12.497-8.071-4.577-1.854-9.361-3.688-14.31-4.18-4.366-.433-8.949.472-12.098 3.727a15.266 15.266 0 0 0-3.897 10.506c-.096 9.627 6.942 16.843 13.653 22.834a102.787 102.787 0 0 1 10.695 10.3 31.743 31.743 0 0 1 4.153 6.21 26.833 26.833 0 0 1 2.361 7.711c.457 2.793.685 5.623 1.275 8.393a39.396 39.396 0 0 0 2.486 7.535 72.149 72.149 0 0 0 3.277 6.472h.222a52.685 52.685 0 0 1-5.509-12.803c-1.342-5.292-1.151-10.895-3.296-15.988a36.257 36.257 0 0 0-8.371-11.462c-6.882-6.767-15.946-12.572-19.484-21.982a19.16 19.16 0 0 1-.49-12.313 12.528 12.528 0 0 1 8.822-8.575c4.847-1.253 10.021.054 14.637 1.62 4.952 1.68 10.072 3.58 14.344 6.656 3.996 2.878 7.306 7.14 7.802 12.172.27 2.747-.201 5.493-.207 8.241a13.87 13.87 0 0 0 1.434 6.465c1.89 3.69 5.157 6.416 7.82 9.518a19.564 19.564 0 0 1 3.541 5.571 45.89 45.89 0 0 1 1.785 7.639 22.825 22.825 0 0 0 2.409 6.775 26.435 26.435 0 0 0 4.073 5.354 56.257 56.257 0 0 0 10.389 8.077v-.2Z"/><path fill="#000" stroke="#000" stroke-miterlimit="10" stroke-width=".5" d="M174.5 106.893a164.091 164.091 0 0 1-6.812-4.142 47.793 47.793 0 0 1-10.983-9.023 25.052 25.052 0 0 1-3.836-6.248c-1.009-2.341-1.74-4.787-2.556-7.198a36.66 36.66 0 0 0-2.783-6.544 61.39 61.39 0 0 0-3.922-5.645 26.459 26.459 0 0 1-3.539-5.963 20.727 20.727 0 0 1-1.038-7.736 28.83 28.83 0 0 0-.556-7.591 16.41 16.41 0 0 0-2.902-5.76c-2.858-3.728-6.917-6.232-11.148-8.134-2.261-1.016-4.584-1.893-6.908-2.75a22.407 22.407 0 0 0-6.795-1.643 8.123 8.123 0 0 0-5.739 1.855 9.544 9.544 0 0 0-2.804 4.846c-1.04 4.026-.077 8.366 1.695 12.04 4.031 8.356 11.899 13.733 18.498 19.886a39.62 39.62 0 0 1 8.578 10.625c2.321 4.53 2.825 9.58 3.673 14.522a35.975 35.975 0 0 0 1.914 7.359 30.869 30.869 0 0 0 3.296 5.969c.321.466.649.927.985 1.382h.239a35.752 35.752 0 0 1-3.994-6.592c-2.078-4.66-2.393-9.81-3.352-14.76a30.89 30.89 0 0 0-2.053-6.847 28.633 28.633 0 0 0-3.435-5.65c-5.527-7.193-13.446-12.012-19.354-18.846a27.687 27.687 0 0 1-6.488-11.864c-.892-4.038-.566-9.11 2.8-11.99 3.991-3.415 9.656-1.105 13.899.497 4.683 1.768 9.459 3.709 13.296 7.012a20.226 20.226 0 0 1 4.36 5.159 15.806 15.806 0 0 1 2.051 6.952c.173 2.647-.079 5.305.16 7.95a15.922 15.922 0 0 0 1.976 6.353c2.215 3.995 5.524 7.251 7.453 11.425 2.068 4.476 2.968 9.415 5.285 13.786a31.182 31.182 0 0 0 9.075 9.978A108.936 108.936 0 0 0 174.302 107h.198v-.107ZM174.5 62.778a23.694 23.694 0 0 0-5.542-7.677c-1.79-1.54-3.938-2.548-5.835-3.936a9.698 9.698 0 0 1-2.652-2.756 8.537 8.537 0 0 1-1.153-3.809c-.394-5.687 3.836-10.29 7.596-14.003 2.486-2.454 5.132-4.766 7.586-7.256v-.285c-2.143 2.188-4.436 4.243-6.641 6.357-3.697 3.545-7.966 7.705-8.662 13.048a9.139 9.139 0 0 0 1.669 6.851c1.508 1.914 3.743 3.03 5.756 4.317a18.547 18.547 0 0 1 5.106 4.805 31.681 31.681 0 0 1 2.772 4.776v-.432Z"/><path fill="#000" stroke="#000" stroke-miterlimit="10" stroke-width=".5" d="M174.501 53.118a9.348 9.348 0 0 0-.953-1.01 10.264 10.264 0 0 0-3.034-1.79 9.43 9.43 0 0 1-3.463-2.052 8.13 8.13 0 0 1-1.893-6.587c.682-5.155 5.202-8.477 9.343-11.138v-.225c-3.843 2.465-7.75 5.274-9.18 9.766a9.038 9.038 0 0 0 .357 6.477 6.766 6.766 0 0 0 1.936 2.478 17.109 17.109 0 0 0 3.606 1.79 8.807 8.807 0 0 1 3.281 2.624v-.333ZM170.465-5h-.221a28.697 28.697 0 0 1 2.2 8.634 29.62 29.62 0 0 1 .148 5.474 9.555 9.555 0 0 1-.526 2.585 6.84 6.84 0 0 1-1.397 2.158 31.68 31.68 0 0 1-4.164 3.422 13.209 13.209 0 0 0-3.433 3.646c-.903 1.513-1.605 3.238-2.912 4.464a4.442 4.442 0 0 1-2.558 1.209 5.22 5.22 0 0 1-2.87-.616 17.545 17.545 0 0 1-4.749-4.006 74.892 74.892 0 0 0-4.488-4.454 89.896 89.896 0 0 0-9.763-7.7A124.329 124.329 0 0 0 124.91 3.22c-3.721-2.032-7.525-3.909-11.369-5.697A303.631 303.631 0 0 0 107.973-5h-.493c1.131.5 2.265.994 3.391 1.505 3.958 1.797 7.881 3.671 11.728 5.694 3.819 2.007 7.563 4.162 11.171 6.529a93.549 93.549 0 0 1 10.325 7.792 78.752 78.752 0 0 1 4.664 4.433c1.38 1.588 2.9 3.05 4.541 4.368 1.504 1.083 3.382 1.878 5.237 1.263a6.85 6.85 0 0 0 3.509-3.448c.454-.792.868-1.607 1.35-2.382a10.126 10.126 0 0 1 1.728-2.08c1.338-1.245 2.889-2.23 4.295-3.395a8.602 8.602 0 0 0 2.95-3.88c.465-1.78.615-3.628.444-5.46A30.793 30.793 0 0 0 170.465-5Z"/><path fill="#000" stroke="#000" stroke-miterlimit="10" stroke-width=".5" d="M165.522-4.74c-.075-.089-.157-.172-.233-.26h-.261a15.407 15.407 0 0 1 3.619 6.812 10.423 10.423 0 0 1-1.641 8.773c-1.106 1.388-2.611 2.383-3.77 3.721a33.626 33.626 0 0 0-2.333 3.436 5.823 5.823 0 0 1-2.958 2.604 4.596 4.596 0 0 1-4.264-1.33 35.94 35.94 0 0 1-3.286-3.627 89.265 89.265 0 0 0-3.457-3.744 90.93 90.93 0 0 0-7.484-6.846A92.089 92.089 0 0 0 124.8-5h-.421a95.326 95.326 0 0 1 5.251 3.013 91.4 91.4 0 0 1 16.235 12.822 89.74 89.74 0 0 1 3.574 3.76c1.13 1.26 2.166 2.615 3.345 3.83a6.502 6.502 0 0 0 3.805 2.239 4.154 4.154 0 0 0 3.444-1.481 24.925 24.925 0 0 0 2.339-3.39c.432-.674.93-1.303 1.486-1.878.628-.638 1.317-1.212 1.973-1.82a9.96 9.96 0 0 0 2.685-3.812c.516-1.431.724-2.955.61-4.472a14.853 14.853 0 0 0-3.604-8.55Z"/><path fill="#000" stroke="#000" stroke-miterlimit="10" stroke-width=".5" d="M162.551-1.971a119.18 119.18 0 0 0-3.522-2.316c-.387-.244-.784-.473-1.173-.713h-.349c1.017.624 2.03 1.256 3.028 1.91 1.11.726 2.229 1.454 3.295 2.245a6.947 6.947 0 0 1 2.258 2.449c.241.5.34 1.056.288 1.608-.073.562-.27 1.1-.576 1.577-.579.96-1.384 1.759-1.978 2.709a24.927 24.927 0 0 0-1.391 2.824 8.869 8.869 0 0 1-1.629 2.598 4.354 4.354 0 0 1-3.014 1.283c-1.2.01-2.38-.312-3.41-.929a11.556 11.556 0 0 1-2.798-2.435c-.822-.933-1.565-1.932-2.353-2.893a57.329 57.329 0 0 0-2.402-2.75 58.885 58.885 0 0 0-11.17-9.34c-.466-.3-.951-.57-1.426-.856h-.332c.087.052.178.096.264.148a58.558 58.558 0 0 1 14.206 12.065c.822.964 1.592 1.97 2.394 2.951 1.535 1.88 3.363 3.704 5.852 4.138a5.032 5.032 0 0 0 3.259-.442 5.532 5.532 0 0 0 2.09-2.191c.532-.924.917-1.922 1.379-2.881.227-.485.487-.953.779-1.401.329-.493.709-.95 1.074-1.416a5.34 5.34 0 0 0 1.384-2.904 3.933 3.933 0 0 0-1.2-2.81 16.039 16.039 0 0 0-2.827-2.228Z"/><path fill="#000" stroke="#000" stroke-miterlimit="10" stroke-width=".5" d="M158-.136a24.8 24.8 0 0 0-4.757-1.95A30.152 30.152 0 0 1 147.248-5h-.371a29.885 29.885 0 0 0 4.693 2.478c1.572.653 3.223 1.1 4.789 1.77a8.817 8.817 0 0 1 3.663 2.635 4.447 4.447 0 0 1 .869 3.789 3.53 3.53 0 0 1-.894 1.623 2.993 2.993 0 0 1-1.928.847 6.227 6.227 0 0 1-4.36-1.942c-1.368-1.196-2.691-2.448-4.032-3.674L141.44-5h-.282a963650.854 963650.854 0 0 1 11.826 10.806 8.368 8.368 0 0 0 4.174 2.482 3.654 3.654 0 0 0 2.227-.31 3.204 3.204 0 0 0 1.302-1.285 4.282 4.282 0 0 0 .192-3.701A6.874 6.874 0 0 0 158-.136ZM119.635 5.272a83.497 83.497 0 0 1-7.995-2.501 83.461 83.461 0 0 1-15.235-7.473c-.154-.096-.3-.201-.452-.298h-.332a83.387 83.387 0 0 0 23.457 10.324c2.067.547 4.505 1.12 5.949 2.835a2.985 2.985 0 0 1 .367 3.43 4.569 4.569 0 0 1-3.396 2.066 17.747 17.747 0 0 1-4.689-.287 53.245 53.245 0 0 0-4.325-.37 43.38 43.38 0 0 0-8.272.404c-9.593 1.435-19.05 7.125-22.425 16.626-3.632 10.226 1.406 21.023 7.851 28.894 7.027 8.582 16.177 15.322 22.212 24.73a36.9 36.9 0 0 1 3.709 7.401c.516 1.436 1.198 3.206.442 4.675a3.801 3.801 0 0 1-2.978 1.843c-2.818.349-5.393-1.791-7.674-3.138a89.988 89.988 0 0 0-7.366-3.924c-9.48-4.472-20.763-7.421-31.073-4.054a12.585 12.585 0 0 0-7.59 6.179 10.803 10.803 0 0 0-.35 8.523A12.471 12.471 0 0 0 64.21 107h.35a12.536 12.536 0 0 1-2.32-1.867 11.305 11.305 0 0 1-3.243-8.945 10.971 10.971 0 0 1 5.473-8.208 19.733 19.733 0 0 1 6.58-2.226c2.719-.487 5.487-.64 8.244-.457A50.523 50.523 0 0 1 95.84 89.53a81.732 81.732 0 0 1 7.623 3.755 99.737 99.737 0 0 1 3.526 2.054 25.409 25.409 0 0 0 3.379 1.883c1.843.766 4.185.9 5.713-.611 1.796-1.777.583-4.583-.196-6.553-4.018-10.17-12.562-17.474-20.015-25.098-7.65-7.826-15.27-17.591-14.55-29.191.674-10.861 9.686-18.836 19.744-21.435a45.504 45.504 0 0 1 17.493-.607c2.316.31 5.078.434 6.692-1.593a3.221 3.221 0 0 0-.324-4.366 11.248 11.248 0 0 0-5.291-2.496Z"/><path fill="#000" d="M115.476 47.906a10.327 10.327 0 0 1 2.113 1.845 2.486 2.486 0 0 0 2.267.825 2.93 2.93 0 0 0 2.215-2.007 3.212 3.212 0 0 0-.679-2.642 5.01 5.01 0 0 0-1.749-1.285 33.747 33.747 0 0 0-2.629-1.242 8.254 8.254 0 0 0-2.008-.673 3.987 3.987 0 0 0-2.466.33 1.47 1.47 0 0 0-.677.733c-.122.373-.1.777.063 1.133a5.267 5.267 0 0 0 2.668 2.533c.293.153.589.298.882.45.109.056.205-.109.096-.165a7.813 7.813 0 0 1-3.074-2.185c-.445-.63-.827-1.539-.137-2.143a3.143 3.143 0 0 1 2.22-.54c.664.066 1.313.241 1.92.518.833.338 1.653.712 2.457 1.114.382.19.76.387 1.129.6.266.143.518.31.753.497a3.292 3.292 0 0 1 1.11 2.278 2.488 2.488 0 0 1-1.562 2.307 2.15 2.15 0 0 1-1.342.22 2.425 2.425 0 0 1-1.04-.542c-.665-.548-1.19-1.246-1.879-1.769a3.938 3.938 0 0 0-.555-.355c-.108-.057-.205.108-.096.165Z"/><path stroke="#000" stroke-miterlimit="10" stroke-width=".5" d="M115.476 47.906a10.327 10.327 0 0 1 2.113 1.845 2.486 2.486 0 0 0 2.267.825 2.93 2.93 0 0 0 2.215-2.007 3.212 3.212 0 0 0-.679-2.642 5.01 5.01 0 0 0-1.749-1.285 33.747 33.747 0 0 0-2.629-1.242 8.254 8.254 0 0 0-2.008-.673 3.987 3.987 0 0 0-2.466.33 1.47 1.47 0 0 0-.677.733c-.122.373-.1.777.063 1.133a5.267 5.267 0 0 0 2.668 2.533c.293.153.589.298.882.45Zm0 0c.109.056.205-.109.096-.165m-.096.165c-.109-.057-.012-.222.096-.165m0 0a7.813 7.813 0 0 1-3.074-2.185c-.445-.63-.827-1.539-.137-2.143a3.143 3.143 0 0 1 2.22-.54c.664.066 1.313.241 1.92.518.833.338 1.653.712 2.457 1.114.382.19.76.387 1.129.6.266.143.518.31.753.497a3.292 3.292 0 0 1 1.11 2.278 2.488 2.488 0 0 1-1.562 2.307 2.15 2.15 0 0 1-1.342.22 2.425 2.425 0 0 1-1.04-.542c-.665-.548-1.19-1.246-1.879-1.769a3.938 3.938 0 0 0-.555-.355Z"/><path fill="#000" d="M134.156 16.05c.444.098.887.215 1.334.298.35.096.723.059 1.047-.105.641-.402.501-1.264.174-1.818a6.744 6.744 0 0 0-1.618-1.76c-.317-.256-.649-.492-.961-.755-.275-.231-.543-.471-.83-.687a4.414 4.414 0 0 0-2.253-.825 9.836 9.836 0 0 0-1.336-.038 3.995 3.995 0 0 0-1.089.135 1.227 1.227 0 0 0-.725.542 1.305 1.305 0 0 0-.061 1.031c.135.34.322.656.553.937.224.303.468.59.731.86a6.153 6.153 0 0 0 2.218 1.398c.917.334 1.859.597 2.816.786.12.027.171-.157.051-.183-.769-.16-1.53-.357-2.279-.593a7.236 7.236 0 0 1-2.009-.96 6.704 6.704 0 0 1-1.481-1.567 2.584 2.584 0 0 1-.457-.874.967.967 0 0 1 .294-.987c.271-.19.592-.296.923-.306a9.975 9.975 0 0 1 1.11-.033c.803-.024 1.6.139 2.329.476.582.366 1.13.784 1.637 1.249.595.43 1.151.912 1.662 1.44.474.527 1.192 1.41.724 2.147a1.027 1.027 0 0 1-1.119.306c-.447-.083-.89-.2-1.334-.298-.12-.027-.171.157-.051.183Z"/><path stroke="#000" stroke-miterlimit="10" stroke-width=".5" d="M134.156 16.05c.444.098.887.215 1.334.298.35.096.723.059 1.047-.105.641-.402.501-1.264.174-1.818a6.744 6.744 0 0 0-1.618-1.76c-.317-.256-.649-.492-.961-.755-.275-.231-.543-.471-.83-.687a4.414 4.414 0 0 0-2.253-.825 9.836 9.836 0 0 0-1.336-.038 3.995 3.995 0 0 0-1.089.135 1.227 1.227 0 0 0-.725.542 1.305 1.305 0 0 0-.061 1.031c.135.34.322.656.553.937.224.303.468.59.731.86a6.153 6.153 0 0 0 2.218 1.398c.917.334 1.859.597 2.816.786Zm0 0c.12.026.171-.158.051-.184m-.051.183c-.12-.026-.069-.21.051-.183m0 0c-.769-.16-1.53-.357-2.279-.593a7.236 7.236 0 0 1-2.009-.96 6.704 6.704 0 0 1-1.481-1.567 2.584 2.584 0 0 1-.457-.874.967.967 0 0 1 .294-.987c.271-.19.592-.296.923-.306a9.975 9.975 0 0 1 1.11-.033c.803-.024 1.6.139 2.329.476.582.366 1.13.784 1.637 1.249.595.43 1.151.912 1.662 1.44.474.527 1.192 1.41.724 2.147a1.027 1.027 0 0 1-1.119.306c-.447-.083-.89-.2-1.334-.298Z"/><path fill="#000" d="M117.643 7.79a3.988 3.988 0 0 1 2.366.891 1.402 1.402 0 0 1 .402 1.188 1.88 1.88 0 0 1-.733 1.149 3.545 3.545 0 0 1-3.297.195c-.582-.18-1.157-.386-1.741-.562a32.011 32.011 0 0 0-10.777-1.317 5.82 5.82 0 0 1-1.401-.02 1.158 1.158 0 0 1-.904-.62.825.825 0 0 1-.076-.323c-.003-.5.612-.759 1.038-.895.873-.245 1.772-.38 2.678-.4a39.87 39.87 0 0 1 3.543-.019c1.238.04 2.475.115 3.709.211a113.317 113.317 0 0 1 5.193.522c.121.016.12-.175 0-.19a120.068 120.068 0 0 0-4.627-.477 88.55 88.55 0 0 0-3.791-.239 43.919 43.919 0 0 0-3.741-.013c-.974.014-1.942.142-2.886.382-.487.141-1.185.394-1.293.968a1.072 1.072 0 0 0 .376.955c.337.246.744.377 1.16.374.532.03 1.068-.033 1.6-.05a31.752 31.752 0 0 1 11.22 1.678 5.167 5.167 0 0 0 3.5.354 2.11 2.11 0 0 0 1.442-2.057 2.15 2.15 0 0 0-1.689-1.615 7.48 7.48 0 0 0-1.271-.26c-.121-.016-.12.175 0 .19Z"/><path stroke="#000" stroke-miterlimit="10" stroke-width=".5" d="M117.643 7.79a3.988 3.988 0 0 1 2.366.891 1.402 1.402 0 0 1 .402 1.188 1.88 1.88 0 0 1-.733 1.149 3.545 3.545 0 0 1-3.297.195c-.582-.18-1.157-.386-1.741-.562a32.011 32.011 0 0 0-10.777-1.317 5.82 5.82 0 0 1-1.401-.02 1.158 1.158 0 0 1-.904-.62.825.825 0 0 1-.076-.323c-.003-.5.612-.759 1.038-.895.873-.245 1.772-.38 2.678-.4a39.87 39.87 0 0 1 3.543-.019c1.238.04 2.475.115 3.709.211a113.317 113.317 0 0 1 5.193.522Zm0 0c.121.016.12-.175 0-.19m0 .19c-.12-.015-.121-.206 0-.19m0 0a120.068 120.068 0 0 0-4.627-.477 88.55 88.55 0 0 0-3.791-.239 43.919 43.919 0 0 0-3.741-.013c-.974.014-1.942.142-2.886.382-.487.141-1.185.394-1.293.968a1.072 1.072 0 0 0 .376.955c.337.246.744.377 1.16.374.532.03 1.068-.033 1.6-.05a31.752 31.752 0 0 1 11.22 1.678 5.167 5.167 0 0 0 3.5.354 2.11 2.11 0 0 0 1.442-2.057 2.15 2.15 0 0 0-1.689-1.615 7.48 7.48 0 0 0-1.271-.26Z"/><path fill="#000" stroke="#000" stroke-miterlimit="10" stroke-width=".5" d="M106.018 79.845A120.161 120.161 0 0 0 95.426 69.24c-6.534-6.058-13.405-12.498-16.35-21.16a28.456 28.456 0 0 1 5.209-27.372 22.538 22.538 0 0 1 4.707-4.386 32.15 32.15 0 0 1 3.336-1.676 21.39 21.39 0 0 0 3.784-2.17c.639-.494 1.492-1.242 1.368-2.15-.117-.852-1.114-1.259-1.174-2.127-.12-1.719 1.998-2.145 3.263-2.271 1.388-.138 3.71-.608 3.555-2.511-.074-.916-1.021-1.352-1.707-1.768l-3.52-2.136-7.04-4.271L90.459-5h-.368l7.835 4.754 3.521 2.135c.558.339 1.314.694 1.467 1.394a2.004 2.004 0 0 1-1.106 1.935c-1.71 1.012-4.491-.023-5.54 2.166a1.654 1.654 0 0 0 .336 1.864c.504.618.927 1.135.505 1.909a7.442 7.442 0 0 1-3.11 2.424c-1.272.692-2.595 1.28-3.891 1.923a15.225 15.225 0 0 0-3.573 2.592 28.592 28.592 0 0 0-8.891 24.661c1.173 8.954 6.778 16.11 13.033 22.252 3.307 3.248 6.795 6.305 10.11 9.545a71.179 71.179 0 0 1 9.635 11.47c.634.95 1.217 1.932 1.748 2.943a11.71 11.71 0 0 1 1.46 3.605 2.088 2.088 0 0 1-.731 1.882 2.103 2.103 0 0 1-1.981.394 5.502 5.502 0 0 1-2.609-1.657 22.747 22.747 0 0 0-1.985-1.895 17.62 17.62 0 0 0-2.827-1.519c-2.329-1.195-4.569-2.566-6.927-3.703-8.123-3.915-18.047-5.238-26.786-2.707a20.087 20.087 0 0 0-9.745 5.8 13.383 13.383 0 0 0-3.02 10.986A14.748 14.748 0 0 0 60.123 107h.218c-.37-.445-.712-.912-1.027-1.398a13.977 13.977 0 0 1-1.074-13.351c1.798-3.766 5.324-6.324 9.116-7.849a32.589 32.589 0 0 1 13.239-2.06 39.952 39.952 0 0 1 14.568 3.295c2.367 1.032 4.587 2.355 6.858 3.577 1.132.61 2.314 1.13 3.442 1.743a9.727 9.727 0 0 1 2.212 1.864c1.093 1.117 2.415 2.436 4.119 2.257a2.327 2.327 0 0 0 1.796-1.05 3.18 3.18 0 0 0-.139-2.765c-1.675-4.202-4.545-7.978-7.433-11.418ZM125.238 64.983a12.467 12.467 0 0 1 3.818 2.317c4.962 4.355 6.452 11.14 7.338 17.38a77.213 77.213 0 0 0 2.008 11.118 34.024 34.024 0 0 0 4.78 9.539c.385.561.783 1.112 1.18 1.663h.236a53.274 53.274 0 0 1-3.673-5.656 33.404 33.404 0 0 1-3.448-10.532c-1.128-6.6-1.356-13.507-4.854-19.418a15.617 15.617 0 0 0-5.832-5.91 12.02 12.02 0 0 0-1.86-.813c-.871-.295-1.792-.453-2.636-.829a3.007 3.007 0 0 1-1.749-1.79 1.721 1.721 0 0 1 .987-2.083 6.444 6.444 0 0 1 2.414-.51 12.946 12.946 0 0 1 2.388.059c1.697.21 3.347.704 4.882 1.458a20.647 20.647 0 0 1 7.682 6.655c4.249 5.915 5.945 13.13 8.528 19.828a40.563 40.563 0 0 0 4.943 9.483 44.18 44.18 0 0 0 7.341 7.62 89.73 89.73 0 0 0 3.052 2.438h.319a59.642 59.642 0 0 1-8.15-7.235 35.116 35.116 0 0 1-6.034-9.261c-2.997-6.628-4.488-13.883-8.097-20.243a24.167 24.167 0 0 0-6.535-7.662 16.408 16.408 0 0 0-8.911-3.35 12.702 12.702 0 0 0-2.281.11 4.45 4.45 0 0 0-2.006.666 2.036 2.036 0 0 0-.624 2.38c.112.273.282.518.498.719 1.063 1.213 2.871 1.324 4.296 1.859Z"/><path fill="#000" stroke="#000" stroke-miterlimit="10" stroke-width=".5" d="M139.602 87.435a46.473 46.473 0 0 0 1.815 7.484 45.622 45.622 0 0 0 2.931 6.923 27.038 27.038 0 0 0 3.779 5.158h.256c-.456-.527-.921-1.047-1.361-1.585a23.483 23.483 0 0 1-2.176-3.065 33.65 33.65 0 0 1-1.633-3.292 45.408 45.408 0 0 1-3.784-14.734c-.067-.855-.166-2.215.72-2.714a1.412 1.412 0 0 1 1.691.41c.391.502.652 1.091.762 1.717.642 2.52 1.429 5 2.359 7.428a63.504 63.504 0 0 0 3.191 6.972 16.803 16.803 0 0 0 2.03 2.975c.795.937 1.63 1.835 2.391 2.8a73.887 73.887 0 0 0 2.582 3.088h.274c-.301-.34-.615-.668-.91-1.013-.861-1.011-1.663-2.07-2.522-3.083-.814-.959-1.687-1.869-2.443-2.876a21.456 21.456 0 0 1-1.909-3.283 63.325 63.325 0 0 1-4.859-13.059 4.77 4.77 0 0 0-.615-1.553 1.64 1.64 0 0 0-1.001-.773 1.626 1.626 0 0 0-1.252.175 2.723 2.723 0 0 0-.711 2.34 34.6 34.6 0 0 0 .395 3.56Z"/><path fill="#000" d="M131.378 63.539a2.622 2.622 0 0 0-2.022-.35 1.088 1.088 0 0 0-.616.617 1.08 1.08 0 0 0 .039.87c.37.612.931 1.085 1.597 1.347a14.44 14.44 0 0 1 1.815 1.242 14.756 14.756 0 0 1 4.893 7.25c.242.81.425 1.637.597 2.465.084.407.165.815.251 1.221.064.359.172.708.321 1.04a1.452 1.452 0 0 0 1.53.893c.628-.145.845-.827.921-1.39a9.994 9.994 0 0 0-.641-4.489 33.756 33.756 0 0 0-.857-2.215c-.289-.689-.563-1.389-.875-2.068a10.576 10.576 0 0 0-2.613-3.475c-.487-.43-1.016-.811-1.54-1.193-.6-.437-1.211-.86-1.847-1.243a11.98 11.98 0 0 0-.953-.522c-.11-.053-.207.11-.096.164a21.62 21.62 0 0 1 3.414 2.22c1.114.806 2.07 1.81 2.824 2.96.371.606.689 1.242.951 1.902.282.674.573 1.345.847 2.023a15.79 15.79 0 0 1 1.213 4.286c.094.69.059 1.39-.105 2.066a1.114 1.114 0 0 1-.548.743.996.996 0 0 1-.931-.127 2.769 2.769 0 0 1-.89-1.907c-.16-.776-.313-1.555-.5-2.325a15.825 15.825 0 0 0-1.594-4.147 15.059 15.059 0 0 0-2.433-3.187 14.895 14.895 0 0 0-3.236-2.453c-.596-.335-1.346-.724-1.43-1.487-.083-.76.695-1.08 1.332-.957a4.56 4.56 0 0 1 1.086.39c.11.053.207-.111.096-.164Z"/><path stroke="#000" stroke-miterlimit="10" stroke-width=".5" d="M131.378 63.539a2.622 2.622 0 0 0-2.022-.35 1.088 1.088 0 0 0-.616.617 1.08 1.08 0 0 0 .039.87c.37.612.931 1.085 1.597 1.347a14.44 14.44 0 0 1 1.815 1.242 14.756 14.756 0 0 1 4.893 7.25c.242.81.425 1.637.597 2.465.084.407.165.815.251 1.221.064.359.172.708.321 1.04a1.452 1.452 0 0 0 1.53.893c.628-.145.845-.827.921-1.39a9.994 9.994 0 0 0-.641-4.489 33.756 33.756 0 0 0-.857-2.215c-.289-.689-.563-1.389-.875-2.068a10.576 10.576 0 0 0-2.613-3.475c-.487-.43-1.016-.811-1.54-1.193-.6-.437-1.211-.86-1.847-1.243a11.98 11.98 0 0 0-.953-.522Zm0 0c-.11-.053-.207.11-.096.164m.096-.164c.111.053.014.217-.096.164m0 0a21.62 21.62 0 0 1 3.414 2.22c1.114.806 2.07 1.81 2.824 2.96.371.606.689 1.242.951 1.902.282.674.573 1.345.847 2.023a15.79 15.79 0 0 1 1.213 4.286c.094.69.059 1.39-.105 2.066a1.114 1.114 0 0 1-.548.743.996.996 0 0 1-.931-.127 2.769 2.769 0 0 1-.89-1.907c-.16-.776-.313-1.555-.5-2.325a15.825 15.825 0 0 0-1.594-4.147 15.059 15.059 0 0 0-2.433-3.187 14.895 14.895 0 0 0-3.236-2.453c-.596-.335-1.346-.724-1.43-1.487-.083-.76.695-1.08 1.332-.957a4.56 4.56 0 0 1 1.086.39Z"/><path fill="#000" d="M136.995 54.69a14.784 14.784 0 0 0-.106-1.683 13.16 13.16 0 0 0-.389-2.203c-.12-.42-.305-1.086-.786-1.225a1.239 1.239 0 0 0-1.252.504 5.7 5.7 0 0 0-.669 1.438 8.459 8.459 0 0 1-1.73 2.806 3.65 3.65 0 0 1-.971.7c-.317.142-.62.313-.905.51a1.263 1.263 0 0 0-.514.794 1.495 1.495 0 0 0 .309 1.163c.319.35.719.618 1.166.778.549.24 1.128.407 1.721.493a3.358 3.358 0 0 0 2.85-.881 4.446 4.446 0 0 0 1.216-2.488c.036-.234.056-.47.06-.706a.095.095 0 0 0-.161-.066.096.096 0 0 0-.03.066 4.613 4.613 0 0 1-.804 2.57 3.1 3.1 0 0 1-2.413 1.349 4.871 4.871 0 0 1-1.66-.251 5.243 5.243 0 0 1-1.409-.633 1.417 1.417 0 0 1-.671-1.139 1.03 1.03 0 0 1 .371-.83c.486-.427 1.153-.577 1.651-.992a7.159 7.159 0 0 0 1.759-2.407c.212-.435.389-.883.561-1.334a1.881 1.881 0 0 1 .955-1.226.65.65 0 0 1 .791.173c.141.206.249.435.317.676.201.66.337 1.339.407 2.025.072.585.125 1.175.142 1.764.003.085.004.17.003.255a.096.096 0 0 0 .163.066.096.096 0 0 0 .028-.066Z"/><path stroke="#000" stroke-miterlimit="10" stroke-width=".5" d="M136.995 54.69a14.784 14.784 0 0 0-.106-1.683 13.16 13.16 0 0 0-.389-2.203c-.12-.42-.305-1.086-.786-1.225a1.239 1.239 0 0 0-1.252.504 5.7 5.7 0 0 0-.669 1.438 8.459 8.459 0 0 1-1.73 2.806 3.65 3.65 0 0 1-.971.7c-.317.142-.62.313-.905.51a1.263 1.263 0 0 0-.514.794 1.495 1.495 0 0 0 .309 1.163c.319.35.719.618 1.166.778.549.24 1.128.407 1.721.493a3.358 3.358 0 0 0 2.85-.881 4.446 4.446 0 0 0 1.216-2.488c.036-.234.056-.47.06-.706Zm0 0a.095.095 0 0 0-.161-.066.096.096 0 0 0-.03.066m.191 0a.096.096 0 0 1-.028.066.096.096 0 0 1-.163-.066m0 0a4.613 4.613 0 0 1-.804 2.57 3.1 3.1 0 0 1-2.413 1.349 4.871 4.871 0 0 1-1.66-.251 5.243 5.243 0 0 1-1.409-.633 1.417 1.417 0 0 1-.671-1.139 1.03 1.03 0 0 1 .371-.83c.486-.427 1.153-.577 1.651-.992a7.159 7.159 0 0 0 1.759-2.407c.212-.435.389-.883.561-1.334a1.881 1.881 0 0 1 .955-1.226.65.65 0 0 1 .791.173c.141.206.249.435.317.676.201.66.337 1.339.407 2.025.072.585.125 1.175.142 1.764.003.085.004.17.003.255Z"/><path fill="#000" d="M120.185 103.204c.243-.142.223-.477.187-.717a5.253 5.253 0 0 0-.388-1.236 16.672 16.672 0 0 0-1.444-2.713 2.995 2.995 0 0 0-.593-.73.986.986 0 0 0-1.154-.224 1.49 1.49 0 0 0-.364.481 1.488 1.488 0 0 0-.146.586 3.02 3.02 0 0 0 .113 1.39c.139.354.327.687.557.989.28.391.599.752.952 1.078.334.31.698.585 1.088.821.348.209.785.473 1.192.275.11-.054.014-.218-.096-.165-.364.177-.836-.168-1.133-.357a6.55 6.55 0 0 1-.916-.709 6.192 6.192 0 0 1-1.393-1.824 2.518 2.518 0 0 1-.201-1.2c-.013-.4.11-.792.347-1.114.287-.31.685-.143.975.074.225.186.416.41.565.661.503.76.943 1.559 1.317 2.389.209.434.375.887.495 1.353.042.182.153.604-.056.727a.095.095 0 0 0-.042.058.098.098 0 0 0 .011.071.097.097 0 0 0 .127.036Z"/><path stroke="#000" stroke-miterlimit="10" stroke-width=".5" d="M120.185 103.204c.243-.142.223-.477.187-.717a5.253 5.253 0 0 0-.388-1.236 16.672 16.672 0 0 0-1.444-2.713 2.995 2.995 0 0 0-.593-.73.986.986 0 0 0-1.154-.224 1.49 1.49 0 0 0-.364.481 1.488 1.488 0 0 0-.146.586 3.02 3.02 0 0 0 .113 1.39c.139.354.327.687.557.989.28.391.599.752.952 1.078.334.31.698.585 1.088.821.348.209.785.473 1.192.275Zm0 0c.11-.054.014-.218-.096-.165m.096.165a.097.097 0 0 1-.127-.036.098.098 0 0 1-.011-.071.095.095 0 0 1 .042-.058m0 0c-.364.177-.836-.168-1.133-.357a6.55 6.55 0 0 1-.916-.709 6.192 6.192 0 0 1-1.393-1.824 2.518 2.518 0 0 1-.201-1.2c-.013-.4.11-.792.347-1.114.287-.31.685-.143.975.074.225.186.416.41.565.661.503.76.943 1.559 1.317 2.389.209.434.375.887.495 1.353.042.182.153.604-.056.727Z"/><path fill="#000" stroke="#000" stroke-miterlimit="10" stroke-width=".5" d="M70.576 101.688c2.914.723 5.835 1.392 8.795 1.894 2.86.338 5.662 1.06 8.33 2.147A16.23 16.23 0 0 1 89.89 107h.347a17.583 17.583 0 0 0-5.206-2.455c-2.742-.787-5.596-1.093-8.388-1.656a116.835 116.835 0 0 1-4.337-.973c-1.333-.322-2.68-.62-3.996-1.008a6.843 6.843 0 0 1-2.955-1.53 3.576 3.576 0 0 1-.925-3.328c.555-2.626 3.13-3.967 5.498-4.64 5.566-1.578 11.463-.34 16.77 1.594 2.731.995 5.385 2.183 8.057 3.322 2.324.99 4.678 1.907 7.029 2.831 4.511 1.774 9.066 3.631 13.056 6.429a28.88 28.88 0 0 1 1.836 1.414h.295a44.717 44.717 0 0 0-11.734-6.657c-2.317-.966-4.665-1.854-6.996-2.783-2.628-1.048-5.21-2.2-7.82-3.29-5.292-2.212-10.93-4.144-16.752-3.704-1.38.099-2.746.348-4.072.743a10.22 10.22 0 0 0-3.284 1.578c-1.74 1.33-2.906 3.876-1.649 5.925 1.201 1.959 3.87 2.37 5.911 2.876Z"/><path fill="#000" stroke="#000" stroke-miterlimit="10" stroke-width=".5" d="M69.653 98.763a8.831 8.831 0 0 0 2.902.947c1.223.269 2.45.515 3.677.76 2.416.484 4.836.966 7.213 1.617A29.09 29.09 0 0 1 93.857 107h.317a25.05 25.05 0 0 0-6.21-3.601c-4.462-1.835-9.264-2.598-13.962-3.575a28.818 28.818 0 0 1-3.223-.755 2.836 2.836 0 0 1-2.104-1.947 3.069 3.069 0 0 1 .806-2.58 4.765 4.765 0 0 1 2.858-1.35 15.581 15.581 0 0 1 3.394-.066c1.231.084 2.456.247 3.666.489a42.678 42.678 0 0 1 6.881 2.038c4.55 1.73 8.868 4 13.373 5.839 2.139.873 4.322 1.585 6.531 2.257a33.932 33.932 0 0 1 6.056 2.289c.536.288 1.054.609 1.551.962h.325c-3.269-2.363-7.378-3.175-11.14-4.459-4.735-1.616-9.181-3.937-13.772-5.905-4.426-1.898-9.087-3.5-13.937-3.726-1.974-.093-4.48-.102-5.92 1.497a3.402 3.402 0 0 0-.908 2.3 2.497 2.497 0 0 0 1.214 2.056Z"/><path fill="#000" stroke="#000" stroke-miterlimit="10" stroke-width=".5" d="M75.953 98.662c.952.274 1.97.322 2.943.5 4.06.85 8.002 2.191 11.738 3.993 1.791.809 3.6 1.609 5.333 2.537.729.39 1.431.827 2.103 1.308h.325a25.07 25.07 0 0 0-4.25-2.428 83.345 83.345 0 0 0-11.127-4.59 37.854 37.854 0 0 0-5.867-1.28 4.862 4.862 0 0 1-2.508-.927 1.231 1.231 0 0 1-.558-.935c.033-.473.545-.815.954-.948.438-.12.894-.164 1.346-.13.497.013.993.048 1.487.103.97.11 1.931.29 2.876.537a38.86 38.86 0 0 1 5.398 1.915c3.856 1.628 7.714 3.253 11.572 4.874l6.036 2.52c1.002.418 2.01.833 2.997 1.289h.439c-.273-.13-.544-.262-.819-.384-1.916-.853-3.867-1.632-5.803-2.44-4.063-1.697-8.145-3.357-12.187-5.104-3.538-1.53-7.125-3.123-11.014-3.446a5.333 5.333 0 0 0-2.605.17c-.644.297-1.12.969-.69 1.638a3.35 3.35 0 0 0 1.881 1.228Z"/><path fill="#000" d="M52.769 17.83a24.644 24.644 0 0 0 1.633-7.505 9.963 9.963 0 0 0-.535-3.718 6.953 6.953 0 0 0-2.321-3.101A13.925 13.925 0 0 0 47.3 1.39 21.645 21.645 0 0 0 42.68.43a23.284 23.284 0 0 0-9.42 1.04 22.254 22.254 0 0 0-4.28 1.89 10.588 10.588 0 0 0-2.76 2.314 8.907 8.907 0 0 0-2.246 6.362 7.608 7.608 0 0 0 4.03 5.882c2.506 1.392 5.487 1.42 8.276 1.535 1.463.029 2.923.163 4.367.401.702.128 1.392.314 2.063.557.758.304 1.5.646 2.223 1.026 1.357.666 2.913 1.366 4.443.874a4.795 4.795 0 0 0 2.65-2.66c.282-.592.53-1.2.742-1.82.041-.116-.143-.166-.184-.051a9.161 9.161 0 0 1-1.865 3.467 3.446 3.446 0 0 1-1.702.963 4.295 4.295 0 0 1-2.255-.196c-1.485-.486-2.796-1.382-4.276-1.884a16.852 16.852 0 0 0-4.113-.752c-2.791-.218-5.679-.038-8.391-.845a8.104 8.104 0 0 1-5.52-5.015 7.867 7.867 0 0 1 .982-6.447 10.386 10.386 0 0 1 2.32-2.642c1.1-.843 2.31-1.53 3.598-2.042A23.219 23.219 0 0 1 40.469.514c1.55-.003 3.097.157 4.614.478a19.06 19.06 0 0 1 4.448 1.495 8.718 8.718 0 0 1 3.397 2.71 7.526 7.526 0 0 1 1.213 3.416 18.615 18.615 0 0 1-1.018 7.553c-.167.542-.348 1.08-.538 1.614-.041.116.143.166.184.05Z"/><path stroke="#000" stroke-miterlimit="10" stroke-width=".5" d="M52.769 17.83a24.644 24.644 0 0 0 1.633-7.505 9.963 9.963 0 0 0-.535-3.718 6.953 6.953 0 0 0-2.321-3.101A13.925 13.925 0 0 0 47.3 1.39 21.645 21.645 0 0 0 42.68.43a23.284 23.284 0 0 0-9.42 1.04 22.254 22.254 0 0 0-4.28 1.89 10.588 10.588 0 0 0-2.76 2.314 8.907 8.907 0 0 0-2.246 6.362 7.608 7.608 0 0 0 4.03 5.882c2.506 1.392 5.487 1.42 8.276 1.535 1.463.029 2.923.163 4.367.401.702.128 1.392.314 2.063.557.758.304 1.5.646 2.223 1.026 1.357.666 2.913 1.366 4.443.874a4.795 4.795 0 0 0 2.65-2.66c.282-.592.53-1.2.742-1.82Zm0 0c.041-.115-.143-.165-.184-.05m.184.05c-.04.116-.225.066-.184-.05m0 0a9.161 9.161 0 0 1-1.865 3.467 3.446 3.446 0 0 1-1.702.963 4.295 4.295 0 0 1-2.255-.196c-1.485-.486-2.796-1.382-4.276-1.884a16.852 16.852 0 0 0-4.113-.752c-2.791-.218-5.679-.038-8.391-.845a8.104 8.104 0 0 1-5.52-5.015 7.867 7.867 0 0 1 .982-6.447 10.386 10.386 0 0 1 2.32-2.642c1.1-.843 2.31-1.53 3.598-2.042A23.219 23.219 0 0 1 40.469.514c1.55-.003 3.097.157 4.614.478a19.06 19.06 0 0 1 4.448 1.495 8.718 8.718 0 0 1 3.397 2.71 7.526 7.526 0 0 1 1.213 3.416 18.615 18.615 0 0 1-1.018 7.553c-.167.542-.348 1.08-.538 1.614Z"/><path fill="#000" d="M46.596-3.03a25.045 25.045 0 0 0-4.55-.797 27.02 27.02 0 0 0-9.43.889c-1.518.422-2.991.996-4.396 1.713A19.9 19.9 0 0 0 24.36 1.35a17.166 17.166 0 0 0-3.085 3.452 16.508 16.508 0 0 0-2.065 4.341 11.011 11.011 0 0 0-.337 5.166 9.273 9.273 0 0 0 2.178 4.618 8.495 8.495 0 0 0 4.943 2.543c2.08.248 4.173.354 6.267.317 1.067.022 2.13.136 3.177.341 1.09.244 2.15.61 3.16 1.09 2.004.922 3.87 2.128 5.91 2.977a11.224 11.224 0 0 0 5.83.94 6.27 6.27 0 0 0 2.682-1.027 6.7 6.7 0 0 0 1.865-2.025 17.346 17.346 0 0 0 1.877-5.48c.452-2.004.736-4.042.85-6.093a19.372 19.372 0 0 0-.56-5.954 12.536 12.536 0 0 0-2.74-5.127 14.536 14.536 0 0 0-4.935-3.472c-.901-.398-1.83-.728-2.78-.989a.095.095 0 0 0-.05.184 17.659 17.659 0 0 1 5.457 2.498 12.22 12.22 0 0 1 3.905 4.443 14.886 14.886 0 0 1 1.48 5.63c.128 2.013.03 4.035-.293 6.027-.15.998-.34 1.99-.555 2.976-.206.94-.429 1.88-.727 2.797a8.078 8.078 0 0 1-3.157 4.594 7.724 7.724 0 0 1-5.717.655 22.792 22.792 0 0 1-5.784-2.464 20.978 20.978 0 0 0-5.936-2.417 38.285 38.285 0 0 0-6.152-.35 13.034 13.034 0 0 1-5.917-1.21 7.845 7.845 0 0 1-3.4-3.772c-.702-1.617-.98-3.385-.81-5.14.19-1.659.686-3.268 1.463-4.746a16.39 16.39 0 0 1 2.627-3.782 18.301 18.301 0 0 1 3.492-2.917 21.662 21.662 0 0 1 4.123-2.066 25.204 25.204 0 0 1 4.494-1.226 26.914 26.914 0 0 1 4.674-.41c1.542-.004 3.08.13 4.598.398.718.129 1.43.29 2.134.482a.096.096 0 0 0 .051-.184Z"/><path stroke="#000" stroke-miterlimit="10" stroke-width=".5" d="M46.596-3.03a25.045 25.045 0 0 0-4.55-.797 27.02 27.02 0 0 0-9.43.889c-1.518.422-2.991.996-4.396 1.713A19.9 19.9 0 0 0 24.36 1.35a17.166 17.166 0 0 0-3.085 3.452 16.508 16.508 0 0 0-2.065 4.341 11.011 11.011 0 0 0-.337 5.166 9.273 9.273 0 0 0 2.178 4.618 8.495 8.495 0 0 0 4.943 2.543c2.08.248 4.173.354 6.267.317 1.067.022 2.13.136 3.177.341 1.09.244 2.15.61 3.16 1.09 2.004.922 3.87 2.128 5.91 2.977a11.224 11.224 0 0 0 5.83.94 6.27 6.27 0 0 0 2.682-1.027 6.7 6.7 0 0 0 1.865-2.025 17.346 17.346 0 0 0 1.877-5.48c.452-2.004.736-4.042.85-6.093a19.372 19.372 0 0 0-.56-5.954 12.536 12.536 0 0 0-2.74-5.127 14.536 14.536 0 0 0-4.935-3.472c-.901-.398-1.83-.728-2.78-.989Zm0 0a.095.095 0 0 0-.05.183m.05-.184a.096.096 0 0 1-.05.184m0 0a17.659 17.659 0 0 1 5.457 2.498 12.22 12.22 0 0 1 3.905 4.443 14.886 14.886 0 0 1 1.48 5.63c.128 2.013.03 4.035-.293 6.027-.15.998-.34 1.99-.555 2.976-.206.94-.429 1.88-.727 2.797a8.078 8.078 0 0 1-3.157 4.594 7.724 7.724 0 0 1-5.717.655 22.792 22.792 0 0 1-5.784-2.464 20.978 20.978 0 0 0-5.936-2.417 38.285 38.285 0 0 0-6.152-.35 13.034 13.034 0 0 1-5.917-1.21 7.845 7.845 0 0 1-3.4-3.772c-.702-1.617-.98-3.385-.81-5.14.19-1.659.686-3.268 1.463-4.746a16.39 16.39 0 0 1 2.627-3.782 18.301 18.301 0 0 1 3.492-2.917 21.662 21.662 0 0 1 4.123-2.066 25.204 25.204 0 0 1 4.494-1.226 26.914 26.914 0 0 1 4.674-.41c1.542-.004 3.08.13 4.598.398.718.129 1.43.29 2.134.482Z"/><path fill="#000" stroke="#000" stroke-miterlimit="10" stroke-width=".5" d="M53.446-5h-.292a24.98 24.98 0 0 1 3.533 3.966 23.992 23.992 0 0 1 4.43 12.302 24.923 24.923 0 0 1-2.937 13.471 19.931 19.931 0 0 1-4.153 5.39 11.33 11.33 0 0 1-5.947 2.96c-4.215.549-7.651-2.292-10.826-4.623a22.518 22.518 0 0 0-5.18-3.067 22.63 22.63 0 0 0-6.11-1.146 30.694 30.694 0 0 1-6.173-.909 8.404 8.404 0 0 1-4.833-3.5 10.348 10.348 0 0 1-1.354-6.036 19.404 19.404 0 0 1 1.515-5.984 30.067 30.067 0 0 1 3.003-5.913 13.47 13.47 0 0 1 1.95-2.341 13.65 13.65 0 0 1 2.721-1.932 26.47 26.47 0 0 1 6.391-2.355c.416-.104.839-.193 1.262-.283h-.863c-1.469.337-2.913.77-4.324 1.297a15.735 15.735 0 0 0-5.63 3.438 19.807 19.807 0 0 0-3.547 5.394c-.476.99-.905 2.002-1.295 3.028-.378.955-.699 1.931-.96 2.924a13.165 13.165 0 0 0-.114 6.24 8.295 8.295 0 0 0 3.284 4.924 12.712 12.712 0 0 0 5.685 1.875c2.153.28 4.333.337 6.475.707 1.042.168 2.064.446 3.048.827.964.398 1.888.885 2.76 1.455 1.762 1.123 3.376 2.455 5.1 3.633a14.162 14.162 0 0 0 5.368 2.464c4.495.81 8.52-2.115 11.096-5.535a24.656 24.656 0 0 0 4.77-13.014 24.151 24.151 0 0 0-2.795-13.131A25.186 25.186 0 0 0 53.446-5Z"/><path fill="#000" stroke="#000" stroke-miterlimit="10" stroke-width=".5" d="M60.653-5h-.227A19.453 19.453 0 0 1 62.7-.559c1.808 5.012 1.787 10.521 1.386 15.768-.376 4.93-1.33 9.97-3.88 14.276a16.93 16.93 0 0 1-10.327 7.953c-2.137.533-4.38.462-6.48-.204a26.294 26.294 0 0 1-6.424-3.58 38.04 38.04 0 0 0-6.627-3.694 33.395 33.395 0 0 0-7.297-2.11c-4.162-.709-9.253-.907-12.029-4.591a11.22 11.22 0 0 1-1.986-6.433 21.63 21.63 0 0 1 .813-6.38A26.167 26.167 0 0 1 15.94-.369 26.63 26.63 0 0 1 21.627-5h-.356a26.454 26.454 0 0 0-3.334 2.44 26.92 26.92 0 0 0-7.324 10.162 24.336 24.336 0 0 0-1.604 6.062 16.248 16.248 0 0 0 .39 6.747 8.86 8.86 0 0 0 3.865 5.102 17.313 17.313 0 0 0 6.213 1.968c2.42.322 4.82.785 7.188 1.384A32.855 32.855 0 0 1 34.032 32c2.191 1.268 4.183 2.851 6.389 4.097a13.201 13.201 0 0 0 6.594 1.89 15.762 15.762 0 0 0 11.42-5.698c3.226-3.722 4.743-8.639 5.443-13.432a61.33 61.33 0 0 0 .592-7.733 38.606 38.606 0 0 0-.608-8.15A21.792 21.792 0 0 0 60.652-5Z"/><path fill="#000" stroke="#000" stroke-miterlimit="10" stroke-width=".5" d="M95.896 2.847c-1.102-2.96-4.509-3.491-7.122-4.411A22.018 22.018 0 0 1 82.554-5h-.308A22.332 22.332 0 0 0 84.3-3.519a22.202 22.202 0 0 0 3.781 1.901c1.463.568 3.013.892 4.452 1.52a5.533 5.533 0 0 1 3.215 3.097c.114.33.175.675.18 1.023.022.202-.008.405-.088.592-.163.211-.355.4-.57.558L93.296 6.99l-7.9 7.264a35.262 35.262 0 0 0-6.255 6.724c-1.736 2.734-2.287 5.915-3.074 9.003-.748 2.934-2.486 5.455-3.565 8.258a13.435 13.435 0 0 0-.465 8.33c.36 1.35.95 2.628 1.743 3.777.803 1.15 2.026 2.088 2.55 3.413.599 1.511-.413 2.712-1.668 3.431a16.864 16.864 0 0 1-4.277 1.623c-3.024.813-6.22.727-9.195-.248a11.928 11.928 0 0 1-6.261-5.106 9.732 9.732 0 0 1-1.134-7.761c.871-2.925 2.978-5.26 4.785-7.642a50.898 50.898 0 0 0 8.39-16.246 37.338 37.338 0 0 0 1.082-17.238A32.868 32.868 0 0 0 64.737-5h-.23a31.853 31.853 0 0 1 2.59 6.33 35.78 35.78 0 0 1 .414 17.62 48.512 48.512 0 0 1-7.633 16.99c-1.727 2.496-3.864 4.752-5.309 7.433a10.71 10.71 0 0 0-1.3 4.006 9.538 9.538 0 0 0 .398 3.729 11.925 11.925 0 0 0 4.49 6.111 13.734 13.734 0 0 0 8.277 2.328 18.515 18.515 0 0 0 4.475-.676 15.385 15.385 0 0 0 4.117-1.678 2.981 2.981 0 0 0 1.655-2.87c-.199-1.328-1.312-2.315-2.133-3.29a12.411 12.411 0 0 1-2.776-8.222c.036-1.51.331-3.002.872-4.413.545-1.446 1.28-2.81 1.961-4.194a21.592 21.592 0 0 0 1.646-4.173c.405-1.59.731-3.199 1.205-4.77a16.687 16.687 0 0 1 2.08-4.542 23.746 23.746 0 0 1 3.05-3.571c2.459-2.434 5.076-4.72 7.622-7.061a191240.345 191240.345 0 0 1 4.99-4.589l.416-.382c.167-.12.315-.262.44-.424.087-.286.106-.588.057-.883a3.58 3.58 0 0 0-.215-.962Z"/><path fill="#000" stroke="#000" stroke-miterlimit="10" stroke-width=".5" d="M86.64 1.036c-.512-.085-1.028-.146-1.534-.26a8.875 8.875 0 0 1-1.862-.699 19.698 19.698 0 0 1-3.74-2.391A20.47 20.47 0 0 1 76.727-5h-.25a20.691 20.691 0 0 0 5.896 4.844 10.456 10.456 0 0 0 3.357 1.242 5.989 5.989 0 0 1 2.9.879 3.156 3.156 0 0 1 .743 3.498 6.535 6.535 0 0 1-2.546 2.88 22.843 22.843 0 0 0-2.926 2.345 49.418 49.418 0 0 0-2.916 3.25 49.96 49.96 0 0 0-4.862 7.26c-1.457 2.603-2.745 5.296-3.974 8.013-1.218 2.69-2.504 5.388-3.477 8.18a16.184 16.184 0 0 0-.963 8.033 9.63 9.63 0 0 0 1.324 3.541 29.417 29.417 0 0 1 2.062 2.846 2.788 2.788 0 0 1-1.044 3.249 7.589 7.589 0 0 1-3.32 1.614 9.567 9.567 0 0 1-10.528-5.897 6.64 6.64 0 0 1-.2-3.484 11.877 11.877 0 0 1 1.725-3.839c1.669-2.632 3.503-5.168 5.26-7.741 1.735-2.541 3.501-5.065 5.188-7.638a40.665 40.665 0 0 0 4.035-7.47 23.085 23.085 0 0 0 1.557-7.668 28.368 28.368 0 0 0-3.886-14.801A31.126 31.126 0 0 0 67.822-5h-.21a.07.07 0 0 0 .01.045 29.553 29.553 0 0 1 5.86 14.844c.256 2.648.063 5.32-.57 7.905a29.53 29.53 0 0 1-3.486 7.94c-1.567 2.612-3.338 5.1-5.055 7.615l-5.495 8.05c-1.499 2.195-3.239 4.563-3.21 7.347a7.8 7.8 0 0 0 2.531 5.436c3.091 2.982 8.261 4.028 11.8 1.172a3.448 3.448 0 0 0 1.507-2.834 5.583 5.583 0 0 0-1.548-2.615 9.61 9.61 0 0 1-1.863-3.604 12.229 12.229 0 0 1-.328-4.045 27.374 27.374 0 0 1 2.682-8.742c1.223-2.79 2.451-5.581 3.797-8.315 2.642-5.365 5.81-10.576 10.158-14.744 1.7-1.63 4.412-2.636 5.19-5.043a3.473 3.473 0 0 0-.446-3.194 3.828 3.828 0 0 0-2.507-1.182Z"/><path fill="#000" d="M68.667 51.815a1.33 1.33 0 0 0-.026-1.085 2.481 2.481 0 0 0-.804-.862c-.803-.59-1.734-.975-2.55-1.544a3.164 3.164 0 0 1-.936-.916 8.793 8.793 0 0 1-.738-2.27c-.324-1.188-1.089-2.612-2.521-2.532a2.08 2.08 0 0 0-1.723 1.409 7.921 7.921 0 0 0-.542 2.817 9.075 9.075 0 0 0 .198 2.691 5.482 5.482 0 0 0 2.136 2.98 6.8 6.8 0 0 0 3.577 1.26 4.32 4.32 0 0 0 3.47-1.2c.193-.222.349-.475.459-.748.046-.114-.138-.163-.184-.05a3.413 3.413 0 0 1-3.038 1.802 6.455 6.455 0 0 1-3.557-.827 5.618 5.618 0 0 1-2.457-2.624 6.772 6.772 0 0 1-.425-2.706 9.846 9.846 0 0 1 .328-2.732 2.477 2.477 0 0 1 1.356-1.805 1.695 1.695 0 0 1 1.399.171 3.03 3.03 0 0 1 1.175 1.605c.413 1.17.451 2.57 1.429 3.45a14.06 14.06 0 0 0 2.37 1.495c.595.351 1.487.857 1.52 1.646a1.3 1.3 0 0 1-.1.524c-.044.114.14.164.184.05Z"/><path stroke="#000" stroke-miterlimit="10" stroke-width=".5" d="M68.667 51.815a1.33 1.33 0 0 0-.026-1.085 2.481 2.481 0 0 0-.804-.862c-.803-.59-1.734-.975-2.55-1.544a3.164 3.164 0 0 1-.936-.916 8.793 8.793 0 0 1-.738-2.27c-.324-1.188-1.089-2.612-2.521-2.532a2.08 2.08 0 0 0-1.723 1.409 7.921 7.921 0 0 0-.542 2.817 9.075 9.075 0 0 0 .198 2.691 5.482 5.482 0 0 0 2.136 2.98 6.8 6.8 0 0 0 3.577 1.26 4.32 4.32 0 0 0 3.47-1.2c.193-.222.349-.475.459-.748Zm0 0c.046-.114-.138-.163-.184-.05m.184.05c-.044.113-.228.064-.184-.05m0 0a3.413 3.413 0 0 1-3.038 1.802 6.455 6.455 0 0 1-3.557-.827 5.618 5.618 0 0 1-2.457-2.624 6.772 6.772 0 0 1-.425-2.706 9.846 9.846 0 0 1 .328-2.732 2.477 2.477 0 0 1 1.356-1.805 1.695 1.695 0 0 1 1.399.171 3.03 3.03 0 0 1 1.175 1.605c.413 1.17.451 2.57 1.429 3.45a14.06 14.06 0 0 0 2.37 1.495c.595.351 1.487.857 1.52 1.646a1.3 1.3 0 0 1-.1.524Z"/><path fill="#000" d="M77.962 11.698c1.29.768 2.661-.555 3.393-1.51a5.663 5.663 0 0 0 .956-1.78c.269-.933.333-1.914.188-2.875a7.778 7.778 0 0 0-.87-2.71 3.512 3.512 0 0 0-.436-.57C80.569 1.537 79.884.87 79.196.215a50.888 50.888 0 0 0-2.806-2.489 20.927 20.927 0 0 0-2.7-1.953 4.93 4.93 0 0 0-1.056-.49 1.035 1.035 0 0 0-.743-.007c-.242.152-.419.388-.497.662a2.075 2.075 0 0 0-.006 1.212A6.5 6.5 0 0 0 72.78-.6a55.45 55.45 0 0 1 1.766 2.245 15.507 15.507 0 0 1 1.64 2.64c.236.492.42 1.007.546 1.537.118.564.188 1.138.207 1.714a11.914 11.914 0 0 0 .387 3.27c.104.361.328.676.636.892.103.066.2-.099.096-.165a1.715 1.715 0 0 1-.638-1.086 8.657 8.657 0 0 1-.23-1.617 17.568 17.568 0 0 0-.303-3.178A14.314 14.314 0 0 0 73.953.558c-.536-.69-1.122-1.345-1.634-2.053a3.066 3.066 0 0 1-.785-2.361 1.033 1.033 0 0 1 .463-.709.616.616 0 0 1 .281-.032c.305.042.6.141.868.292.88.466 1.71 1.022 2.477 1.657.946.742 1.855 1.531 2.74 2.344a43.69 43.69 0 0 1 2.223 2.175c.232.245.462.494.674.757.267.366.475.772.614 1.203a6.7 6.7 0 0 1-.039 5.257 6.702 6.702 0 0 1-1.197 1.638 3.04 3.04 0 0 1-1.72 1.002c-.3.03-.602-.038-.86-.195a.095.095 0 0 0-.096.165Z"/><path stroke="#000" stroke-miterlimit="10" stroke-width=".5" d="M77.962 11.698c1.29.768 2.661-.555 3.393-1.51a5.663 5.663 0 0 0 .956-1.78c.269-.933.333-1.914.188-2.875a7.778 7.778 0 0 0-.87-2.71 3.513 3.513 0 0 0-.436-.57C80.569 1.537 79.884.87 79.196.215a50.888 50.888 0 0 0-2.806-2.489 20.927 20.927 0 0 0-2.7-1.953 4.93 4.93 0 0 0-1.056-.49 1.035 1.035 0 0 0-.743-.007c-.242.152-.419.388-.497.662a2.075 2.075 0 0 0-.006 1.212A6.5 6.5 0 0 0 72.78-.6a55.45 55.45 0 0 1 1.766 2.245 15.507 15.507 0 0 1 1.64 2.64c.236.492.42 1.007.546 1.537.118.564.188 1.138.207 1.714a11.914 11.914 0 0 0 .387 3.27c.104.361.328.676.636.892Zm0 0c.103.066.2-.099.096-.165m-.096.165a.095.095 0 0 1 .096-.165m0 0a1.715 1.715 0 0 1-.638-1.086 8.657 8.657 0 0 1-.23-1.617 17.568 17.568 0 0 0-.303-3.178A14.314 14.314 0 0 0 73.953.558c-.536-.69-1.122-1.345-1.634-2.053a3.066 3.066 0 0 1-.785-2.361 1.033 1.033 0 0 1 .463-.709.616.616 0 0 1 .281-.032c.305.042.6.141.868.292.88.466 1.71 1.022 2.477 1.657.946.742 1.855 1.531 2.74 2.344a43.69 43.69 0 0 1 2.223 2.175c.232.245.462.494.674.757.267.366.475.772.614 1.203a6.7 6.7 0 0 1-.039 5.257 6.702 6.702 0 0 1-1.197 1.638 3.04 3.04 0 0 1-1.72 1.002c-.3.03-.602-.038-.86-.195Z"/><path fill="#000" stroke="#000" stroke-miterlimit="10" stroke-width=".5" d="M108.11 84.957c-.783-.725-1.635-1.37-2.449-2.059a22.84 22.84 0 0 1-2.445-2.473c-1.936-2.217-3.89-4.42-5.943-6.53-2.013-2.069-4.177-3.977-6.212-6.025-3.48-3.504-7.358-7.908-12.625-8.32-2.597-.203-4.833.942-7.121 1.998a13.785 13.785 0 0 1-8.473 1.175 14.202 14.202 0 0 1-10.769-10.046 33.852 33.852 0 0 1-.756-6.168c-.189-1.713-.53-3.668-1.886-4.872-1.703-1.512-4.28-1.336-6.334-2.03a24.259 24.259 0 0 1-6.009-3.362 28.66 28.66 0 0 0-5.383-3.227 18.917 18.917 0 0 0-6.65-1.107 37.831 37.831 0 0 1-7.624-.642 11.804 11.804 0 0 1-6.264-3.964c-3.524-4.068-6.546-9.564-5.74-15.11.821-5.65 5.764-9.06 8.253-13.884.55-1.043.953-2.157 1.193-3.311h-.162c-.812 4.189-4.512 7.667-6.875 11.063A13.998 13.998 0 0 0 5.134 13.2a15.702 15.702 0 0 0 1.523 7.5 29.555 29.555 0 0 0 3.835 6.092 12.785 12.785 0 0 0 5.259 4.155c4.628 1.796 9.723.456 14.434 1.75 4.321 1.185 7.437 4.703 11.446 6.532.964.445 1.975.777 3.014.992 1.289.15 2.552.47 3.756.955 2.102 1.059 2.546 3.503 2.756 5.632.051 1.955.286 3.9.7 5.812a15.562 15.562 0 0 0 3.145 5.792 13.823 13.823 0 0 0 13.232 4.451c2.573-.556 4.752-2.167 7.282-2.85a10.377 10.377 0 0 1 8.133 1.556 36.987 36.987 0 0 1 6.35 5.5c1.983 1.995 4.06 3.885 6.055 5.865 2.09 2.074 4.067 4.257 6.011 6.466a39.77 39.77 0 0 0 2.691 2.954c.791.735 1.652 1.39 2.477 2.085a12.32 12.32 0 0 1 2.235 2.327 5.483 5.483 0 0 1 1.217 3.545c-.348 2.239-3.111.023-4.045-.585-1.196-.778-2.391-1.556-3.597-2.317a55.615 55.615 0 0 0-15.021-7.088 33.514 33.514 0 0 0-16.657-.556c-8.63 2.118-16.6 9.434-16.456 18.825a16.546 16.546 0 0 0 2.434 8.41h.214a15.093 15.093 0 0 1-.895-1.614 16.484 16.484 0 0 1-.154-13.637 20.998 20.998 0 0 1 9.891-9.967c10.657-5.336 23.37-1.94 33.132 3.715 2.426 1.405 4.775 2.939 7.125 4.467.861.56 1.983 1.61 3.087 1.543a1.297 1.297 0 0 0 1.156-1.375c.08-1.977-1.422-3.91-2.789-5.175Z"/><path fill="#000" d="M43.455 13.046a2.595 2.595 0 0 0 1.678-1.686 2.023 2.023 0 0 0-.348-1.812 4.416 4.416 0 0 0-3.149-1.5 3.12 3.12 0 0 0-3.014 1.196 2.213 2.213 0 0 0-.247 1.741 2.6 2.6 0 0 0 1.04 1.324 5.118 5.118 0 0 0 3.637.831c.136-.022.27-.054.403-.094.117-.036.067-.22-.05-.184a4.745 4.745 0 0 1-3.387-.414 3.08 3.08 0 0 1-1.26-1.076 1.871 1.871 0 0 1-.175-1.57 2.528 2.528 0 0 1 2.521-1.579 4.68 4.68 0 0 1 3.162 1.046c.396.324.661.78.748 1.284A2.2 2.2 0 0 1 43.96 12.6c-.173.111-.36.2-.556.263-.116.037-.066.222.051.184Z"/><path stroke="#000" stroke-miterlimit="10" stroke-width=".5" d="M43.455 13.046a2.595 2.595 0 0 0 1.678-1.686 2.023 2.023 0 0 0-.348-1.812 4.416 4.416 0 0 0-3.149-1.5 3.12 3.12 0 0 0-3.014 1.196 2.213 2.213 0 0 0-.247 1.741 2.6 2.6 0 0 0 1.04 1.324 5.118 5.118 0 0 0 3.637.831c.136-.022.27-.054.403-.094Zm0 0c.117-.036.067-.22-.05-.184m.05.184c-.117.038-.167-.146-.05-.184m0 0a4.745 4.745 0 0 1-3.387-.414 3.08 3.08 0 0 1-1.26-1.076 1.871 1.871 0 0 1-.175-1.57 2.528 2.528 0 0 1 2.521-1.579 4.68 4.68 0 0 1 3.162 1.046c.396.324.661.78.748 1.284A2.2 2.2 0 0 1 43.96 12.6c-.173.111-.36.2-.556.263Z"/><path fill="#000" stroke="#000" stroke-miterlimit="10" stroke-width=".5" d="M10.972-5a8.53 8.53 0 0 1-.148 2.13A13.386 13.386 0 0 1 8.06 2.803 7.99 7.99 0 0 1 5.856 4.77c-.94.522-2 .788-3.074.773a12.9 12.9 0 0 1-6.224-2.066 63.06 63.06 0 0 1-.714-.41.095.095 0 0 0-.096.165 15.665 15.665 0 0 0 6.33 2.47c1.095.114 2.2-.04 3.223-.446a7.064 7.064 0 0 0 2.45-1.8A14.204 14.204 0 0 0 9.584.874c.553-.957.98-1.98 1.273-3.046.249-.921.35-1.876.298-2.829h-.184Z"/><path fill="#000" stroke="#000" stroke-miterlimit="10" stroke-width=".5" d="M6.897-5c.394.573.653 1.227.76 1.915A3.773 3.773 0 0 1 6.92-.098a3.492 3.492 0 0 1-3.585.784C1.738.29.315-.657-1.347-.808c-.122-.011-.122.18 0 .19C.23-.474 1.593.409 3.098.822A3.886 3.886 0 0 0 6.866.234a3.73 3.73 0 0 0 1.02-2.909A4.805 4.805 0 0 0 7.116-5h-.218ZM-3.4 9.9a3.487 3.487 0 0 1 4.427-.568c1.693.946 2.366 2.994 2.532 4.814a54.54 54.54 0 0 1-.277 6.142c-.048 1.678.26 3.348.902 4.899 2.751 6.557 9.868 9.558 16.37 10.906 7.348 1.525 15.346 1.767 21.693 6.253a15.939 15.939 0 0 1 3.745 3.65 18.753 18.753 0 0 1 2.44 5.031c1.15 3.398 1.842 7.071 3.957 10.048a13.35 13.35 0 0 0 7.808 5.161c1.528.362 3.11.44 4.665.23 1.986-.277 3.86-1.028 5.808-1.473a8.128 8.128 0 0 1 5.427.325 4.156 4.156 0 0 1 2.65 3.706c-.114 3.441-4.521 4.668-7.124 5.644-6.498 2.437-12.754 6.298-16.684 12.152-3.71 5.527-4.973 13.111-2.045 19.256.152.319.321.622.492.924h.25a16.226 16.226 0 0 1-2.037-6.188c-.391-3.684.22-7.406 1.766-10.772 3.08-6.824 9.535-11.491 16.249-14.362 2.765-1.182 6.433-1.854 8.42-4.312a3.788 3.788 0 0 0 .753-3.48 4.777 4.777 0 0 0-2.672-2.769c-3.385-1.568-6.873.243-10.222.97a13.181 13.181 0 0 1-10.358-2.152c-3.235-2.284-4.711-5.782-5.831-9.45-1.043-3.413-1.993-6.892-4.388-9.644-4.861-5.587-12.67-6.907-19.589-8.024-7.44-1.2-15.81-2.829-20.255-9.62a12.155 12.155 0 0 1-1.846-4.587c-.368-2.152.033-4.309.145-6.463.152-2.94-.591-6.874-4.045-7.474a3.348 3.348 0 0 0-3.261 1.092c-.076.095.058.231.135.135Z"/><path fill="#000" d="M96.444 81.67c.392.333.894.51 1.408.496a1.321 1.321 0 0 0 .894-.616c.22-.343.325-.747.3-1.153a2.463 2.463 0 0 0-.529-1.283 7.005 7.005 0 0 0-1.079-1.09c-.485-.417-.97-.831-1.458-1.244l-2.967-2.528a66.452 66.452 0 0 1-5.195-4.685 19.707 19.707 0 0 1-2.157-2.669 10.378 10.378 0 0 0-1.836-2.473 2.477 2.477 0 0 0-2.276-.514 1.596 1.596 0 0 0-1.123 1.686c.146.735.45 1.43.891 2.035a2.452 2.452 0 0 1 .422 2.106c-.46 1.196-1.913 1.644-2.405 2.826a2.348 2.348 0 0 0 .27 2.124 4.762 4.762 0 0 0 2.286 1.566 35.316 35.316 0 0 0 6.994 1.648c1.126.212 2.216.582 3.239 1.098a28.95 28.95 0 0 1 2.944 1.755c.46.303.917.612 1.377.916.102.067.198-.098.096-.165a29.445 29.445 0 0 0-5.646-3.256 17.404 17.404 0 0 0-3.273-.764c-1.115-.191-2.233-.377-3.33-.654a14.586 14.586 0 0 1-3.155-1.128c-.42-.203-.801-.477-1.128-.81a2.398 2.398 0 0 1-.59-1.19 1.957 1.957 0 0 1 .516-1.717c.406-.458.912-.813 1.34-1.25a2.301 2.301 0 0 0 .768-1.618 4.243 4.243 0 0 0-.795-1.983 2.878 2.878 0 0 1-.6-2.021 1.545 1.545 0 0 1 1.787-1.095 3.172 3.172 0 0 1 2.17 1.577c.287.417.54.856.816 1.28.288.444.6.873.927 1.289a33.824 33.824 0 0 0 4.646 4.611c1.854 1.594 3.72 3.173 5.581 4.76.426.362.864.714 1.265 1.104.386.344.691.767.896 1.242a1.573 1.573 0 0 1-.79 2.07 1.774 1.774 0 0 1-1.405-.447c-.103-.068-.198.097-.096.165Z"/><path stroke="#000" stroke-miterlimit="10" stroke-width=".5" d="M96.444 81.67c.392.333.894.51 1.408.496a1.321 1.321 0 0 0 .894-.616c.22-.343.325-.747.3-1.153a2.463 2.463 0 0 0-.529-1.283 7.005 7.005 0 0 0-1.079-1.09c-.485-.417-.97-.831-1.458-1.244l-2.967-2.528a66.452 66.452 0 0 1-5.195-4.685 19.707 19.707 0 0 1-2.157-2.669 10.378 10.378 0 0 0-1.836-2.473 2.477 2.477 0 0 0-2.276-.514 1.596 1.596 0 0 0-1.123 1.686c.146.735.45 1.43.891 2.035a2.452 2.452 0 0 1 .422 2.106c-.46 1.196-1.913 1.644-2.405 2.826a2.348 2.348 0 0 0 .27 2.124 4.762 4.762 0 0 0 2.286 1.566 35.316 35.316 0 0 0 6.994 1.648c1.126.212 2.216.582 3.239 1.098a28.95 28.95 0 0 1 2.944 1.755c.46.303.917.612 1.377.916Zm0 0c.102.068.198-.097.096-.164m-.096.165c-.102-.068-.007-.233.096-.165m0 0a29.445 29.445 0 0 0-5.646-3.256 17.404 17.404 0 0 0-3.273-.764c-1.115-.191-2.233-.377-3.33-.654a14.586 14.586 0 0 1-3.155-1.128c-.42-.203-.801-.477-1.128-.81a2.398 2.398 0 0 1-.59-1.19 1.957 1.957 0 0 1 .516-1.717c.406-.458.912-.813 1.34-1.25a2.301 2.301 0 0 0 .768-1.618 4.243 4.243 0 0 0-.795-1.983 2.878 2.878 0 0 1-.6-2.021 1.545 1.545 0 0 1 1.787-1.095 3.172 3.172 0 0 1 2.17 1.577c.287.417.54.856.816 1.28.288.444.6.873.927 1.289a33.824 33.824 0 0 0 4.646 4.611c1.854 1.594 3.72 3.173 5.581 4.76.426.362.864.714 1.265 1.104.386.344.691.767.896 1.242a1.573 1.573 0 0 1-.79 2.07 1.774 1.774 0 0 1-1.405-.447Z"/><path fill="#000" d="M83.88 72.628a2.154 2.154 0 0 0 1.204 1.565 2.234 2.234 0 0 0 1.998.33 1.018 1.018 0 0 0 .548-.685 1.35 1.35 0 0 0-.163-.883 3.18 3.18 0 0 0-1.595-1.414 1.5 1.5 0 0 0-1.154-.041 1.288 1.288 0 0 0-.837 1.128.096.096 0 0 0 .095.092.096.096 0 0 0 .095-.092 1.104 1.104 0 0 1 .761-.97c.288-.096.6-.086.882.026a3.03 3.03 0 0 1 1.48 1.18c.296.458.422 1.093-.108 1.439a1.815 1.815 0 0 1-1.724-.172c-.538-.282-1.278-.824-1.29-1.503a.095.095 0 0 0-.191 0Z"/><path stroke="#000" stroke-miterlimit="10" stroke-width=".5" d="M83.88 72.628a2.154 2.154 0 0 0 1.204 1.565 2.234 2.234 0 0 0 1.998.33 1.018 1.018 0 0 0 .548-.685 1.35 1.35 0 0 0-.163-.883 3.18 3.18 0 0 0-1.595-1.414 1.5 1.5 0 0 0-1.154-.041 1.288 1.288 0 0 0-.837 1.128Zm0 0a.096.096 0 0 0 .096.092.096.096 0 0 0 .095-.092m-.19 0a.095.095 0 0 1 .19 0m0 0a1.104 1.104 0 0 1 .761-.97c.288-.096.6-.086.882.026a3.03 3.03 0 0 1 1.48 1.18c.296.458.422 1.093-.108 1.439a1.815 1.815 0 0 1-1.724-.172c-.538-.282-1.278-.824-1.29-1.503Z"/><path fill="#000" stroke="#000" stroke-miterlimit="10" stroke-width=".5" d="M1.63 83.558a42.495 42.495 0 0 1 5.716-7.589 19.591 19.591 0 0 1 7.878-5.042 12.587 12.587 0 0 1 8.78.178 10.315 10.315 0 0 1 5.512 5.526 8.094 8.094 0 0 1 .493 3.974 10.282 10.282 0 0 1-1.481 4.026 22.23 22.23 0 0 1-6.465 6.296 41.854 41.854 0 0 0-7.329 5.831c-1.051 1.17-1.944 2.47-2.938 3.686a13.443 13.443 0 0 1-3.402 3.091 15.094 15.094 0 0 1-8.565 1.918 33.197 33.197 0 0 1-9.945-2.457 198.78 198.78 0 0 1-2.36-.913c-.113-.045-.163.14-.05.184a48.394 48.394 0 0 0 10.163 3.146c3.037.541 6.163.258 9.053-.819a11.85 11.85 0 0 0 3.732-2.367 30.733 30.733 0 0 0 3.075-3.662 23.4 23.4 0 0 1 3.294-3.533 48.846 48.846 0 0 1 3.933-2.94 30.47 30.47 0 0 0 7.035-6.017 10.222 10.222 0 0 0 2.385-7.917 9.834 9.834 0 0 0-4.4-6.329 11.718 11.718 0 0 0-8.293-1.628 17.706 17.706 0 0 0-8.453 3.991 33.072 33.072 0 0 0-6.255 7.273 67.959 67.959 0 0 0-1.278 1.996c-.065.105.1.2.164.097Z"/><path fill="#000" stroke="#000" stroke-miterlimit="10" stroke-width=".5" d="M-.988 88.591a16.488 16.488 0 0 0 5.875-4.433c1.691-1.853 3.182-3.881 4.948-5.666a13.154 13.154 0 0 1 6.02-3.799 7.779 7.779 0 0 1 6.07.815 5.46 5.46 0 0 1 2.042 2.485c.41 1.05.556 2.186.426 3.306a8.764 8.764 0 0 1-1.025 3.278 11.681 11.681 0 0 1-2.302 2.887 34.37 34.37 0 0 1-6.275 4.28 24.125 24.125 0 0 0-6.142 4.634c-1.597 1.83-2.808 4.122-5.166 5.087a10.523 10.523 0 0 1-7.143-.176 20.765 20.765 0 0 1-1.708-.639c-.112-.048-.21.116-.097.164a13.924 13.924 0 0 0 7.226 1.305 7.013 7.013 0 0 0 3.286-1.333 13.591 13.591 0 0 0 2.472-2.683 19.949 19.949 0 0 1 2.572-2.9 23.907 23.907 0 0 1 3.212-2.34c2.2-1.376 4.526-2.56 6.586-4.152a11.871 11.871 0 0 0 4.361-5.755 7.05 7.05 0 0 0-.925-6.428 6.774 6.774 0 0 0-5.593-2.285 9.457 9.457 0 0 0-3.173.664 12.44 12.44 0 0 0-3.092 1.853 38.204 38.204 0 0 0-5.263 5.595 23.335 23.335 0 0 1-5.578 5.221c-.532.322-1.088.6-1.664.832-.113.044-.064.229.05.183Z"/><path fill="#000" stroke="#000" stroke-miterlimit="10" stroke-width=".5" d="M-3.52 92.217A19.555 19.555 0 0 0 6.542 86.53a22.515 22.515 0 0 0 1.875-2.317c.595-.83 1.169-1.677 1.819-2.465a9.277 9.277 0 0 1 2.147-1.998 5.834 5.834 0 0 1 2.377-.85 4.31 4.31 0 0 1 2.376.326 3.118 3.118 0 0 1 1.618 1.823 5.212 5.212 0 0 1-1.483 4.978c-1.453 1.513-3.382 2.421-5.047 3.664a32.19 32.19 0 0 0-4.452 4.435A16.966 16.966 0 0 1 3.16 98.05a7.48 7.48 0 0 1-5.458.807 5.12 5.12 0 0 1-1.237-.555c-.105-.065-.201.1-.097.164a6.39 6.39 0 0 0 5.39.385c.93-.313 1.811-.752 2.62-1.305.841-.59 1.622-1.26 2.33-2.003 1.513-1.537 2.84-3.253 4.436-4.71a19.383 19.383 0 0 1 2.587-1.943c.886-.571 1.786-1.124 2.616-1.777a7.813 7.813 0 0 0 1.976-2.166c.47-.783.744-1.669.797-2.58a3.587 3.587 0 0 0-.75-2.412 3.473 3.473 0 0 0-2.007-1.187 5.802 5.802 0 0 0-4.745 1.306 25.86 25.86 0 0 0-3.896 4.766 19.22 19.22 0 0 1-4.4 4.206 19.38 19.38 0 0 1-5.452 2.62c-.475.142-.955.265-1.44.368-.12.026-.069.21.051.184Z"/><path fill="#000" stroke="#000" stroke-miterlimit="10" stroke-width=".5" d="M-3.146 95.23a16.331 16.331 0 0 0 8.448-3.233 16.69 16.69 0 0 0 3.21-3.152c.47-.607.894-1.247 1.27-1.915.19-.339.367-.684.53-1.036.167-.357.313-.725.504-1.07a1.616 1.616 0 0 1 1.701-1.016.797.797 0 0 1 .649.606c.015.462-.122.917-.391 1.294a20.586 20.586 0 0 1-2.615 3.85 22.49 22.49 0 0 1-7.308 5.59 21.596 21.596 0 0 1-8.95 2.163c-.383.007-.767.002-1.15-.013-.123-.005-.122.186 0 .19a21.511 21.511 0 0 0 9.192-1.722 22.757 22.757 0 0 0 7.712-5.362 21.136 21.136 0 0 0 2.82-3.762c.201-.344.392-.695.573-1.051.235-.364.341-.797.3-1.228a1.137 1.137 0 0 0-1.4-.746c-.762.142-1.196.862-1.498 1.51-.316.717-.67 1.416-1.06 2.096a16.082 16.082 0 0 1-2.995 3.627 16.398 16.398 0 0 1-8.388 4.055 15 15 0 0 1-1.154.134c-.122.01-.123.2 0 .19Z"/><path fill="#000" d="M63.657 75.406c.834-.25 1.655-.542 2.46-.874a24 24 0 0 0 3.253-1.578 7.942 7.942 0 0 0 2.494-2.077 2.01 2.01 0 0 0 .252-2.227 2.2 2.2 0 0 0-1.962-.674c-1.075.07-2.137.276-3.16.613a40.43 40.43 0 0 0-3.292 1.158c-.785.31-1.56.642-2.345.952-1.174.464-2.735 1.176-2.771 2.653a2.306 2.306 0 0 0 1.045 1.862c.766.487 1.688.67 2.581.51a9.516 9.516 0 0 0 1.444-.318.096.096 0 0 0 .064-.116.095.095 0 0 0-.114-.068 5.723 5.723 0 0 1-2.97.248 2.53 2.53 0 0 1-1.735-1.442 1.836 1.836 0 0 1 .482-1.984 5.267 5.267 0 0 1 1.894-1.11c.686-.263 1.36-.557 2.041-.83a47.307 47.307 0 0 1 3.085-1.132 16.892 16.892 0 0 1 3.117-.754 3.1 3.1 0 0 1 2.211.296 1.54 1.54 0 0 1 .179 1.93 6.061 6.061 0 0 1-2.135 2.035c-.99.627-2.033 1.17-3.115 1.621-.861.37-1.74.706-2.633.993-.14.045-.28.088-.421.13a.095.095 0 0 0 .05.183Z"/><path stroke="#000" stroke-miterlimit="10" stroke-width=".5" d="M63.657 75.406c.834-.25 1.655-.542 2.46-.874a24 24 0 0 0 3.253-1.578 7.942 7.942 0 0 0 2.494-2.077 2.01 2.01 0 0 0 .252-2.227 2.2 2.2 0 0 0-1.962-.674c-1.075.07-2.137.276-3.16.613a40.43 40.43 0 0 0-3.292 1.158c-.785.31-1.56.642-2.345.952-1.174.464-2.735 1.176-2.771 2.653a2.306 2.306 0 0 0 1.045 1.862c.766.487 1.688.67 2.581.51a9.516 9.516 0 0 0 1.444-.318Zm0 0a.096.096 0 0 0 .063-.116.095.095 0 0 0-.114-.068m.05.184a.095.095 0 0 1-.05-.184m0 0a5.723 5.723 0 0 1-2.97.248 2.53 2.53 0 0 1-1.735-1.442 1.836 1.836 0 0 1 .482-1.984 5.267 5.267 0 0 1 1.894-1.11c.686-.263 1.36-.557 2.041-.83a47.307 47.307 0 0 1 3.085-1.132 16.892 16.892 0 0 1 3.117-.754 3.1 3.1 0 0 1 2.211.296 1.54 1.54 0 0 1 .179 1.93 6.061 6.061 0 0 1-2.135 2.035c-.99.627-2.033 1.17-3.115 1.621-.861.37-1.74.706-2.633.993-.14.045-.28.088-.421.13Z"/><path fill="#000" stroke="#000" stroke-miterlimit="10" stroke-width=".5" d="M10.078 36.976a35.705 35.705 0 0 0 7.095 2.82 57.335 57.335 0 0 0 8.647 1.476c5.487.647 11.564 1.5 15.635 5.64 1.955 1.987 2.914 4.555 3.812 7.14a20.752 20.752 0 0 0 3.432 6.83c1.646 1.954 3.705 3.52 5.302 5.518a11.134 11.134 0 0 1 2.383 7.772c-.358 6.073-4.237 10.99-6.595 16.376a22.445 22.445 0 0 0-1.417 14.325c.182.721.406 1.432.67 2.127h.207a21.337 21.337 0 0 1-.29-13.724c1.715-5.514 5.588-10.094 7.057-15.703.772-2.591.776-5.35.01-7.943a15.474 15.474 0 0 0-4.34-5.962 20.93 20.93 0 0 1-4.887-6.147c-1.108-2.403-1.705-5.01-2.869-7.39-2.307-4.719-7.13-7.096-12.069-8.143-3.113-.66-6.294-.887-9.44-1.331a38.38 38.38 0 0 1-8.066-1.974 35.97 35.97 0 0 1-13.247-8.658A35.195 35.195 0 0 1-1.5 26.999c-.074-.096-.24-.001-.165.096 3.16 4.1 7.165 7.47 11.744 9.881Z"/><path fill="#000" stroke="#000" stroke-miterlimit="10" stroke-width=".5" d="m-.983 81.451 3.93-4.466c1.206-1.37 2.39-2.76 3.635-4.095a20.59 20.59 0 0 1 3.657-3.23 10.86 10.86 0 0 1 4.782-1.743 20.513 20.513 0 0 1 5.526.274c1.626.26 3.257.556 4.857.944 2.951.715 5.98 1.969 7.546 4.738a10.55 10.55 0 0 1 .34 8.859 21.229 21.229 0 0 1-5.976 7.86c-2.676 2.39-5.63 4.464-8.152 7.027-2.313 2.35-4.133 5.121-6.372 7.536A22.12 22.12 0 0 1 10.866 107h.3c2.504-2.167 4.371-4.94 6.5-7.451a35.391 35.391 0 0 1 3.757-3.783c1.393-1.215 2.848-2.357 4.27-3.536a28.132 28.132 0 0 0 6.862-7.513 11.943 11.943 0 0 0 1.364-8.981 8.304 8.304 0 0 0-2.271-3.83 11.09 11.09 0 0 0-3.89-2.275 29.673 29.673 0 0 0-4.567-1.16 43.398 43.398 0 0 0-5.407-.794c-1.819-.16-3.65.064-5.378.657a13.179 13.179 0 0 0-4.081 2.57 40.616 40.616 0 0 0-3.481 3.638l-4.01 4.556-1.952 2.219c-.08.091.054.227.135.134Z"/><path fill="#000" stroke="#000" stroke-miterlimit="10" stroke-width=".5" d="M.835 32.737a41.813 41.813 0 0 0 9.63 6.875 41.998 41.998 0 0 0 11.165 3.92c2.002.396 4.03.58 6.05.846 2.154.197 4.258.769 6.215 1.69a18.504 18.504 0 0 1 4.747 3.845 59.973 59.973 0 0 1 4.168 4.746 14.824 14.824 0 0 1 2.8 5.422 8.616 8.616 0 0 1-.41 5.675c-1.595 3.365-5.634 4.446-9.077 4.067a25.5 25.5 0 0 1-6.384-1.812 60.09 60.09 0 0 0-6.107-2.16 21.51 21.51 0 0 0-12.359-.108 20.947 20.947 0 0 0-8.494 6.015c-2.423 2.62-4.544 5.506-7.05 8.05a30.33 30.33 0 0 1-1.866 1.75c-.093.08.043.213.135.134a69.769 69.769 0 0 0 7.266-7.935c2.282-2.667 4.758-5.292 7.916-6.922a18.872 18.872 0 0 1 12.363-1.278c2.121.444 4.2 1.073 6.211 1.88a50.106 50.106 0 0 0 6.301 2.206c3.358.81 7.418.634 10.008-1.948 2.76-2.752 2.37-7.123.713-10.34a24.916 24.916 0 0 0-3.68-5.04 48.052 48.052 0 0 0-4.321-4.477 13.873 13.873 0 0 0-5.33-2.929 40.128 40.128 0 0 0-6.235-1.018 42.909 42.909 0 0 1-11.779-3.09A41.898 41.898 0 0 1 3.15 34.544a40.849 40.849 0 0 1-2.18-1.942c-.088-.085-.223.05-.134.135Z"/><path fill="#000" stroke="#000" stroke-miterlimit="10" stroke-width=".5" d="M-2.785 33.681a69.055 69.055 0 0 0 9.045 7.51 36.81 36.81 0 0 0 5.114 2.902 33.364 33.364 0 0 0 5.758 2.005c4.123 1.049 8.37 1.528 12.47 2.677a23.159 23.159 0 0 1 9.237 4.714c2.47 2.204 4.336 5.33 4.1 8.738a5.945 5.945 0 0 1-1.91 4.154 6.705 6.705 0 0 1-5.339 1.258 23.578 23.578 0 0 1-5.965-2.108 61.42 61.42 0 0 0-5.916-2.298 24.81 24.81 0 0 0-11.63-1.222 15.28 15.28 0 0 0-8.777 4.492A18.201 18.201 0 0 0 .848 70.49a11.869 11.869 0 0 1-2.571 3.714 4.348 4.348 0 0 1-1.878.938c-.12.027-.069.21.051.184a5.518 5.518 0 0 0 3.275-2.5c.88-1.296 1.5-2.744 2.287-4.094a13.654 13.654 0 0 1 8.021-6.025 21.52 21.52 0 0 1 11.492.067 45.59 45.59 0 0 1 6.097 2.067c1.978.81 3.896 1.805 5.928 2.473a9.235 9.235 0 0 0 5.643.281 5.45 5.45 0 0 0 3.429-3.125c1.263-3.038.174-6.524-1.72-9.033a18.836 18.836 0 0 0-8.266-5.845c-3.778-1.495-7.825-2.086-11.79-2.868a51.238 51.238 0 0 1-6.277-1.57 31.656 31.656 0 0 1-5.525-2.468 53.264 53.264 0 0 1-9.57-7.156 107.513 107.513 0 0 1-2.124-1.983c-.089-.085-.224.05-.135.134Z"/><path fill="#000" stroke="#000" stroke-miterlimit="10" stroke-width=".5" d="M.037 39.845a47.219 47.219 0 0 0 7.847 5.288 64.53 64.53 0 0 0 8.658 3.848c3.011 1.097 6.087 2.01 9.19 2.808 3.149.81 6.492 1.4 9.286 3.159a10.268 10.268 0 0 1 3.11 2.96 6.46 6.46 0 0 1 1.184 3.933 2.87 2.87 0 0 1-.82 1.915 3.68 3.68 0 0 1-2.238.785 11.873 11.873 0 0 1-4.33-.494c-2.914-.846-5.546-2.418-8.327-3.598a20.361 20.361 0 0 0-4.38-1.363c-1.6-.28-3.23-.352-4.85-.213A23.075 23.075 0 0 0 5.2 61.716a32.817 32.817 0 0 0-7.42 5.71A42.486 42.486 0 0 0-3.797 69.1c-.081.091.053.227.135.135a36.148 36.148 0 0 1 7.18-6.29 24.244 24.244 0 0 1 9.052-3.654 18.764 18.764 0 0 1 9.752.852c2.86 1.061 5.49 2.653 8.358 3.695a14.35 14.35 0 0 0 4.218.92c1.343.061 3.103.001 3.997-1.165a4.29 4.29 0 0 0 .335-3.83 8.447 8.447 0 0 0-2.17-3.445c-2.269-2.247-5.376-3.228-8.397-3.994-3.157-.8-6.306-1.596-9.403-2.608a71.59 71.59 0 0 1-9.018-3.59 50.36 50.36 0 0 1-8.181-4.922A42.775 42.775 0 0 1 .172 39.71c-.093-.078-.229.056-.135.135Z"/><path fill="#000" stroke="#000" stroke-miterlimit="10" stroke-width=".5" d="M.026 44.82a60.47 60.47 0 0 0 6.803 3.914 34.466 34.466 0 0 0 3.508 1.437c1.315.454 2.655.802 4.006 1.13l9.166 2.23 4.6 1.118 2.266.551c.69.168 1.388.325 2.06.558a3.885 3.885 0 0 1 2.502 1.986 2.417 2.417 0 0 1-.18 2.182 2.363 2.363 0 0 1-2.001 1.076 6.208 6.208 0 0 1-3.392-1.473 19.697 19.697 0 0 0-7.127-3.04 23.749 23.749 0 0 0-7.8-.284 29.513 29.513 0 0 0-7.77 2.145 42.261 42.261 0 0 0-7.2 3.96c-.554.374-1.101.76-1.642 1.154-.098.072-.003.237.097.165a46.508 46.508 0 0 1 7.12-4.335 31.585 31.585 0 0 1 7.884-2.661 24.163 24.163 0 0 1 7.998-.185c2.63.37 5.157 1.27 7.43 2.644a13.49 13.49 0 0 0 3.512 1.986 2.859 2.859 0 0 0 2.431-.382 2.535 2.535 0 0 0 1.007-1.877 2.797 2.797 0 0 0-.907-2.178 7.505 7.505 0 0 0-3.492-1.508c-1.542-.376-3.085-.75-4.627-1.125l-9.27-2.255c-1.5-.364-3.01-.701-4.497-1.11a33.92 33.92 0 0 1-3.768-1.273 45.79 45.79 0 0 1-6.89-3.617c-.58-.36-1.157-.726-1.73-1.097-.104-.067-.2.098-.097.164Z"/><path fill="#000" stroke="#000" stroke-miterlimit="10" stroke-width=".5" d="M-1.187 55.824A10.148 10.148 0 0 0 5.477 56.9a11.205 11.205 0 0 0 2.855-.976c.669-.3 1.31-.659 1.916-1.072a2.692 2.692 0 0 0 1.23-1.567 1.885 1.885 0 0 0-1.2-1.867 6.949 6.949 0 0 0-1.604-.428c-.58-.11-1.162-.204-1.745-.29-1.2-.176-2.403-.317-3.606-.467a38.343 38.343 0 0 1-7.148-1.37 17.67 17.67 0 0 1-.787-.276c-.115-.043-.165.14-.051.184a30.21 30.21 0 0 0 6.704 1.488c2.316.31 4.65.523 6.943.986a4.223 4.223 0 0 1 1.523.517c.36.233.627.583.757.99a1.681 1.681 0 0 1-.738 1.64 8.633 8.633 0 0 1-1.866 1.162c-.762.4-1.56.726-2.386.972a9.992 9.992 0 0 1-6.61-.489 9.625 9.625 0 0 1-.755-.376c-.107-.06-.204.105-.096.164Z"/><path fill="#000" stroke="#000" stroke-miterlimit="10" stroke-width=".5" d="M-.546 54.365c.45.127.886.31 1.327.467.61.226 1.232.415 1.864.568.907.206 2.32.427 2.74-.667a1.385 1.385 0 0 0-.021-1.148 1.816 1.816 0 0 0-.864-.744 6.9 6.9 0 0 0-3.05-.493c-.524.01-1.045.06-1.56.15-.4.06-.79.177-1.158.347-.065.032-.128.07-.188.11-.1.07-.004.235.097.165.287-.177.605-.3.936-.362.46-.106.93-.172 1.401-.199a8.137 8.137 0 0 1 3.023.29c.68.221 1.439.689 1.291 1.514a1.096 1.096 0 0 1-.76.933 3.374 3.374 0 0 1-1.59-.028A25.854 25.854 0 0 1-.26 54.255a4.7 4.7 0 0 0-.235-.073.095.095 0 0 0-.114.067.095.095 0 0 0 .064.116ZM16.505 107c1.49-1.973 2.84-4.079 4.316-5.977a75.856 75.856 0 0 1 6.17-6.91c1.9-1.909 3.966-3.672 5.75-5.695a22.558 22.558 0 0 0 4.016-6.074 8.944 8.944 0 0 0 .761-3.154c.04-1.35-.606-2.582-.643-3.916-.043-1.568 1.15-2.315 2.459-2.799a14.074 14.074 0 0 0 3.118-1.459c1.882-1.27 4.008-3.463 6.504-2.636 2.26.749 3.101 3.534 3.21 5.67a21.82 21.82 0 0 1-1.375 7.887c-1.735 5.184-4.55 10-5.709 15.377a19.555 19.555 0 0 0-.182 7.696c.126.671.288 1.336.485 1.99h.202c-.64-2.092-.9-4.281-.771-6.464.352-5.564 3.054-10.597 5.092-15.677a33.344 33.344 0 0 0 2.278-7.85c.459-2.279.163-4.645-.843-6.741a4.43 4.43 0 0 0-2.055-1.965 4.01 4.01 0 0 0-3.101.056 14.611 14.611 0 0 0-2.99 1.896 12.59 12.59 0 0 1-3.263 1.804 5.682 5.682 0 0 0-2.718 1.5c-.851 1.076-.473 2.44-.166 3.644.33 1.186.338 2.44.026 3.63a13.625 13.625 0 0 1-1.493 3.409 27.634 27.634 0 0 1-4.556 5.703c-2.16 2.103-4.36 4.154-6.417 6.361a67.995 67.995 0 0 0-5.73 7.029c-.87 1.227-1.732 2.467-2.647 3.665h.272Z"/><path fill="#000" stroke="#000" stroke-miterlimit="10" stroke-width=".5" d="M20.398 107c.195-.287.394-.573.586-.86 1.44-2.154 2.82-4.349 4.36-6.434a35.515 35.515 0 0 1 5.429-5.86c3.606-3.105 8.013-6.414 8.357-11.584.15-2.26-.455-4.839.71-6.915 1.143-2.035 3.748-2.69 5.868-3.146 1.232-.264 2.651-.267 3.448.874.52.885.731 1.919.599 2.937a19.706 19.706 0 0 1-.693 3.616 52.808 52.808 0 0 1-1.156 3.82c-1.695 4.979-3.943 9.805-4.94 14.996a25.135 25.135 0 0 0-.279 8.556h.19a22.65 22.65 0 0 1-.12-5.856c.536-5.238 2.578-10.114 4.39-15.006a59.22 59.22 0 0 0 2.41-7.753c.383-1.738.88-4.089-.386-5.603a3.03 3.03 0 0 0-2.815-.886 16.353 16.353 0 0 0-3.32.854 6.883 6.883 0 0 0-2.623 1.528 5.048 5.048 0 0 0-1.346 2.793c-.377 2.306.199 4.663-.414 6.947a13.947 13.947 0 0 1-3.978 6.158c-1.937 1.889-4.143 3.477-6.061 5.386a41.022 41.022 0 0 0-4.818 6.001c-1.226 1.792-2.4 3.638-3.632 5.437h.233Z"/><path fill="#000" stroke="#000" stroke-miterlimit="10" stroke-width=".5" d="M24.02 107a89.054 89.054 0 0 1 7.044-9.507c3.41-3.782 7.623-7.028 9.772-11.773a13.411 13.411 0 0 0 1.05-3.385c.198-1.229.068-2.448.154-3.681a2.807 2.807 0 0 1 1.877-2.781 1.38 1.38 0 0 1 1.483.508c.3.48.443 1.042.409 1.607a20.553 20.553 0 0 1-.398 3.668c-.215 1.22-.5 2.426-.823 3.62-.655 2.412-1.473 4.774-2.25 7.147-1.502 4.587-2.905 9.375-2.457 14.256.01.108.032.214.044.321h.21a30.73 30.73 0 0 1 1.585-11.999c1.439-4.753 3.346-9.41 4.044-14.355.194-1.376.894-4.87-1.352-5.012a2.444 2.444 0 0 0-2.117 1.28 6.914 6.914 0 0 0-.453 3.497c.02 5.324-3.645 9.547-7.183 13.113a73.813 73.813 0 0 0-5.437 5.852c-1.657 2.075-3.15 4.274-4.644 6.467-.262.386-.526.771-.792 1.157h.233Z"/><path fill="#000" stroke="#000" stroke-miterlimit="10" stroke-width=".5" d="M27.54 107c.443-.668.886-1.337 1.328-2.007 1.044-1.574 2.136-3.117 3.171-4.696.98-1.494 1.918-3.016 2.946-4.477.53-.753 1.083-1.49 1.678-2.193a20.1 20.1 0 0 1 .866-.963 1.93 1.93 0 0 1 1.122-.709c.916-.087 1.316.962 1.269 1.704a13.865 13.865 0 0 1-.438 2.56c-.43 1.673-1.053 3.288-1.53 4.948a15.434 15.434 0 0 0-.658 5.052c.013.261.038.521.06.781h.192a14.907 14.907 0 0 1 .245-4.436c.375-1.695.988-3.324 1.5-4.98.26-.815.472-1.644.636-2.484.2-.71.243-1.454.126-2.183a1.531 1.531 0 0 0-1.174-1.15c-.748-.096-1.315.571-1.767 1.063-2.39 2.601-4.084 5.734-6.08 8.626-1.262 1.831-2.481 3.693-3.715 5.544h.222Z"/><path fill="#000" stroke="#000" stroke-miterlimit="10" stroke-width=".5" d="M30.446 107c.479-.852.95-1.709 1.413-2.57.63-1.171 1.25-2.348 1.878-3.522.318-.595.639-1.189.962-1.781.157-.289.314-.578.476-.864.147-.26.334-.572.641-.657a.697.697 0 0 1 .764.43 1.238 1.238 0 0 1 .003.99c-.133.326-.29.643-.468.948-.151.291-.293.587-.423.888a14.619 14.619 0 0 0-1.023 3.564c-.13.852-.193 1.713-.19 2.574h.192c0-.472.012-.943.05-1.414.103-1.287.372-2.555.8-3.772.22-.62.484-1.223.79-1.804a2.802 2.802 0 0 0 .547-1.75.992.992 0 0 0-.967-.86c-.57.057-.843.696-1.082 1.131a273.738 273.738 0 0 0-1.92 3.562A250.857 250.857 0 0 1 30.212 107h.235Z"/></g><defs><clipPath id="a"><path fill="#fff" d="M0 0h170v105H0z"/></clipPath></defs></svg>