<svg xmlns="http://www.w3.org/2000/svg" width="170" height="105" fill="none"><g clip-path="url(#a)"><path fill="#000" stroke="#000" stroke-miterlimit="10" stroke-width=".5" d="M43.767-55.135c-1.248-2.661-3.322-5.158-6.26-5.955-3.241-.88-6.48.602-8.688 2.969-2.68 2.87-3.615 6.749-3.968 10.558-.382 4.117-.148 8.3-1.053 12.36a15.955 15.955 0 0 1-2.294 5.552 14.848 14.848 0 0 1-3.702 3.705 33.326 33.326 0 0 1-9.508 4.249C4.517-20.52.726-19.43-2.986-18.047c-.172.064-.342.134-.514.198v.263a124.164 124.164 0 0 1 6.506-2.255c3.366-1.056 6.799-1.931 10.063-3.288a19.693 19.693 0 0 0 7.985-5.507c2.376-2.948 3.225-6.687 3.557-10.382.375-4.157.124-8.393 1.106-12.48.862-3.59 2.87-7.017 6.262-8.73a7.697 7.697 0 0 1 5.026-.73 8.045 8.045 0 0 1 3.95 2.172 15.6 15.6 0 0 1 4.06 8.451 37.016 37.016 0 0 1-.314 12.74 87.431 87.431 0 0 1-3.456 12.797 201.22 201.22 0 0 1-8.003 20.761A67.476 67.476 0 0 1 21.927 13.59a42.226 42.226 0 0 1-7.89 6.696A40.833 40.833 0 0 1 3.546 25.1 50.9 50.9 0 0 1-3.5 26.656v.244c.56-.085 1.12-.16 1.677-.26a42.616 42.616 0 0 0 20.336-9.414A56.653 56.653 0 0 0 31.185.652a146.715 146.715 0 0 0 8.37-19.852c2.925-8.22 5.977-16.707 6.092-25.536a23.554 23.554 0 0 0-1.88-10.399ZM174.379 81.475c-6.383 4.15-14.095 6.62-21.754 6.015a26.074 26.074 0 0 1-11.073-3.457 45.305 45.305 0 0 1-9.194-7.445c-5.437-5.472-10.285-11.77-17.015-15.756-5.739-3.399-13.455-4.84-19.505-1.35-6.235 3.599-7.74 11.467-13.061 15.998a32.605 32.605 0 0 1-9.882 5.247c-3.309 1.245-6.642 2.397-9.825 3.948A55.712 55.712 0 0 0 46.534 96.83a43.618 43.618 0 0 0-10.042 17.39 37.911 37.911 0 0 0-.421 18.922 33.282 33.282 0 0 0 8.995 16.379 29.174 29.174 0 0 0 3.484 2.878c.13.091.253-.122.124-.213-10.814-7.625-15.107-22.029-12.702-34.707 2.579-13.595 12.715-24.67 24.551-31.204a69.675 69.675 0 0 1 9.763-4.324 57.879 57.879 0 0 0 9.597-4.132 21.464 21.464 0 0 0 7.207-7.092c1.875-2.912 3.413-6.104 5.832-8.626 5.163-5.381 13.491-5.29 19.892-2.329 7.106 3.288 12.229 9.512 17.507 15.07 5.155 5.429 10.939 10.619 18.447 12.315 7.056 1.594 14.54.225 21.014-2.828a39.919 39.919 0 0 0 4.72-2.64c.133-.086.01-.3-.124-.213Z"/><path fill="#000" d="M95.929 27.493a8.3 8.3 0 0 0 4.497-.45 12.412 12.412 0 0 0 3.626-2.36 38.283 38.283 0 0 0 3.144-3.29 47.23 47.23 0 0 1 3.346-3.366c2.285-2.128 4.71-4.368 5.756-7.398a11.46 11.46 0 0 0-.508-8.576 9.672 9.672 0 0 0-2.711-3.428 10.276 10.276 0 0 0-4.292-1.946 13.772 13.772 0 0 0-4.863-.074c-1.599.27-3.154.754-4.623 1.44a21.073 21.073 0 0 0-6.774 4.646 16.391 16.391 0 0 0-3.787 6.673 20.553 20.553 0 0 0-.737 4.208 19.888 19.888 0 0 0 .249 5.234 11.003 11.003 0 0 0 5.53 7.97 7.97 7.97 0 0 0 2.147.717c.154.027.22-.21.065-.237a9.47 9.47 0 0 1-6.836-6.146 15.8 15.8 0 0 1-.971-5.308 22.217 22.217 0 0 1 .359-4.55 16.77 16.77 0 0 1 3.003-7.02 18.538 18.538 0 0 1 5.936-5.009 18.075 18.075 0 0 1 8.874-2.552 10.23 10.23 0 0 1 8.175 3.787 11.02 11.02 0 0 1 1.993 8.211 10.695 10.695 0 0 1-1.556 4.13 20.333 20.333 0 0 1-3.022 3.558c-1.122 1.097-2.301 2.134-3.414 3.24-1.052 1.045-1.989 2.195-3.003 3.277-1.954 2.088-4.304 4.142-7.265 4.462a8.233 8.233 0 0 1-2.273-.08c-.155-.027-.221.21-.065.237Z"/><path stroke="#000" stroke-miterlimit="10" stroke-width=".5" d="M95.929 27.493a8.3 8.3 0 0 0 4.497-.45 12.412 12.412 0 0 0 3.626-2.36 38.283 38.283 0 0 0 3.144-3.29 47.251 47.251 0 0 1 3.346-3.366c2.285-2.128 4.71-4.368 5.756-7.398a11.46 11.46 0 0 0-.508-8.576 9.672 9.672 0 0 0-2.711-3.428 10.276 10.276 0 0 0-4.292-1.946 13.772 13.772 0 0 0-4.863-.074c-1.599.27-3.154.754-4.623 1.44a21.073 21.073 0 0 0-6.774 4.646 16.391 16.391 0 0 0-3.787 6.673 20.553 20.553 0 0 0-.737 4.208 19.888 19.888 0 0 0 .249 5.234 11.003 11.003 0 0 0 5.53 7.97 7.97 7.97 0 0 0 2.147.717Zm0 0c.154.027.22-.21.065-.237m-.065.237c-.156-.027-.09-.264.065-.237m0 0a9.47 9.47 0 0 1-6.836-6.146 15.8 15.8 0 0 1-.971-5.308 22.217 22.217 0 0 1 .359-4.55 16.77 16.77 0 0 1 3.003-7.02 18.538 18.538 0 0 1 5.936-5.009 18.075 18.075 0 0 1 8.874-2.552 10.23 10.23 0 0 1 8.175 3.787 11.02 11.02 0 0 1 1.993 8.211 10.695 10.695 0 0 1-1.556 4.13 20.333 20.333 0 0 1-3.022 3.558c-1.122 1.097-2.301 2.134-3.414 3.24-1.052 1.045-1.989 2.195-3.003 3.277-1.954 2.088-4.304 4.142-7.265 4.462a8.233 8.233 0 0 1-2.273-.08Z"/><path fill="#000" stroke="#000" stroke-miterlimit="10" stroke-width=".5" d="M138.309-11c-4.151-11.58-16.377-19.447-28.567-19.157-7.098.169-13.918 3.01-19.75 6.924a62.045 62.045 0 0 0-14.15 13.746C71.98-4.545 68.181.57 62.89 4.088c-6.56 4.362-14.388 5.143-21.78 7.295C27.42 15.37 17.098 25.812 4.36 31.742a48.257 48.257 0 0 1-7.86 2.827v.286a63.974 63.974 0 0 0 16.914-7.872c5.883-3.703 11.499-7.848 17.634-11.14a52.502 52.502 0 0 1 9.963-4.173c3.75-1.105 7.603-1.801 11.376-2.817a36.428 36.428 0 0 0 9.796-4.018 34.903 34.903 0 0 0 6.934-5.757c4.26-4.503 7.62-9.762 11.843-14.297A49.195 49.195 0 0 1 98.647-27.55a30.083 30.083 0 0 1 35.866 9.951c4.451 6.096 5.568 13.449 5.467 20.841-.054 3.89-.314 7.785-.58 11.666a106.788 106.788 0 0 1-1.323 11.64c-1.305 7.246-3.852 14.432-8.944 19.901-4.512 4.847-10.895 8.432-17.675 8.114-3.774-.177-7.172-1.857-10.817-2.644a11.045 11.045 0 0 0-8.62 1.358 26.419 26.419 0 0 0-6.006 6.185 37.627 37.627 0 0 1-6.706 7.119c-5.53 4.205-12.246 6.364-18.38 9.48a62.674 62.674 0 0 0-15.407 11.113 66.267 66.267 0 0 0-18.282 32.743 61.998 61.998 0 0 0-1.3 8.96c-.012.158.234.157.245 0a65.474 65.474 0 0 1 29.25-49.358c5.79-3.769 12.281-6.04 18.373-9.226a33.979 33.979 0 0 0 8.265-5.781c2.22-2.196 3.96-4.809 5.97-7.185 1.977-2.338 4.32-4.558 7.392-5.27 3.952-.916 7.815.94 11.542 1.983 6.271 1.755 12.613.21 17.871-3.507a31.784 31.784 0 0 0 11.417-15.885c2.488-7.195 3.1-14.874 3.551-22.422.46-7.707 1.15-15.813-1.507-23.226Z"/><path fill="#000" stroke="#000" stroke-miterlimit="10" stroke-width=".5" d="M130.295-12.08c-3.007-5.122-7.711-9.333-13.527-10.89-6.457-1.728-13.362-.153-19.183 2.865-6.256 3.243-11.37 8.276-16.139 13.374C76.61-1.56 71.976 3.863 66.395 8.268a40.602 40.602 0 0 1-9.13 5.557 51.285 51.285 0 0 1-10.93 2.975 100.787 100.787 0 0 0-10.905 2.33 40.84 40.84 0 0 0-9.594 4.464c-3.092 1.906-6.018 4.061-9.017 6.105a92.387 92.387 0 0 1-9.133 5.51A90.373 90.373 0 0 1-3.5 40.126v.264c.203-.073.408-.14.611-.215a89.867 89.867 0 0 0 18.543-9.395c6.056-4.016 11.797-8.739 18.782-11.075 7.013-2.345 14.572-2.492 21.516-5.088 6.357-2.377 11.721-6.711 16.5-11.433 9.9-9.784 18.577-22.647 32.973-25.948 6.735-1.545 13.739-.342 19.1 4.155a28.077 28.077 0 0 1 9.168 16.587c1.325 7.307.415 14.939-1.364 22.09a59.746 59.746 0 0 1-5.337 14.064c-2.415 4.453-5.599 8.7-9.893 11.494a18.767 18.767 0 0 1-6.786 2.755c-3.053.46-6.166.313-9.161-.433-3.336-.697-6.823-1.611-10.226-.803a15.736 15.736 0 0 0-7.295 4.64c-2.24 2.26-4.243 4.73-6.656 6.82a52.99 52.99 0 0 1-8.188 5.694c-5.617 3.252-11.588 5.84-17.195 9.11a54.748 54.748 0 0 0-14.45 12.049c-8.105 9.634-12.961 21.539-17.004 33.329a474.546 474.546 0 0 0-2.937 8.915c-.048.151.19.216.237.066 3.966-12.36 8.118-24.94 15.26-35.89a56.667 56.667 0 0 1 12.943-14.24c5.243-3.995 11.233-6.818 17.077-9.8 5.758-2.938 11.526-6.102 16.176-10.667 2.272-2.23 4.228-4.78 6.66-6.847a12.746 12.746 0 0 1 9.745-3.176c3.607.322 7.067 1.582 10.694 1.76 2.442.126 4.885-.23 7.189-1.05a24.187 24.187 0 0 0 10.915-8.69 49.76 49.76 0 0 0 6.878-13.624 66.365 66.365 0 0 0 3.506-17.736c.372-6.857-.671-13.897-4.186-19.886Z"/><path fill="#000" stroke="#000" stroke-miterlimit="10" stroke-width=".5" d="M125.354-11.898c-3.584-3.467-8.646-4.977-13.549-5.026-12.414-.123-21.72 8.952-29.444 17.607-4.251 4.763-8.376 9.676-13.284 13.791a40.976 40.976 0 0 1-8.007 5.356 34.618 34.618 0 0 1-9.944 3.044c-3.601.59-7.25.884-10.823 1.644a50.767 50.767 0 0 0-9.716 3.207c-6.498 2.837-12.504 6.659-18.59 10.26A143.303 143.303 0 0 1-3.5 46.195v.27a91.75 91.75 0 0 0 4.876-2.289c6.257-3.156 12.19-6.893 18.233-10.428 6.042-3.535 12.315-6.884 19.142-8.615 6.824-1.731 14.05-1.486 20.617-4.252 5.685-2.394 10.493-6.435 14.78-10.795 8.727-8.874 16.212-20.561 28.348-25.124a24.707 24.707 0 0 1 15.878-.632 16.152 16.152 0 0 1 11.058 11.376c1.615 6.25-.07 12.923-2.089 18.875-2.166 6.385-4.616 12.989-8.584 18.497-3.712 5.153-9.208 9.422-15.696 10.06-3.542.35-7.084-.259-10.627-.266a17.906 17.906 0 0 0-8.337 1.849c-4.758 2.437-8.273 6.65-12.274 10.084a25.203 25.203 0 0 1-7.185 4.566c-3.159 1.227-6.547 1.637-9.85 2.303a29.428 29.428 0 0 0-8.737 3.107 34.08 34.08 0 0 0-6.904 5.251c-4.454 4.308-7.98 9.494-11.257 14.722a161.13 161.13 0 0 0-17.162 37.227 160.36 160.36 0 0 0-2.726 9.744c-.038.154.2.219.237.065a161.276 161.276 0 0 1 15.264-39.087 126.07 126.07 0 0 1 10.91-16.987c3.772-4.82 8.293-9.286 13.943-11.826 6.03-2.712 13.036-2.199 18.856-5.464 4.731-2.655 8.24-6.922 12.374-10.347a21.853 21.853 0 0 1 7.087-4.17c3.416-1.104 7.017-.788 10.538-.56 3.284.373 6.61.102 9.791-.798a22.085 22.085 0 0 0 7.358-4.28c4.951-4.25 7.995-10.159 10.408-16.115 2.391-5.903 4.755-12.071 5.389-18.454.559-5.63-.608-11.539-4.805-15.6Z"/><path fill="#000" stroke="#000" stroke-miterlimit="10" stroke-width=".5" d="M121.057-6.216a12.312 12.312 0 0 0-6.249-3.616c-5.192-1.34-10.788-.1-15.526 2.186C88.506-2.447 81.573 7.698 73.638 16.208c-4.011 4.303-8.428 8.36-13.701 11.062-5.84 2.993-12.353 3.642-18.727 4.736a46.465 46.465 0 0 0-9.49 2.468 39.833 39.833 0 0 0-7.697 4.25c-4.978 3.426-9.437 7.559-14.526 10.83a57.372 57.372 0 0 1-12.997 6.1v.261a67.371 67.371 0 0 0 3.938-1.439 63.697 63.697 0 0 0 15.335-9.162c4.75-3.705 9.418-7.685 14.968-10.16 6.01-2.681 12.651-3.087 19.033-4.323 3.036-.538 6-1.427 8.831-2.649a36.84 36.84 0 0 0 7.286-4.43c9.275-7.127 15.49-17.337 24.302-24.957 4.42-3.821 9.529-7.092 15.299-8.367 5.207-1.15 11.749-.729 15.463 3.612 4.402 5.146 1.424 12.451-.642 17.923-2.279 6.04-4.783 12.197-9.043 17.145a26.059 26.059 0 0 1-6.652 5.622 20.366 20.366 0 0 1-8.965 2.646c-3.413.223-6.841-.102-10.251.207a20.54 20.54 0 0 0-8.193 2.547c-5.151 2.857-9.35 7.124-14.734 9.61-5.772 2.667-12.14 3.829-17.776 6.817-5.2 2.757-9.352 7.048-12.867 11.702a146.49 146.49 0 0 0-10.246 16.047 205.627 205.627 0 0 0-18.887 45.018.123.123 0 0 0 .237.065A205.808 205.808 0 0 1 17.72 91.977a204.756 204.756 0 0 1 10-17.332c3.31-5.136 6.928-10.205 11.636-14.163a32.345 32.345 0 0 1 8.057-4.947c3.019-1.3 6.173-2.244 9.282-3.297a47.215 47.215 0 0 0 8.438-3.588 79.23 79.23 0 0 0 7.28-5.057 34.1 34.1 0 0 1 7.69-4.564 26.748 26.748 0 0 1 9.976-1.339c3.272.022 6.597.126 9.79-.716a21.164 21.164 0 0 0 7.425-3.742c4.808-3.686 8.038-8.92 10.49-14.377 1.311-2.915 2.441-5.91 3.546-8.908a28.915 28.915 0 0 0 2.119-8.762 10.473 10.473 0 0 0-2.392-7.4ZM178.107 84.377c-6.026 3.995-12.34 8.095-19.483 9.724-3.542.844-7.229.87-10.783.08a29.5 29.5 0 0 1-9.327-4.132c-6.264-4.072-11.098-9.84-16.222-15.184-4.571-4.767-9.935-10.273-16.825-11.17a11.775 11.775 0 0 0-8.835 2.153c-2.468 1.944-3.908 4.826-5.567 7.421a23.917 23.917 0 0 1-6.197 6.585 44.838 44.838 0 0 1-7.568 4.248c-5.425 2.5-11.165 4.489-16.098 7.933-5.447 3.805-9.37 9.361-12.218 15.292a35.431 35.431 0 0 0-3.45 10.635 20.832 20.832 0 0 0 1.029 9.704c2.132 5.999 6.562 10.889 11.086 15.222a165.385 165.385 0 0 0 3.553 3.287c.117.106.291-.067.173-.173-4.809-4.347-9.714-8.924-12.878-14.661a22.397 22.397 0 0 1-2.861-9.252 26.069 26.069 0 0 1 2.031-11.14c2.493-6.405 6.27-12.644 11.572-17.102 4.606-3.871 10.29-6.063 15.742-8.441 5.158-2.25 10.446-4.778 14.185-9.124 1.986-2.307 3.287-5.078 5.077-7.525a12.511 12.511 0 0 1 3.553-3.42 10.995 10.995 0 0 1 4.912-1.486c7.334-.508 13.27 4.946 18.057 9.796 5.055 5.12 9.645 10.77 15.446 15.093 5.352 3.99 11.679 6.7 18.463 6.207 6.928-.503 13.29-3.846 19.078-7.458a194.496 194.496 0 0 0 4.479-2.9c.131-.087.008-.3-.124-.212Z"/><path fill="#000" stroke="#000" stroke-miterlimit="10" stroke-width=".5" d="M172.089 92.596a23.676 23.676 0 0 1-15.046 10.681 27.817 27.817 0 0 1-19.178-2.631 35.447 35.447 0 0 1-8.189-5.885 45.455 45.455 0 0 1-6.76-8.52c-3.658-5.722-7.481-12.452-14.382-14.649a11.648 11.648 0 0 0-8.352.46 8.715 8.715 0 0 0-3.196 2.497 22.054 22.054 0 0 0-2.309 4.65c-2.825 6.18-10.095 7.495-15.863 9.591A44.586 44.586 0 0 0 61.61 99.463a28.129 28.129 0 0 0-7.986 17.922c-.16 3.233.41 6.46 1.667 9.443a24.02 24.02 0 0 0 5.017 7.331c4.337 4.411 9.92 7.408 15.481 9.984 1.403.65 2.818 1.274 4.236 1.889.144.062.27-.149.124-.212-5.736-2.489-11.535-5.136-16.489-9.012-4.948-3.873-8.787-9.127-9.626-15.48-.91-6.894 1.505-14.015 5.77-19.415 4.306-5.453 10.316-9.32 16.682-11.957 2.979-1.234 6.086-2.088 9.1-3.223a18.49 18.49 0 0 0 7.442-4.532 13.235 13.235 0 0 0 2.306-3.913 12.17 12.17 0 0 1 2.646-4.465 10.473 10.473 0 0 1 8.495-2.442c7.386.978 11.856 8.066 15.479 13.803a53.498 53.498 0 0 0 6.318 8.518 36.448 36.448 0 0 0 7.561 6.09 28.993 28.993 0 0 0 18.214 4.264 25.197 25.197 0 0 0 15.697-7.839 21.348 21.348 0 0 0 2.558-3.497.123.123 0 0 0-.047-.164.122.122 0 0 0-.166.04Z"/><path fill="#000" stroke="#000" stroke-miterlimit="10" stroke-width=".5" d="M171.385 103.636a36.351 36.351 0 0 1-16.62 7.493 35.575 35.575 0 0 1-17.925-1.431 36.706 36.706 0 0 1-14.277-9.322 36.1 36.1 0 0 1-5.133-6.877c-1.529-2.664-2.464-5.56-3.758-8.33-1.216-2.606-3.017-5.072-5.83-6.067a5.975 5.975 0 0 0-6.512 1.755c-1.676 1.81-2.666 4.128-4.115 6.105a13.952 13.952 0 0 1-7.021 4.732c-2.742.943-5.604 1.502-8.317 2.533a27.497 27.497 0 0 0-7.147 4.047 26.594 26.594 0 0 0-9.452 13.83 12.275 12.275 0 0 0 .386 8.265c1.374 2.914 4.41 4.644 6.927 6.452l18.335 13.167 4.5 3.231c.128.092.25-.121.123-.212l-18.08-12.984-4.584-3.292c-1.43-1.027-2.91-2.01-4.266-3.135a9.74 9.74 0 0 1-2.897-3.703 10.419 10.419 0 0 1-.716-4.381 19.55 19.55 0 0 1 2.642-8.567 27.873 27.873 0 0 1 12.28-11.616 52.544 52.544 0 0 1 8.26-2.75 19.758 19.758 0 0 0 7.278-3.38c1.965-1.627 3.097-3.92 4.445-6.031 1.371-2.146 3.219-4.254 5.993-4.188 3.191.075 5.633 2.64 7.038 5.272 1.448 2.71 2.296 5.694 3.744 8.41a36.072 36.072 0 0 0 4.647 6.726 37.114 37.114 0 0 0 13.366 9.737 35.44 35.44 0 0 0 16.847 2.666 37.065 37.065 0 0 0 16.576-5.512 35.336 35.336 0 0 0 3.436-2.469c.123-.1-.052-.273-.173-.174Z"/><path fill="#000" stroke="#000" stroke-miterlimit="10" stroke-width=".5" d="M134.488 117.179a27.881 27.881 0 0 1-17.361-13.115 45.967 45.967 0 0 1-2.572-5.677 25.186 25.186 0 0 0-2.874-5.619c-2.125-2.876-5.864-5.142-9.471-3.69-3.245 1.307-5.048 4.648-7.725 6.727a30.118 30.118 0 0 1-8.472 4.098 34.63 34.63 0 0 0-8.274 3.732 10.271 10.271 0 0 0-4.583 7.61 13.827 13.827 0 0 0 3.772 10.006c2.745 3.038 6.463 4.995 10.15 6.65.927.417 1.863.818 2.798 1.217.144.062.27-.15.124-.212-3.733-1.594-7.546-3.225-10.73-5.796a15.263 15.263 0 0 1-5.783-9.488 9.902 9.902 0 0 1 .671-5.425 10.112 10.112 0 0 1 2.544-3.438c2.23-1.982 5.112-3.072 7.876-4.078a47.085 47.085 0 0 0 8.48-3.603 17.859 17.859 0 0 0 3.66-3.008 32.769 32.769 0 0 1 3.719-3.681 6.685 6.685 0 0 1 5-1.465 8.946 8.946 0 0 1 4.939 2.695c2.979 3.006 3.925 7.344 5.73 11.043a27.657 27.657 0 0 0 6.556 8.555 28.165 28.165 0 0 0 9.235 5.447 26.35 26.35 0 0 0 2.526.752c.154.038.219-.199.065-.237Z"/><path fill="#000" stroke="#000" stroke-miterlimit="10" stroke-width=".5" d="M121.151 120.126a16.676 16.676 0 0 1-10.923-11.095c-.875-2.963-1.044-6.267-2.742-8.93-1.353-2.121-3.769-3.928-6.406-3.319-2.036.471-3.34 2.205-4.376 3.892-1.135 1.847-2.09 3.902-3.723 5.378-1.933 1.747-4.62 2.089-7.01 2.861a9.375 9.375 0 0 0-3.279 1.688 6.076 6.076 0 0 0-1.891 3.045 9.061 9.061 0 0 0 1.333 7.182 19.275 19.275 0 0 0 6.54 5.576c.625.368 1.258.725 1.892 1.08.028.015.06.019.091.01a.123.123 0 0 0 .033-.222 28.333 28.333 0 0 1-7.095-5.002 10.469 10.469 0 0 1-2.188-3.392 9.025 9.025 0 0 1-.603-3.681 6.46 6.46 0 0 1 1.146-3.432 6.788 6.788 0 0 1 2.984-2.214c2.314-.96 4.92-1.172 7.09-2.484 1.893-1.144 3.031-3.096 4.114-4.956 1.002-1.719 2.05-3.703 3.879-4.672a4.552 4.552 0 0 1 3.319-.372 6.65 6.65 0 0 1 3.228 2.195c2.006 2.363 2.373 5.553 3.066 8.462.311 1.391.78 2.741 1.396 4.026a16.803 16.803 0 0 0 2.124 3.259 17.01 17.01 0 0 0 6.181 4.697c.572.252 1.157.472 1.754.657.152.047.216-.19.066-.237Z"/><path fill="#000" stroke="#000" stroke-miterlimit="10" stroke-width=".5" d="M106.083 120.564c-1.115-2.803-.03-5.811.237-8.665a8.307 8.307 0 0 0-.462-4.051 5.055 5.055 0 0 0-2.132-2.482 3.71 3.71 0 0 0-3.227-.134 7.157 7.157 0 0 0-2.757 2.273 19.515 19.515 0 0 0-2.065 3.371 25.261 25.261 0 0 0-2.648 11.878c.009.347.025.693.05 1.039.01.157.256.158.245 0a24.941 24.941 0 0 1 3.934-15.189c1.202-1.85 3.291-4.063 5.743-3.284a4.366 4.366 0 0 1 2.411 2.165 7.188 7.188 0 0 1 .706 3.817c-.143 2.779-1.205 5.559-.576 8.349.075.333.177.661.304.978.057.146.295.082.237-.065ZM171.458-14c-2.205 5.142-4.418 10.282-6.731 15.378-2.316 5.103-4.733 10.162-7.342 15.123-2.588 4.924-5.367 9.753-8.419 14.405a120.541 120.541 0 0 1-10.048 13.315 101.209 101.209 0 0 1-5.717 6.014 45.555 45.555 0 0 0-5.632 5.856c-1.397 1.94-2.422 4.362-1.629 6.753.708 2.133 2.581 3.456 4.447 4.526 1.021.585 2.071 1.119 3.071 1.74.989.62 1.891 1.37 2.681 2.229 1.607 1.726 2.878 3.725 4.379 5.538a11.088 11.088 0 0 0 5.003 3.804c2.296.6 4.679.794 7.041.572a39.692 39.692 0 0 0 14.112-3.03 33.05 33.05 0 0 0 12.138-9.034c.78-.94 1.504-1.925 2.167-2.95.087-.134-.126-.257-.212-.125a31.867 31.867 0 0 1-11.036 10.303 35.688 35.688 0 0 1-14.197 4.36 38.16 38.16 0 0 1-7.058.192 12.326 12.326 0 0 1-3.333-.678 8.82 8.82 0 0 1-2.784-1.802 40.965 40.965 0 0 1-4.413-5.37 17.027 17.027 0 0 0-4.701-4.427c-1.951-1.164-4.176-2.07-5.756-3.754a5.73 5.73 0 0 1-1.559-3.3 6.723 6.723 0 0 1 .794-3.7 22.637 22.637 0 0 1 5.165-6.124 96.563 96.563 0 0 0 5.744-5.788 115.922 115.922 0 0 0 9.931-12.59 160.412 160.412 0 0 0 8.504-13.954c2.619-4.8 5.04-9.705 7.346-14.66 2.309-4.962 4.503-9.976 6.668-15 .531-1.233 1.06-2.466 1.588-3.699.062-.144-.15-.27-.212-.124Z"/><path fill="#000" stroke="#000" stroke-miterlimit="10" stroke-width=".5" d="M174.181 1.451a116.18 116.18 0 0 1-5.026 12.424 118.211 118.211 0 0 1-14.072 22.664 117.659 117.659 0 0 1-8.833 9.965 115.83 115.83 0 0 1-4.85 4.608c-1.625 1.457-3.372 2.792-4.938 4.313a8.39 8.39 0 0 0-2.887 4.907 5.366 5.366 0 0 0 1.909 4.44 32.108 32.108 0 0 0 4.373 3.018 15.581 15.581 0 0 1 2.42 1.915c.823.81 1.563 1.698 2.348 2.544a12.84 12.84 0 0 0 4.915 3.464c1.846.665 3.811.932 5.768.785a19.152 19.152 0 0 0 11.025-4.646 43.569 43.569 0 0 0 8.397-10.336c.589-.931 1.166-1.87 1.741-2.81.083-.135-.129-.258-.212-.123a64.565 64.565 0 0 1-7.735 10.852 21.072 21.072 0 0 1-10.639 6.446c-3.856.857-8.147.41-11.314-2.116-1.789-1.427-3.073-3.367-4.798-4.862a43.597 43.597 0 0 0-4.431-3.008 7.508 7.508 0 0 1-3.358-3.815c-.6-2.044.393-3.983 1.715-5.498a46.31 46.31 0 0 1 4.678-4.237c1.651-1.44 3.26-2.926 4.828-4.459a117.496 117.496 0 0 0 8.828-9.65 118.853 118.853 0 0 0 7.629-10.445 118.136 118.136 0 0 0 6.511-11.344 116.586 116.586 0 0 0 6.245-14.93c.051-.15-.186-.215-.237-.066Z"/><path fill="#000" stroke="#000" stroke-miterlimit="10" stroke-width=".5" d="M170.921 22.878a75.178 75.178 0 0 1-9.969 16.468A75.113 75.113 0 0 1 150.92 49.73c-1.243 1.06-2.54 2.054-3.806 3.088-2.424 1.98-4.775 4.336-5.336 7.547a6.492 6.492 0 0 0 .57 4.202 7.145 7.145 0 0 0 2.826 2.695c1.192.685 2.479 1.182 3.716 1.778.624.292 1.228.628 1.806 1.005.636.424 1.224.914 1.826 1.384a6.883 6.883 0 0 0 3.745 1.785 5.057 5.057 0 0 0 3.624-1.548 20.694 20.694 0 0 0 2.873-3.645 154.693 154.693 0 0 0 9.748-16.352c.073-.14-.139-.265-.212-.124a155.986 155.986 0 0 1-8.093 13.877c-.937 1.431-1.875 2.874-2.895 4.248a8.952 8.952 0 0 1-3.159 2.913 3.928 3.928 0 0 1-2.073.371 4.945 4.945 0 0 1-2.034-.743c-1.237-.747-2.268-1.785-3.493-2.55a32.21 32.21 0 0 0-3.641-1.794 11.467 11.467 0 0 1-3.351-2.1 5.618 5.618 0 0 1-1.655-3.887 8.428 8.428 0 0 1 1.198-4.398 14.928 14.928 0 0 1 3.14-3.609c1.204-1.059 2.491-2.018 3.731-3.034a75.432 75.432 0 0 0 10.045-9.962 76.186 76.186 0 0 0 5.545-7.54 75.012 75.012 0 0 0 5.568-10.334c.063-.143-.148-.268-.212-.124Z"/><path fill="#000" stroke="#000" stroke-miterlimit="10" stroke-width=".5" d="m167.677 39.33-9.994 10.937-4.948 5.416c-1.411 1.547-2.877 3.239-3.202 5.382a4.72 4.72 0 0 0 .401 2.873 4.143 4.143 0 0 0 1.656 1.679 5.534 5.534 0 0 0 4.774.247 8.86 8.86 0 0 0 4.033-3.712 31.92 31.92 0 0 0 2.515-6.135 38.53 38.53 0 0 1 6.275-11.326 39.34 39.34 0 0 1 1.02-1.218c.104-.119-.069-.294-.173-.174a38.613 38.613 0 0 0-6.56 10.56c-.843 2.029-1.419 4.157-2.282 6.176a11.374 11.374 0 0 1-3.398 4.724 5.73 5.73 0 0 1-4.886 1.12 4.54 4.54 0 0 1-2.093-1.153 3.856 3.856 0 0 1-1.093-2.486c-.146-2.179 1.135-4.057 2.504-5.622 1.542-1.764 3.157-3.47 4.738-5.2l9.714-10.63 1.173-1.284c.106-.116-.067-.29-.174-.174ZM172.042-25.998a107.79 107.79 0 0 0-18.686 37.958c-.705 2.666-1.444 5.809-3.656 7.67a3.845 3.845 0 0 1-4.424.475 5.89 5.89 0 0 1-2.664-4.38 22.918 22.918 0 0 1 .37-6.046c.235-1.851.394-3.71.478-5.578a55.965 55.965 0 0 0-.521-10.666c-1.85-12.371-9.187-24.566-21.439-28.918-13.187-4.684-27.11 1.813-37.26 10.124C73.172-16.298 64.48-4.499 52.347 3.284a47.527 47.527 0 0 1-9.544 4.783c-1.85.665-4.133 1.544-6.028.57a4.904 4.904 0 0 1-2.376-3.84c-.45-3.634 2.31-6.954 4.047-9.896 1.825-3.09 3.529-6.253 5.06-9.5 5.766-12.225 9.57-26.773 5.227-40.07a16.231 16.231 0 0 0-7.968-9.786 13.93 13.93 0 0 0-10.99-.452 16.604 16.604 0 0 0-8.897 8.45c-2.343 4.863-2.455 10.409-3.642 15.594a20.599 20.599 0 0 1-3.19 7.666C12.15-30.606 9.35-29 6.56-27.527A85.158 85.158 0 0 1-3.5-23.134v.241c.3-.111.604-.213.903-.326a83.916 83.916 0 0 0 9.143-4.024c2.63-1.377 5.32-2.871 7.226-5.201 3.424-4.186 4.035-9.815 4.886-14.96.847-5.12 2.148-10.192 5.99-13.932a14.576 14.576 0 0 1 11.536-4.182 14.147 14.147 0 0 1 10.584 7.058 25.445 25.445 0 0 1 2.87 8.485 43.87 43.87 0 0 1 .59 10.63 65.15 65.15 0 0 1-5.458 21.34 105.433 105.433 0 0 1-4.843 9.83 129.163 129.163 0 0 1-2.649 4.546A32.706 32.706 0 0 0 34.85.73c-.988 2.376-1.16 5.397.788 7.366 2.292 2.317 5.91.752 8.45-.252 13.115-5.182 22.533-16.2 32.365-25.81 10.092-9.864 22.685-19.692 37.643-18.763 14.006.87 24.29 12.491 27.642 25.46 1.913 7.405 1.788 15.032.782 22.56-.399 2.985-.56 6.546 2.055 8.629a4.154 4.154 0 0 0 5.63-.42c1.806-1.785 2.598-4.431 3.218-6.821a107.121 107.121 0 0 1 18.832-38.553c.096-.125-.118-.248-.213-.124Z"/><path fill="#000" d="M98.445 7.315a13.331 13.331 0 0 1-2.38 2.725 3.206 3.206 0 0 0-1.063 2.924 3.778 3.778 0 0 0 2.588 2.856 4.134 4.134 0 0 0 3.407-.876 6.47 6.47 0 0 0 1.656-2.255 43.291 43.291 0 0 0 1.602-3.39c.4-.823.691-1.693.868-2.59a5.141 5.141 0 0 0-.425-3.18 1.902 1.902 0 0 0-.946-.873 2.011 2.011 0 0 0-1.461.081 6.79 6.79 0 0 0-3.266 3.44c-.197.378-.385.76-.58 1.138-.072.14.14.265.213.124a10.074 10.074 0 0 1 2.817-3.964c.812-.575 1.985-1.066 2.764-.177.582.833.831 1.856.695 2.864a7.824 7.824 0 0 1-.667 2.474 45.306 45.306 0 0 1-1.436 3.17c-.245.492-.499.98-.774 1.456a6.602 6.602 0 0 1-.641.97 4.254 4.254 0 0 1-2.937 1.431 3.201 3.201 0 0 1-2.975-2.014 2.771 2.771 0 0 1-.285-1.73c.12-.498.36-.958.7-1.341.706-.858 1.606-1.535 2.28-2.423.173-.226.326-.465.459-.716.073-.14-.14-.264-.213-.124Z"/><path stroke="#000" stroke-miterlimit="10" stroke-width=".5" d="M98.445 7.315a13.331 13.331 0 0 1-2.38 2.725 3.206 3.206 0 0 0-1.063 2.924 3.778 3.778 0 0 0 2.588 2.856 4.134 4.134 0 0 0 3.407-.876 6.47 6.47 0 0 0 1.656-2.255 43.291 43.291 0 0 0 1.602-3.39c.4-.823.691-1.693.868-2.59a5.141 5.141 0 0 0-.425-3.18 1.902 1.902 0 0 0-.946-.873 2.011 2.011 0 0 0-1.461.081 6.79 6.79 0 0 0-3.266 3.44c-.197.378-.385.76-.58 1.138Zm0 0c-.072.14.14.265.213.124m-.213-.124c.074-.14.286-.016.213.124m0 0a10.074 10.074 0 0 1 2.817-3.964c.812-.575 1.985-1.066 2.764-.177.582.833.831 1.856.695 2.864a7.824 7.824 0 0 1-.667 2.474 45.306 45.306 0 0 1-1.436 3.17c-.245.492-.499.98-.774 1.456a6.602 6.602 0 0 1-.641.97 4.254 4.254 0 0 1-2.937 1.431 3.201 3.201 0 0 1-2.975-2.014 2.771 2.771 0 0 1-.285-1.73c.12-.498.36-.958.7-1.341.706-.858 1.606-1.535 2.28-2.423.173-.226.326-.465.459-.716Z"/><path fill="#000" d="M139.526 31.404c-.128.573-.279 1.144-.385 1.72-.124.451-.076.933.135 1.35.518.827 1.63.646 2.344.225a8.698 8.698 0 0 0 2.27-2.086c.33-.41.635-.838.973-1.24.299-.355.608-.7.887-1.07a5.685 5.685 0 0 0 1.063-2.905 12.71 12.71 0 0 0 .049-1.724 5.16 5.16 0 0 0-.173-1.404 1.59 1.59 0 0 0-.7-.935 1.673 1.673 0 0 0-1.33-.078 4.552 4.552 0 0 0-1.208.713 10.41 10.41 0 0 0-1.108.943 7.923 7.923 0 0 0-1.803 2.86 24.451 24.451 0 0 0-1.014 3.631c-.035.154.202.22.236.066.206-.992.461-1.973.765-2.938a9.318 9.318 0 0 1 1.237-2.592 8.613 8.613 0 0 1 2.022-1.91 3.317 3.317 0 0 1 1.126-.588 1.25 1.25 0 0 1 1.274.378 2.2 2.2 0 0 1 .394 1.19c.041.476.055.954.043 1.432a6.704 6.704 0 0 1-.614 3.003 14.633 14.633 0 0 1-1.611 2.11 16.268 16.268 0 0 1-1.856 2.145c-.68.611-1.819 1.537-2.77.933a1.317 1.317 0 0 1-.394-1.443c.107-.577.257-1.148.384-1.72.035-.154-.202-.22-.236-.066Z"/><path stroke="#000" stroke-miterlimit="10" stroke-width=".5" d="M139.526 31.404c-.128.573-.279 1.144-.385 1.72-.124.451-.076.933.135 1.35.518.827 1.63.646 2.344.225a8.698 8.698 0 0 0 2.27-2.086c.33-.41.635-.838.973-1.24.299-.355.608-.7.887-1.07a5.685 5.685 0 0 0 1.063-2.905 12.71 12.71 0 0 0 .049-1.724 5.16 5.16 0 0 0-.173-1.404 1.59 1.59 0 0 0-.7-.935 1.673 1.673 0 0 0-1.33-.078 4.552 4.552 0 0 0-1.208.713 10.41 10.41 0 0 0-1.108.943 7.923 7.923 0 0 0-1.803 2.86 24.451 24.451 0 0 0-1.014 3.631Zm0 0c-.035.154.202.22.236.066m-.236-.066c.034-.154.271-.088.236.066m0 0c.206-.992.461-1.973.765-2.938a9.318 9.318 0 0 1 1.237-2.592 8.613 8.613 0 0 1 2.022-1.91 3.317 3.317 0 0 1 1.126-.588 1.25 1.25 0 0 1 1.274.378 2.2 2.2 0 0 1 .394 1.19c.041.476.055.954.043 1.432a6.704 6.704 0 0 1-.614 3.003 14.633 14.633 0 0 1-1.611 2.11 16.268 16.268 0 0 1-1.856 2.145c-.68.611-1.819 1.537-2.77.933a1.317 1.317 0 0 1-.394-1.443c.107-.577.257-1.148.384-1.72Z"/><path fill="#000" d="M150.176 10.11a5.141 5.141 0 0 1-1.149 3.05 1.816 1.816 0 0 1-1.532.52 2.421 2.421 0 0 1-1.481-.947c-.969-1.237-.681-2.858-.252-4.25.232-.752.498-1.492.725-2.245a41.285 41.285 0 0 0 1.699-13.897 7.487 7.487 0 0 1 .024-1.808 1.497 1.497 0 0 1 .8-1.165c.131-.061.273-.095.418-.098.644-.004.978.79 1.154 1.339a13.91 13.91 0 0 1 .515 3.452c.087 1.521.074 3.048.024 4.57-.051 1.596-.148 3.19-.272 4.783a144.106 144.106 0 0 1-.643 6.456l-.03.24c-.02.156.226.155.246 0a150.632 150.632 0 0 0 .615-5.966c.135-1.628.243-3.258.308-4.89.064-1.606.09-3.217.017-4.824a16 16 0 0 0-.493-3.72c-.182-.629-.509-1.529-1.248-1.668a1.375 1.375 0 0 0-1.232.485 2.504 2.504 0 0 0-.482 1.496c-.039.685.042 1.377.063 2.062a40.91 40.91 0 0 1-2.163 14.469c-.471 1.406-1.045 3.053-.456 4.513a2.716 2.716 0 0 0 2.652 1.86 2.783 2.783 0 0 0 2.083-2.178 9.64 9.64 0 0 0 .336-1.64c.02-.156-.226-.154-.246 0Z"/><path stroke="#000" stroke-miterlimit="10" stroke-width=".5" d="M150.176 10.11a5.141 5.141 0 0 1-1.149 3.05 1.816 1.816 0 0 1-1.532.52 2.421 2.421 0 0 1-1.481-.947c-.969-1.237-.681-2.858-.252-4.25.232-.752.498-1.492.725-2.245a41.285 41.285 0 0 0 1.699-13.897 7.487 7.487 0 0 1 .024-1.808 1.497 1.497 0 0 1 .8-1.165c.131-.061.273-.095.418-.098.644-.004.978.79 1.154 1.339a13.91 13.91 0 0 1 .515 3.452c.087 1.521.074 3.048.024 4.57-.051 1.596-.148 3.19-.272 4.783a144.106 144.106 0 0 1-.643 6.456l-.03.24Zm0 0c-.02.156.226.155.246 0m-.246 0c.02-.155.266-.157.246 0m0 0a150.632 150.632 0 0 0 .615-5.966c.135-1.628.243-3.258.308-4.89.064-1.606.09-3.217.017-4.824a16 16 0 0 0-.493-3.72c-.182-.629-.509-1.529-1.248-1.668a1.375 1.375 0 0 0-1.232.485 2.504 2.504 0 0 0-.482 1.496c-.039.685.042 1.377.063 2.062a40.91 40.91 0 0 1-2.163 14.469c-.471 1.406-1.045 3.053-.456 4.513a2.716 2.716 0 0 0 2.652 1.86 2.783 2.783 0 0 0 2.083-2.178 9.64 9.64 0 0 0 .336-1.64Z"/><path fill="#000" stroke="#000" stroke-miterlimit="10" stroke-width=".5" d="m171.457-33.31-10.918 17.995-2.754 4.54c-.437.72-.895 1.694-1.797 1.892a2.58 2.58 0 0 1-2.496-1.426c-1.305-2.206.03-5.792-2.793-7.143a2.132 2.132 0 0 0-2.404.432c-.797.65-1.463 1.196-2.461.65-1.449-.79-2.369-2.619-3.126-4.01-.893-1.64-1.652-3.345-2.48-5.018a19.62 19.62 0 0 0-3.342-4.606 36.869 36.869 0 0 0-31.801-11.466C93.538-39.957 84.31-32.73 76.39-24.664c-4.188 4.266-8.131 8.764-12.31 13.039A91.787 91.787 0 0 1 49.29.797a41.997 41.997 0 0 1-3.794 2.255 15.13 15.13 0 0 1-4.648 1.883c-2.1.288-3.331-1.563-2.936-3.498a7.098 7.098 0 0 1 2.137-3.364 29.226 29.226 0 0 0 2.443-2.56 22.772 22.772 0 0 0 1.96-3.645c1.54-3.004 3.308-5.892 4.774-8.933 5.05-10.475 6.755-23.272 3.491-34.542-1.364-4.708-3.72-9.325-7.479-12.566a17.257 17.257 0 0 0-14.167-3.894 19.63 19.63 0 0 0-12.948 8.474 23.064 23.064 0 0 0-3.23 7.17c-.764 2.952-.775 5.997-1.109 9.01a16.387 16.387 0 0 1-3.155 8.567 20.215 20.215 0 0 1-6.358 5.148 38.411 38.411 0 0 1-7.77 3.025v.3c5.333-1.522 10.378-3.548 14.054-7.989a15.034 15.034 0 0 0 3.178-6.962c.584-3.168.471-6.42 1.073-9.586a21.773 21.773 0 0 1 9.239-14.198A18.02 18.02 0 0 1 41.26-66.49c4.855 2.318 8.155 6.865 10.12 11.754a42.026 42.026 0 0 1 2.658 17.072 51.517 51.517 0 0 1-4.25 18.787c-1.33 3.052-3.037 5.915-4.613 8.843-.786 1.46-1.456 2.985-2.247 4.44a12.544 12.544 0 0 1-2.404 2.852c-1.44 1.408-3.14 3.114-2.91 5.31a3.003 3.003 0 0 0 1.352 2.316 4.098 4.098 0 0 0 3.568-.178c5.417-2.16 10.287-5.86 14.723-9.585A155.08 155.08 0 0 0 70.934-18.54c7.812-8.426 16.117-17.287 27.286-21.085a36.695 36.695 0 0 1 35.297 6.718 29.059 29.059 0 0 1 5.657 6.07 41.592 41.592 0 0 1 2.161 4.302 27.552 27.552 0 0 0 2.798 4.879c.637.824 1.602 1.924 2.773 1.764 1.098-.15 1.623-1.436 2.742-1.514 2.217-.154 2.767 2.577 2.929 4.209.178 1.79.784 4.784 3.238 4.584 1.181-.096 1.743-1.317 2.28-2.202l2.754-4.539 5.509-9.079 5.311-8.754a.126.126 0 0 0 .01-.091.123.123 0 0 0-.057-.073.123.123 0 0 0-.165.04ZM83.676 17.114a5.737 5.737 0 0 0-.859-2.588c-1.004-1.4-2.8-1.21-3.996-.163-1.565 1.371-1.707 3.704-2.397 5.541a16.077 16.077 0 0 1-2.988 4.924c-5.616 6.398-14.367 8.32-22.412 9.461a99.601 99.601 0 0 0-14.337 2.59 43.865 43.865 0 0 0-12.302 6.165c-3.865 2.65-7.515 5.596-11.396 8.223A112.266 112.266 0 0 1 .79 58.43 119.57 119.57 0 0 1-3.5 60.484v.267a120.969 120.969 0 0 0 21.637-12.863 100.01 100.01 0 0 1 11.398-7.755 43.068 43.068 0 0 1 13.582-4.447c8.51-1.455 17.417-1.748 25.039-6.26a20.145 20.145 0 0 0 7.622-7.52c.416-.768.767-1.57 1.048-2.398.38-1.124.584-2.312 1.068-3.4a3.872 3.872 0 0 1 2.308-2.254 2.215 2.215 0 0 1 2.688 1.272c.417.985.64 2.042.657 3.112.07 1.027.045 2.058-.076 3.08a19.832 19.832 0 0 1-1.88 6.296 26.624 26.624 0 0 1-8.582 9.905C65.381 43 56.076 45.187 47.44 48.517a52.294 52.294 0 0 0-12.228 6.374 56.993 56.993 0 0 0-9.826 9.467 128.21 128.21 0 0 0-15.156 22.788 134.136 134.136 0 0 0-10.17 25.31 132.102 132.102 0 0 0-1.697 6.529c-.036.154.2.22.237.066a133.746 133.746 0 0 1 23.6-50.292 77.225 77.225 0 0 1 9.372-10.564 45.295 45.295 0 0 1 11.943-7.781c8.546-3.865 17.902-5.787 26.103-10.442a31.152 31.152 0 0 0 9.881-8.427 21.158 21.158 0 0 0 4.319-11.49 16.371 16.371 0 0 0-.14-2.941Z"/><path fill="#000" stroke="#000" stroke-miterlimit="10" stroke-width=".5" d="M55.079 38.835c-.669-.885-2.004-.967-3.016-.917a44.65 44.65 0 0 0-4.593.51 59.777 59.777 0 0 0-9.65 2.34 58.718 58.718 0 0 0-8.927 3.779 38.92 38.92 0 0 0-7.572 5.683c-2.535 2.267-5.098 4.503-7.572 6.838-2.433 2.296-4.791 4.668-7.17 7.021C3.304 67.331-.012 70.547-3.5 73.564v.319a162.65 162.65 0 0 0 6.37-5.826c4.708-4.52 9.224-9.233 14.075-13.603 2.416-2.178 4.822-4.399 7.34-6.459a30.445 30.445 0 0 1 3.952-2.806 43.284 43.284 0 0 1 4.246-2.105 58.542 58.542 0 0 1 19-4.88c1.103-.086 2.856-.214 3.5.93a1.821 1.821 0 0 1-.53 2.18 5.02 5.02 0 0 1-2.214.982 86.477 86.477 0 0 0-9.578 3.042 82.002 82.002 0 0 0-8.992 4.115 21.58 21.58 0 0 0-3.835 2.618c-1.208 1.024-2.367 2.101-3.61 3.083A96.744 96.744 0 0 0 1.906 83.57 92.232 92.232 0 0 0-3.5 94.984v.63A90.907 90.907 0 0 1 .255 87.18a95.089 95.089 0 0 1 9.982-15.64 96.65 96.65 0 0 1 13.31-13.877c1.304-1.111 2.67-2.145 3.975-3.253 1.237-1.049 2.411-2.175 3.71-3.15a27.63 27.63 0 0 1 4.233-2.462 81.542 81.542 0 0 1 16.84-6.265 6.178 6.178 0 0 0 2.003-.794 2.102 2.102 0 0 0 .77-2.905Z"/><path fill="#000" d="M78.286 27.821a3.382 3.382 0 0 0 .45-2.607 1.392 1.392 0 0 0-1.916-.744 4.208 4.208 0 0 0-1.737 2.06c-.474.82-1.01 1.601-1.602 2.34-2.406 3-5.666 5.2-9.349 6.31-1.045.312-2.111.547-3.18.769-.524.109-1.05.214-1.574.325a5.741 5.741 0 0 0-1.34.413 1.87 1.87 0 0 0-1.152 1.974c.187.809 1.066 1.089 1.792 1.187a12.89 12.89 0 0 0 5.789-.826c.967-.328 1.915-.71 2.856-1.105.889-.373 1.791-.726 2.667-1.13a13.62 13.62 0 0 0 4.481-3.37c.554-.627 1.046-1.308 1.539-1.985a32.95 32.95 0 0 0 1.603-2.381c.241-.4.469-.809.673-1.23.069-.141-.143-.266-.212-.124a27.841 27.841 0 0 1-2.861 4.403 14.566 14.566 0 0 1-3.82 3.641c-.78.479-1.6.89-2.45 1.227-.87.364-1.735.74-2.61 1.093-1.758.78-3.62 1.306-5.527 1.563a7.187 7.187 0 0 1-2.664-.135 1.425 1.425 0 0 1-.958-.706 1.284 1.284 0 0 1 .163-1.2 3.562 3.562 0 0 1 2.46-1.148c1.001-.207 2.005-.404 2.998-.645 1.87-.43 3.671-1.123 5.348-2.056a19.41 19.41 0 0 0 4.109-3.138 19.202 19.202 0 0 0 3.164-4.172c.431-.77.933-1.736 1.918-1.844.98-.107 1.39.896 1.233 1.717a5.878 5.878 0 0 1-.503 1.4c-.068.142.144.267.212.124Z"/><path stroke="#000" stroke-miterlimit="10" stroke-width=".5" d="M78.286 27.821a3.382 3.382 0 0 0 .45-2.607 1.392 1.392 0 0 0-1.916-.744 4.208 4.208 0 0 0-1.737 2.06c-.474.82-1.01 1.601-1.602 2.34-2.406 3-5.666 5.2-9.349 6.31-1.045.312-2.111.547-3.18.769-.524.109-1.05.214-1.574.325a5.741 5.741 0 0 0-1.34.413 1.87 1.87 0 0 0-1.152 1.974c.187.809 1.066 1.089 1.792 1.187a12.89 12.89 0 0 0 5.789-.826c.967-.328 1.915-.71 2.856-1.105.889-.373 1.791-.726 2.667-1.13a13.62 13.62 0 0 0 4.481-3.37c.554-.627 1.046-1.308 1.539-1.985a32.95 32.95 0 0 0 1.603-2.381c.241-.4.469-.809.673-1.23Zm0 0c.069-.141-.143-.266-.212-.124m.212.124c-.068.143-.28.018-.212-.124m0 0a27.841 27.841 0 0 1-2.861 4.403 14.566 14.566 0 0 1-3.82 3.641c-.78.479-1.6.89-2.45 1.227-.87.364-1.735.74-2.61 1.093-1.758.78-3.62 1.306-5.527 1.563a7.187 7.187 0 0 1-2.664-.135 1.425 1.425 0 0 1-.958-.706 1.284 1.284 0 0 1 .163-1.2 3.562 3.562 0 0 1 2.46-1.148c1.001-.207 2.005-.404 2.998-.645 1.87-.43 3.671-1.123 5.348-2.056a19.41 19.41 0 0 0 4.109-3.138 19.202 19.202 0 0 0 3.164-4.172c.431-.77.933-1.736 1.918-1.844.98-.107 1.39.896 1.233 1.717a5.878 5.878 0 0 1-.503 1.4Z"/><path fill="#000" d="M89.697 35.065c.725-.004 1.45-.05 2.17-.137.96-.086 1.91-.253 2.84-.501.542-.155 1.402-.393 1.58-1.015a1.598 1.598 0 0 0-.65-1.614 7.339 7.339 0 0 0-1.854-.862c-1.34-.499-2.57-1.257-3.618-2.23a4.706 4.706 0 0 1-.904-1.254 7.154 7.154 0 0 0-.657-1.167 1.635 1.635 0 0 0-1.024-.662 1.932 1.932 0 0 0-1.5.398 3.739 3.739 0 0 0-1.003 1.504 8.6 8.6 0 0 0-.635 2.219 4.336 4.336 0 0 0 1.137 3.676c.875.85 1.999 1.4 3.208 1.568.301.046.605.072.91.077a.123.123 0 0 0 .084-.208.123.123 0 0 0-.084-.038 5.95 5.95 0 0 1-3.313-1.038 3.985 3.985 0 0 1-1.74-3.111 6.287 6.287 0 0 1 .323-2.14c.18-.643.455-1.255.816-1.817a1.83 1.83 0 0 1 1.468-.866 1.33 1.33 0 0 1 1.07.479c.552.626.746 1.486 1.28 2.13a9.237 9.237 0 0 0 3.104 2.267c.561.273 1.138.501 1.72.723a2.441 2.441 0 0 1 1.581 1.232.834.834 0 0 1-.222 1.02 2.987 2.987 0 0 1-.873.41c-.851.258-1.726.434-2.611.524-.754.093-1.514.16-2.274.183-.11.003-.22.005-.329.004a.123.123 0 0 0-.083.208.123.123 0 0 0 .083.038Z"/><path stroke="#000" stroke-miterlimit="10" stroke-width=".5" d="M89.697 35.065c.725-.004 1.45-.05 2.17-.137.96-.086 1.91-.253 2.84-.501.542-.155 1.402-.393 1.58-1.015a1.598 1.598 0 0 0-.65-1.614 7.339 7.339 0 0 0-1.854-.862c-1.34-.499-2.57-1.257-3.618-2.23a4.706 4.706 0 0 1-.904-1.254 7.154 7.154 0 0 0-.657-1.167 1.635 1.635 0 0 0-1.024-.662 1.932 1.932 0 0 0-1.5.398 3.739 3.739 0 0 0-1.003 1.504 8.6 8.6 0 0 0-.635 2.219 4.336 4.336 0 0 0 1.137 3.676c.875.85 1.999 1.4 3.208 1.568.301.046.605.072.91.077Zm0 0a.123.123 0 0 0 .084-.208.123.123 0 0 0-.084-.038m0 .246a.123.123 0 0 1-.083-.208.123.123 0 0 1 .083-.038m0 0a5.95 5.95 0 0 1-3.313-1.038 3.985 3.985 0 0 1-1.74-3.111 6.287 6.287 0 0 1 .323-2.14c.18-.643.455-1.255.816-1.817a1.83 1.83 0 0 1 1.468-.866 1.33 1.33 0 0 1 1.07.479c.552.626.746 1.486 1.28 2.13a9.237 9.237 0 0 0 3.104 2.267c.561.273 1.138.501 1.72.723a2.441 2.441 0 0 1 1.581 1.232.834.834 0 0 1-.222 1.02 2.987 2.987 0 0 1-.873.41c-.851.258-1.726.434-2.611.524-.754.093-1.514.16-2.274.183-.11.003-.22.005-.329.004Z"/><path fill="#000" stroke="#000" stroke-miterlimit="10" stroke-width=".5" d="M7.35 68.565a1.49 1.49 0 0 0-1.663-.049 6.519 6.519 0 0 0-1.6 1.698 96.182 96.182 0 0 1-1.645 1.993C.565 74.42-1.432 76.53-3.5 78.565v.341c1.664-1.63 3.292-3.299 4.835-5.045a96.707 96.707 0 0 0 3.203-3.82c.448-.562.943-1.318 1.694-1.486.612-.138 1.43.275 1.227.997-.164.4-.397.768-.687 1.088l-.837 1.135-1.674 2.27a84474.17 84474.17 0 0 1-3.324 4.507L-3.5 84.57v.412L.534 79.51l3.422-4.64c1.134-1.54 2.299-3.06 3.405-4.62.25-.29.382-.664.37-1.047a.96.96 0 0 0-.382-.639Z"/><path fill="#000" d="M27.136 13.388c.183.313.615.287.924.242.55-.1 1.086-.269 1.594-.501a21.48 21.48 0 0 0 3.499-1.862 3.87 3.87 0 0 0 .94-.765 1.272 1.272 0 0 0 .29-1.488 1.946 1.946 0 0 0-1.376-.658 3.907 3.907 0 0 0-1.792.146 5.33 5.33 0 0 0-1.276.719 8.995 8.995 0 0 0-2.449 2.63c-.27.448-.61 1.012-.354 1.537.07.143.281.018.212-.124-.228-.469.216-1.077.461-1.46.27-.42.575-.816.914-1.182a7.994 7.994 0 0 1 2.352-1.796c.487-.211 1.018-.3 1.547-.259a2.298 2.298 0 0 1 1.437.448c.4.37.184.882-.095 1.256-.24.29-.529.537-.853.73-.98.647-2.01 1.215-3.08 1.698-.56.27-1.144.483-1.745.638-.234.055-.78.197-.938-.073a.123.123 0 0 0-.212.124Z"/><path stroke="#000" stroke-miterlimit="10" stroke-width=".5" d="M27.136 13.388c.183.313.615.288.924.242.55-.1 1.086-.269 1.594-.501a21.48 21.48 0 0 0 3.499-1.862 3.87 3.87 0 0 0 .94-.765 1.272 1.272 0 0 0 .29-1.488 1.946 1.946 0 0 0-1.376-.658 3.907 3.907 0 0 0-1.792.146 5.33 5.33 0 0 0-1.276.719 8.995 8.995 0 0 0-2.449 2.63c-.27.448-.61 1.012-.354 1.537Zm0 0c.07.143.281.018.212-.124m-.212.124a.123.123 0 0 1 .212-.124m0 0c-.228-.469.216-1.077.461-1.46.27-.42.575-.816.914-1.182a7.994 7.994 0 0 1 2.352-1.796c.487-.211 1.018-.3 1.547-.259a2.298 2.298 0 0 1 1.437.448c.4.37.184.882-.095 1.256-.24.29-.529.537-.853.73-.98.647-2.01 1.215-3.08 1.698-.56.27-1.144.483-1.745.638-.234.055-.78.197-.938-.073Z"/><path fill="#000" stroke="#000" stroke-miterlimit="10" stroke-width=".5" d="M43.433-46.594c-.128-1.78-.449-3.54-.958-5.251a13.18 13.18 0 0 0-2.035-4.235c-1.715-2.244-4.998-3.748-7.64-2.127-2.527 1.55-3.057 4.99-3.71 7.623-.931 3.757-1.795 7.524-2.441 11.341-.618 3.643-1.19 7.365-2.77 10.741a21.286 21.286 0 0 1-5.804 7.432 25.472 25.472 0 0 1-9.161 4.5c-3.382.985-6.854 1.642-10.196 2.767-.747.252-1.486.523-2.218.814v.279a60.443 60.443 0 0 1 7.457-2.317 53.897 53.897 0 0 0 9.75-3.03 21.464 21.464 0 0 0 7.326-5.571 22.21 22.21 0 0 0 4.373-8.314c1.015-3.537 1.41-7.218 2.136-10.817.377-1.874.806-3.736 1.254-5.594.416-1.718.8-3.455 1.301-5.152a8.817 8.817 0 0 1 1.973-3.81 4.613 4.613 0 0 1 4.291-1.193c3.387.715 5.116 4.034 5.983 7.089 2.036 7.178.44 14.782-2.055 21.627-1.284 3.52-2.815 6.943-4.284 10.389-1.278 2.997-2.458 6.032-3.65 9.064-2.288 5.818-4.682 11.69-8.291 16.836a33.854 33.854 0 0 1-6.384 6.927 36.158 36.158 0 0 1-8.702 5.122A53.383 53.383 0 0 1-3.5 21.948v.26a59.06 59.06 0 0 0 8.075-1.813 36.936 36.936 0 0 0 16.82-10.15c4.223-4.659 7.03-10.374 9.43-16.132 1.245-2.987 2.39-6.015 3.59-9.021 1.35-3.388 2.837-6.718 4.243-10.083 2.851-6.825 5.342-14.096 4.775-21.603Z"/><path fill="#000" stroke="#000" stroke-miterlimit="10" stroke-width=".5" d="M38.48-52.17a4.386 4.386 0 0 0-2.966-1.172 3.221 3.221 0 0 0-2.651 1.566 11.393 11.393 0 0 0-1.221 3.743 255.899 255.899 0 0 0-.98 4.741c-.624 3.116-1.245 6.236-2.086 9.302-1.472 5.369-3.702 10.633-7.483 14.8a20.813 20.813 0 0 1-6.13 4.719 36.778 36.778 0 0 1-8.855 2.57 39.08 39.08 0 0 0-8.214 2.573c-.472.215-.933.453-1.394.69v.272a33.015 33.015 0 0 1 5.528-2.27c2.905-.89 5.926-1.3 8.858-2.087a20.883 20.883 0 0 0 7.26-3.43 28.312 28.312 0 0 0 8.74-12.01c2.365-5.754 3.35-11.947 4.609-18.005.244-1.403.57-2.79.973-4.156a3.656 3.656 0 0 1 2.511-2.712 3.955 3.955 0 0 1 3.328 1.04 6.143 6.143 0 0 1 1.74 3.684c.188 1.451.216 2.919.085 4.377a36.753 36.753 0 0 1-.63 4.727 55.046 55.046 0 0 1-2.628 8.874c-2.231 5.867-5.16 11.435-7.53 17.244-1.126 2.759-2.045 5.574-2.911 8.422a43.676 43.676 0 0 1-2.952 7.81 18.157 18.157 0 0 1-5.35 6.206 32.663 32.663 0 0 1-7.238 3.825A116.712 116.712 0 0 1-3.5 17.798v.24c3.648-.942 7.26-2.02 10.815-3.272 5.141-1.81 10.6-3.927 14.199-8.222 3.646-4.35 4.692-10.118 6.477-15.348 2.084-6.106 5.077-11.84 7.615-17.76 2.447-5.707 4.513-11.718 4.805-17.972.12-2.546.131-5.776-1.93-7.635Z"/><path fill="#000" stroke="#000" stroke-miterlimit="10" stroke-width=".5" d="M36.689-45.187c-.383-.83-1.25-1.444-2.112-.891a4.322 4.322 0 0 0-1.584 2.427c-.354 1.227-.415 2.54-.644 3.794a65.904 65.904 0 0 1-5.15 15.138c-1.043 2.31-2.075 4.642-3.272 6.876a18.191 18.191 0 0 1-4.477 5.739c-3.641 2.928-8.41 3.91-12.876 4.831A39.497 39.497 0 0 0-3.5-4.207v.291a30.734 30.734 0 0 1 7.094-2.462c4.35-1.023 8.87-1.603 12.924-3.596a15.568 15.568 0 0 0 5.238-4.08 29.427 29.427 0 0 0 3.616-6.137 107.422 107.422 0 0 0 5.919-14.35 48.832 48.832 0 0 0 1.65-7.566 6.27 6.27 0 0 1 1.196-3.234 1.588 1.588 0 0 1 1.206-.72c.61.044 1.05.704 1.223 1.23.154.566.21 1.153.167 1.737-.017.64-.062 1.28-.133 1.918a26.606 26.606 0 0 1-.693 3.708 50.094 50.094 0 0 1-2.469 6.962c-2.1 4.972-4.195 9.946-6.284 14.922l-3.25 7.783a49.5 49.5 0 0 1-3.19 6.785A16.148 16.148 0 0 1 15.71 4.15a40.42 40.42 0 0 1-6.289 3.163C5.115 9.16.808 11.003-3.5 12.843v.265l9.632-4.122c2.374-1.016 4.786-1.975 7.094-3.137a19.61 19.61 0 0 0 5.737-4.094 22.506 22.506 0 0 0 3.774-6.181c1.1-2.471 2.104-4.987 3.146-7.483 2.188-5.24 4.328-10.504 6.581-15.716 1.972-4.562 4.028-9.188 4.445-14.203a6.875 6.875 0 0 0-.22-3.36Z"/><path fill="#000" stroke="#000" stroke-miterlimit="10" stroke-width=".5" d="M18.699-7.662a2.81 2.81 0 0 0-1.205.028 55.466 55.466 0 0 0-4.435.94A56.322 56.322 0 0 0-3.339.425L-3.5.531v.312a55.464 55.464 0 0 1 20.483-8.139c.767-.138 2.066-.496 2.292.586.058.408.017.825-.12 1.215-.112.4-.256.79-.428 1.167a11.205 11.205 0 0 1-2.966 3.764 24.963 24.963 0 0 1-4.202 2.827c-1.775.986-3.596 1.893-5.427 2.768C2.963 6.545-.262 7.935-3.5 9.294v.265c2.875-1.206 5.74-2.435 8.565-3.754a120.785 120.785 0 0 0 5.857-2.916 30.047 30.047 0 0 0 4.36-2.744 12.646 12.646 0 0 0 3.317-3.68 7.903 7.903 0 0 0 .888-2.272c.146-.725.046-1.626-.788-1.855Z"/><path fill="#000" stroke="#000" stroke-miterlimit="10" stroke-width=".5" d="M12.082-2.73a1.43 1.43 0 0 0-.82-.125c-.407.031-.81.097-1.206.196A28.938 28.938 0 0 0 3.468-.11C1.117 1.097-1.146 2.472-3.5 3.67v.275C-1.61 2.99.224 1.92 2.083.904a36.04 36.04 0 0 1 7.025-3.056 8.477 8.477 0 0 1 2.337-.463c.175 0 .507-.004.598.189.118.247-.184.623-.315.8A8.423 8.423 0 0 1 9.024.46C7.935 1.077 6.803 1.613 5.7 2.207c-1.208.651-2.33 1.448-3.527 2.12a15.238 15.238 0 0 1-4.312 1.732 9.83 9.83 0 0 1-1.178.17c-.157.013-.158.26 0 .246A12.659 12.659 0 0 0 1.2 5.12c1.39-.685 2.657-1.559 3.988-2.343 1.08-.636 2.221-1.162 3.324-1.755a12.21 12.21 0 0 0 3.054-2.083c.305-.315 1.16-1.27.515-1.668ZM171.172-122.668c-7.525 1.672-13.228-4.967-18.77-8.823a18.036 18.036 0 0 0-9.203-3.484 20.238 20.238 0 0 0-9.671 1.964 38.051 38.051 0 0 0-7.856 4.945 16.488 16.488 0 0 0-5.358 6.782c-2.316 5.968-.588 12.538-2.256 18.614-1.529 5.572-6.065 9.59-8.424 14.76a17.958 17.958 0 0 0-1.279 3.886 18.808 18.808 0 0 1-1.231 4.844c-1.366 2.71-4.518 3.283-7.263 3.554-2.497.246-5.07.189-7.495.903a20.066 20.066 0 0 0-7.47 4.054 17.826 17.826 0 0 0-5.739 17.063c.717 3.319 2.795 6.129 3.676 9.39a13.382 13.382 0 0 1-2.007 10.49 47.706 47.706 0 0 1-7.093 8.188c-2.573 2.556-5.01 5.235-7.563 7.808-2.674 2.694-5.489 5.244-8.337 7.75a51.247 51.247 0 0 0-3.81 3.47c-.948 1.022-1.792 2.131-2.69 3.195a15.892 15.892 0 0 1-3 2.883c-1.224.851-3.029 1.809-4.572 1.569-2.886-.449-.029-4.012.755-5.216 1.003-1.542 2.007-3.084 2.989-4.639 3.835-6.075 7.251-12.398 9.14-19.37a43.217 43.217 0 0 0 .717-21.48c-2.732-11.13-12.166-21.406-24.276-21.22a20.428 20.428 0 0 0-14.56 6.146c-4.518 4.851-4.977 11.628-6.87 17.674A27.724 27.724 0 0 1-3.5-30.31v.26a29.31 29.31 0 0 0 10.186-7.478 25.713 25.713 0 0 0 4.23-6.706 60.322 60.322 0 0 0 2.697-9.343c.667-3.392 2-6.62 3.921-9.493a18.02 18.02 0 0 1 6.788-5.458 21.257 21.257 0 0 1 17.586-.198A27.078 27.078 0 0 1 54.76-55.971c6.88 13.743 2.501 30.135-4.79 42.724-1.813 3.13-3.79 6.159-5.761 9.188-.723 1.111-2.077 2.557-1.99 3.982a1.67 1.67 0 0 0 1.773 1.49c2.55.104 5.04-1.834 6.674-3.597.935-1.01 1.765-2.108 2.654-3.158a29.525 29.525 0 0 1 3.19-3.152c2.858-2.497 5.7-5.016 8.42-7.664 2.667-2.596 5.13-5.387 7.77-8.01 4.518-4.49 10.197-9.49 10.728-16.28.262-3.35-1.215-6.234-2.576-9.184a17.777 17.777 0 0 1-1.515-10.927 18.315 18.315 0 0 1 12.955-13.886c2.574-.778 5.303-.684 7.953-.976 2.209-.243 4.731-.683 6.283-2.432 1.949-2.195 1.722-5.517 2.616-8.168a31.277 31.277 0 0 1 4.337-7.748 36.98 36.98 0 0 0 4.162-6.942 24.41 24.41 0 0 0 1.427-8.574 48.834 48.834 0 0 1 .828-9.833 15.227 15.227 0 0 1 5.112-8.078c5.246-4.543 12.333-8.441 19.485-7.401 7.284 1.059 11.683 7.433 17.904 10.642a13.072 13.072 0 0 0 8.837 1.524c.154-.034.089-.271-.065-.237Z"/></g><defs><clipPath id="a"><path fill="#fff" d="M0 0h170v105H0z"/></clipPath></defs></svg>