<svg width="170" height="105" viewBox="0 0 170 105" fill="none" xmlns="http://www.w3.org/2000/svg">
<g clip-path="url(#clip0_445_6074)">
<path d="M-25.6583 168.449C-17.7515 169.611 -9.7133 169.557 -1.82284 168.288C5.67422 167.021 12.6957 163.771 18.5133 158.875C23.7269 154.183 28.0237 148.563 31.1851 142.301C34.4581 135.898 37.2559 129.263 39.5558 122.449C42.4805 114.228 45.5321 105.742 45.6471 96.9134C45.816 93.3492 45.173 89.7932 43.7666 86.5139C42.5192 83.8528 40.4456 81.3559 37.5076 80.5589C34.2659 79.6794 31.0273 81.1613 28.819 83.5276C26.14 86.3981 25.2042 90.2769 24.8509 94.0863C24.4691 98.2033 24.7033 102.387 23.7976 106.446C23.3913 108.425 22.6128 110.309 21.5035 111.998C20.4989 113.442 19.2454 114.697 17.8016 115.703C14.8747 117.609 11.6665 119.042 8.29427 119.952C4.51718 121.13 0.726055 122.22 -2.98548 123.601C-10.8322 126.521 -18.3544 130.247 -25.4309 134.722C-27.1519 135.81 -28.8443 136.942 -30.5082 138.117C-30.6365 138.208 -30.5138 138.421 -30.3842 138.33C-23.5947 133.539 -16.3295 129.462 -8.70358 126.162C-4.87857 124.508 -0.969933 123.055 3.00642 121.808C6.37253 120.752 9.80503 119.877 13.069 118.52C16.1481 117.379 18.893 115.486 21.0538 113.013C23.4296 110.065 24.2786 106.326 24.6113 102.631C24.9858 98.474 24.7352 94.2379 25.7169 90.1509C26.5793 86.561 28.5865 83.1343 31.9787 81.4207C33.5235 80.6158 35.2956 80.3587 37.0055 80.6914C38.5023 81.0241 39.8728 81.7775 40.9558 82.863C43.1434 85.1972 44.5606 88.1474 45.0154 91.314C45.6479 95.5469 45.5415 99.8573 44.701 104.054C43.8744 108.401 42.719 112.679 41.2447 116.851C38.9622 123.914 36.2905 130.845 33.2421 137.612C30.4108 144.041 26.593 149.988 21.9267 155.239C19.581 157.786 16.931 160.035 14.0362 161.935C10.7852 164.028 7.2533 165.65 3.54636 166.75C-4.03402 169.036 -12.086 169.362 -19.9391 168.782C-21.8504 168.641 -23.7571 168.443 -25.6583 168.203C-25.8148 168.183 -25.8134 168.429 -25.6583 168.449Z" fill="black" stroke="black" stroke-width="0.5" stroke-miterlimit="10"/>
<path d="M172.042 115.651C163.367 126.945 157.016 139.846 153.356 153.609C152.651 156.275 151.912 159.418 149.7 161.28C149.103 161.808 148.356 162.137 147.564 162.222C146.771 162.307 145.972 162.143 145.276 161.754C144.531 161.272 143.904 160.628 143.443 159.869C142.981 159.111 142.697 158.258 142.612 157.374C142.467 155.352 142.591 153.318 142.982 151.328C143.217 149.477 143.376 147.617 143.46 145.75C143.627 142.186 143.452 138.614 142.939 135.084C141.089 122.713 133.751 110.518 121.5 106.166C108.313 101.482 94.3889 107.979 84.2389 116.29C73.1725 125.351 64.481 137.15 52.3477 144.933C49.3563 146.881 46.155 148.485 42.8043 149.716C40.9538 150.381 38.6707 151.26 36.776 150.286C36.1012 149.883 35.533 149.324 35.1194 148.656C34.7058 147.988 34.4589 147.23 34.3995 146.446C33.9499 142.812 36.7095 139.492 38.4468 136.55C40.2716 133.46 41.9758 130.297 43.5068 127.051C49.2726 114.825 53.076 100.276 48.7343 86.9808C48.1268 84.9002 47.1088 82.9623 45.7404 81.2814C44.3719 79.6006 42.6806 78.2109 40.7663 77.1942C39.0609 76.3766 37.2069 75.9148 35.3173 75.837C33.4276 75.7592 31.5419 76.067 29.775 76.7417C25.8394 78.3193 22.6564 81.3429 20.8787 85.1924C18.5362 90.0549 18.4236 95.6008 17.2371 100.786C16.7048 103.531 15.6191 106.14 14.0462 108.452C12.1511 111.043 9.35094 112.65 6.56039 114.121C0.394392 117.372 -6.2747 119.54 -12.8537 121.778C-15.9444 122.83 -19.0321 123.893 -22.0691 125.092C-22.2145 125.15 -22.1512 125.387 -22.0037 125.329C-15.6158 122.806 -9.01634 120.869 -2.5973 118.431C0.527573 117.272 3.58065 115.928 6.5457 114.407C9.17515 113.03 11.8651 111.535 13.7716 109.205C17.1959 105.02 17.8065 99.3913 18.6575 94.2468C19.5048 89.1252 20.8059 84.0538 24.6484 80.3142C26.1514 78.8205 27.9621 77.6725 29.9543 76.9502C31.9465 76.228 34.0722 75.9489 36.1834 76.1323C38.3762 76.4007 40.4757 77.1789 42.3137 78.4046C44.1517 79.6303 45.6772 81.2693 46.7679 83.1905C48.2189 85.8265 49.1909 88.6991 49.6386 91.6746C50.2656 95.1813 50.4633 98.7514 50.2271 102.306C49.6321 109.677 47.7866 116.893 44.7696 123.644C43.3268 127.003 41.7103 130.284 39.9266 133.474C39.0747 135.008 38.1918 136.523 37.278 138.021C36.3589 139.41 35.5472 140.867 34.85 142.379C33.8618 144.755 33.6895 147.776 35.638 149.745C37.9295 152.062 41.5478 150.497 44.0887 149.493C57.2032 144.311 66.6209 133.294 76.4532 123.683C86.5447 113.819 99.1375 103.991 114.096 104.92C128.101 105.789 138.386 117.411 141.737 130.38C143.651 137.785 143.526 145.412 142.52 152.939C142.121 155.925 141.959 159.486 144.574 161.569C145.393 162.221 146.428 162.54 147.472 162.462C148.515 162.384 149.491 161.916 150.205 161.15C152.011 159.364 152.803 156.718 153.422 154.328C156.157 143.745 160.494 133.642 166.285 124.371C168.132 121.409 170.122 118.544 172.254 115.775C172.351 115.65 172.137 115.527 172.042 115.651Z" fill="black" stroke="black" stroke-width="0.5" stroke-miterlimit="10"/>
<path d="M171.456 108.338C167.817 114.337 164.178 120.335 160.539 126.334C159.621 127.847 158.703 129.36 157.784 130.873C157.348 131.593 156.89 132.568 155.988 132.765C155.477 132.801 154.968 132.685 154.523 132.431C154.079 132.178 153.72 131.797 153.492 131.339C152.187 129.133 153.522 125.547 150.699 124.196C150.302 124.013 149.859 123.957 149.429 124.034C148.999 124.111 148.603 124.319 148.295 124.629C147.498 125.279 146.831 125.824 145.834 125.279C144.385 124.488 143.465 122.66 142.708 121.269C141.815 119.629 141.056 117.923 140.228 116.251C139.344 114.561 138.218 113.009 136.886 111.644C132.884 107.335 127.909 104.047 122.376 102.052C116.844 100.057 110.915 99.4152 105.084 100.179C93.5378 101.691 84.3093 108.919 76.3896 116.985C72.2016 121.25 68.2585 125.748 64.0803 130.023C59.6005 134.673 54.6425 138.837 49.2886 142.447C48.0644 143.264 46.7981 144.017 45.4948 144.702C44.0609 145.584 42.4898 146.22 40.8464 146.585C38.7459 146.872 37.5153 145.021 37.9107 143.086C38.2872 141.784 39.0289 140.616 40.048 139.722C40.9131 138.919 41.7289 138.064 42.4907 137.163C43.2531 136.01 43.9089 134.789 44.45 133.517C45.9907 130.513 47.7589 127.626 49.2251 124.584C54.2744 114.109 55.9798 101.313 52.7156 90.0426C51.352 85.3345 48.9963 80.7179 45.2371 77.4767C43.3077 75.8252 41.0374 74.6198 38.5884 73.9467C36.1394 73.2736 33.5721 73.1493 31.0695 73.5827C28.4497 74.0441 25.951 75.0332 23.7252 76.49C21.4994 77.9468 19.5929 79.8408 18.1216 82.057C16.6427 84.2443 15.5502 86.6692 14.8919 89.2262C14.1279 92.1781 14.1162 95.223 13.7827 98.2362C13.5639 101.333 12.4698 104.304 10.6279 106.803C8.88146 108.935 6.71774 110.686 4.26964 111.951C-0.994268 114.808 -6.94171 115.752 -12.6262 117.422C-15.4351 118.199 -18.142 119.306 -20.69 120.721C-20.7169 120.738 -20.7361 120.765 -20.7436 120.796C-20.7511 120.827 -20.7463 120.859 -20.7303 120.887C-20.7142 120.914 -20.6881 120.934 -20.6574 120.943C-20.6268 120.952 -20.594 120.948 -20.566 120.933C-10.7918 115.306 2.87187 116.57 10.5534 107.287C12.1957 105.28 13.2906 102.881 13.7317 100.325C14.3154 97.1571 14.2026 93.9056 14.8041 90.74C15.3173 87.876 16.3994 85.144 17.9863 82.7053C19.5733 80.2666 21.6329 78.1708 24.0435 76.5415C26.5678 74.8876 29.467 73.8941 32.4752 73.6522C35.4833 73.4103 38.5041 73.9278 41.2602 75.157C46.1155 77.4753 49.4152 82.0223 51.3814 86.9114C53.4402 92.3567 54.3452 98.1704 54.0391 103.984C53.8161 110.457 52.3742 116.831 49.7892 122.77C48.4583 125.822 46.7514 128.686 45.1757 131.613C44.3897 133.073 43.7201 134.598 42.9288 136.053C42.274 137.118 41.4636 138.079 40.5246 138.905C39.084 140.314 37.3842 142.019 37.6139 144.216C37.6448 144.681 37.7831 145.132 38.0179 145.533C38.2527 145.935 38.5777 146.277 38.9671 146.532C39.5366 146.773 40.1533 146.883 40.771 146.852C41.3888 146.821 41.9915 146.651 42.5341 146.354C47.952 144.193 52.8214 140.493 57.258 136.768C62.0962 132.504 66.6637 127.942 70.9338 123.11C78.7458 114.684 87.0505 105.823 98.2199 102.025C104.186 100.024 110.566 99.5915 116.747 100.768C122.928 101.944 128.703 104.69 133.517 108.742C135.683 110.485 137.588 112.529 139.174 114.813C139.977 116.203 140.698 117.64 141.334 119.114C142.098 120.831 143.036 122.466 144.132 123.993C144.769 124.818 145.735 125.917 146.905 125.757C148.004 125.607 148.529 124.322 149.648 124.244C151.864 124.089 152.415 126.821 152.577 128.452C152.755 130.242 153.361 133.236 155.815 133.036C156.995 132.94 157.558 131.72 158.095 130.835L160.849 126.295C162.685 123.269 164.521 120.243 166.357 117.217C168.128 114.299 169.898 111.38 171.669 108.462C171.684 108.434 171.687 108.401 171.678 108.371C171.67 108.34 171.65 108.314 171.622 108.298C171.595 108.282 171.562 108.277 171.531 108.285C171.5 108.292 171.473 108.311 171.456 108.338Z" fill="black" stroke="black" stroke-width="0.5" stroke-miterlimit="10"/>
<path d="M-17.863 165.085C-10.3215 164.772 -2.68552 164.256 4.57473 162.043C10.9947 160.24 16.8068 156.733 21.3944 151.894C25.6182 147.235 28.425 141.519 30.825 135.762C32.0704 132.774 33.2159 129.747 34.4143 126.74C35.7651 123.352 37.2519 120.022 38.6579 116.657C41.5092 109.833 44.0001 102.561 43.4334 95.0543C43.3055 93.2743 42.9842 91.5135 42.475 89.8031C42.0559 88.281 41.3668 86.8466 40.4404 85.5681C38.7247 83.3245 35.4424 81.8209 32.7996 83.4417C30.2732 84.991 29.7434 88.4321 29.0905 91.0647C28.1588 94.8218 27.2956 98.5882 26.6488 102.406C26.0316 106.049 25.4589 109.771 23.8795 113.147C22.5247 116.027 20.5413 118.566 18.0753 120.579C15.3565 122.681 12.2402 124.212 8.91408 125.078C5.53196 126.064 2.06001 126.72 -1.28209 127.846C-7.42348 129.923 -13.0541 133.281 -17.802 137.695C-18.9719 138.785 -20.0836 139.935 -21.1323 141.142C-21.2357 141.261 -21.0625 141.436 -20.9585 141.316C-16.7055 136.435 -11.4636 132.515 -5.5804 129.813C-2.50703 128.456 0.686079 127.387 3.9576 126.621C7.29627 125.922 10.561 124.907 13.7079 123.591C16.5236 122.285 19.0228 120.385 21.033 118.02C23.067 115.592 24.5583 112.758 25.4067 109.706C26.4212 106.169 26.8164 102.489 27.542 98.8893C27.9196 97.016 28.3479 95.1534 28.7966 93.2959C29.2117 91.5771 29.5963 89.8402 30.0973 88.1438C30.431 86.7305 31.1086 85.4215 32.07 84.3331C32.6264 83.788 33.3118 83.3928 34.0623 83.1842C34.8127 82.9756 35.6037 82.9605 36.3616 83.1402C39.7478 83.8552 41.4773 87.175 42.3437 90.2293C44.38 97.4075 42.784 105.012 40.289 111.856C39.0055 115.377 37.4738 118.8 36.0052 122.245C34.7278 125.243 33.5468 128.277 32.3546 131.309C30.0667 137.127 27.6728 143 24.0637 148.146C22.2691 150.741 20.1206 153.072 17.6804 155.073C15.0335 157.179 12.1041 158.903 8.97801 160.195C2.23294 163.04 -5.09161 164.071 -12.3475 164.553C-14.1845 164.675 -16.0235 164.763 -17.863 164.839C-18.0206 164.846 -18.0214 165.091 -17.863 165.085Z" fill="black" stroke="black" stroke-width="0.5" stroke-miterlimit="10"/>
<path d="M-11.582 161.527C-5.16562 160.292 1.15048 158.583 7.31435 156.415C12.4558 154.604 17.9139 152.488 21.5136 148.193C25.1592 143.843 26.2062 138.075 27.9908 132.845C30.0746 126.739 33.0678 121.005 35.6056 115.085C38.0529 109.378 40.1184 103.367 40.4109 97.1131C40.53 94.5668 40.5417 91.3364 38.4805 89.4782C37.6735 88.7294 36.6144 88.3114 35.5135 88.3071C34.9761 88.3261 34.4519 88.4794 33.9889 88.7528C33.5259 89.0263 33.1386 89.4113 32.8625 89.8727C32.2413 91.0401 31.8281 92.3068 31.6414 93.616C31.2949 95.1923 30.9777 96.7748 30.6611 98.3573C30.0376 101.473 29.4165 104.593 28.5758 107.659C27.1037 113.027 24.8737 118.292 21.093 122.458C19.3624 124.401 17.283 126.002 14.9625 127.178C12.1303 128.403 9.15513 129.266 6.10724 129.748C3.28304 130.301 0.528519 131.164 -2.10624 132.321C-4.66854 133.49 -7.07419 134.977 -9.26696 136.744C-10.3265 137.599 -11.3328 138.519 -12.2802 139.496C-12.3904 139.61 -12.2168 139.784 -12.1064 139.67C-8.19676 135.643 -3.33589 132.666 2.02776 131.012C4.93306 130.122 7.95397 129.712 10.8854 128.926C13.5046 128.263 15.9704 127.098 18.1459 125.495C22.0756 122.341 25.0924 118.196 26.8849 113.487C29.251 107.732 30.2354 101.539 31.4945 95.4811C31.7392 94.0782 32.0643 92.6904 32.4682 91.3248C32.608 90.6904 32.9144 90.1047 33.3557 89.628C33.7971 89.1513 34.3575 88.8008 34.9793 88.6126C35.5765 88.5203 36.1869 88.5659 36.7636 88.7461C37.3404 88.9263 37.8683 89.2362 38.3067 89.652C39.2894 90.6464 39.9035 91.9462 40.0477 93.3368C40.2351 94.7883 40.2632 96.2559 40.1316 97.7134C40.0242 99.3012 39.8139 100.88 39.5018 102.441C38.8763 105.467 37.9971 108.436 36.8735 111.315C34.6427 117.182 31.7144 122.75 29.3437 128.559C28.2177 131.318 27.2992 134.133 26.4328 136.981C25.7005 139.673 24.7121 142.288 23.4812 144.79C22.1937 147.24 20.3634 149.363 18.1301 150.997C15.8876 152.57 13.4559 153.855 10.8926 154.822C5.04878 157.119 -0.964119 158.961 -7.09224 160.331C-8.60485 160.677 -10.1232 160.997 -11.6474 161.29C-11.8025 161.32 -11.7369 161.557 -11.582 161.527Z" fill="black" stroke="black" stroke-width="0.5" stroke-miterlimit="10"/>
<path d="M-9.64055 157.384C-4.38295 155.135 0.874652 152.885 6.13225 150.635C8.50647 149.619 10.9184 148.66 13.2263 147.497C15.37 146.49 17.3135 145.104 18.9628 143.404C20.5462 141.561 21.8207 139.473 22.7368 137.223C23.8368 134.752 24.8411 132.236 25.8833 129.74C28.0714 124.5 30.2112 119.236 32.4643 114.024C34.4363 109.461 36.4923 104.836 36.9088 99.8213C37.1151 98.7005 37.0395 97.5459 36.6888 96.4615C36.3065 95.6314 35.44 95.0182 34.5772 95.5707C33.7856 96.1733 33.2262 97.0306 32.9935 97.9978C32.6393 99.2252 32.5777 100.538 32.3488 101.792C31.2529 107.028 29.5234 112.112 27.1987 116.93C26.1565 119.239 25.1241 121.572 23.9274 123.806C22.8367 126.001 21.3137 127.953 19.4498 129.544C15.8087 132.472 11.0396 133.455 6.57446 134.376C2.27458 135.263 -2.2553 136.225 -5.86498 138.874C-6.7026 139.486 -7.46934 140.19 -8.15098 140.972C-8.25423 141.091 -8.0811 141.265 -7.97715 141.146C-5.03744 137.76 -0.644199 136.268 3.59361 135.271C7.94348 134.248 12.4647 133.668 16.518 131.675C18.537 130.707 20.3235 129.316 21.7558 127.595C23.2054 125.703 24.4197 123.642 25.372 121.457C27.6883 116.823 29.6663 112.027 31.2905 107.108C32.0402 104.634 32.5923 102.104 32.9414 99.5424C33.0297 98.3737 33.4438 97.2532 34.1367 96.3079C34.2691 96.1035 34.4468 95.9323 34.656 95.8076C34.8652 95.6829 35.1003 95.6079 35.3431 95.5887C35.9528 95.6314 36.3937 96.2919 36.5657 96.8186C36.7203 97.3837 36.7769 97.9711 36.733 98.5553C36.7155 99.1958 36.6711 99.8349 36.5999 100.473C36.4571 101.724 36.2257 102.963 35.9074 104.181C35.2567 106.559 34.4314 108.886 33.4381 111.142C31.3384 116.115 29.2436 121.089 27.1536 126.065C26.0702 128.659 24.9868 131.254 23.9034 133.848C23.0135 136.187 21.9476 138.455 20.7147 140.633C19.4562 142.71 17.7457 144.475 15.7104 145.799C13.71 147.034 11.6056 148.093 9.42125 148.962C4.2952 151.16 -0.832335 153.354 -5.96135 155.545L-9.76463 157.172C-9.90963 157.234 -9.78452 157.446 -9.64055 157.384Z" fill="black" stroke="black" stroke-width="0.5" stroke-miterlimit="10"/>
<path d="M137.228 68.1008C140.325 69.3043 143.591 70.015 146.907 70.2069C148.535 70.2829 150.162 70.0486 151.702 69.5166C153.291 68.9179 154.678 67.8798 155.701 66.5233C156.917 64.8677 157.84 63.0157 158.43 61.048C159.058 59.1138 159.473 57.1167 159.667 55.0923C160.057 50.9942 159.6 46.8597 158.325 42.9456C157.709 41.0247 156.892 39.1741 155.888 37.4245C155.104 36.0765 154.095 34.8729 152.904 33.8657C150.655 31.862 147.709 30.8218 144.701 30.9694C143.108 31.1502 141.584 31.7184 140.262 32.6243C138.94 33.5303 137.859 34.7463 137.115 36.1661C135.321 39.3985 135.285 43.2423 135.136 46.8383C135.099 48.7255 134.926 50.6077 134.619 52.4701C134.454 53.3755 134.214 54.2654 133.9 55.1305C133.509 56.1082 133.068 57.0651 132.578 57.9973C131.718 59.7475 130.816 61.7544 131.451 63.7268C131.763 64.4978 132.228 65.1978 132.817 65.785C133.407 66.3722 134.108 66.8345 134.88 67.1442C135.644 67.5071 136.428 67.8264 137.228 68.1008C137.378 68.154 137.442 67.9166 137.294 67.8638C135.646 67.3958 134.121 66.5752 132.822 65.4589C132.205 64.8626 131.774 64.1003 131.58 63.2641C131.403 62.2896 131.49 61.2854 131.833 60.3562C132.46 58.4411 133.615 56.7504 134.263 54.8418C134.805 53.1211 135.131 51.3394 135.233 49.5381C135.514 45.9387 135.282 42.2147 136.322 38.7171C136.752 37.0994 137.563 35.6085 138.689 34.3698C139.814 33.1311 141.221 32.1808 142.79 31.5989C144.185 31.2033 145.65 31.1116 147.084 31.3299C148.518 31.5483 149.889 32.0718 151.104 32.8649C152.401 33.6613 153.553 34.6731 154.51 35.8566C155.597 37.2751 156.483 38.8364 157.144 40.4966C158.732 44.2083 159.554 48.2029 159.558 52.2401C159.562 54.2395 159.356 56.2337 158.943 58.1899C158.539 60.1736 157.891 62.0998 157.015 63.9247C156.238 65.6569 155.036 67.1642 153.519 68.3062C152.2 69.1786 150.688 69.7154 149.114 69.87C145.812 70.1089 142.496 69.6619 139.374 68.5572C138.676 68.3413 137.983 68.1085 137.294 67.8638C137.144 67.8107 137.08 68.0482 137.228 68.1008Z" fill="black"/>
<path d="M137.228 68.1008C140.325 69.3043 143.591 70.015 146.907 70.2069C148.535 70.2829 150.162 70.0486 151.702 69.5166C153.291 68.9179 154.678 67.8798 155.701 66.5233C156.917 64.8677 157.84 63.0157 158.43 61.048C159.058 59.1138 159.473 57.1167 159.667 55.0923C160.057 50.9942 159.6 46.8597 158.325 42.9456C157.709 41.0247 156.892 39.1741 155.888 37.4245C155.104 36.0765 154.095 34.8729 152.904 33.8657C150.655 31.862 147.709 30.8218 144.701 30.9694C143.108 31.1502 141.584 31.7184 140.262 32.6243C138.94 33.5303 137.859 34.7463 137.115 36.1661C135.321 39.3985 135.285 43.2423 135.136 46.8383C135.099 48.7255 134.926 50.6077 134.619 52.4701C134.454 53.3755 134.214 54.2654 133.9 55.1305C133.509 56.1082 133.068 57.0651 132.578 57.9973C131.718 59.7475 130.816 61.7544 131.451 63.7268C131.763 64.4978 132.228 65.1978 132.817 65.785C133.407 66.3722 134.108 66.8345 134.88 67.1442C135.644 67.5071 136.428 67.8264 137.228 68.1008ZM137.228 68.1008C137.378 68.154 137.442 67.9166 137.294 67.8638M137.228 68.1008C137.08 68.0482 137.144 67.8107 137.294 67.8638M137.294 67.8638C135.646 67.3958 134.121 66.5752 132.822 65.4589C132.205 64.8626 131.774 64.1003 131.58 63.2641C131.403 62.2896 131.49 61.2854 131.833 60.3562C132.46 58.4411 133.615 56.7504 134.263 54.8418C134.805 53.1211 135.131 51.3394 135.233 49.5381C135.514 45.9387 135.282 42.2147 136.322 38.7171C136.752 37.0994 137.563 35.6085 138.689 34.3698C139.814 33.1311 141.221 32.1808 142.79 31.5989C144.185 31.2033 145.65 31.1116 147.084 31.3299C148.518 31.5483 149.889 32.0718 151.104 32.8649C152.401 33.6613 153.553 34.6731 154.51 35.8566C155.597 37.2751 156.483 38.8364 157.144 40.4966C158.732 44.2083 159.554 48.2029 159.558 52.2401C159.562 54.2395 159.356 56.2337 158.943 58.1899C158.539 60.1736 157.891 62.0998 157.015 63.9247C156.238 65.6569 155.036 67.1642 153.519 68.3062C152.2 69.1786 150.688 69.7154 149.114 69.87C145.812 70.1089 142.496 69.6619 139.374 68.5572C138.676 68.3413 137.983 68.1085 137.294 67.8638Z" stroke="black" stroke-width="0.5" stroke-miterlimit="10"/>
<path d="M164.13 60.1411C164.652 58.2212 164.995 56.2573 165.156 54.2742C165.325 52.2302 165.312 50.1753 165.119 48.1335C164.93 46.098 164.559 44.0836 164.01 42.1146C163.466 40.1554 162.726 38.2559 161.801 36.4447C160.892 34.661 159.777 32.9898 158.479 31.4653C157.182 29.9446 155.684 28.6067 154.028 27.488C152.301 26.3317 150.415 25.4343 148.429 24.8243C146.275 24.152 143.991 24.003 141.768 24.3894C139.559 24.7502 137.496 25.7236 135.813 27.1989C134.036 28.8957 132.882 31.1406 132.534 33.5728C132.215 36.2543 132.078 38.9545 132.125 41.6546C132.097 43.0303 131.949 44.401 131.685 45.7514C131.37 47.1576 130.899 48.5242 130.28 49.8257C129.09 52.4101 127.536 54.8165 126.441 57.4463C125.373 59.7992 124.954 62.3951 125.228 64.9646C125.396 66.2045 125.85 67.3885 126.553 68.4234C127.248 69.3973 128.137 70.2164 129.164 70.829C131.367 72.0264 133.757 72.8448 136.232 73.2499C138.816 73.8323 141.443 74.1989 144.088 74.3459C146.669 74.5035 149.26 74.2593 151.766 73.6221C154.217 72.979 156.481 71.7692 158.378 70.0903C160.299 68.3051 161.824 66.1368 162.855 63.7254C163.367 62.5637 163.794 61.3657 164.13 60.1411C164.137 60.1101 164.132 60.0774 164.116 60.05C164.099 60.0225 164.073 60.0025 164.043 59.994C164.012 59.9855 163.979 59.9893 163.951 60.0045C163.923 60.0198 163.902 60.0453 163.892 60.0757C163.228 62.5883 162.139 64.9687 160.671 67.1137C159.203 69.236 157.235 70.9652 154.942 72.1493C152.672 73.2569 150.204 73.9052 147.683 74.0572C145.086 74.2228 142.479 74.0961 139.91 73.6796C138.623 73.4862 137.344 73.2424 136.073 72.9641C134.859 72.6985 133.648 72.411 132.465 72.0273C130.07 71.4159 127.97 69.9727 126.541 67.9555C125.32 65.6986 125.018 63.0579 125.697 60.5836C126.406 57.9622 127.476 55.4519 128.875 53.1242C130.299 50.7476 131.351 48.1661 131.991 45.4701C132.355 42.8421 132.506 40.189 132.443 37.5367C132.358 34.9062 132.892 32.2925 134.002 29.9062C135.093 27.9455 136.804 26.4029 138.867 25.521C140.952 24.6171 143.232 24.2581 145.494 24.4776C147.634 24.7221 149.709 25.3619 151.615 26.3646C153.392 27.2585 155.034 28.3988 156.492 29.7517C157.928 31.0906 159.192 32.6035 160.254 34.2554C161.329 35.9274 162.222 37.7094 162.919 39.5711C163.623 41.4503 164.152 43.3907 164.499 45.3675C164.851 47.3573 165.027 49.374 165.028 51.3946C165.032 53.3822 164.86 55.3663 164.514 57.3235C164.348 58.2497 164.141 59.1672 163.892 60.0757C163.885 60.1069 163.889 60.1398 163.906 60.1676C163.922 60.1953 163.948 60.2156 163.979 60.2241C164.01 60.2326 164.043 60.2287 164.071 60.2132C164.099 60.1977 164.12 60.1718 164.13 60.1411Z" fill="black"/>
<path d="M164.13 60.1411C164.652 58.2212 164.995 56.2573 165.156 54.2742C165.325 52.2302 165.312 50.1753 165.119 48.1335C164.93 46.098 164.559 44.0836 164.01 42.1146C163.466 40.1554 162.726 38.2559 161.801 36.4447C160.892 34.661 159.777 32.9898 158.479 31.4653C157.182 29.9446 155.684 28.6067 154.028 27.488C152.301 26.3317 150.415 25.4343 148.429 24.8243C146.275 24.152 143.991 24.003 141.768 24.3894C139.559 24.7502 137.496 25.7236 135.813 27.1989C134.036 28.8957 132.882 31.1406 132.534 33.5728C132.215 36.2543 132.078 38.9545 132.125 41.6546C132.097 43.0303 131.949 44.401 131.685 45.7514C131.37 47.1576 130.899 48.5242 130.28 49.8257C129.09 52.4101 127.536 54.8165 126.441 57.4463C125.373 59.7992 124.954 62.3951 125.228 64.9646C125.396 66.2045 125.85 67.3885 126.553 68.4234C127.248 69.3973 128.137 70.2164 129.164 70.829C131.367 72.0264 133.757 72.8448 136.232 73.2499C138.816 73.8323 141.443 74.1989 144.088 74.3459C146.669 74.5035 149.26 74.2593 151.766 73.6221C154.217 72.979 156.481 71.7692 158.378 70.0903C160.299 68.3051 161.824 66.1368 162.855 63.7254C163.367 62.5637 163.794 61.3657 164.13 60.1411ZM164.13 60.1411C164.137 60.1101 164.132 60.0774 164.116 60.05C164.099 60.0225 164.073 60.0025 164.043 59.994C164.012 59.9855 163.979 59.9893 163.951 60.0045C163.923 60.0198 163.902 60.0453 163.892 60.0757M164.13 60.1411C164.12 60.1718 164.099 60.1977 164.071 60.2132C164.043 60.2287 164.01 60.2326 163.979 60.2241C163.948 60.2156 163.922 60.1953 163.906 60.1676C163.889 60.1398 163.885 60.1069 163.892 60.0757M163.892 60.0757C163.228 62.5883 162.139 64.9687 160.671 67.1137C159.203 69.236 157.235 70.9652 154.942 72.1493C152.672 73.2569 150.204 73.9052 147.683 74.0572C145.086 74.2228 142.479 74.0961 139.91 73.6796C138.623 73.4862 137.344 73.2424 136.073 72.9641C134.859 72.6985 133.648 72.411 132.465 72.0273C130.07 71.4159 127.97 69.9727 126.541 67.9555C125.32 65.6986 125.018 63.0579 125.697 60.5836C126.406 57.9622 127.476 55.4519 128.875 53.1242C130.299 50.7476 131.351 48.1661 131.991 45.4701C132.355 42.8421 132.506 40.189 132.443 37.5367C132.358 34.9062 132.892 32.2925 134.002 29.9062C135.093 27.9455 136.804 26.4029 138.867 25.521C140.952 24.6171 143.232 24.2581 145.494 24.4776C147.634 24.7221 149.709 25.3619 151.615 26.3646C153.392 27.2585 155.034 28.3988 156.492 29.7517C157.928 31.0906 159.192 32.6035 160.254 34.2554C161.329 35.9274 162.222 37.7094 162.919 39.5711C163.623 41.4503 164.152 43.3907 164.499 45.3675C164.851 47.3573 165.027 49.374 165.028 51.3946C165.032 53.3822 164.86 55.3663 164.514 57.3235C164.348 58.2497 164.141 59.1672 163.892 60.0757Z" stroke="black" stroke-width="0.5" stroke-miterlimit="10"/>
<path d="M170.797 48.896C168.589 46.9179 167.914 43.8891 167.326 41.109C166.776 38.2241 165.997 35.3875 164.997 32.6259C164.049 29.9197 162.538 27.4454 160.563 25.3659C158.51 23.4715 156.16 21.9267 153.607 20.7929C152.331 20.1788 151.026 19.6248 149.702 19.1223C148.472 18.6347 147.213 18.221 145.932 17.8837C143.301 17.1909 140.541 17.1408 137.886 17.7376C135.321 18.3202 133.06 19.8276 131.536 21.9717C130.158 24.1881 129.328 26.7017 129.117 29.3033C128.756 32.0803 128.683 34.8909 128.206 37.6534C127.989 38.9972 127.632 40.3145 127.14 41.5837C126.627 42.8263 125.998 44.0182 125.263 45.1439C123.816 47.4153 122.097 49.4966 120.579 51.719C119.045 53.7775 117.962 56.1363 117.401 58.6414C116.357 64.4377 120.129 69.6273 124.539 72.9498C129.43 76.5632 135.254 78.6984 141.321 79.1023C147.193 79.5253 153.064 78.2754 158.254 75.4977C163.197 72.8363 167.364 68.9364 170.346 64.1801C171.074 63.0125 171.722 61.7973 172.287 60.5426C172.351 60.3995 172.139 60.2744 172.074 60.4185C169.752 65.5173 166.123 69.9112 161.555 73.1547C156.898 76.4911 151.406 78.4688 145.691 78.8676C139.66 79.2635 133.639 77.9506 128.32 75.0795C125.713 73.7057 123.363 71.8942 121.37 69.7241C119.36 67.6064 118.03 64.9351 117.553 62.0546C116.844 56.62 120.508 52.1886 123.513 48.0938C125.125 46.0543 126.455 43.8077 127.469 41.4141C128.321 38.8683 128.818 36.217 128.946 33.5353C129.065 30.8488 129.458 28.1816 130.119 25.5748C130.81 23.0154 132.416 20.7983 134.632 19.3431C136.988 17.9812 139.703 17.3721 142.415 17.5973C145.075 17.8323 147.681 18.4916 150.133 19.5503C152.809 20.5561 155.367 21.855 157.758 23.4233C158.856 24.1446 159.868 24.9882 160.776 25.9379C161.747 27.0012 162.584 28.1797 163.267 29.4469C164.63 32.0516 165.651 34.8216 166.304 37.6879C166.98 40.3891 167.312 43.237 168.398 45.8174C168.889 47.0532 169.649 48.1642 170.623 49.0698C170.741 49.1751 170.915 49.0018 170.797 48.896Z" fill="black" stroke="black" stroke-width="0.5" stroke-miterlimit="10"/>
<path d="M170.789 37.5595C169.609 32.2346 167.11 27.2915 163.521 23.1846C159.957 19.0501 155.468 15.8145 150.418 13.7404C147.913 12.7164 145.285 12.0209 142.6 11.6712C139.697 11.2275 136.733 11.399 133.901 12.1747C131.163 12.9581 128.817 14.7352 127.321 17.1579C125.976 19.6438 125.114 22.3627 124.783 25.17C124.368 28.2915 123.772 31.3863 122.998 34.4389C122.043 37.7586 120.686 40.949 118.956 43.9391C117.32 46.7653 115.279 49.334 113.673 52.1778C112.125 54.7482 111.285 57.682 111.236 60.6819C111.278 66.3624 114.365 71.7488 118.584 75.4072C123.383 79.5688 129.723 81.5239 135.905 82.4266C139.209 82.8913 142.54 83.1465 145.877 83.1906C149.398 83.3017 152.92 83.0389 156.386 82.4065C162.258 81.253 167.996 78.447 171.664 73.5839C172.506 72.4697 173.211 71.2586 173.765 69.9766C173.827 69.8329 173.615 69.7075 173.553 69.8525C171.25 75.1939 166.313 78.9682 160.942 80.9062C154.479 83.2382 147.374 83.2109 140.608 82.6945C134.251 82.2092 127.751 80.9783 122.2 77.6909C119.695 76.259 117.499 74.3448 115.738 72.059C113.978 69.7732 112.688 67.1612 111.943 64.3738C111.257 61.6174 111.348 58.7246 112.206 56.0168C113.349 53.0531 114.903 50.2649 116.822 47.7338C118.691 45.051 120.287 42.1881 121.586 39.1877C122.848 36.1647 123.761 33.0076 124.307 29.7777C125.222 24.4109 125.477 17.8462 130.228 14.2661C132.666 12.583 135.562 11.6889 138.524 11.7044C141.303 11.6421 144.076 11.9956 146.75 12.7532C151.962 14.2155 156.745 16.9101 160.696 20.6095C164.665 24.2639 167.688 28.8255 169.508 33.9036C169.934 35.1208 170.283 36.3636 170.552 37.6248C170.585 37.7794 170.822 37.714 170.789 37.5595Z" fill="black" stroke="black" stroke-width="0.5" stroke-miterlimit="10"/>
<path d="M172.171 100.818C169.22 102.974 166.705 105.67 164.759 108.763C163.788 110.307 162.967 111.939 162.307 113.639C161.575 115.525 161.158 117.524 160.348 119.38C160.007 120.311 159.475 121.16 158.787 121.873C158.1 122.587 157.271 123.15 156.353 123.525C155.929 123.672 155.484 123.751 155.034 123.759C154.774 123.787 154.512 123.747 154.271 123.644C153.998 123.434 153.756 123.187 153.551 122.91C152.77 122.061 151.99 121.212 151.209 120.363C148.086 116.966 144.963 113.57 141.841 110.174C139.174 107.275 136.525 104.239 133.171 102.109C129.644 99.8699 125.542 99.1604 121.56 98.1451C117.777 97.1805 114.526 94.9389 110.911 93.5471C107.485 92.2123 103.723 92.0022 100.169 92.9474C98.4288 93.4111 96.7813 94.1719 95.2994 95.196C93.8167 96.2308 92.6067 97.8082 90.8973 98.4848C88.949 99.2559 87.4002 97.9518 86.4729 96.333C85.5283 94.5981 84.8245 92.7426 84.3809 90.8178C83.3322 86.9184 83.4431 82.7979 84.7002 78.9606C85.8889 75.5852 88.2173 72.7299 91.2844 70.8864C92.76 69.9616 94.4119 69.3541 96.1351 69.1025C97.8582 68.8508 99.6149 68.9606 101.293 69.4248C105.065 70.5478 108.077 73.2645 111.148 75.5943C117.421 80.4358 124.518 84.1015 132.097 86.4139C139.296 88.6101 146.909 89.088 154.326 87.8094C161.369 86.5875 167.962 83.522 173.435 78.9249C174.761 77.7829 175.999 76.5422 177.139 75.2134C177.241 75.0939 177.068 74.9193 176.965 75.0396C172.064 80.5981 165.65 84.6075 158.506 86.577C151.096 88.6469 143.285 88.8307 135.785 87.1116C127.914 85.2768 120.474 81.9341 113.874 77.2686C110.657 75.042 107.747 72.2857 104.29 70.4229C102.696 69.5272 100.94 68.9569 99.1243 68.745C97.5031 68.5967 95.8686 68.7716 94.3155 69.2597C91.1287 70.2804 88.3618 72.3129 86.4348 75.0486C84.3172 78.1936 83.2648 81.9352 83.4323 85.7229C83.4859 87.6749 83.7787 89.6129 84.3042 91.4936C84.7648 93.3589 85.4939 95.1473 86.4687 96.8029C86.8055 97.4848 87.337 98.0515 87.9959 98.4313C88.6548 98.811 89.4116 98.9868 90.1704 98.9364C91.8816 98.6804 93.155 97.2444 94.4108 96.1858C97.3995 93.7551 101.165 92.484 105.015 92.6056C106.962 92.6532 108.886 93.0336 110.705 93.7303C112.57 94.4341 114.328 95.381 116.113 96.26C117.829 97.1523 119.632 97.8634 121.495 98.382C123.545 98.9046 125.62 99.3248 127.646 99.9361C129.722 100.532 131.696 101.436 133.503 102.619C135.164 103.775 136.707 105.092 138.108 106.551C141.247 109.722 144.194 113.097 147.214 116.38L151.96 121.542C152.35 121.966 152.74 122.391 153.131 122.815L153.624 123.351C153.777 123.567 153.962 123.758 154.171 123.919C154.54 124.031 154.929 124.056 155.309 123.992C155.734 123.958 156.151 123.865 156.55 123.716C160.366 122.295 161.051 117.901 162.238 114.531C164.156 109.121 167.661 104.416 172.295 101.03C172.421 100.937 172.299 100.724 172.171 100.818Z" fill="black" stroke="black" stroke-width="0.5" stroke-miterlimit="10"/>
<path d="M166.611 87.2549C161.044 91.4815 154.422 94.0957 147.469 94.8116C144.054 95.1412 140.608 94.8927 137.275 94.0765C133.659 93.0901 130.209 91.5753 127.036 89.581C123.668 87.5601 120.459 85.2767 117.216 83.0632C113.756 80.701 110.296 78.3389 106.836 75.9768C104.005 74.044 100.952 71.7998 97.3619 71.8364C96.0359 71.8913 94.7338 72.208 93.5306 72.7682C92.3275 73.3285 91.2471 74.1213 90.3517 75.1009C86.5061 79.0869 85.1574 85.7538 88.8395 90.3171C89.2454 90.9132 89.7903 91.4016 90.4272 91.7401C91.064 92.0787 91.7736 92.2572 92.4948 92.2602C93.8201 92.1087 94.8761 91.0601 95.8672 90.264C97.2278 89.1419 98.8122 88.3231 100.514 87.8622C102.218 87.4318 103.981 87.2889 105.731 87.4394C109.688 87.7434 113.411 89.3221 117.004 90.8977C120.602 92.4755 124.201 94.0585 127.726 95.7944C134.645 99.201 141.364 103.288 146.739 108.893C148.84 111.084 150.138 114.582 153.243 115.585C153.925 115.829 154.655 115.905 155.373 115.805C156.09 115.705 156.773 115.432 157.362 115.011C158.255 114.161 158.798 113.008 158.885 111.778C158.995 111.119 159.073 110.454 159.22 109.802C159.43 108.97 159.732 108.164 160.122 107.4C162.524 102.563 166.343 98.5735 171.071 95.9626C172.554 95.167 174.12 94.5359 175.741 94.0808C175.771 94.0712 175.796 94.0503 175.812 94.0223C175.827 93.9943 175.831 93.9615 175.822 93.9307C175.814 93.9 175.794 93.8738 175.766 93.8576C175.739 93.8413 175.706 93.8364 175.675 93.8438C172.441 94.8127 169.429 96.4095 166.812 98.5429C164.195 100.676 162.023 103.304 160.422 106.277C159.643 107.617 159.102 109.081 158.82 110.606C158.77 111.929 158.379 113.216 157.688 114.345C157.121 114.942 156.386 115.354 155.581 115.525C154.776 115.696 153.938 115.619 153.177 115.304C151.638 114.607 150.343 113.463 149.462 112.021C148.559 110.682 147.548 109.42 146.438 108.247C145.096 106.935 143.701 105.675 142.247 104.487C139.316 102.128 136.183 100.03 132.885 98.2177C129.529 96.3385 126.056 94.6774 122.553 93.0924C119.083 91.5223 115.604 89.8642 112.004 88.609C108.712 87.3245 105.148 86.8971 101.645 87.3668C100.025 87.6287 98.4731 88.2091 97.0787 89.0744C95.8102 89.8804 94.7716 91.0823 93.4091 91.7333C91.8437 92.4813 90.2742 91.5812 89.2197 90.3874C88.184 89.1535 87.469 87.6831 87.1381 86.1065C86.6536 83.3144 87.1451 80.4407 88.5298 77.9683C89.9145 75.4959 92.1081 73.5755 94.7419 72.5299C96.19 72.0446 97.7415 71.9556 99.2356 72.272C101.005 72.713 102.681 73.4665 104.186 74.4968C107.579 76.6482 110.85 79.014 114.168 81.2793C117.445 83.5164 120.699 85.7939 124.017 87.9694C127.038 90.0354 130.266 91.7795 133.65 93.1732C136.808 94.4002 140.152 95.0791 143.538 95.1806C150.239 95.2905 156.842 93.5572 162.625 90.1699C164.049 89.3538 165.421 88.4512 166.735 87.4672C166.86 87.3735 166.738 87.16 166.611 87.2549Z" fill="black" stroke="black" stroke-width="0.5" stroke-miterlimit="10"/>
<path d="M93.4041 88.6026C93.6265 88.6956 93.8659 88.7407 94.1069 88.7349C94.3479 88.7291 94.585 88.6727 94.8027 88.5692C95.2514 88.3179 95.6329 87.9621 95.9149 87.5319C96.6742 86.4971 97.1723 85.2969 97.9052 84.2442C98.2106 83.7638 98.6132 83.3525 99.087 83.0369C100.015 82.5883 101 82.2683 102.015 82.0858C103.546 81.6674 105.383 80.681 105.279 78.8338C105.217 78.3296 105.014 77.8532 104.692 77.46C104.371 77.0668 103.944 76.773 103.462 76.6127C102.304 76.1605 101.073 75.9235 99.8295 75.9136C98.6665 75.8251 97.4968 75.9111 96.3592 76.1686C94.7999 76.6183 93.4427 77.5908 92.5156 78.9229C91.5479 80.2757 90.9849 81.876 90.8925 83.5367C90.8061 84.3503 90.8999 85.1728 91.1673 85.946C91.4347 86.7192 91.869 87.424 92.4395 88.0104C92.7257 88.2603 93.0517 88.4604 93.4041 88.6026C93.5504 88.6625 93.6141 88.4249 93.4694 88.3657C91.933 87.7372 91.2565 85.9962 91.1445 84.4473C91.051 82.8478 91.4211 81.2552 92.2104 79.8609C92.961 78.4623 94.1502 77.3491 95.5951 76.6921C96.7086 76.2736 97.8958 76.0871 99.0839 76.1438C100.273 76.1194 101.459 76.262 102.608 76.5676C103.106 76.6538 103.577 76.8573 103.982 77.1613C104.386 77.4653 104.713 77.861 104.935 78.316C105.029 78.6149 105.059 78.9307 105.021 79.242C104.983 79.5533 104.878 79.8528 104.714 80.1201C104.214 80.8436 103.485 81.3774 102.644 81.6351C101.136 82.1674 99.3303 82.2171 98.1956 83.4779C97.453 84.4296 96.8073 85.4531 96.2682 86.5331C95.8152 87.3018 95.163 88.4524 94.1452 88.4939C93.9135 88.4984 93.6834 88.4548 93.4694 88.3657C93.3219 88.3084 93.258 88.5459 93.4041 88.6026Z" fill="black"/>
<path d="M93.4041 88.6026C93.6265 88.6956 93.8659 88.7407 94.1069 88.7349C94.3479 88.7291 94.585 88.6727 94.8027 88.5692C95.2514 88.3179 95.6329 87.9621 95.9149 87.5319C96.6742 86.4971 97.1723 85.2969 97.9052 84.2442C98.2106 83.7638 98.6132 83.3525 99.087 83.0369C100.015 82.5883 101 82.2683 102.015 82.0858C103.546 81.6674 105.383 80.681 105.279 78.8338C105.217 78.3296 105.014 77.8532 104.692 77.46C104.371 77.0668 103.944 76.773 103.462 76.6127C102.304 76.1605 101.073 75.9235 99.8295 75.9136C98.6665 75.8251 97.4968 75.9111 96.3592 76.1686C94.7999 76.6183 93.4427 77.5908 92.5156 78.9229C91.5479 80.2757 90.9849 81.876 90.8925 83.5367C90.8061 84.3503 90.8999 85.1728 91.1673 85.946C91.4347 86.7192 91.869 87.424 92.4395 88.0104C92.7257 88.2603 93.0517 88.4604 93.4041 88.6026ZM93.4041 88.6026C93.5504 88.6625 93.6141 88.4249 93.4694 88.3657M93.4041 88.6026C93.258 88.5459 93.3219 88.3084 93.4694 88.3657M93.4694 88.3657C91.933 87.7372 91.2565 85.9962 91.1445 84.4473C91.051 82.8478 91.4211 81.2552 92.2104 79.8609C92.961 78.4623 94.1502 77.3491 95.5951 76.6921C96.7086 76.2736 97.8958 76.0871 99.0839 76.1438C100.273 76.1194 101.459 76.262 102.608 76.5676C103.106 76.6538 103.577 76.8573 103.982 77.1613C104.386 77.4653 104.713 77.861 104.935 78.316C105.029 78.6149 105.059 78.9307 105.021 79.242C104.983 79.5533 104.878 79.8528 104.714 80.1201C104.214 80.8436 103.485 81.3774 102.644 81.6351C101.136 82.1674 99.3303 82.2171 98.1956 83.4779C97.453 84.4296 96.8073 85.4531 96.2682 86.5331C95.8152 87.3018 95.163 88.4524 94.1452 88.4939C93.9135 88.4984 93.6834 88.4548 93.4694 88.3657Z" stroke="black" stroke-width="0.5" stroke-miterlimit="10"/>
<path d="M145.137 100.587C144.147 102.251 145.853 104.02 147.084 104.964C147.769 105.508 148.547 105.926 149.379 106.196C150.583 106.543 151.848 106.626 153.087 106.439C154.311 106.283 155.496 105.902 156.583 105.316C156.846 105.154 157.091 104.966 157.316 104.754C158.241 103.949 159.102 103.066 159.946 102.179C161.057 101.011 162.133 99.8075 163.156 98.5608C164.086 97.469 164.929 96.3046 165.674 95.0789C165.938 94.6515 166.15 94.1943 166.307 93.7169C166.428 93.4098 166.431 93.0687 166.315 92.7595C166.12 92.4475 165.815 92.219 165.461 92.1182C164.953 91.9604 164.409 91.958 163.899 92.1112C162.818 92.5039 161.83 93.1147 160.996 93.9056C160.048 94.6873 159.087 95.451 158.101 96.1831C157.039 97.0004 155.898 97.709 154.695 98.2981C154.062 98.6023 153.398 98.8382 152.715 99.0019C151.987 99.1544 151.248 99.2436 150.504 99.2683C149.082 99.2389 147.663 99.4071 146.287 99.7682C145.822 99.9018 145.416 100.191 145.137 100.587C145.052 100.721 145.265 100.845 145.35 100.711C145.695 100.269 146.196 99.9754 146.751 99.8889C147.435 99.7244 148.133 99.625 148.836 99.592C150.211 99.5867 151.583 99.4562 152.934 99.2022C155.413 98.5845 157.524 96.9584 159.503 95.4184C160.392 94.7265 161.237 93.9709 162.15 93.3115C162.559 92.9393 163.041 92.657 163.565 92.4826C164.09 92.3082 164.645 92.2456 165.195 92.2989C165.381 92.3282 165.558 92.3966 165.716 92.4994C165.873 92.6022 166.007 92.7372 166.109 92.8955C166.151 93.0116 166.165 93.1358 166.15 93.2584C166.096 93.6516 165.968 94.0311 165.774 94.3776C165.172 95.5123 164.456 96.5825 163.636 97.5714C162.68 98.7918 161.663 99.9642 160.614 101.105C159.709 102.089 158.782 103.055 157.81 103.972C157.493 104.271 157.173 104.567 156.833 104.84C156.362 105.185 155.838 105.453 155.282 105.633C153.82 106.333 152.175 106.555 150.58 106.269C148.984 105.983 147.519 105.202 146.391 104.038C145.724 103.465 145.269 102.684 145.099 101.821C145.059 101.434 145.147 101.044 145.35 100.711C145.365 100.683 145.368 100.651 145.359 100.62C145.351 100.589 145.331 100.563 145.303 100.547C145.276 100.531 145.243 100.526 145.212 100.534C145.181 100.541 145.154 100.561 145.137 100.587Z" fill="black"/>
<path d="M145.137 100.587C144.147 102.251 145.853 104.02 147.084 104.964C147.769 105.508 148.547 105.926 149.379 106.196C150.583 106.543 151.848 106.626 153.087 106.439C154.311 106.283 155.496 105.902 156.583 105.316C156.846 105.154 157.091 104.966 157.316 104.754C158.241 103.949 159.102 103.066 159.946 102.179C161.057 101.011 162.133 99.8075 163.156 98.5608C164.086 97.469 164.929 96.3046 165.674 95.0789C165.938 94.6515 166.15 94.1943 166.307 93.7169C166.428 93.4098 166.431 93.0687 166.315 92.7595C166.12 92.4475 165.815 92.219 165.461 92.1182C164.953 91.9604 164.409 91.958 163.899 92.1112C162.818 92.5039 161.83 93.1147 160.996 93.9056C160.048 94.6873 159.087 95.451 158.101 96.1831C157.039 97.0004 155.898 97.709 154.695 98.2981C154.062 98.6023 153.398 98.8382 152.715 99.0019C151.987 99.1544 151.248 99.2436 150.504 99.2683C149.082 99.2389 147.663 99.4071 146.287 99.7682C145.822 99.9018 145.416 100.191 145.137 100.587ZM145.137 100.587C145.052 100.721 145.265 100.845 145.35 100.711M145.137 100.587C145.154 100.561 145.181 100.541 145.212 100.534C145.243 100.526 145.276 100.531 145.303 100.547C145.331 100.563 145.351 100.589 145.359 100.62C145.368 100.651 145.365 100.683 145.35 100.711M145.35 100.711C145.695 100.269 146.196 99.9754 146.751 99.8889C147.435 99.7244 148.133 99.625 148.836 99.592C150.211 99.5867 151.583 99.4562 152.934 99.2022C155.413 98.5845 157.524 96.9584 159.503 95.4184C160.392 94.7265 161.237 93.9709 162.15 93.3115C162.559 92.9393 163.041 92.657 163.565 92.4826C164.09 92.3082 164.645 92.2456 165.195 92.2989C165.381 92.3282 165.558 92.3966 165.716 92.4994C165.873 92.6022 166.007 92.7372 166.109 92.8955C166.151 93.0116 166.165 93.1358 166.15 93.2584C166.096 93.6516 165.968 94.0311 165.774 94.3776C165.172 95.5123 164.456 96.5825 163.636 97.5714C162.68 98.7918 161.663 99.9642 160.614 101.105C159.709 102.089 158.782 103.055 157.81 103.972C157.493 104.271 157.173 104.567 156.833 104.84C156.362 105.185 155.838 105.453 155.282 105.633C153.82 106.333 152.175 106.555 150.58 106.269C148.984 105.983 147.519 105.202 146.391 104.038C145.724 103.465 145.269 102.684 145.099 101.821C145.059 101.434 145.147 101.044 145.35 100.711Z" stroke="black" stroke-width="0.5" stroke-miterlimit="10"/>
<path d="M171.172 18.9806C163.647 20.6523 157.944 14.0136 152.403 10.1573C149.717 8.16592 146.531 6.95971 143.199 6.67312C139.863 6.5201 136.541 7.19481 133.528 8.63712C130.718 9.95916 128.079 11.6198 125.672 13.5821C123.315 15.3261 121.465 17.6673 120.315 20.3641C117.999 26.3319 119.726 32.9025 118.059 38.9782C116.529 44.5503 111.993 48.5684 109.634 53.7382C109.061 54.9805 108.632 56.2842 108.355 57.624C108.162 59.2864 107.748 60.9156 107.124 62.4683C105.759 65.1783 102.606 65.7515 99.8611 66.0222C97.3639 66.2683 94.7922 66.2115 92.366 66.9254C89.6154 67.728 87.0686 69.1104 84.8969 70.9794C82.512 73.0583 80.7234 75.7346 79.7147 78.7333C78.7061 81.732 78.5137 84.9451 79.1574 88.0428C79.8742 91.3609 81.952 94.1713 82.8337 97.4331C83.237 99.2255 83.267 101.082 82.9217 102.886C82.5764 104.691 81.8632 106.405 80.8266 107.922C78.7806 110.912 76.4007 113.659 73.7329 116.11C71.1605 118.667 68.7231 121.345 66.1699 123.918C63.4963 126.613 60.6815 129.162 57.8328 131.669C56.5056 132.761 55.2341 133.919 54.0233 135.139C53.0754 136.16 52.2313 137.27 51.3337 138.334C50.4643 139.422 49.4556 140.391 48.3335 141.216C47.1088 142.068 45.3044 143.025 43.7617 142.786C40.8749 142.337 43.7328 138.774 44.5162 137.569C45.5192 136.027 46.5227 134.486 47.5047 132.931C51.3407 126.855 54.7563 120.532 56.6444 113.56C58.6886 106.575 58.9355 99.1864 57.3621 92.0802C54.6304 80.9513 45.1962 70.6743 33.0863 70.8604C30.3729 70.8667 27.6879 71.4134 25.1881 72.4687C22.6883 73.5241 20.4238 75.0668 18.5267 77.007C14.0079 81.8579 13.5495 88.6343 11.6562 94.6802C8.18382 105.768 -2.71089 113.486 -14.2263 113.904C-16.995 114.007 -19.7619 113.659 -22.4188 112.873C-22.4498 112.866 -22.4825 112.871 -22.5099 112.887C-22.5373 112.903 -22.5574 112.929 -22.5659 112.96C-22.5744 112.991 -22.5706 113.024 -22.5553 113.052C-22.5401 113.08 -22.5146 113.101 -22.4842 113.11C-12.0892 116.191 -0.346397 112.221 6.68589 104.12C8.43444 102.117 9.86177 99.8552 10.917 97.4148C12.0658 94.378 12.9675 91.2534 13.6134 88.0715C14.2803 84.679 15.6131 81.4523 17.5347 78.578C19.317 76.2313 21.6476 74.3576 24.3223 73.1209C27.0697 71.8349 30.0604 71.1517 33.0936 71.1174C36.1268 71.0831 39.1323 71.6984 41.908 72.9219C47.5292 75.5727 52.0674 80.0765 54.7611 85.6772C61.6419 99.4202 57.2625 115.812 49.9705 128.402C48.1582 131.531 46.1808 134.56 44.2098 137.59C43.4874 138.7 42.1329 140.147 42.2202 141.571C42.2653 142.001 42.4754 142.396 42.8062 142.674C43.1369 142.952 43.5626 143.091 43.9936 143.061C46.543 143.165 49.0342 141.227 50.6669 139.465C51.6019 138.455 52.4328 137.356 53.321 136.307C54.3027 135.177 55.369 134.123 56.5106 133.154C59.3693 130.658 62.211 128.139 64.9313 125.491C67.5987 122.894 70.0604 120.103 72.7008 117.48C77.2193 112.991 82.8985 107.991 83.4295 101.2C83.6913 97.8507 82.2148 94.9667 80.8538 92.0164C79.2027 88.6271 78.6719 84.8005 79.3381 81.0897C80.0218 77.812 81.591 74.7845 83.875 72.3362C86.159 69.8879 89.0704 68.1126 92.2928 67.2032C94.867 66.4259 97.596 66.5194 100.247 66.2278C102.456 65.9848 104.977 65.5448 106.53 63.7956C108.479 61.6 108.252 58.2781 109.146 55.6279C110.216 52.8522 111.676 50.2432 113.482 47.8798C115.119 45.725 116.515 43.3969 117.644 40.9375C118.629 38.1879 119.113 35.2837 119.072 32.3631C119.014 29.0661 119.292 25.7717 119.9 22.5306C120.692 19.359 122.484 16.5267 125.011 14.4529C130.257 9.90932 137.344 6.01196 144.497 7.05165C151.781 8.11036 156.18 14.4843 162.4 17.6935C165.074 19.2278 168.204 19.7676 171.237 19.2176C171.392 19.1833 171.326 18.9463 171.172 18.9806Z" fill="black" stroke="black" stroke-width="0.5" stroke-miterlimit="10"/>
<path d="M143.399 56.09C143.563 56.5977 143.845 57.0589 144.223 57.4353C144.601 57.8117 145.064 58.0923 145.572 58.2538C145.969 58.3696 146.389 58.3894 146.795 58.3114C147.201 58.2334 147.583 58.06 147.909 57.8054C148.491 57.2954 148.962 56.6723 149.295 55.9741C149.628 55.2759 149.815 54.5172 149.845 53.7443C149.968 53.0173 149.89 52.2702 149.618 51.5848C149.346 50.8993 148.89 50.3018 148.302 49.8576C147.969 49.6538 147.598 49.5203 147.212 49.4654C146.826 49.4105 146.432 49.4354 146.056 49.5385C145.354 49.7838 144.753 50.2554 144.349 50.8792C143.414 52.2521 143.031 53.927 143.277 55.5697C143.306 55.7456 143.347 55.9194 143.399 56.09C143.445 56.2407 143.682 56.1765 143.636 56.0246C143.266 54.553 143.457 52.9964 144.17 51.6572C144.475 50.9995 144.955 50.438 145.557 50.0336C145.857 49.8504 146.194 49.7352 146.544 49.6961C146.894 49.6569 147.248 49.6947 147.581 49.8069C148.221 50.0639 148.763 50.5171 149.129 51.1013C149.494 51.6855 149.666 52.3707 149.618 53.0584C149.683 54.5369 149.203 55.9879 148.269 57.1356C147.851 57.646 147.263 57.9886 146.613 58.1006C146.091 58.1395 145.568 58.0331 145.102 57.7931C144.637 57.5532 144.247 57.189 143.975 56.741C143.832 56.518 143.717 56.2771 143.636 56.0246C143.587 55.8747 143.35 55.9388 143.399 56.09Z" fill="black"/>
<path d="M143.399 56.09C143.563 56.5977 143.845 57.0589 144.223 57.4353C144.601 57.8117 145.064 58.0923 145.572 58.2538C145.969 58.3696 146.389 58.3894 146.795 58.3114C147.201 58.2334 147.583 58.06 147.909 57.8054C148.491 57.2954 148.962 56.6723 149.295 55.9741C149.628 55.2759 149.815 54.5172 149.845 53.7443C149.968 53.0173 149.89 52.2702 149.618 51.5848C149.346 50.8993 148.89 50.3018 148.302 49.8576C147.969 49.6538 147.598 49.5203 147.212 49.4654C146.826 49.4105 146.432 49.4354 146.056 49.5385C145.354 49.7838 144.753 50.2554 144.349 50.8792C143.414 52.2521 143.031 53.927 143.277 55.5697C143.306 55.7456 143.347 55.9194 143.399 56.09ZM143.399 56.09C143.445 56.2407 143.682 56.1765 143.636 56.0246M143.399 56.09C143.35 55.9388 143.587 55.8747 143.636 56.0246M143.636 56.0246C143.266 54.553 143.457 52.9964 144.17 51.6572C144.475 50.9995 144.955 50.438 145.557 50.0336C145.857 49.8504 146.194 49.7352 146.544 49.6961C146.894 49.6569 147.248 49.6947 147.581 49.8069C148.221 50.0639 148.763 50.5171 149.129 51.1013C149.494 51.6855 149.666 52.3707 149.618 53.0584C149.683 54.5369 149.203 55.9879 148.269 57.1356C147.851 57.646 147.263 57.9886 146.613 58.1006C146.091 58.1395 145.568 58.0331 145.102 57.7931C144.637 57.5532 144.247 57.189 143.975 56.741C143.832 56.518 143.717 56.2771 143.636 56.0246Z" stroke="black" stroke-width="0.5" stroke-miterlimit="10"/>
<path d="M156.052 -5.42969C154.584 -2.89758 153.127 -0.235094 152.866 2.73457C152.72 4.14589 152.917 5.57164 153.442 6.89002C153.978 8.09877 154.77 9.17645 155.764 10.0482C156.782 10.9585 157.898 11.7521 159.092 12.4142C160.326 13.1267 161.646 13.6784 163.02 14.0559C164.266 14.434 165.574 14.5624 166.869 14.4338C168.164 14.3052 169.421 13.922 170.568 13.3064C171.574 12.7596 172.441 11.9873 173.099 11.0498C173.757 10.1123 174.19 9.03514 174.362 7.90269C174.393 7.61243 174.402 7.32027 174.389 7.02869C174.382 6.8711 174.136 6.87027 174.143 7.02869C174.141 8.15317 173.86 9.25957 173.324 10.248C172.788 11.2365 172.014 12.0759 171.072 12.6905C170.138 13.3544 169.076 13.8171 167.954 14.0493C166.62 14.3008 165.251 14.2882 163.922 14.0122C161.234 13.4238 158.726 12.2012 156.607 10.4466C155.591 9.6656 154.73 8.70207 154.068 7.60547C153.396 6.39392 153.052 5.02737 153.072 3.64179C153.072 0.748436 154.342 -1.91813 155.735 -4.38448C155.91 -4.69268 156.086 -4.99976 156.264 -5.3057C156.279 -5.33376 156.282 -5.36656 156.274 -5.3972C156.265 -5.42783 156.245 -5.45393 156.217 -5.47C156.19 -5.48607 156.157 -5.49085 156.126 -5.48335C156.095 -5.47585 156.069 -5.45656 156.052 -5.42969Z" fill="black" stroke="black" stroke-width="0.5" stroke-miterlimit="10"/>
<path d="M161.018 -1.68306C160.833 0.350873 159.695 2.10939 159.163 4.04853C158.714 5.68393 158.679 7.59936 159.92 8.90826C160.415 9.38224 161.006 9.74486 161.653 9.97182C162.3 10.1988 162.988 10.2848 163.671 10.2242C165.2 10.1153 166.644 9.47744 167.755 8.42006C169.166 7.01062 170.346 5.38839 171.253 3.61267C171.268 3.58462 171.272 3.55182 171.263 3.52118C171.255 3.49054 171.235 3.46445 171.207 3.44838C171.18 3.43231 171.147 3.42752 171.116 3.43502C171.085 3.44252 171.058 3.46172 171.041 3.48859C169.49 6.1749 167.569 9.43928 164.2 9.92702C163.528 10.0482 162.837 10.0263 162.173 9.86277C161.509 9.69919 160.888 9.39759 160.348 8.97764C159.767 8.37681 159.365 7.62616 159.187 6.80968C159.008 5.99321 159.06 5.14315 159.337 4.35464C159.846 2.29513 161.069 0.461233 161.263 -1.68303C161.278 -1.84052 161.032 -1.83958 161.018 -1.68306Z" fill="black" stroke="black" stroke-width="0.5" stroke-miterlimit="10"/>
<path d="M147.455 -4.33141C149.181 -2.95433 149.204 -0.44165 148.187 1.37773C146.967 3.56055 144.327 4.42916 141.979 4.64324C139.334 4.88439 136.7 4.34288 134.06 4.28579C131.895 4.2237 129.742 4.62013 127.742 5.44906C119.286 8.99689 115.417 18.174 113.677 26.5579C111.712 36.0339 111.399 46.3477 105.614 54.5324C104.321 56.3904 102.731 58.0221 100.907 59.3618C98.9137 60.7293 96.7271 61.7904 94.4196 62.5096C90.0383 63.9917 85.3016 64.8838 81.4626 67.6111C78.1019 70.0542 75.7381 73.6302 74.8072 77.6795C74.3402 79.6498 74.2398 81.6892 74.5113 83.6959C74.8683 86.2565 75.8362 88.6738 76.41 91.1849C77.0781 93.4965 76.9303 95.9675 75.9916 98.1831C75.1048 100.054 73.4008 101.674 71.2118 101.601C66.7745 101.454 65.1923 95.7702 63.9334 92.4133C60.7913 84.0346 55.8124 75.967 48.2632 70.8993C41.137 66.1155 31.3562 64.4864 23.4324 68.2619C14.948 72.3044 11.2246 81.5563 7.87299 89.7192C4.26725 98.5011 -0.53133 108.615 -10.8073 110.765C-13.0543 111.249 -15.3881 111.149 -17.5853 110.473C-17.7366 110.426 -17.8014 110.663 -17.6506 110.71C-15.5825 111.277 -13.4189 111.406 -11.298 111.089C-9.17714 110.772 -7.14565 110.017 -5.33333 108.871C-1.37867 106.395 1.83699 102.901 3.97633 98.7552C8.74141 90.2179 10.677 79.9274 17.6828 72.7392C21.0258 69.3024 25.4563 67.1301 30.2205 66.5919C34.9714 66.0881 39.7702 66.8752 44.1113 68.8701C52.9105 72.842 58.9299 81.1656 62.6316 89.8231C64.1561 93.3887 65.023 98.1185 68.1922 100.682C68.8034 101.199 69.5323 101.558 70.3149 101.727C71.0975 101.897 71.9097 101.871 72.68 101.653C73.4814 101.357 74.2126 100.898 74.8272 100.305C75.4418 99.7121 75.9264 98.9976 76.2501 98.2072C78.2726 93.8416 75.9376 89.3442 75 85.025C74.515 82.7277 74.5112 80.3548 74.9888 78.0559C75.4663 75.757 76.415 73.582 77.7748 71.668C80.7203 67.4966 85.2313 65.5925 89.9606 64.1482C94.3623 62.8039 98.8483 61.578 102.397 58.4902C109.602 52.2217 111.304 42.151 112.744 33.2296C114.292 23.636 116.392 12.843 125.15 7.11039C126.938 5.92009 128.951 5.10983 131.065 4.72989C133.84 4.25546 136.621 4.77227 139.399 4.91594C143.19 5.11194 148.263 4.15417 149.038 -0.299911C149.205 -1.06277 149.162 -1.85677 148.914 -2.59733C148.666 -3.33789 148.222 -3.99728 147.629 -4.50524C147.506 -4.60291 147.331 -4.43008 147.455 -4.33141Z" fill="black" stroke="black" stroke-width="0.5" stroke-miterlimit="10"/>
<path d="M54.9047 124.421C54.4757 124.928 54.2481 125.574 54.2656 126.238C54.3089 126.475 54.4021 126.7 54.5389 126.899C54.6758 127.098 54.8533 127.265 55.0596 127.39C55.5019 127.674 56.023 127.81 56.5476 127.778C57.1529 127.714 57.7269 127.477 58.2014 127.095C58.7199 126.685 59.1916 126.218 59.6081 125.704C60.1445 125.079 60.6789 124.452 61.2113 123.823C62.298 122.548 63.3846 121.273 64.4713 119.998C66.3659 117.66 68.3823 115.424 70.5121 113.299C71.5765 112.273 72.7283 111.343 73.9544 110.517C75.1291 109.891 76.2038 109.093 77.1429 108.149C77.4862 107.752 77.7264 107.277 77.8421 106.765C77.9579 106.253 77.9456 105.72 77.8064 105.214C77.6675 104.758 77.3748 104.365 76.9783 104.101C76.5817 103.837 76.1058 103.718 75.6317 103.766C74.6838 103.954 73.7883 104.346 73.0076 104.916C72.6258 105.206 72.183 105.406 71.7125 105.5C71.2421 105.594 70.7563 105.58 70.2922 105.459C68.7494 104.866 68.1725 102.993 66.6474 102.358C66.1962 102.195 65.7127 102.141 65.2367 102.202C64.7607 102.262 64.3058 102.435 63.9095 102.705C62.9584 103.466 62.255 104.492 61.8889 105.654C60.876 108.58 60.1641 111.602 59.7643 114.672C59.4914 116.125 59.0145 117.531 58.3479 118.85C57.6694 120.159 56.9138 121.427 56.0852 122.646C55.6939 123.24 55.2966 123.829 54.9047 124.421C54.8172 124.554 55.03 124.677 55.117 124.546C56.7816 122.282 58.1898 119.84 59.3156 117.265C59.7797 115.893 60.1098 114.48 60.3013 113.044C60.5473 111.606 60.7877 110.165 61.1436 108.749C61.4707 107.342 61.9589 105.977 62.5985 104.681C62.8607 104.14 63.2138 103.649 63.6424 103.227C64.0722 102.834 64.6044 102.57 65.1776 102.466C65.5729 102.393 65.9802 102.414 66.3654 102.53C66.7506 102.646 67.1025 102.852 67.3919 103.131C67.9829 103.656 68.4409 104.308 69.0037 104.861C69.2678 105.156 69.5885 105.396 69.9469 105.566C70.3052 105.736 70.694 105.833 71.0903 105.85C72.0162 105.732 72.8966 105.379 73.6478 104.825C74.3875 104.247 75.3187 103.971 76.2538 104.052C76.7354 104.189 77.148 104.501 77.4095 104.928C77.6711 105.355 77.7624 105.864 77.6654 106.356C77.5512 106.942 77.31 107.496 76.9589 107.979C76.6077 108.463 76.155 108.863 75.6326 109.153C75.0947 109.523 74.5284 109.85 73.9811 110.206C73.4088 110.578 72.8559 110.979 72.3198 111.401C70.1483 113.201 68.1566 115.207 66.3726 117.392C64.3181 119.784 62.2809 122.19 60.2358 124.59C59.7683 125.139 59.3137 125.703 58.8118 126.221C58.3681 126.718 57.8216 127.112 57.2103 127.376C56.721 127.593 56.1659 127.607 55.6661 127.416C55.1662 127.226 54.7619 126.845 54.5413 126.358C54.5018 126.032 54.5327 125.702 54.632 125.389C54.7313 125.076 54.8967 124.789 55.117 124.546C55.2044 124.413 54.9916 124.29 54.9047 124.421Z" fill="black"/>
<path d="M54.9047 124.421C54.4757 124.928 54.2481 125.574 54.2656 126.238C54.3089 126.475 54.4021 126.7 54.5389 126.899C54.6758 127.098 54.8533 127.265 55.0596 127.39C55.5019 127.674 56.023 127.81 56.5476 127.778C57.1529 127.714 57.7269 127.477 58.2014 127.095C58.7199 126.685 59.1916 126.218 59.6081 125.704C60.1445 125.079 60.6789 124.452 61.2113 123.823C62.298 122.548 63.3846 121.273 64.4713 119.998C66.3659 117.66 68.3823 115.424 70.5121 113.299C71.5765 112.273 72.7283 111.343 73.9544 110.517C75.1291 109.891 76.2038 109.093 77.1429 108.149C77.4862 107.752 77.7264 107.277 77.8421 106.765C77.9579 106.253 77.9456 105.72 77.8064 105.214C77.6675 104.758 77.3748 104.365 76.9783 104.101C76.5817 103.837 76.1058 103.718 75.6317 103.766C74.6838 103.954 73.7883 104.346 73.0076 104.916C72.6258 105.206 72.183 105.406 71.7125 105.5C71.2421 105.594 70.7563 105.58 70.2922 105.459C68.7494 104.866 68.1725 102.993 66.6474 102.358C66.1962 102.195 65.7127 102.141 65.2367 102.202C64.7607 102.262 64.3058 102.435 63.9095 102.705C62.9584 103.466 62.255 104.492 61.8889 105.654C60.876 108.58 60.1641 111.602 59.7643 114.672C59.4914 116.125 59.0145 117.531 58.3479 118.85C57.6694 120.159 56.9138 121.427 56.0852 122.646C55.6939 123.24 55.2966 123.829 54.9047 124.421ZM54.9047 124.421C54.8172 124.554 55.03 124.677 55.117 124.546M54.9047 124.421C54.9916 124.29 55.2044 124.413 55.117 124.546M55.117 124.546C56.7816 122.282 58.1898 119.84 59.3156 117.265C59.7797 115.893 60.1098 114.48 60.3013 113.044C60.5473 111.606 60.7877 110.165 61.1436 108.749C61.4707 107.342 61.9589 105.977 62.5985 104.681C62.8607 104.14 63.2138 103.649 63.6424 103.227C64.0722 102.834 64.6044 102.57 65.1776 102.466C65.5729 102.393 65.9802 102.414 66.3654 102.53C66.7506 102.646 67.1025 102.852 67.3919 103.131C67.9829 103.656 68.4409 104.308 69.0037 104.861C69.2678 105.156 69.5885 105.396 69.9469 105.566C70.3052 105.736 70.694 105.833 71.0903 105.85C72.0162 105.732 72.8966 105.379 73.6478 104.825C74.3875 104.247 75.3187 103.971 76.2538 104.052C76.7354 104.189 77.148 104.501 77.4095 104.928C77.6711 105.355 77.7624 105.864 77.6654 106.356C77.5512 106.942 77.31 107.496 76.9589 107.979C76.6077 108.463 76.155 108.863 75.6326 109.153C75.0947 109.523 74.5284 109.85 73.9811 110.206C73.4088 110.578 72.8559 110.979 72.3198 111.401C70.1483 113.201 68.1566 115.207 66.3726 117.392C64.3181 119.784 62.2809 122.19 60.2358 124.59C59.7683 125.139 59.3137 125.703 58.8118 126.221C58.3681 126.718 57.8216 127.112 57.2103 127.376C56.721 127.593 56.1659 127.607 55.6661 127.416C55.1662 127.226 54.7619 126.845 54.5413 126.358C54.5018 126.032 54.5327 125.702 54.632 125.389C54.7313 125.076 54.8967 124.789 55.117 124.546Z" stroke="black" stroke-width="0.5" stroke-miterlimit="10"/>
<path d="M52.4709 2.15461C55.9982 4.2383 59.2806 6.71096 62.2567 9.52625C65.2125 12.3379 67.4434 15.8235 68.7587 19.685C70.0442 23.3643 69.9629 27.3833 68.5295 31.0076C67.1766 34.2188 64.6176 36.7709 61.4028 38.1152C59.7751 38.7531 58.0133 38.972 56.279 38.7518C54.4332 38.4872 52.6639 37.8362 51.0867 36.8413C47.7145 34.7831 45.2181 31.6909 42.9684 28.5048C40.6479 25.2186 38.4646 21.7633 35.4481 19.0538C33.9391 17.6982 32.264 16.5466 30.6951 15.2643C29.1248 14.0415 27.7765 12.5578 26.7089 10.8781C24.8092 7.52235 23.9486 3.67808 24.2363 -0.167341C24.6223 -4.58014 25.691 -8.90627 27.4043 -12.9912C27.7883 -14.0087 28.1848 -15.0214 28.5817 -16.0338C28.6395 -16.1812 28.4019 -16.2451 28.3447 -16.0992C26.5148 -11.893 25.1541 -7.49804 24.2871 -2.99376C23.5899 0.922005 23.9545 4.95306 25.3432 8.68012C26.0499 10.4616 27.0855 12.0942 28.3959 13.4928C29.8645 14.9352 31.4434 16.2611 33.1181 17.4582C34.7792 18.7132 36.3059 20.1367 37.6739 21.706C39.022 23.3321 40.2874 25.025 41.4654 26.7782C43.7439 30.0592 46.0365 33.3749 49.225 35.8492C52.114 38.0911 55.7321 39.5754 59.434 38.9257C61.1065 38.5783 62.6916 37.8965 64.094 36.9212C65.4965 35.946 66.6875 34.6974 67.5955 33.2505C69.6009 30.0711 70.3493 26.2584 69.6947 22.5569C68.9866 18.528 67.2092 14.7634 64.5483 11.6567C61.8307 8.52673 58.6713 5.80969 55.1698 3.59127C54.3212 3.02674 53.4629 2.47714 52.595 1.94246C52.4602 1.85887 52.3366 2.07139 52.4709 2.15461Z" fill="black" stroke="black" stroke-width="0.5" stroke-miterlimit="10"/>
<path d="M45.9796 -1.22031C47.2902 1.70358 49.2446 4.29346 51.6969 6.35581C54.0856 8.53631 56.7017 10.4583 59.0026 12.7365C61.3181 14.8246 63.0132 17.5106 63.9017 20.4993C64.2656 21.8073 64.3601 23.1755 64.1795 24.5211C63.9989 25.8667 63.547 27.1616 62.8511 28.3274C62.0713 29.5065 60.9546 30.4237 59.6463 30.9595C58.2917 31.4884 56.828 31.6772 55.3835 31.5095C53.9007 31.3518 52.4638 30.9022 51.1556 30.1867C49.7652 29.4009 48.5086 28.3991 47.4329 27.2186C45.3002 24.7333 43.4494 22.0193 41.9146 19.1262C40.359 16.1836 38.3411 13.5098 35.9381 11.2066C33.5795 9.14657 30.6234 7.58573 29.3783 4.54446C28.1765 1.60897 28.6576 -1.73236 29.6053 -4.66623C29.8464 -5.41269 30.1238 -6.14723 30.4299 -6.86941C30.4909 -7.01341 30.2793 -7.13879 30.2177 -6.99349C28.8334 -4.09399 28.2525 -0.876112 28.5357 2.32441C28.7359 3.86064 29.3274 5.31969 30.2535 6.56165C31.2589 7.7747 32.4229 8.84688 33.7144 9.74928C35.0658 10.7307 36.3184 11.8414 37.4545 13.0656C38.5729 14.3605 39.5816 15.7463 40.4701 17.2086C42.2449 20.0462 43.7731 23.045 45.8258 25.7011C47.6553 28.3008 50.2488 30.2664 53.2462 31.3251C54.6224 31.8052 56.0939 31.9474 57.5366 31.7396C58.9792 31.5319 60.3508 30.9803 61.5356 30.1313C62.5515 29.2392 63.3464 28.1235 63.8578 26.8719C64.3691 25.6204 64.583 24.2672 64.4825 22.9189C64.4346 21.5161 64.1449 20.132 63.6261 18.8277C63.0274 17.3894 62.2223 16.0461 61.2362 14.84C59.0655 12.3411 56.6486 10.0674 54.022 8.05321C51.3977 6.04174 49.1228 3.61151 47.2889 0.860207C46.8741 0.175057 46.5155 -0.542574 46.2166 -1.28564C46.1586 -1.43071 45.9208 -1.36744 45.9796 -1.22031Z" fill="black" stroke="black" stroke-width="0.5" stroke-miterlimit="10"/>
<path d="M41.3039 -4.48611C41.8383 -2.01651 42.7441 0.357798 43.9903 2.55589C45.2337 4.75551 46.8007 6.75579 48.6386 8.48973C49.5803 9.36067 50.5787 10.1682 51.6273 10.9071C52.6964 11.6749 53.7888 12.4141 54.8053 13.2522C55.8054 14.0328 56.675 14.9674 57.3815 16.0212C57.9662 16.9508 58.3404 17.9972 58.4776 19.0868C58.6305 20.1273 58.4851 21.1898 58.0583 22.1509C57.8263 22.6386 57.4986 23.0746 57.0945 23.4329C56.6905 23.7912 56.2185 24.0645 55.7066 24.2366C53.4665 24.9806 50.91 23.8827 49.2883 22.325C47.3371 20.4507 46.1655 17.9634 44.5634 15.8164C42.8485 13.7208 40.9327 11.798 38.8433 10.0756C36.8134 8.41194 35.0993 6.3967 33.783 4.12613C32.552 1.99831 32.1799 -0.519232 32.7426 -2.9122C32.9097 -3.47332 33.1506 -4.00973 33.4591 -4.50731C33.5424 -4.64231 33.3298 -4.76593 33.2468 -4.63139C32.6614 -3.57947 32.3136 -2.41205 32.2279 -1.21125C32.1422 -0.0104523 32.3207 1.19454 32.7508 2.31893C33.1544 3.51717 33.7207 4.65428 34.4338 5.69839C35.1933 6.78241 36.0583 7.78851 37.0161 8.70195C38.9983 10.6533 41.211 12.3645 43.0896 14.422C44.0164 15.4623 44.8545 16.5782 45.5951 17.7582C46.3325 18.9003 47.0447 20.062 47.8871 21.1315C48.6489 22.1497 49.5966 23.0145 50.6801 23.6801C51.6902 24.2866 52.8324 24.639 54.0086 24.7071C55.1279 24.7721 56.2328 24.4282 57.1176 23.7396C57.9109 23.0794 58.4517 22.1656 58.6488 21.1525C58.8338 20.0714 58.7787 18.9629 58.4877 17.9055C58.1966 16.848 57.6766 15.8675 56.9645 15.0333C55.2758 12.962 52.9221 11.6033 50.8185 10.0091C48.7207 8.41821 46.8899 6.50316 45.3949 4.33604C43.9074 2.18366 42.7671 -0.188929 42.0157 -2.69505C41.833 -3.30741 41.6747 -3.92622 41.5409 -4.5515C41.5076 -4.70607 41.2707 -4.64061 41.3039 -4.48611Z" fill="black" stroke="black" stroke-width="0.5" stroke-miterlimit="10"/>
<path d="M37.4189 -4.00383C37.7552 -0.0523901 39.2004 3.72379 41.5882 6.89011C42.7499 8.44698 44.117 9.83941 45.6524 11.0294C46.4346 11.635 47.2601 12.1827 48.1222 12.668C48.5583 12.9129 49.0033 13.1409 49.4573 13.3518C49.9185 13.5659 50.3927 13.7544 50.8378 14.0016C51.2686 14.17 51.6311 14.477 51.8683 14.8741C52.1055 15.2712 52.2039 15.7359 52.1481 16.195C52.1155 16.3962 52.0238 16.5832 51.8846 16.7321C51.7454 16.881 51.5651 16.9852 51.3665 17.0313C50.77 17.0514 50.1834 16.8742 49.6977 16.5272C47.921 15.5944 46.2557 14.4631 44.7339 13.155C41.7072 10.5443 39.2528 7.33603 37.5249 3.73169C35.7759 0.1297 34.8242 -3.8071 34.7348 -7.81026C34.7263 -8.30461 34.732 -8.79889 34.7519 -9.29308C34.7581 -9.45127 34.5123 -9.451 34.5061 -9.29308C34.3684 -5.22666 35.1269 -1.17973 36.7278 2.56081C38.316 6.32043 40.6709 9.70745 43.6421 12.5055C45.1189 13.8937 46.746 15.113 48.4931 16.1405C48.9374 16.4008 49.3891 16.6477 49.8485 16.8812C50.318 17.1841 50.8756 17.3204 51.4319 17.2683C51.796 17.1519 52.1003 16.8979 52.28 16.5605C52.4597 16.2231 52.5007 15.8288 52.3942 15.4617C52.2108 14.4794 51.2829 13.9197 50.4468 13.5299C49.5224 13.1224 48.6201 12.6663 47.7437 12.1637C46.0037 11.1125 44.4277 9.81116 43.0663 8.30141C40.3144 5.27702 38.4983 1.51961 37.8381 -2.51576C37.7606 -3.00935 37.7038 -3.50576 37.6647 -4.00383C37.6525 -4.16049 37.4065 -4.16183 37.4189 -4.00383Z" fill="black" stroke="black" stroke-width="0.5" stroke-miterlimit="10"/>
<path d="M62.9819 82.1407C63.3042 83.2166 63.6806 84.2754 64.1096 85.3133C64.6811 86.761 65.3611 88.1635 66.1438 89.5089C66.8056 90.7539 67.7174 91.8487 68.822 92.725C69.2145 93.0582 69.6973 93.2669 70.2089 93.3246C70.7205 93.3823 71.2376 93.2864 71.6945 93.049C72.0359 92.7313 72.2938 92.3344 72.4453 91.8933C72.5968 91.4522 72.6373 90.9806 72.5632 90.5201C72.4736 89.1334 72.208 87.7637 71.7729 86.444C71.3458 85.0055 70.8286 83.5947 70.2791 82.199C69.8807 81.1868 69.4515 80.1871 69.0517 79.1755C68.4534 77.6621 67.5354 75.6482 65.6315 75.6021C65.1522 75.6165 64.6835 75.7466 64.2654 75.9814C63.8473 76.2161 63.4922 76.5485 63.2304 76.9502C62.6013 77.9379 62.3666 79.126 62.5731 80.2786C62.6609 80.909 62.7976 81.5316 62.9819 82.1407C62.9915 82.1711 63.0125 82.1966 63.0405 82.2119C63.0684 82.2271 63.1013 82.2309 63.132 82.2224C63.1627 82.214 63.1889 82.1939 63.2052 82.1665C63.2214 82.139 63.2263 82.1064 63.2189 82.0753C62.7764 80.8492 62.6664 79.5278 62.9002 78.2454C63.0159 77.7541 63.2439 77.2964 63.5664 76.9082C63.8889 76.52 64.2971 76.2118 64.7588 76.008C65.1989 75.847 65.677 75.8202 66.1324 75.931C66.5878 76.0418 67.0001 76.2852 67.317 76.6304C67.9606 77.335 68.4486 78.1672 68.7491 79.0728C69.0888 79.9566 69.4672 80.8258 69.8197 81.7046C70.3454 83.0154 70.8457 84.3376 71.2793 85.682C71.7303 86.9883 72.0559 88.3345 72.2518 89.7024C72.4825 90.6674 72.3461 91.6836 71.8692 92.5536C71.5434 92.8711 71.1184 93.0672 70.6653 93.1091C70.2123 93.1509 69.7586 93.036 69.3801 92.7836C68.2926 92.096 67.3917 91.1507 66.7572 90.0314C65.9481 88.7535 65.2486 87.4095 64.6662 86.0136C64.1882 84.9032 63.7563 83.7701 63.3863 82.6191C63.3283 82.4385 63.2721 82.2574 63.2189 82.0753C63.2093 82.045 63.1883 82.0197 63.1603 82.0045C63.1324 81.9893 63.0996 81.9856 63.069 81.994C63.0383 82.0025 63.0121 82.0225 62.9959 82.0498C62.9797 82.0772 62.9746 82.1098 62.9819 82.1407Z" fill="black"/>
<path d="M62.9819 82.1407C63.3042 83.2166 63.6806 84.2754 64.1096 85.3133C64.6811 86.761 65.3611 88.1635 66.1438 89.5089C66.8056 90.7539 67.7174 91.8487 68.822 92.725C69.2145 93.0582 69.6973 93.2669 70.2089 93.3246C70.7205 93.3823 71.2376 93.2864 71.6945 93.049C72.0359 92.7313 72.2938 92.3344 72.4453 91.8933C72.5968 91.4522 72.6373 90.9806 72.5632 90.5201C72.4736 89.1334 72.208 87.7637 71.7729 86.444C71.3458 85.0055 70.8286 83.5947 70.2791 82.199C69.8807 81.1868 69.4515 80.1871 69.0517 79.1755C68.4534 77.6621 67.5354 75.6482 65.6315 75.6021C65.1522 75.6165 64.6835 75.7466 64.2654 75.9814C63.8473 76.2161 63.4922 76.5485 63.2304 76.9502C62.6013 77.9379 62.3666 79.126 62.5731 80.2786C62.6609 80.909 62.7976 81.5316 62.9819 82.1407ZM62.9819 82.1407C62.9915 82.1711 63.0125 82.1966 63.0405 82.2119C63.0684 82.2271 63.1013 82.2309 63.132 82.2224C63.1627 82.214 63.1889 82.1939 63.2052 82.1665C63.2214 82.139 63.2263 82.1064 63.2189 82.0753M62.9819 82.1407C62.9746 82.1098 62.9797 82.0772 62.9959 82.0498C63.0121 82.0225 63.0383 82.0025 63.069 81.994C63.0996 81.9856 63.1324 81.9893 63.1603 82.0045C63.1883 82.0197 63.2093 82.045 63.2189 82.0753M63.2189 82.0753C62.7764 80.8492 62.6664 79.5278 62.9002 78.2454C63.0159 77.7541 63.2439 77.2964 63.5664 76.9082C63.8889 76.52 64.2971 76.2118 64.7588 76.008C65.1989 75.847 65.677 75.8202 66.1324 75.931C66.5878 76.0418 67.0001 76.2852 67.317 76.6304C67.9606 77.335 68.4486 78.1671 68.7491 79.0728C69.0888 79.9566 69.4672 80.8258 69.8197 81.7046C70.3454 83.0154 70.8457 84.3376 71.2793 85.682C71.7303 86.9883 72.0559 88.3345 72.2518 89.7024C72.4825 90.6674 72.3461 91.6836 71.8692 92.5536C71.5434 92.8711 71.1184 93.0672 70.6653 93.1091C70.2123 93.1509 69.7586 93.036 69.3801 92.7836C68.2926 92.096 67.3917 91.1507 66.7572 90.0314C65.9481 88.7535 65.2486 87.4095 64.6662 86.0136C64.1882 84.9032 63.7563 83.7701 63.3863 82.6191C63.3283 82.4385 63.2721 82.2574 63.2189 82.0753Z" stroke="black" stroke-width="0.5" stroke-miterlimit="10"/>
<path d="M125.281 -2.09468C117.343 4.02264 111.597 12.5448 108.902 22.1981C107.984 25.861 107.349 29.5887 107 33.3487C106.165 40.4242 105.067 48.2614 99.7279 53.5109C97.164 56.0321 93.8531 57.2691 90.5206 58.4263C87.3718 59.5198 84.294 60.6776 81.7128 62.8521C79.1925 64.9753 77.1738 67.6304 74.5958 69.6896C71.7619 71.9403 68.1827 73.0379 64.5743 72.7629C56.7425 72.3003 50.4017 67.2992 43.456 64.258C37.6663 61.6374 31.175 60.9952 24.9841 62.4305C21.9561 63.1532 19.1046 64.4782 16.5997 66.3266C14.1463 68.2174 12.0803 70.5633 10.5148 73.236C7.06284 78.9574 5.52237 85.5234 3.24584 91.741C1.12054 97.5456 -1.88316 103.608 -7.0496 107.287C-8.30223 108.179 -9.66919 108.898 -11.1137 109.426C-11.261 109.479 -11.1974 109.717 -11.0483 109.663C-5.29732 107.561 -1.43717 102.552 1.18913 97.2236C4.08674 91.3452 5.51616 84.9056 8.00525 78.8639C9.22741 75.7149 10.9135 72.7662 13.0077 70.1158C15.0913 67.5828 17.7201 65.553 20.698 64.1782C26.7765 61.5136 33.619 61.1611 39.9392 63.1871C47.0489 65.3991 52.9556 70.3934 60.1888 72.2883C63.5296 73.284 67.0876 73.288 70.4307 72.2999C73.5319 71.2559 75.891 69.0082 78.1191 66.7041C80.5157 64.2257 82.8712 61.8675 86.0465 60.4026C89.1452 58.973 92.5058 58.2034 95.5752 56.7028C101.661 53.7275 104.726 47.5086 106.077 41.1396C106.928 37.1248 107.221 33.023 107.793 28.9653C108.263 25.4167 109.116 21.9294 110.338 18.5649C112.746 12.1124 116.56 6.27693 121.504 1.48225C122.739 0.287709 124.042 -0.835674 125.405 -1.88247C125.529 -1.97755 125.407 -2.19113 125.281 -2.09468Z" fill="black" stroke="black" stroke-width="0.5" stroke-miterlimit="10"/>
<path d="M55.187 -1.21349L60.9468 3.85491C62.7128 5.40891 64.5063 6.93733 66.2269 8.54181C67.7973 9.9432 69.1955 11.5264 70.392 13.258C71.6194 15.1065 72.3899 17.2201 72.6403 19.4248C72.8447 21.8049 72.7257 24.2018 72.2865 26.55C71.951 28.6464 71.5695 30.7496 71.0692 32.8136C70.1469 36.619 68.5306 40.5248 64.9594 42.5438C63.2011 43.4415 61.2686 43.9457 59.2959 44.0216C57.3233 44.0974 55.3577 43.743 53.5358 42.983C49.5155 41.4226 46.2342 38.4499 43.3996 35.2766C40.3171 31.8257 37.6433 28.0157 34.3383 24.7635C31.3078 21.7815 27.7338 19.4341 24.6203 16.5467C23.0712 15.1557 21.7124 13.5663 20.5791 11.8198C19.5285 10.1296 18.7558 8.28176 18.2905 6.3468C17.3343 2.42856 17.6028 -1.6887 19.06 -5.4495C19.4184 -6.35685 19.8501 -7.23353 20.3508 -8.07084C20.3658 -8.0989 20.3694 -8.13169 20.3607 -8.16233C20.3521 -8.19297 20.3319 -8.21907 20.3044 -8.23514C20.277 -8.2512 20.2443 -8.25599 20.2134 -8.24849C20.1824 -8.24099 20.1556 -8.22179 20.1385 -8.19492C18.0943 -4.69835 17.1927 -0.650839 17.5594 3.38281C17.7277 5.38877 18.2028 7.35704 18.968 9.21895C19.7545 11.0941 20.8338 12.8325 22.1655 14.3692C24.9709 17.6422 28.5824 20.0657 31.8495 22.8351C33.5952 24.3251 35.226 25.9446 36.728 27.68C38.2947 29.4765 39.7667 31.3522 41.2878 33.1867C44.0806 36.5551 47.1255 39.8611 50.9755 42.035C54.4538 44.124 58.6161 44.756 62.5578 43.7936C64.4395 43.2849 66.1466 42.2723 67.4952 40.865C68.8062 39.4112 69.8048 37.7037 70.4291 35.8483C71.0832 33.9281 71.5834 31.9589 71.925 29.9593C72.4128 27.659 72.755 25.3301 72.9498 22.9867C73.1555 20.6414 72.8667 18.2791 72.1021 16.0524C71.3308 14.109 70.2075 12.3246 68.7887 10.7888C67.3192 9.19709 65.7523 7.69807 64.0972 6.30037C62.1386 4.57687 60.18 2.85337 58.2214 1.12988C57.2678 0.290799 56.3143 -0.548268 55.3608 -1.38732C55.2424 -1.49144 55.0679 -1.31824 55.187 -1.21349Z" fill="black" stroke="black" stroke-width="0.5" stroke-miterlimit="10"/>
<path d="M118.006 1.1294C110.919 8.56884 106.092 17.8688 104.086 27.9461C103.576 30.5275 103.337 33.1415 102.995 35.7474C102.741 38.5257 102.003 41.2382 100.815 43.7624C99.5133 46.0633 97.8379 48.1317 95.8577 49.8832C93.9131 51.781 91.8699 53.5751 89.7365 55.2578C87.6818 56.9331 85.3012 58.1626 82.7458 58.8683C80.3167 59.5263 77.7363 59.3402 75.4268 58.3403C71.0881 56.2828 69.6935 51.0746 70.1819 46.6343C70.5988 43.8002 71.3844 41.0327 72.5187 38.4021C73.5883 35.8292 74.5184 33.2004 75.3049 30.5273C76.6993 25.3607 77.1674 19.7394 75.4433 14.5902C73.9877 10.243 71.0054 6.70709 67.687 3.63706C64.3094 0.512328 60.5868 -2.22267 57.3055 -5.45412C56.5219 -6.22569 55.7667 -7.02549 55.0508 -7.86039C54.9477 -7.98065 54.7745 -7.80612 54.877 -7.68656C57.8987 -4.1625 61.5966 -1.32256 65.1089 1.68244C68.5489 4.62567 71.9335 7.81872 74.0354 11.8908C76.5735 16.808 76.741 22.4923 75.6842 27.8332C75.1115 30.5688 74.3004 33.2491 73.26 35.8432C72.1319 38.4853 71.1813 41.1998 70.4145 43.9685C69.3696 48.2977 69.5965 53.5339 72.9264 56.8736C76.4756 60.4332 82.1124 59.9311 86.2596 57.7932C88.6166 56.4901 90.8005 54.8959 92.7599 53.048C94.8027 51.317 96.7311 49.4554 98.5332 47.475C100.285 45.4915 101.575 43.1442 102.31 40.6022C102.958 37.9608 103.397 35.2723 103.623 32.5618C104.222 27.3351 105.564 22.2206 107.607 17.3728C109.645 12.5879 112.362 8.12222 115.676 4.11401C116.477 3.14752 117.312 2.21059 118.18 1.30323C118.289 1.18885 118.116 1.01476 118.006 1.1294Z" fill="black" stroke="black" stroke-width="0.5" stroke-miterlimit="10"/>
<path d="M116.788 -3.53811C113.234 0.0675945 109.995 3.96973 107.105 8.12589C105.683 10.2206 104.431 12.4256 103.362 14.72C102.275 17.1112 101.41 19.5969 100.776 22.146C99.4238 27.4618 98.8053 32.94 97.3239 38.2255C96.2243 42.6044 94.146 46.677 91.2454 50.137C88.4034 53.3235 84.371 55.7286 79.9771 55.4257C78.9658 55.3887 77.9717 55.152 77.0523 54.729C76.1329 54.3061 75.3063 53.7053 74.6202 52.9614C73.8799 51.993 73.3526 50.879 73.0729 49.6925C72.7933 48.506 72.7676 47.2738 72.9976 46.0766C73.5543 43.4022 74.4689 40.815 75.7166 38.3848C76.835 35.8946 77.824 33.3483 78.6794 30.7559C80.3923 25.9541 80.9329 20.8124 80.2561 15.7593C79.6291 11.4494 77.5919 7.4688 74.4629 4.43947C72.8997 3.12286 71.1713 2.01607 69.3214 1.14717C67.5277 0.358541 65.9021 -0.767173 64.5328 -2.16883C63.9377 -2.86495 63.5221 -3.69626 63.3224 -4.59008C63.2882 -4.74445 63.0512 -4.67908 63.0854 -4.52472C63.5747 -2.75353 64.7302 -1.24029 66.3101 -0.301835C67.9801 0.833566 69.8472 1.63294 71.5883 2.64717C75.3971 4.98426 78.1748 8.6821 79.3585 12.9912C80.6733 17.8475 80.6431 22.9698 79.2712 27.8103C78.5691 30.4907 77.6784 33.1181 76.6058 35.6729C75.5612 38.2229 74.2791 40.6965 73.4174 43.3176C72.5392 45.6455 72.4123 48.1901 73.0544 50.5939C73.3595 51.582 73.8789 52.4906 74.5755 53.2549C75.2721 54.0191 76.1288 54.6203 77.0845 55.0154C81.0015 56.6449 85.4972 55.2401 88.7331 52.7973C92.1712 49.9989 94.778 46.3129 96.2709 42.1388C98.1982 37.2663 98.9608 32.0478 99.969 26.9344C100.473 24.1963 101.149 21.4927 101.993 18.8399C102.824 16.369 103.89 13.9833 105.175 11.7156C107.779 7.26895 110.875 3.12941 114.404 -0.624895C115.244 -1.5495 116.097 -2.46263 116.962 -3.36427C117.071 -3.47865 116.897 -3.65275 116.788 -3.53811Z" fill="black" stroke="black" stroke-width="0.5" stroke-miterlimit="10"/>
<path d="M108.84 0.101868C106.233 3.23802 103.949 6.62807 102.02 10.221C100.095 13.8158 98.4363 17.5474 97.0581 21.3854C95.6437 25.2685 94.4665 29.2349 93.4369 33.2361C92.3922 37.2966 91.633 41.6085 89.3642 45.2107C88.3887 46.8019 87.0878 48.1689 85.5469 49.2219C84.0673 50.2692 82.2865 50.8052 80.4746 50.7486C79.5481 50.7176 78.6669 50.3398 78.0056 49.6901C77.359 48.8663 77.0029 47.8517 76.993 46.8045C76.8592 44.9203 77.0752 43.0277 77.63 41.2221C78.7209 37.4637 80.7481 34.0689 82.27 30.4836C83.0668 28.6733 83.6565 26.7788 84.028 24.836C84.3887 22.7719 84.4811 20.6697 84.3028 18.5819C83.923 14.4273 82.6738 10.399 80.6364 6.75847C78.6521 3.23331 76.1726 0.0108771 73.2736 -2.81045C72.5718 -3.50716 71.8515 -4.18446 71.1126 -4.84236C70.995 -4.94747 70.8206 -4.77421 70.9388 -4.66853C74.0402 -1.95446 76.7679 1.15892 79.0506 4.59018C81.3964 8.12173 82.9992 12.0935 83.7618 16.264C84.515 20.479 84.1361 24.8184 82.6639 28.8392C81.2951 32.527 79.242 35.9183 77.8983 39.6164C77.2313 41.3596 76.8318 43.1937 76.7134 45.0564C76.6335 46.7874 76.7108 49.0573 78.2151 50.2102C79.6023 51.2735 81.5767 51.1325 83.1546 50.642C84.8411 50.0852 86.3659 49.1243 87.5959 47.8432C90.493 44.9182 91.7581 40.9113 92.7458 37.016C93.7779 32.9455 94.8045 28.8846 96.109 24.8901C97.3872 20.9135 98.9338 17.0282 100.738 13.261C102.515 9.55141 104.641 6.019 107.086 2.71138C107.705 1.88149 108.348 1.06959 109.014 0.275688C109.115 0.155168 108.942 -0.0195818 108.84 0.101868Z" fill="black" stroke="black" stroke-width="0.5" stroke-miterlimit="10"/>
<path d="M102.424 0.0871549C100.553 2.89889 98.867 5.82921 97.3764 8.85958C96.6764 10.3324 96.058 11.8426 95.5241 13.3833C94.9384 15.0786 94.4899 16.8071 94.0663 18.5486C93.1081 22.4886 92.1498 26.4286 91.1915 30.3686C90.7105 32.3461 90.2295 34.3236 89.7486 36.3011C89.5117 37.2748 89.2749 38.2486 89.038 39.2224C88.8213 40.1134 88.6199 41.0123 88.3193 41.8798C88.1455 42.5684 87.8273 43.2122 87.3857 43.7684C86.9441 44.3247 86.3893 44.7807 85.7581 45.1062C85.3039 45.2916 84.8123 45.3671 84.3233 45.3266C83.8344 45.2862 83.3619 45.1308 82.9444 44.8732C82.5151 44.5943 82.1629 44.2117 81.9205 43.7608C81.678 43.3099 81.553 42.8052 81.557 42.2932C81.5424 40.646 82.5652 39.2196 83.4559 37.9195C85.3581 35.1457 86.6904 32.0216 87.3755 28.7287C88.0518 25.419 88.1759 22.0203 87.7427 18.6701C87.2832 15.2195 86.3524 11.8482 84.9763 8.65065C83.5799 5.39739 81.8697 2.28795 79.8701 -0.633565C79.3872 -1.34857 78.8911 -2.05438 78.3819 -2.75099C78.2896 -2.87753 78.0762 -2.75499 78.1696 -2.62691C80.304 0.260307 82.1749 3.33333 83.7596 6.55515C85.3467 9.77777 86.5004 13.1962 87.1909 16.7214C87.8429 20.1223 87.9235 23.6081 87.4293 27.0354C86.9524 30.4268 85.7923 33.6862 84.0192 36.6162C83.1138 38.0823 81.8992 39.443 81.4592 41.146C81.3026 41.6723 81.2655 42.2268 81.3507 42.7692C81.4359 43.3117 81.6412 43.8282 81.9516 44.2811C82.2367 44.6599 82.6009 44.9723 83.0188 45.1965C83.4366 45.4206 83.8982 45.5513 84.3716 45.5794C84.8967 45.6009 85.4202 45.5074 85.9053 45.3053C86.3905 45.1033 86.8256 44.7977 87.1803 44.4099C88.2045 43.1005 88.8742 41.5493 89.1247 39.9059C89.6093 37.9173 90.093 35.9284 90.5759 33.9395C91.5451 29.9545 92.5143 25.9696 93.4836 21.9846C93.9537 20.0515 94.3878 18.1051 94.9146 16.1865C95.3666 14.536 95.915 12.9134 96.5571 11.3272C97.8569 8.23853 99.4173 5.26613 101.221 2.44219C101.686 1.69408 102.157 0.950421 102.636 0.211235C102.722 0.0778947 102.509 -0.045485 102.424 0.0871549Z" fill="black" stroke="black" stroke-width="0.5" stroke-miterlimit="10"/>
<path d="M88.2343 -1.47767C86.8052 1.14463 86.316 4.17685 86.848 7.11552C87.0998 8.39398 87.5234 9.63251 88.1073 10.7974C88.494 11.6603 88.9565 12.4872 89.4893 13.2684C89.9354 14.0361 90.6587 14.6036 91.5104 14.8544C92.0238 14.8842 92.5334 14.7504 92.9659 14.4722C93.3984 14.194 93.7315 13.7857 93.9172 13.3062C94.183 12.6418 94.3682 11.9479 94.4689 11.2394C94.6107 10.4919 94.7325 9.74074 94.8433 8.98807C95.0708 7.44181 95.2524 5.88928 95.4454 4.33844C95.7405 1.21683 96.3317 -1.86964 97.2112 -4.87929C97.3221 -5.22051 97.4411 -5.55892 97.568 -5.89453C97.624 -6.04265 97.3865 -6.10668 97.331 -5.95989C96.3649 -3.16055 95.721 -0.260174 95.412 2.68504C95.012 5.67178 94.7373 8.68213 94.1408 11.639C94.0464 12.3302 93.8201 12.9969 93.4741 13.6027C93.1738 14.0656 92.7226 14.4105 92.1971 14.5789C91.7905 14.6369 91.3758 14.5782 91.0012 14.4096C90.6266 14.2411 90.3076 13.9696 90.0813 13.6269C89.4818 12.8918 88.9787 12.0831 88.5843 11.2205C88.0675 10.2384 87.6477 9.20815 87.3311 8.14448C86.5649 5.31422 86.787 2.3073 87.9605 -0.379732C88.1079 -0.711552 88.2708 -1.03595 88.4465 -1.35359C88.5232 -1.49212 88.311 -1.61623 88.2343 -1.47767Z" fill="black" stroke="black" stroke-width="0.5" stroke-miterlimit="10"/>
<path d="M90.1148 -0.650608C89.9519 -0.0696077 89.7163 0.492932 89.5138 1.06074C89.2224 1.84701 88.9777 2.64987 88.7813 3.46508C88.5148 4.63489 88.2306 6.4576 89.6408 6.99775C89.8751 7.09931 90.1285 7.14944 90.3838 7.14476C90.6392 7.14007 90.8905 7.08068 91.1209 6.97058C91.5522 6.71183 91.8888 6.32107 92.0807 5.85614C92.5871 4.60987 92.8044 3.26499 92.7161 1.92265C92.7044 1.24853 92.6397 0.576379 92.5226 -0.0875977C92.4451 -0.604066 92.2945 -1.10689 92.0755 -1.58099C92.0339 -1.66495 91.9864 -1.74587 91.9333 -1.82313C91.8439 -1.95226 91.6307 -1.82951 91.7211 -1.69905C91.9498 -1.32851 92.1081 -0.91897 92.1883 -0.490988C92.3241 0.102787 92.4097 0.706944 92.4442 1.31508C92.5656 2.62642 92.439 3.94889 92.0711 5.2134C91.7851 6.08912 91.182 7.0684 90.1187 6.8784C89.8444 6.8503 89.5843 6.74259 89.3705 6.56855C89.1566 6.3945 88.9983 6.16172 88.9151 5.89885C88.7634 5.22215 88.7756 4.51898 88.9507 3.84795C89.2962 2.44413 89.7327 1.06427 90.2573 -0.282888C90.291 -0.382988 90.3234 -0.483558 90.3518 -0.585248C90.3592 -0.616252 90.3543 -0.648912 90.3381 -0.676348C90.3219 -0.703783 90.2956 -0.723852 90.2649 -0.732325C90.2342 -0.740798 90.2014 -0.737015 90.1734 -0.721771C90.1454 -0.706528 90.1244 -0.681015 90.1148 -0.650608Z" fill="black" stroke="black" stroke-width="0.5" stroke-miterlimit="10"/>
<path d="M15.1525 -8.86845C13.1301 -1.80474 10.983 6.34165 14.6989 13.2392C18.0171 19.3984 24.6214 22.76 29.9481 26.9034C33.0775 29.3712 36.0531 32.0279 38.8583 34.8587C41.3202 37.3103 43.5949 39.9734 46.2028 42.2731C48.5161 44.4127 51.1617 46.1623 54.0361 47.4534C55.3207 48.0256 56.699 48.3581 58.1031 48.4344C59.8445 48.4863 61.4323 47.6529 63.1533 47.6053C65.1745 47.5494 66.1374 49.0884 66.7617 50.7757C67.222 52.1879 67.8539 53.5382 68.6433 54.7964C70.2813 57.2245 73.1091 59.9654 72.0429 63.1839C71.0772 66.0987 67.4852 67.1829 64.7321 67.3236C61.2614 67.365 57.813 66.7638 54.561 65.5506C47.875 63.3131 41.665 59.683 34.7307 58.1885C31.4748 57.437 28.1001 57.3567 24.8122 57.9524C21.5243 58.5481 18.3922 59.8074 15.607 61.6534C12.8464 63.446 10.4802 65.7827 8.65314 68.5207C6.68137 71.7477 5.13873 75.218 4.06423 78.8439C1.86114 85.4186 -0.350256 92.7796 -6.31464 96.9863C-7.63106 97.9206 -9.10399 98.6119 -10.6639 99.0275C-10.6943 99.037 -10.7198 99.058 -10.735 99.086C-10.7503 99.114 -10.754 99.1468 -10.7456 99.1775C-10.7371 99.2082 -10.717 99.2345 -10.6896 99.2507C-10.6622 99.2669 -10.6295 99.2719 -10.5985 99.2645C-4.1365 97.5584 -0.242376 91.352 2.0255 85.4866C4.75389 78.43 6.22645 70.6712 11.7486 65.1088C14.1999 62.6424 17.1437 60.7207 20.388 59.469C23.6322 58.2174 27.104 57.664 30.5766 57.8449C37.7516 58.2993 44.2423 61.7831 50.7919 64.4122C54.033 65.8027 57.4329 66.7891 60.9148 67.3494C63.8336 67.7482 66.967 67.7464 69.6083 66.2628C70.7211 65.6817 71.6114 64.7503 72.1418 63.6125C72.3959 62.9744 72.5204 62.2922 72.5081 61.6055C72.4957 60.9188 72.3466 60.2414 72.0696 59.613C71.414 58.2334 70.593 56.9386 69.6247 55.7572C68.6448 54.4779 67.8608 53.06 67.2984 51.5498C66.9915 50.2248 66.3219 49.0114 65.3645 48.0454C63.9765 46.9472 62.2184 47.4354 60.6656 47.8305C59.1352 48.2555 57.5195 48.2671 55.9832 47.8639C54.4371 47.4263 52.9584 46.7787 51.5883 45.9391C48.888 44.3147 46.415 42.3392 44.2341 40.0644C41.5218 37.2791 38.8778 34.4408 36.0306 31.7891C33.1772 29.1277 30.1494 26.6595 26.9675 24.401C24.0404 22.4742 21.2676 20.3227 18.6742 17.9658C16.0055 15.4963 14.1418 12.2807 13.3256 8.73749C12.6666 4.75836 12.8684 0.684179 13.9175 -3.21035C14.3428 -5.09118 14.8589 -6.94972 15.3895 -8.80309C15.3969 -8.83409 15.392 -8.86675 15.3758 -8.89419C15.3595 -8.92162 15.3333 -8.94169 15.3026 -8.95016C15.2718 -8.95864 15.239 -8.95485 15.211 -8.93961C15.1831 -8.92437 15.1621 -8.89885 15.1525 -8.86845Z" fill="black" stroke="black" stroke-width="0.5" stroke-miterlimit="10"/>
<path d="M9.48132 -2.33602C6.31468 2.70814 7.11757 9.31484 9.94213 14.3214C13.032 19.798 18.2184 23.6822 23.35 27.1127C26.1271 28.9692 28.9584 30.7491 31.6467 32.7351C34.4213 34.7772 36.9567 37.1259 39.2047 39.7364C43.2071 44.3868 47.4746 50.0701 54.1414 50.513C57.0566 50.7067 60.3816 49.9268 63.0585 51.4295C65.6834 52.903 66.5282 56.2619 67.1154 58.9963C67.4564 60.5843 67.4595 62.4149 65.9883 63.4416C64.8468 64.1131 63.514 64.3851 62.2007 64.2146C60.6218 64.063 59.0607 63.7639 57.5376 63.3213C55.8757 62.8927 54.2358 62.3827 52.6113 61.8298C46.1915 59.6446 39.968 56.7457 33.2741 55.4596C27.2831 54.3084 20.7474 54.3701 15.2983 57.4228C10.1406 60.3121 6.77595 65.4379 4.25199 70.631C1.4886 76.3167 -0.420096 82.4267 -3.83225 87.7874C-4.68388 89.1335 -5.64052 90.4103 -6.69325 91.6058C-6.79777 91.7239 -6.62454 91.8983 -6.51942 91.7796C-2.26899 86.979 0.0360842 80.92 2.51033 75.1006C4.84197 69.6167 7.54173 63.9756 12.1093 59.9835C14.4672 57.9271 17.2823 56.464 20.3202 55.7158C23.4237 54.9955 26.6285 54.8172 29.7928 55.189C36.5463 55.8818 42.8345 58.5147 49.1427 60.8506C52.4003 62.114 55.7407 63.1523 59.1404 63.9583C61.3819 64.4534 64.4136 65.0939 66.3659 63.4612C66.8501 63.0039 67.2094 62.4304 67.4095 61.7951C67.6097 61.1599 67.644 60.484 67.5093 59.8318C67.293 58.3701 66.9236 56.9353 66.4072 55.5509C66.0107 54.2904 65.3377 53.1343 64.4375 52.1669C63.4484 51.225 62.188 50.6181 60.8349 50.4321C57.8615 49.9461 54.8217 50.6885 51.8776 49.8981C48.8203 48.9268 46.0785 47.1554 43.9364 44.7676C41.5005 42.2702 39.4519 39.4253 36.99 36.9519C34.6111 34.6431 32.0205 32.5629 29.2524 30.7388C23.886 27.0691 18.1284 23.7931 13.6788 18.9673C9.48298 14.4167 6.6358 8.14706 8.02434 1.87114C8.34236 0.424448 8.907 -0.956713 9.69355 -2.21186C9.77791 -2.34623 9.56531 -2.46983 9.48132 -2.33602Z" fill="black" stroke="black" stroke-width="0.5" stroke-miterlimit="10"/>
<path d="M4.70515 -3.05459C1.92938 2.39763 2.68168 8.98594 5.34564 14.3282C8.13324 19.9184 12.9038 24.2437 17.8474 27.9162C23.3703 32.0191 29.3738 35.4896 34.5009 40.1119C39.3778 44.5087 43.5638 49.9415 49.6818 52.7132C51.0706 53.3555 52.5386 53.8106 54.0471 54.0666C55.632 54.3224 57.2044 54.1549 58.7946 54.265C60.3363 54.3717 61.9703 55.0354 62.3805 56.6862C62.4784 57.0339 62.4681 57.4032 62.3509 57.7449C62.2337 58.0866 62.0153 58.3845 61.7247 58.599C61.1056 58.9853 60.3816 59.1692 59.6533 59.1253C58.0642 59.0968 56.4809 58.9254 54.9225 58.6131C53.3501 58.3358 51.7945 57.969 50.2539 57.5507C47.1448 56.7064 44.0988 55.6513 41.0384 54.6493C35.1225 52.7124 28.9491 50.9036 22.6541 51.4818C16.8701 52.0445 11.433 54.499 7.18542 58.465C3.14465 62.2398 0.802452 67.2251 -1.37353 72.2148C-3.45516 76.9881 -5.47926 82.0369 -9.164 85.8353C-10.0528 86.753 -11.0347 87.5757 -12.0938 88.2901C-12.2243 88.378 -12.1014 88.591 -11.9697 88.5023C-7.64992 85.5928 -5.06046 81.0073 -2.94257 76.3767C-0.720428 71.5181 1.11343 66.3837 4.31393 62.0501C7.94554 57.2025 13.1492 53.7679 19.0342 52.3344C25.2934 50.8094 31.661 52.0216 37.7132 53.853C43.8435 55.7081 49.8477 58.1671 56.2252 59.0677C57.9996 59.3183 62.5062 60.2207 62.6887 57.3246C62.6815 56.7637 62.5248 56.215 62.2347 55.735C61.9445 55.2549 61.5315 54.8611 61.0383 54.5941C59.6946 53.8248 58.0099 54.0039 56.5281 54.0096C49.6633 54.0356 44.2165 49.3093 39.6192 44.747C37.232 42.2756 34.7128 39.9353 32.0727 37.7363C29.3958 35.6001 26.5606 33.6752 23.7324 31.7478C18.3608 28.0869 12.9036 24.3225 8.79958 19.2037C4.82478 14.2461 2.29829 7.77914 3.47015 1.36794C3.74164 -0.127458 4.22917 -1.57543 4.91741 -2.93052C4.98905 -3.0712 4.77702 -3.19574 4.70515 -3.05459Z" fill="black" stroke="black" stroke-width="0.5" stroke-miterlimit="10"/>
<path d="M-5.36416 73.3845C-4.60309 69.2868 -3.01753 65.3865 -0.703667 61.9201C1.64784 58.375 4.7189 55.3643 8.30998 53.0836C12.209 50.6373 16.6051 49.0926 21.1773 48.5624C23.4353 48.2545 25.7291 48.3304 27.9618 48.7868C30.1479 49.2703 32.2478 50.0608 34.3834 50.72C35.4342 51.0557 36.5038 51.3297 37.5867 51.5405C38.5019 51.7993 39.4626 51.8549 40.4015 51.7035C40.7672 51.6183 41.1009 51.4306 41.3636 51.1624C41.6264 50.8941 41.8071 50.5565 41.8847 50.1892C42.0094 49.2255 41.1486 48.4938 40.514 47.9108C37.1597 44.8287 33.1201 42.6451 29.3903 40.0716C25.2499 37.2148 20.98 34.5449 16.8911 31.6136C13.1898 29.0452 9.78376 26.0755 6.735 22.7587C3.71293 19.4867 1.41599 15.6132 -0.0054574 11.392C-1.42817 7.13385 -1.5456 2.54765 -0.342657 -1.77771C-0.0287404 -2.81854 0.378652 -3.82886 0.874543 -4.79633C0.946483 -4.93688 0.734453 -5.06142 0.662323 -4.92041C-1.22042 -1.06803 -1.85607 3.27525 -1.15627 7.50559C-0.455819 11.8454 1.25485 15.9598 3.83773 19.5169C6.40453 23.0345 9.44378 26.1816 12.8697 28.8694C16.6629 31.9383 20.7671 34.5877 24.8291 37.2803C26.8595 38.6262 28.8485 40.0343 30.8855 41.3698C32.8121 42.6329 34.7742 43.843 36.6591 45.1688C37.6301 45.8517 38.5805 46.5651 39.4866 47.3325C39.9114 47.6923 40.3279 48.0628 40.7288 48.4492C41.1946 48.8082 41.5182 49.3206 41.6422 49.8955C41.7553 51.0776 40.4019 51.593 39.445 51.5317C38.3297 51.4473 37.2248 51.2584 36.1448 50.9675C33.9869 50.4127 31.9038 49.609 29.7634 48.9951C27.6539 48.3532 25.4524 48.0663 23.2488 48.1463C18.7664 48.3653 14.3833 49.545 10.3965 51.6054C6.63865 53.5609 3.33271 56.2828 0.692153 59.5954C-1.8539 62.7784 -3.75311 66.4285 -4.8986 70.3402C-5.18283 71.3207 -5.41731 72.3149 -5.60115 73.3191C-5.62961 73.4737 -5.39276 73.5401 -5.36416 73.3845Z" fill="black" stroke="black" stroke-width="0.5" stroke-miterlimit="10"/>
<path d="M-4.43298 11.9174C-2.55024 15.2024 -0.479431 18.376 1.76912 21.4223C3.8879 24.3956 6.24699 27.1902 8.82266 29.7779C11.2622 32.1068 13.9188 34.1971 16.7562 36.0203C19.5975 37.8781 22.5658 39.5315 25.5545 41.1377C27.0658 41.9499 28.5834 42.7503 30.0963 43.5594C30.8638 43.9697 31.6297 44.3832 32.3939 44.7997C32.7658 45.0029 33.1393 45.204 33.5078 45.4134C33.8423 45.6034 34.2447 45.8441 34.3543 46.2406C34.3889 46.4432 34.3529 46.6516 34.2523 46.8309C34.1517 47.0102 33.9926 47.1495 33.8015 47.2256C33.6004 47.314 33.3833 47.3601 33.1636 47.3607C32.9439 47.3614 32.7264 47.3168 32.5247 47.2296C32.1032 47.0575 31.6944 46.8559 31.3013 46.6262C30.9262 46.4304 30.5443 46.2484 30.1557 46.0802C28.6861 45.4469 27.1417 45.0035 25.5599 44.7606C22.3129 44.2953 19.0049 44.5019 15.8409 45.3675C12.5803 46.2411 9.48783 47.6514 6.6904 49.5407C3.81228 51.5079 1.15645 53.782 -1.23033 56.323C-3.67595 58.8734 -5.91942 61.6083 -8.11549 64.3737C-8.6491 65.0457 -9.18086 65.7192 -9.71077 66.3941C-9.80751 66.5171 -9.63477 66.6922 -9.53694 66.568C-7.33306 63.7676 -5.12258 60.9682 -2.74132 58.315C-0.392213 55.6366 2.21152 53.1927 5.03321 51.0178C7.77656 48.9127 10.8424 47.2653 14.1119 46.1394C17.3071 45.0352 20.6928 44.5893 24.0649 44.8287C25.7238 44.9614 27.3586 45.3079 28.9288 45.8595C29.7279 46.1427 30.5054 46.4835 31.2551 46.8793C31.9069 47.3608 32.7016 47.6091 33.5115 47.5843C33.8151 47.5437 34.0941 47.3955 34.2977 47.1665C34.5013 46.9376 34.6159 46.6432 34.6207 46.3369C34.5472 45.603 33.7229 45.2502 33.162 44.9409C31.6388 44.1012 30.1038 43.2833 28.5682 42.4667C25.5323 40.8524 22.4911 39.2432 19.5421 37.4731C16.5843 35.7346 13.7752 33.7549 11.1432 31.5542C8.43671 29.1768 5.97358 26.5359 3.79018 23.6706C1.41366 20.6507 -0.782666 17.4932 -2.78734 14.2146C-3.27675 13.4145 -3.75454 12.6074 -4.22071 11.7934C-4.23778 11.7665 -4.26461 11.7473 -4.29555 11.7398C-4.32648 11.7323 -4.35912 11.7371 -4.3866 11.7531C-4.41409 11.7692 -4.43427 11.7953 -4.44291 11.8259C-4.45154 11.8566 -4.44802 11.8894 -4.43298 11.9174Z" fill="black" stroke="black" stroke-width="0.5" stroke-miterlimit="10"/>
<path d="M-1.80541 21.6167C0.22123 25.1066 2.69411 28.3175 5.55075 31.1682C8.38936 34.0052 11.5836 36.4623 15.0538 38.4782C15.9287 38.861 16.7297 39.3942 17.4204 40.0536C17.5627 40.245 17.6645 40.4635 17.7195 40.6956C17.7745 40.9278 17.7815 41.1687 17.74 41.4036C17.6986 41.6386 17.6097 41.8626 17.4787 42.062C17.3476 42.2613 17.1773 42.4318 16.978 42.563C16.0333 43.1551 14.9147 43.4066 13.8074 43.2759C12.7359 43.2681 11.666 43.3594 10.6113 43.5485C8.50429 43.9441 6.50017 44.7656 4.72166 45.9627C3.02676 47.1992 1.45697 48.5988 0.0347328 50.1412C-1.39523 51.7067 -3.02189 53.0804 -4.80467 54.2282C-6.53162 55.338 -8.57216 55.8572 -10.6195 55.7078C-11.1126 55.6475 -11.5972 55.5309 -12.0638 55.3603C-12.2128 55.3064 -12.2769 55.5439 -12.1291 55.5974C-10.1896 56.2166 -8.08824 56.0838 -6.24212 55.2254C-4.34409 54.3624 -2.62137 53.1569 -1.16031 51.6694C0.416342 50.1607 1.87369 48.5227 3.56358 47.1354C5.26984 45.723 7.25321 44.684 9.38575 44.0853C10.4462 43.7906 11.5352 43.6102 12.634 43.5472C13.7577 43.5912 14.8829 43.5162 15.9909 43.3235C16.4451 43.2175 16.8651 42.9985 17.2119 42.6868C17.5588 42.3751 17.8213 41.9807 17.975 41.5405C18.0657 41.1225 18.0226 40.6866 17.8518 40.2945C17.681 39.9025 17.3912 39.5741 17.0233 39.3559C16.6388 39.0893 16.2375 38.8476 15.822 38.6324C15.371 38.3807 14.9244 38.1214 14.4821 37.8543C13.5979 37.3204 12.7324 36.7569 11.8858 36.164C10.1925 34.9777 8.5807 33.6792 7.06121 32.2772C4.02556 29.4806 1.37771 26.2904 -0.811857 22.7915C-1.07951 22.3629 -1.33995 21.9299 -1.59319 21.4926C-1.61026 21.4657 -1.63709 21.4465 -1.66802 21.439C-1.69896 21.4315 -1.7316 21.4363 -1.75908 21.4524C-1.78656 21.4684 -1.80675 21.4945 -1.81538 21.5252C-1.82402 21.5558 -1.82045 21.5886 -1.80541 21.6167Z" fill="black" stroke="black" stroke-width="0.5" stroke-miterlimit="10"/>
<path d="M-5.00843 49.6523C-3.67758 47.1 -1.64801 44.9791 0.843225 43.5373C3.32344 42.0776 6.16562 41.3484 9.04222 41.4338C9.38353 41.4905 9.73269 41.4789 10.0695 41.3998C10.4063 41.3206 10.7241 41.1755 11.0044 40.9727C11.2089 40.7505 11.3484 40.4764 11.4078 40.1803C11.4671 39.8842 11.444 39.5775 11.341 39.2936C10.8994 37.8456 9.23001 37.434 8.0098 36.8756C5.39801 35.6621 3.06021 33.9303 1.1385 31.7852C-0.78322 29.6402 -2.24873 27.1269 -3.16899 24.3979C-3.27961 24.0639 -3.38131 23.727 -3.47407 23.3874C-3.48362 23.357 -3.5046 23.3315 -3.53259 23.3162C-3.56058 23.301 -3.59339 23.2972 -3.62411 23.3057C-3.65484 23.3142 -3.68107 23.3342 -3.69729 23.3617C-3.71351 23.3891 -3.71845 23.4218 -3.71107 23.4528C-2.95392 26.1728 -1.65973 28.7136 0.0951443 30.9254C1.8486 33.1518 4.02587 35.0086 6.50114 36.3885C7.11664 36.7296 7.74958 37.0383 8.39735 37.3132C9.11625 37.5573 9.79488 37.9069 10.411 38.3506C10.6856 38.5618 10.8996 38.8418 11.0314 39.1622C11.1632 39.4826 11.2082 39.8321 11.1617 40.1755C11.0019 40.9972 10.1885 41.1933 9.46146 41.1961C8.74183 41.1988 8.03065 41.1646 7.31139 41.2227C6.62419 41.2784 5.94164 41.3814 5.26859 41.531C3.91073 41.8349 2.59907 42.3172 1.36778 42.9654C-1.1305 44.2641 -3.23047 46.215 -4.70919 48.6112C-4.89095 48.9105 -5.06144 49.2162 -5.22065 49.5282C-5.29265 49.6687 -5.08065 49.7933 -5.00843 49.6523Z" fill="black" stroke="black" stroke-width="0.5" stroke-miterlimit="10"/>
<path d="M-6.13948 42.9546C-3.88064 42.2073 -1.6218 41.4599 0.637049 40.7126L2.37059 40.139L3.15859 39.8783L3.55259 39.748C3.69938 39.7193 3.84173 39.6713 3.97594 39.6052C4.0894 39.4731 4.15524 39.3068 4.16294 39.1328C4.18674 38.9415 4.16903 38.7473 4.111 38.5634C3.98356 38.1865 3.75722 37.8508 3.45564 37.5912C2.69095 37.102 1.86891 36.7089 1.00809 36.4206C0.620579 36.1862 0.287972 35.8713 0.0327988 35.4971C-0.222375 35.1229 -0.394156 34.6983 -0.470911 34.2519C-0.636503 33.411 -0.911438 32.5953 -1.28871 31.8257C-1.68594 31.1599 -2.21574 30.5828 -2.84526 30.1303C-4.4173 29.1016 -6.1737 28.3871 -8.01744 28.0263C-8.04845 28.0189 -8.08111 28.0238 -8.10854 28.0401C-8.13598 28.0563 -8.15605 28.0825 -8.16452 28.1133C-8.17299 28.144 -8.16921 28.1768 -8.15396 28.2048C-8.13872 28.2328 -8.11321 28.2537 -8.0828 28.2633C-6.48822 28.5998 -4.95321 29.1738 -3.52913 29.9662C-2.86162 30.3589 -2.27564 30.8761 -1.80293 31.4896C-1.3435 32.1603 -1.02338 32.9164 -0.861521 33.7132C-0.729752 34.5243 -0.418215 35.2956 0.0502691 35.9707C0.685401 36.571 1.46404 36.998 2.31157 37.211C3.04445 37.5004 3.97957 38.1174 3.92757 39.0257C3.92432 39.1238 3.9039 39.2206 3.86722 39.3116C3.8101 39.4407 3.69648 39.4417 3.56596 39.4849L2.7386 39.7586L1.12326 40.293C-1.31944 41.1012 -3.76215 41.9094 -6.20487 42.7176C-6.35432 42.7671 -6.29026 43.0045 -6.13948 42.9546Z" fill="black" stroke="black" stroke-width="0.5" stroke-miterlimit="10"/>
</g>
<defs>
<clipPath id="clip0_445_6074">
<rect width="170" height="105" fill="white"/>
</clipPath>
</defs>
</svg>
