<svg xmlns="http://www.w3.org/2000/svg" width="30" height="24" fill="none"><path fill="#373737" fill-rule="evenodd" d="M26.708 1.71A1.001 1.001 0 1 0 25.292.294l-3.926 3.928A16.95 16.95 0 0 0 15 3.002c-6.384 0-11.688 3.412-14.848 8.47a1 1 0 0 0 0 1.06c1.654 2.646 3.894 4.842 6.57 6.334l-3.43 3.428a1.001 1.001 0 0 0 1.416 1.416l3.926-3.928c1.952.786 4.09 1.22 6.366 1.22 6.384 0 11.688-3.412 14.848-8.47a1 1 0 0 0 0-1.06c-1.654-2.646-3.894-4.842-6.57-6.334l3.43-3.428Zm-6.9 4.07A15.034 15.034 0 0 0 15 5.002c-5.394 0-9.94 2.756-12.808 7 1.554 2.3 3.6 4.162 6.008 5.386L19.808 5.78Zm-9.616 12.442L21.8 6.616c2.408 1.224 4.454 3.086 6.008 5.386-2.868 4.244-7.414 7-12.808 7a15.036 15.036 0 0 1-4.808-.778v-.002Z" clip-rule="evenodd"/></svg>