<svg xmlns="http://www.w3.org/2000/svg" width="282" height="233" fill="none"><path fill="#9BCD8F" d="M258.297 113.767c0 1.057.536.673.637.832-.166-1.773-.782-.789-.637-.832ZM255.583 96.613l.282.268-.999-2.41.717 2.142ZM253.984 89.39l-.109.506 1.05 1.1a91.64 91.64 0 0 0-.767-2.67c-.276-.92-.536-1.853-.869-2.736a35.159 35.159 0 0 1-1.375-4.661c-.232.868.188 2.258.724 3.792a19.866 19.866 0 0 1 1.346 4.669ZM251.537 73.626a32.538 32.538 0 0 1-.594-1.564c-.152.645-.991-1.642.637 1.94-.029-.195-.029-.253-.043-.376ZM251.537 73.626c-.123-1.166.658 1.6 0 0ZM249.474 68.306c0-.521-.789-2.396-.325-1.78-1.137-2.063-1.129-1.52-.912-.16l1.237 1.94ZM246.673 64.723c.224.325.441.651.637.991.007-.224-.087-.52-.637-.991ZM247.889 66.714c-.34-.065.108.268.724 1.15l-1.296-2.17c0 .39-.275.55.572 1.02ZM249.452 70.832c0 .304-.13.188-.723-.775.89 1.962 1.389 2.758 1.498 2.54a2.341 2.341 0 0 0-.188-1.034 14.537 14.537 0 0 0-.978-2.345c.176.526.307 1.066.391 1.614ZM250.705 80.45c.087.55.181 1.108.232 1.665l.723 1.289a9.36 9.36 0 0 1-.477-1.795c-.167-.68-.355-1.252-.478-1.158ZM241.896 53.67c-.254 0-.051.935-.181 1.217.376.42.724.868 1.064 1.317-.29-.84-1.079-2.273-.883-2.533Z"/><path fill="#9BCD8F" d="m241.715 54.887-1.651-1.918c1.173 1.896 1.542 2.15 1.651 1.918ZM246.166 65.664l.587.847 1.179 1.708c-.897-1.382-1.773-2.758-2.757-4.068l.369.724.622.79ZM237.698 46.585l-1.028-.825-1.071-.79.883.724c.412.29.781.594 1.216.89ZM232.437 40.759c.998.55-.442-1.528.477-.84a21.79 21.79 0 0 0-3.539-2.975 15.905 15.905 0 0 1 3.062 3.815ZM227.5 35.627c.557.449 1.187.861 1.867 1.317a13.418 13.418 0 0 0-1.867-1.317ZM237.214 48.568l.564.81a3.538 3.538 0 0 0-.666-1.946l.102 1.136Z"/><path fill="#9BCD8F" d="M237.22 48.612v-.036l-1.208-1.752 1.208 1.788ZM237.915 49.58l-.144-.201c.014.108.028.166.144.202ZM241.172 58.093c.861.724.26-.898 1.78.767-1.013-1.114-2.793-3.547-1.78-.767ZM239.913 53.135c-.63-.724-1.23-1.447-1.882-2.171.471.724.883 1.52 1.332 2.28.072-.109.029-.63.55-.109ZM237.134 50.03l.897.948-.528-.825-.369-.123ZM230.316 40.266c.275.036.948.326-.131-.897a12.127 12.127 0 0 1-1.36-1.209l-1.448-1.404c.478.593.999 1.165 1.448 1.766.448.6 1.006 1.172 1.491 1.744ZM233.644 43.797l-.18-.18c.094.152.18.267.18.18ZM217.259 27.173l.101.223.101-.043-.202-.18Z"/><path fill="#9BCD8F" d="M230.402 40.52a6.194 6.194 0 0 0 1.774 1.73 43.178 43.178 0 0 1-1.86-1.998c-.123.014-.174.014.086.268ZM224.568 33.028l1.18 1.622c-.26-.565-.912-1.622-1.18-1.622ZM233.384 43.219l.123.116c-.13-.37-.152-.297-.123-.116Z"/><path fill="#9BCD8F" d="M233.5 43.618a1.968 1.968 0 0 1-.115-.405c-.38-.35-.784-.671-1.209-.963.463.514.912.984 1.324 1.368ZM211.895 26c-1.071-.513-2.294-.94-2.28-.34.883.464 1.709 1 2.563 1.513-.051.152-1.043-.31-.478.304.239-.152 1.006.123 1.925.724.512.31.996.664 1.448 1.057.472.442.903.927 1.288 1.447 2.128 1.318 2.085-1.05 1.028-3.264-.217.138-.319.253-2.577-1.1.586.724 3.974 4.22 2.005 3.163a12.458 12.458 0 0 1-2.171-1.86c-.29-.461-.612-.901-.963-1.317.304.65-.702.188-1.788-.326ZM221.087 30.72l.825.724a30.678 30.678 0 0 1-2.294-3.04c-1.535-.985-1.94-1.072-2.172-1.02 1.31 1.186 2.664 2.33 3.945 3.553l-.304-.217ZM225.394 34.78c-.977-.224-3.04-1.78-2.331-.26a8.93 8.93 0 0 0 1.969 1.57c.511.192.986.468 1.404.818-3.619-3.575 1.245.832-1.057-2.055.76.658 1.412 1.288 2.013 1.889-.587-.724-1.13-1.448-1.636-2.1l.058.11c.101.21.115.296 0 .086l-.08-.072a.6.6 0 0 1-.318 0c-.934-1.151-.051-.275.318 0h.101c-.615-.594-1.273-1.144-1.932-1.694l-1.962-1.65c.688.81 1.716 1.693 3.453 3.358ZM238.711 56.443c-.036-.159 0-.173 0-.202-.188-.24-.289-.312 0 .202ZM239.494 56.088l-.261-.26a20.511 20.511 0 0 1-1.491-3.952 7.274 7.274 0 0 0 .174 2.649c.509.384.925.88 1.216 1.448.405.955-.239.144-.377.29.529.484 1.679 1.874.739-.175ZM237.741 51.846v-.195c-.028-.022-.028.058 0 .195ZM230.098 43.263l.16-.275c1.447 1.904 1.368 1.295 1.737 1.375-.919-1.057-1.933-2.04-2.895-3.04l.998 1.94ZM217.903 26.515c-.796-.333-1.65-.586-2.475-.883l1.65.977.825-.094ZM213.155 22.961c-.449-.217-.927-.398-1.383-.6l.883.897.5-.297ZM52.076 169.296l.724.948a11.087 11.087 0 0 0-.724-.948ZM48.037 161.761l-.333-.073c.311.29.485.384.333.073ZM81.078 19.124l.796.181c.814-.634 1.7-1.169 2.642-1.592-1.795.564-3.96 1.035-3.438 1.411ZM37.565 96.722a18.09 18.09 0 0 0 .774-2.171l-.774 2.171ZM160.659 1.992a32.46 32.46 0 0 0-3.858-.846c1.853.571 3.293 1.266 3.858.846ZM156.801 1.145a9.863 9.863 0 0 0-4.545-.376c.275.08.543.13.825.203a23.61 23.61 0 0 1 3.72.173ZM233.363 174.572c.087-.087.181-.21.268-.282-.043-.08-.137.065-.268.282ZM256.343 131.804c.131-.702.206-1.414.224-2.128-.029.514-.13 1.339-.224 2.128ZM193.706 11.488c.203 0 1.078.478 0 0ZM197.174 16.165a.781.781 0 0 1 .543-.044c-.261-.05-.456-.058-.543.044ZM195.176 12.523c-.362-.268-.789-.55-1.267-.84.203.145.579.406 1.267.84ZM195.089 12.169l.89.521c.174-.022.087-.137-.89-.521ZM193.706 11.488l-1.513-.651c.616.268 1.18.557 1.716.84-.196-.123-.268-.196-.203-.189ZM158.74 222.429h.246c1.093-.355.608-.254-.246 0ZM65.487 41.143l-.13.108h.065c.03-.036.036-.072.065-.108Z"/><path fill="#9BCD8F" d="M257.095 125.47c-.398-.636-.282-2.381-.166-4.067.071-.775.086-1.554.043-2.331a2.17 2.17 0 0 0-.34-1.332l.102 2.07c-.478-1.396-1.043-.448-1.694.724a10.93 10.93 0 0 1-1.448 2.172c.1-.966.063-1.94-.108-2.896l.847-.673-.514-1.78-.594-1.759c.456-2.171.724-3.069 1.448-.934a71.219 71.219 0 0 1-.565-2.895c-.123-.724-.224-1.194-.304-1.665a24.48 24.48 0 0 0-.97-3.922l.558.159c-.21-1.564-1.216-3.952-.891-4.944a19.493 19.493 0 0 0-.246-4.342c-.065-.478-.123-.985-.217-1.513l-.326-1.621-.723-3.54c-1.216-4.892-2.895-10.357-4.155-14.736-.434 1.107-.615.058-.905-1.245-.289-1.303-.723-2.852-1.339-2.765.131-.63-.181-1.882.724-.666a30.1 30.1 0 0 1-.724-1.447l-.637-1.31c-.39-.833-.723-1.6-1.027-2.316a10.332 10.332 0 0 0-2.548-3.793c.065-.644.963.6.926.08a4.228 4.228 0 0 1-1.143-1.65c-.036-.529.601.44 1.107 1.005-.461-.83-.991-1.619-1.585-2.36a5.19 5.19 0 0 0-1.31-1.092 2.314 2.314 0 0 0-1.896-.152 10.899 10.899 0 0 0-1.26-2.62 6.985 6.985 0 0 0-1.853-1.629c-.18-.875-.673-2.229 1.101.102l-1.224-1.911-.897-1.383-1.05-1.404c-1.447-1.853-2.801-3.488-3.213-3.257a7.769 7.769 0 0 0-1.802-2.04l-1.448-1.723a28 28 0 0 0-1.071-1.187 101.456 101.456 0 0 0-2.62-2.722l.586.825c-1.701-.325-2.273-1.947-4.466-3.865h.131a20.848 20.848 0 0 0-2.309-2.453 9.17 9.17 0 0 0-1.101-.862 8.014 8.014 0 0 1-1.078-.861l-2.374-2.338-.116.724c-.673.362-1.686-.68-2.96-2.063a19.771 19.771 0 0 0-4.654-3.821l.926 1.085c-.969-.42-1.939-1.563-2.895-2.808-.955-1.245-1.773-2.591-2.649-3.17-.347-.326.724.174 1.339.441-4.444-3.452-1.056.377-4.748-1.447-.456-.76 1.448-.58-1.006-1.955a5.78 5.78 0 0 0-1.542-.723c.189 0 .232-.087 0-.29l-1.78-.724c-1.361-1.259 3.619.724 1.527-.499 1.361.357 2.701.784 4.017 1.281.724.268 1.448.572 2.172.934.766.415 1.508.874 2.222 1.375l.181 1.057c.057-.246-1.817-1.614-2.831-1.897.724.21 1.824 1.158 2.946 2.02a14.12 14.12 0 0 0 1.694 1.15 3.11 3.11 0 0 0 1.571.529c-.616-.615-1.216-1.26-1.868-1.831 1.245.456 2.613 1.02 4.053 1.636.734.311 1.447.669 2.136 1.07.695.434 1.358.918 1.983 1.448-.724-1.527-.659-.362-2.034-2.49 1.049 2.07-7.05-4.56-4.973-1.758a8.856 8.856 0 0 0-2.504-2.338 25.173 25.173 0 0 1-3.127-2.454c-.043.29.724.97-1.65-.412a3.367 3.367 0 0 1-.644-.058l-.159-.102.123.102h.043c.407.273.764.613 1.057 1.006a14.787 14.787 0 0 1-3.424-1.079c-1.36-.492-2.714-1.02-3.445-1.172-1.447-.782.724 0 .051-.637l-1.093-.232-1.115-.18c.037-.638-3.619-2.52.058-1.448l-3.221-1.296a21.16 21.16 0 0 0-3.112-1.447c-.985-.401-2.008-.7-3.054-.89-1.542-.58-4.162-.486-2.664-.55-.89-.182-1.773-.384-2.671-.55l-2.692-.428v-.16c-2.591-.723-5.37-.86-8.186-1.251a58.02 58.02 0 0 1-8.751-1.39h-2.895c-1.071 0-2.287 0-3.792-.137l-.579-.536c-1.166 0-2.896 0-4.488-.08-1.592-.08-3.004-.065-3.481.275a7.5 7.5 0 0 0-2.895-.427c-.623 0-1.303 0-2.02.073-.716.072-1.447.173-2.171.282-1.498.239-3.055.456-4.466.724-1.411.268-2.707.55-3.735.673v.724l-1.035.18-1.02.254a68.49 68.49 0 0 0-2.07.565l-2.172.65c-.723.254-1.52.551-2.337.848l.369.52a35.648 35.648 0 0 1-5.306 1.586c-1.035.268-2.128.536-3.242.84-1.115.304-2.215.723-3.308 1.187.21-.333 1.354-.724 2.171-.898-1.443.22-2.853.619-4.198 1.187a41.61 41.61 0 0 0-3.9 2.077c-1.282.724-2.476 1.55-3.692 2.23a24.062 24.062 0 0 1-3.662 1.693 8.594 8.594 0 0 1-2.693 1.542c.093-.054.18-.117.26-.188l-.455.253c-.573.188-1.136.406-1.687.652a23.16 23.16 0 0 0 1.448-.514 34.815 34.815 0 0 0-3.207 2.308l-.883-.21-.275.203c-1.346.58-.803.883.116.876-.504.435-.962.92-1.368 1.448-.774-.095-1.505.535-2.28 1.187-.38.333-.787.636-1.216.904a2.743 2.743 0 0 1-1.339.478c-.224.521-1.606 1.737-2.895 2.99l-.42.44a162.175 162.175 0 0 0-7.838 6.276l-3.228 2.895c-1.042.992-2.041 2.012-3.055 3.018-.5.507-1.02 1-1.498 1.527l-1.448 1.586-1.404 1.585a28.55 28.55 0 0 0-1.353 1.614c.521-.13 1.035-.268 1.57-.377-.84.985-1.62 2.013-2.431 3.019-.804.666-1.448.615.282-1.564a5.747 5.747 0 0 0-1.73 2.316 4.627 4.627 0 0 0-.579 1.868c-3.438 4.227.275-2.418-.724-1.064l-1.245 1.91.391-.354c-.362.876-.478 1.404-.724 2.048a9.72 9.72 0 0 1-.564 1.122 20.048 20.048 0 0 1-1.014 1.701c-1.288 1.686-1.092.593-1.563 1.281-.058-.043-.232.181-.724 1.071-.854 1.404-1.657 2.838-2.49 4.256l1.643-1.339a26.66 26.66 0 0 1-1.172 2.584c-.224.557-.166.63.774-.137-1.367 1.129-3.568 5.153-5.254 9.22-.464 1-.81 2.034-1.18 3.004l-.999 2.7a32.13 32.13 0 0 1-1.237 3.344c-.102.767-.232 1.52-.391 2.265-.16.746-.283 1.52-.464 2.295-.347 1.549-.84 3.148-1.237 4.958.354-.862 1.324-1.195.543 1.874-.384-.376-.724-.224-.985.26a8.282 8.282 0 0 0-.774 2.245c-.225.94-.456 2.004-.724 2.982-.138.485-.297.955-.463 1.375a5.19 5.19 0 0 1-.529 1.1c.565-1.093.348 1.18.196 3.293-.09.866-.09 1.74 0 2.606.087.535.275.579.644-.297-.34 2.642-.724.101-1.26 2.099.044.803 0 1.621 0 2.454v2.562l-.1 2.656-.051 2.743c0 .927-.066 1.868-.051 2.816l.087 2.895c.06 1.96.249 3.913.564 5.848.254.087.456-1.259 1.006.369-.26 1.448-.376 2.845-.542 4.292.186.568.492 1.089.897 1.528.182.278.306.591.362.919.107.548.134 1.109.08 1.664.108-.434.275-1.078.571-.079 1.014 7.657 3.655 15.199 6.942 22.35 3.285 7.151 7.194 14.049 10.921 21.07-.846-2.02 0-.876.949.441-.522-.926.484-.325.63-.723l1.635 2.895c.565.948 1.078 1.932 1.687 2.851.723.174 1.889 1.491 2.996 2.765.498.601 1.04 1.165 1.621 1.687.5.441.912.723 1.187.723l-1.534-1.396c1.324.651 1.056-.42.666-1.73-.391-1.31-.869-2.895-.246-3.171a5.827 5.827 0 0 1-1.86-1.787c-.543-.796-1.014-1.752-1.55-2.729a38.53 38.53 0 0 0-.839-1.484l-.608-.962c.55.687 1.158 1.368 1.788 2.012 1.114 1.158 2.171 2.294 2.895 3.148.724.854 1.064 1.527.666 1.853.774.847 1.512 1.723 2.309 2.548l2.41 2.446h-.275a20.507 20.507 0 0 0 3.56 3.243c.75.53 1.552.979 2.397 1.339.666.767 0 .427-.152.449 2.287 2.243 3.546 3.495 4.914 4.4a29.752 29.752 0 0 0 5.16 2.794l.066.869c.637.338 1.23.753 1.766 1.237.803.659 1.86 1.448 3.025 2.324a79.41 79.41 0 0 0 1.853 1.353c.644.456 1.36.861 2.063 1.281.702.42 1.447.825 2.171 1.202.725.362 1.472.679 2.237.948-.087.036-.268.094-.724-.051 3.315 1.31 6.941 3.539 10.285 5.146.832.398 1.643.775 2.417 1.1.384.167.724.319 1.122.449.398.13.724.225 1.072.311 1.375.355 2.518.427 3.315.058l1.15.232 1.158.181 2.316.347c-5.703-1.816 1.144-.774-1.1-1.831 1.155.278 2.267.709 3.308 1.281.782.406.919.724-.485.413l-.405-.239c-1.375 1.035 7.115 2.171 6.803 2.895a150.715 150.715 0 0 0 17.371 2.345l4.343.239h5.407c-2.302.601-.616 2.171 1.672 3.018.058-.253.05-.405 2.605-1.042-.941-.116-5.79-.181-3.662-.818a12.499 12.499 0 0 1 2.895-.239c.532.122 1.071.206 1.614.254-.724-.247.311-.616 1.448-1.035 1.136-.42 2.294-.963 1.86-1.376-.543.174-1.093.312-1.643.442a23.46 23.46 0 0 1-.804-.5c1.281-.101 2.563-.275 3.844-.412 1.035.101 1.447.593-1.296.905a5.744 5.744 0 0 0 2.859-.413 4.62 4.62 0 0 0 1.723-.912c1.679-.174 2.128-.094 2.005.087l-1.578.21.499.354c-.897.362-1.918.724-1.194.579l2.229-.47h-.521c.869-.362 1.325-.651 1.969-.919a9.672 9.672 0 0 1 1.187-.398 22.624 22.624 0 0 1 1.918-.485c2.091-.282 1.194.347 2.012.202 0 .073.297.037 1.252-.26 1.592-.384 3.17-.832 4.755-1.245l-1.223-.123c.355-.123.557-.217.514-.275l-.941.232-.456-.044c.865-.38 1.749-.713 2.649-.999l.159-.072c0 .043.102.065.261.058l1.751-.767c1.861-.073-3.097 2.033-.723 1.447a40.657 40.657 0 0 1-3.75 1.94c-.723.311-1.447.615-2.207.89-.837.249-1.688.45-2.548.601l-.955-.586c.13.21 2.432-.138 3.351-.659-.68.384-2.114.47-3.518.659-.681.079-1.356.207-2.019.383a3.13 3.13 0 0 0-1.491.724h2.627a88.226 88.226 0 0 1-4.038 1.715 18.88 18.88 0 0 1-2.273.724c-.793.191-1.598.324-2.41.398 1.614.55.723-.21 3.199.326-2.208-.724 8.229-1.766 4.77-2.273a8.863 8.863 0 0 0 3.43-.123 25.133 25.133 0 0 1 3.952-.477c-.173-.232-1.216-.16 1.448-.876a3.4 3.4 0 0 1 .499-.413l.181-.036h-.152c.101-.072.109-.087-.058 0a4.339 4.339 0 0 1-1.447 0 14.78 14.78 0 0 1 3.192-1.665c1.31-.615 2.641-1.201 3.271-1.607 1.563-.448-.521.529.413.493l.941-.616.919-.658c.427.478 4.342-.796.977 1.064l3.199-1.361a21.221 21.221 0 0 0 3.221-1.187 15.576 15.576 0 0 0 2.801-1.534c1.505-.688 3.293-2.606 2.28-1.499.76-.499 1.527-.984 2.28-1.498l2.207-1.599.123.101c2.331-1.339 4.423-3.192 6.688-4.915a58.198 58.198 0 0 1 7.187-5.218 88.959 88.959 0 0 1 2.056-2.048c.774-.746 1.628-1.614 2.779-2.592h.796c.804-.846 2.078-2.033 3.236-3.119 1.158-1.086 2.171-2.085 2.272-2.664a7.511 7.511 0 0 0 2.382-1.773c.441-.441.904-.941 1.375-1.447.47-.507.905-1.151 1.361-1.759.89-1.231 1.838-2.49 2.627-3.706.789-1.216 1.527-2.309 2.171-3.12l-.477-.513.246-.348.789-.63c.223-.379.352-.805.376-1.244.268-.464.536-.92.803-1.405l.507-.941.275-.253-.203.116.5-.919c.26-.529.521-1.086.782-1.665a83.194 83.194 0 0 0 9.358-18.551c2.758-7.404 4.835-14.989 7.158-22.575-.825 2.02-.622.616-.354-.984-.29 1.021-.572-.116-.927.044l.862-3.171c.238-1.056.571-2.113.788-3.192Zm-53.639 83.952c.079-.238.434-.615 1.223-1.136-.138.101-.282.21-.434.333-.275.29-.572.572-.789.811v-.008ZM38.223 114.57c-.002 6.502.589 12.989 1.766 19.383-.312-.217-.456 3.301-1.26-.463a29.09 29.09 0 0 0-.304-2.439c-.13-.775-.217-1.527-.376-2.295-.304-1.541-.767-3.148-1.151-5.218.108-2.461.557.384.724-.507l-.847-2.113c0-.529.203-.369.311-.29-.362-1.809-.876-.101-1.194-2.982-.47-.376-.21-1.882.145-3.705.212-.955.364-1.922.456-2.896a10.43 10.43 0 0 0-.16-2.895c.312-.861.5.456.847.203-.166-2.446-.217-3.503-.304-4.451-.087-.949-.137-1.788-.362-3.858.326-1.115.652-2.222 1.064-3.315-1.085 2.381-1.274-.905-1.39-3.865-.47.832-.875 1.556-1.092 2.048l.116-1.447c.383-.645.977-2.244.933-.782 0-.116 0-.224.036-.333v.528l.268-.47-.18-.818a27.1 27.1 0 0 1 .13-.84c.08-.484.13-.868.173-1.187.391-.369.601.406.76 1.354l-.89 1.462c.318 1.216.724 2.352 1.238 2.215-.052-.498-.052-1 0-1.498.087.318.18.52.29.405.108-.116 0-.637-.051-1.397l1.172-.796-.318-.326.955-2.787c.304-.933.724-1.83 1.064-2.743.05-1.07.065-2.128.094-3.206.029-1.078.145-2.171.26-3.337.059-.586.13-1.194.218-1.824.087-.63.246-1.266.39-1.94.145-.672.334-1.375.543-2.113.21-.738.391-1.375.666-2.092l.08-.137c0 1.694.92.724 1.643 1.122-.782.658-1.144 1.918-1.535 3.38l-.593 2.323c-.181.832-.423 1.65-.724 2.447.666-1.68.912-1.173.898-.724.354-2.041.926-4.017 1.447-6.044.29.196.529-.058.804-.535.275-.478.63-1.151 1.085-1.824-.868.282-.6-.854 0-2.382.145-.383.304-.788.47-1.194l.565-1.216c.342-.706.644-1.431.905-2.171.47.072.608.825-.883 3.496a5.29 5.29 0 0 0 1.491-3.576 5.147 5.147 0 0 1 1.491-3.554c-.362.66-.63.977-.572 1.347a14.475 14.475 0 0 1 1.65-3.156c.66-.963 1.282-1.542 1.166-1.02l-.398.636c.723-1.027 1.57-2.33 2.453-3.734.883-1.404 1.933-2.823 2.801-4.206.869-1.382 1.76-2.59 2.316-3.619.102-.188.196-.361.283-.528.172-.292.326-.594.463-.905l.326.608.159-.29c.097.26.163.53.195.804.203-.69.41-1.385.623-2.084.195-.256.408-.498.637-.724l-.724 1.94a8.633 8.633 0 0 1 1.665-2.012v1.1a7.115 7.115 0 0 1 .832-1.788 24.527 24.527 0 0 0 3.619-3.112c-1.867 1.78-2.367 2.063-2.533 1.932l.376-.311-.507-.043c-.05-.167-.166-.276-.571-.051h-.167c.407-.527.85-1.025 1.325-1.491.29-.29.557-.529.803-.724.174.463.036 1.136-.724 2.222a19.476 19.476 0 0 0 1.542-1.382c.579-.58 1.194-1.332 1.983-2.288a9.202 9.202 0 0 0 1.498-.723 20.023 20.023 0 0 0 3.207-2.454c-.941.789-3.09 2.1-2.07.847a24.827 24.827 0 0 1 2.077-1.383 11.871 11.871 0 0 1 1.875-.897c4.132-3.373-1.05 0 .506-1.73a3.497 3.497 0 0 0 2.027-1.447h.043l.232-.297c.282-.246.767-.623 1.317-1.035l.384-.268.152.21a23.984 23.984 0 0 0 1.541-.999c.307-.193.597-.411.869-.651.259-.209.438-.5.507-.825.101-.456.152-.862 2.641-2.114l-1.512 2.012 1.136-.847c.058.102.239.174.572.232l.507-.268v.116l.52-.427c.14-.09.27-.191.392-.304a17.497 17.497 0 0 1 3.438-2.084c.513-.247 1.114-.471 1.816-.768-.724-.08-.355-.883 1.187-1.86.536-.087.463.058 1.824-.644.109.116-.21.37.804-.065a7.638 7.638 0 0 1-1.535 1.122l-.405.08a.607.607 0 0 1-.073.159l-.275.152.246-.116c-.213.252-.4.526-.557.818h.102a106.288 106.288 0 0 0-55.898 93.556Zm.608-27.554a5.589 5.589 0 0 1-.724 2.526 9.95 9.95 0 0 1 .687-2.52l.037-.006Zm-4.705 43.079c-.08-.644-.188-1.295-.268-1.954.226.628.307 1.298.239 1.962l.029-.008Zm.724 9.062a5.788 5.788 0 0 1-.044-2.171c.03-.161.076-.319.138-.471.122.894.122 1.8 0 2.693l-.094-.051Zm9.228 13.752a1.851 1.851 0 0 1-.912-1.085 17.06 17.06 0 0 1-.29-1.687c.196.362.522.89.775 1.448.265.383.41.836.42 1.302l.007.022Zm-1.216-2.859a11.211 11.211 0 0 0-1.404-3.677c.615-.209 0-1.824-.637-3.894l.876-.079a8.374 8.374 0 0 0-1.006-1.925 7.407 7.407 0 0 1-.89-1.231c-.493-2.475 0-3.177.434-3.865.608 3.069 1.346 6.09 2.214 9.062.051.282.138.622.247 1.071v-.297c.371 1.24.764 2.473 1.18 3.699 0 1.549-.153 2.852-1.021 1.115l.007.021ZM68.918 37.516a1.773 1.773 0 0 1-.405.152l.405-.152Zm26.845-17.805a4.1 4.1 0 0 1-.593.174l1.68-.782c-.08.065-.167.137-.261.202a3.439 3.439 0 0 1-.826.406Zm-8.084.362.304-.087c-.295.187-.6.358-.912.514.188-.145.39-.287.608-.427Zm11.493-1.68 1.361-.86h.087l.152-.095 2.446-1.404c.804-.072.442.26-.05.63-1.361.506-2.7 1.107-3.996 1.73Zm6.992-3.264a3.048 3.048 0 0 0-.087.297c-.815.314-1.626.64-2.431.977.791-.51 1.632-.936 2.511-1.274h.007Zm143.882 114.547a.468.468 0 0 0-.261-.341c0-.195.058-.39.08-.593l.181.934Zm-1.737 9.749c.156.754.25 1.518.282 2.287a9.9 9.9 0 0 1-.434 3.199c-.094-.506-.789-1.302-1.499-.81a88.236 88.236 0 0 0 1.448-5.718c.087.318.152.666.203 1.042Zm-1.991 7.694c.229.77.413 1.553.55 2.345l-.767 1.889c-.282.724-.644 1.397-.984 2.171l-.131.283c0-.883-.065-1.766-.072-2.599v-1.585c.398-1.136.775-2.272 1.136-3.423.073.224.167.535.268.89v.029Zm-3.539 11.436c-.051.231-.109.463-.174.724a32.27 32.27 0 0 1-.354 1.107c-.138.181-.275.362-.427.579-.011.144.006.289.05.427-.174.434-.354.876-.564 1.31-.724.869-1.006-.861-1.281-1.404l.477-.992c0 .102.065.174.152.181.145-.449.268-.897.398-1.353a110.194 110.194 0 0 0 2.078-4.813c.054.616.054 1.236 0 1.852-.062.712-.161 1.42-.297 2.121l-.174.333.116-.072Zm-4.408 5.978c.483-.917.965-1.841 1.448-2.772-.157.66-.367 1.307-.63 1.933a9.908 9.908 0 0 1-1.129 2.251l.311-1.412Zm12.015-40.532c.233.535.325 1.121.268 1.701-.058-.094-.217-.123-.406-.145.044-.557.102-1.078.145-1.599l-.007.043Zm.362-6.145v-.34c.02.066.032.134.036.203l-.036.137Zm-13.166 48.132c-.13.442-.239.89-.362 1.339a8.104 8.104 0 0 1-2.012 3.619 9.186 9.186 0 0 1-1.534 1.6l-.044.036c1.4-2.181 2.719-4.394 3.959-6.637l-.007.043Zm15.511-50.665c-.55-.413-1.448.297-2.309.369V111.965l.043-.044-.05-.05c0-.522-.036-1.035-.058-1.557a75.244 75.244 0 0 1 2.381 4.973l-.007.036Zm-9.04-38.694a3.122 3.122 0 0 0-.377-.34 61.657 61.657 0 0 0-.723-1.802c.408.68.778 1.384 1.107 2.106l-.007.036Zm-9.952-20.99c.514.587.955 1.216 1.447 1.825.181.55-.325.31-1.027-.13.224.224.441.44.622.607.311.81.224 1.071-.065 1.042a83.31 83.31 0 0 0-1.375-2.17l.818.527c-.384-.369-.782-.81-1.253-1.23v.08l-.101-.152.08.072c-.261-.92-.485-1.723-.673-2.23l1.527 1.76Zm-52.54-48.493h-.094c-1.73-.898-1.115-.58.065-.036l.029.036ZM161.91 4.25c1.115 0 2.36.036 3.692.144 2.106.21 2.497.565 2.482.724-.014.16-.47.319-.094.319 1.444.392 2.918.659 4.408.796.903.107 1.812.156 2.721.145.827-.014 1.654.051 2.469.195a15.04 15.04 0 0 1 3.524 1.31c2.237 1.52-.369 1.397 0 2.077a20.732 20.732 0 0 1-3.908-1.447 23.7 23.7 0 0 0-3.134-1.209l2.627 1.108a15.314 15.314 0 0 1-4.458-1.043c.924.474 1.894.852 2.895 1.13l2.258.723 2.555.89c.89.312 1.81.616 2.722.963l2.685 1.107c.876.384 1.744.724 2.519 1.13l.817.427c-1.035-.304-2.106-.637-3.112-1.028-.55-.217-1.078-.442-1.57-.724a10.049 10.049 0 0 1-1.361-.724c.658.623 1.288 1.245-.586.818a17.139 17.139 0 0 1-2.302-1.013l-1.274-.652-1.332-.608c-1.787-.781-3.582-1.512-5.023-1.28-.333-.189-.441-.32-.434-.406a59.577 59.577 0 0 1-2.085-.347c-.796-.145-1.664-.319-2.518-.406a16.577 16.577 0 0 0-4.003-.202 1.58 1.58 0 0 0-.478-.5l.768.044c-.261-.45-1.491-.768-2.946-.84h-.188a26.02 26.02 0 0 0-3.757-.413 5.354 5.354 0 0 1 2.468-.89 19.552 19.552 0 0 1 2.961-.354l-.008.036Zm-11.493.506a84.76 84.76 0 0 0 3.387.326c.28.121.567.223.861.304a59.81 59.81 0 0 1-3.344-.174c-.904-.08-1.447-.224-1.701-.528l.797.072Zm-10.51-1.165c-.072.123.044.253.21.37h-.101c-.672.042-1.341.119-2.005.23-.471.088-.869.182-1.238.276a11.536 11.536 0 0 1 3.141-.912l-.007.036Zm-22.589 1.933c.21 0 1.795-.123 3.481-.203.42 0 .854-.043 1.274-.05h1.209c.581.008 1.161.054 1.737.137.149.026.29.085.412.174-.723.231-1.541.513-2.518.897l-.659-.572a3.687 3.687 0 0 1-.854.21l-.21-.724-.181.775-.883.101c-.89.087-1.99.246-3.206.42a1.555 1.555 0 0 1 .398-1.165Zm-15.923 5.45-.985.296a27.564 27.564 0 0 1 1.542-.89l-.557.594ZM44.013 58.708l.557-.564c-.73 1.57-.615 1.071-.557.564Zm4.024 114.959.282.196-.687-1.187c.296.42.6.847.926 1.252a16.517 16.517 0 0 0 2.685 2.967c-.077.374-.041.762.102 1.115-1.187-.709-2.041-1.94-3.272-4.343h-.036Zm2.526 4.51c-.347-.905.593.188.767 0 .199.482.441.944.724 1.382a9.906 9.906 0 0 0-1.455-1.382h-.036Zm8.49.195c-.724-.76-1.317-1.216-1.744-1.028l-.724-1.722c.29.441.427.448.724.883-1.354-3.395-2.613-1.448-4.922-5.479-.724-1.448-1.028-2.577-.304-1.73l-2.171-2.895c-.478-.934-.08-.855.405.065-.941-1.571-1.766-3.199-2.656-4.792h.065a26.275 26.275 0 0 1-2.266-2.707c-.34-1.382.47.565.529.138-.543-.869-1.13-1.73-1.65-2.613 0-.673.325-.456.723.159.58.806 1.066 1.675 1.448 2.591a3.312 3.312 0 0 0-.724-3.047 12.546 12.546 0 0 1-1.99-5.146c.383.869.832 1.715 1.245 2.577.08-.518.08-1.046 0-1.564a106.23 106.23 0 0 0 18.398 31.232 23.223 23.223 0 0 1-1.853-2.099 36.987 36.987 0 0 0-2.49-2.823h-.043Zm10.857 13.947c-1.556-1.274-1.687-1.672-1.52-1.91.166-.239.593-.275.21-.869a34.796 34.796 0 0 1-3.286-2.273 14.32 14.32 0 0 1-3.322-3.988c.933.804 1.447 1.614 2.243 2.425l-1.447-2.446c.543.376 1.028.723 1.447 1.1a107.01 107.01 0 0 0 7.709 7.903c-.825-.304 1.744 3.171-1.998.058h-.036Zm19.043 13.318a53.183 53.183 0 0 1-2.62-1.317 12.694 12.694 0 0 1-2.432-1.65 4.422 4.422 0 0 1-1.325-.601 55.922 55.922 0 0 1-2.084-1.679c-.674-.565-1.303-1.195-1.984-1.781a43.868 43.868 0 0 0-2.17-1.744 24.03 24.03 0 0 0-2.512-1.759c-.348-.673-.724-1.325-1.035-2.005a106.718 106.718 0 0 0 11.58 9.163c-.239 0-.094.282-.282.377.383.079.767.159 1.158.224a106.966 106.966 0 0 0 6.022 3.764c-.702-.333-1.477-.652-2.28-.999l-.036.007Zm62.629 22.256a10.99 10.99 0 0 1-1.73-.086h.724l2.121-.116.644-.036c-.567.127-1.143.207-1.723.238h-.036Zm19.166-3.394c1.643-.572 1.216-.297.789 0h-.789Zm2.207-5.523c-.463.051-.97.123-1.512.232-.543.109-1.151.195-1.795.347.521-.115.528-.224 1.049-.332-.993.111-1.966.355-2.895.723-.508.172-1.025.317-1.549.435a8.034 8.034 0 0 1-1.759.101c-1.201 1.064-3.134.514-3.358 1.636l4.806-1.108c-1.346.384-2.606.999-4.133 1.542-1.82.616-3.732.915-5.653.883a13.07 13.07 0 0 1 2.584-.992 6.285 6.285 0 0 0-1.969.196 5.213 5.213 0 0 1-2.004.152c.072-.283.484-.435 1.092-.601.767-.18 1.542-.318 2.324-.413.897-.13 1.874-.253 2.801-.434a12.984 12.984 0 0 0 2.49-.81c-.724-.109-2.085.361-3.098.6s-1.679.333-1.021-.333c-.955.862-2.28.985-3.771 1.086a13.45 13.45 0 0 0-4.95.724l.202-.659c-.903.288-1.84.455-2.786.5l1.86-.876c-2.895.767-5.609-.427-8.374-.174 2.895.072 3.235.253 3.141.507-.094.253-.615.586.63.789-.755.116-1.517.169-2.28.159a10.366 10.366 0 0 1-1.564-.109 6.772 6.772 0 0 1-1.961-.629 12.566 12.566 0 0 0-2.085-.818 20 20 0 0 0-3.988-.529c1.224.109 3.663.724 2.056.862a24.923 24.923 0 0 1-2.439-.485 11.874 11.874 0 0 1-1.955-.688c-5.298-.535.724.724-1.577.861-1.701-.969-2.642-.086-5.023-.246l.101-.644a18.359 18.359 0 0 0-1.795-.383 6.578 6.578 0 0 0-1.071-.152 1.445 1.445 0 0 0-.941.224c-.391.246-.724.499-3.359-.369l2.49-.355c-.948-.152-1.903-.253-2.844-.441.253-.188.499-.362.724-.565a19.44 19.44 0 0 1-3.554-.601c-.485-.137-.97-.289-1.506-.477-.535-.188-1.114-.456-1.824-.724.529.666-.723.999-3.336.137-1.614-.998 1.172-.188-2.447-1.505a5.8 5.8 0 0 1 1.535 0c.301.059.593.159.868.297.351.159.679.364.977.608.232-.145.941-.116 1.18-.254-1.744-.998-4.61-1.824-5.906-2.316.465.201.911.443 1.332.724-.912-.203-1.831-.391-2.743-.608l-2.715-.724c-.723-.586 0-.477.724-.369-1.042-.412-1.903-.412-3.409-1.114.615-.29.724-.782 2.975-.066-1.687-.506-3.315-1.165-4.972-1.787a9.597 9.597 0 0 0-1.043-1.014c-.383-.34-.637-.673-.42-.651a106.398 106.398 0 0 0 139.409-34.322 3.405 3.405 0 0 1 1.896-.311l.044.89a5.778 5.778 0 0 1-1.499 1.563c-.427.29-.723.377-.904.312.337-.487.646-.992.926-1.513a20.056 20.056 0 0 0-2.656 3.539l-.333.514a7.335 7.335 0 0 0-.724.84c.188-.21.34-.369.492-.507a14.343 14.343 0 0 1-1.324 1.788c.622-.666 1.266-1.325 1.882-2.012a49.094 49.094 0 0 1-1.108 1.549 3.856 3.856 0 0 0-.904 1.15v.037c-.543.723-1.072 1.447-1.68 2.171-1.382 1.592-2.743 3.271-4.256 4.799l-2.171 2.345c-.724.723-1.505 1.491-2.236 2.229-1.448 1.52-2.896 2.895-4.198 4.285l.629-.145c-.506.528-.933.97-1.331 1.339-.398.369-.724.644-1.072.898-.532.416-1.085.805-1.657 1.165-.528.326-1.05.687-1.788 1.165a39.316 39.316 0 0 0-2.895 2.092l.145-.196a15.808 15.808 0 0 1-3.706 2.953c1.158-1.165-2.895 1.05-1.339-.419-.608.492-1.122.868-1.549 1.172-.427.304-.724.55-1.006.724a6.049 6.049 0 0 0-.934.832c-.173.21-.289.398-.542.724-.434.551-.919 1.06-1.448 1.52h-1.115c-.403.439-.828.857-1.274 1.252a12.681 12.681 0 0 1-2.612 1.585c2.171-1.447-2.172.145.246-1.57a23.48 23.48 0 0 0-4.133 1.527 53.815 53.815 0 0 0-3.076 1.505c-.797.456-1.635.834-2.505 1.129a5.43 5.43 0 0 1-2.439.196c-1.223 1.143.196.868 1.745.405 1.549-.463 3.17-1.223 2.432-.724.723-.05.253.42-.724.992a17.206 17.206 0 0 1-3.402 1.397 9.134 9.134 0 0 1-3.416.137 16.037 16.037 0 0 0-2.411.022l-.036.007Zm5.067 2.838a3.689 3.689 0 0 0-.927-.152 5.75 5.75 0 0 0 1.18-.044 2.543 2.543 0 0 0-.231.196h-.022Zm12.97-1.969.065-.072c1.86-.623 1.202-.413-.043.065l-.022.007Zm10.973-8.128c-.123-.159.108-.557-.16-.297a25.865 25.865 0 0 0-3.691 2.555 21.1 21.1 0 0 0-2.027 1.824 12.932 12.932 0 0 1-1.889 1.607 15.094 15.094 0 0 1-3.43 1.57c-1.962.37-1.448-.485-1.318-1.042l.797-.362 2.612-1.194a32.353 32.353 0 0 1 3.236-1.484c.608-.47 1.23-.912 1.874-1.324.644-.413 1.274-.876 1.947-1.296 1.339-.847 2.816-1.628 4.343-2.627a.929.929 0 0 1-.385.11.929.929 0 0 1-.397-.06l1.788-1.447c.123.246.413.282.818.181.2-.056.396-.127.586-.21-.724.724-1.534 1.448-2.439 2.236-1.599 1.347-2.128 1.39-2.244 1.253l-.021.007Z"/><path fill="#9BCD8F" d="M38.092 94.333a.613.613 0 0 1-.412.282c.05.333.173.362.412-.282ZM83.821 202.583l.102.08a.302.302 0 0 0 .173 0l-.275-.08ZM204.302 16.96a27.966 27.966 0 0 0-2.027-1.027 7.293 7.293 0 0 1 1.875 1.353c.029-.13-.181-.456.152-.326ZM204.303 16.96l.26.137c-.082-.053-.17-.099-.26-.137ZM219.502 33.499c.319.188.558.52.876.723l.138-.29c-1.137-1.063-2.07-1.628-1.014-.433ZM207.111 21.701l1.079.666c-.087-.058-.174-.116-.254-.18.427-.167.225-.471-.296-.84-.72-.438-1.47-.825-2.244-1.159-.065.283.261.601.789.949.26.18.579.369.926.564ZM208.529 22.592c.456.29.912.6 1.332.934.348-.138-.499-.442-1.332-.934ZM189.994 10.302c.723.477.767-.42 1.114 0 .579-.123-.803-.514-1.773-.673-.478-.087-.869-.087-.854 0 .014.086.427.275 1.513.673ZM204.324 21.499l1.267.97-.152-.905-1.115-.065ZM193.975 15.18l2.388 1.448c0-.116.362 0 .775.137-1.52-.818-3.134-1.831-3.163-1.585ZM199.135 17.757a19.27 19.27 0 0 0-2.005-1.006c.639.39 1.31.727 2.005 1.006ZM202.298 20.594c-.203-.188-.405-.376-.615-.557l-1.672-1.014c.76.529 1.556.977 2.287 1.571ZM164.328 5.684c.723 0 1.867.08 1.447-.225l-3.025-.34c-.34.174.448.463 1.578.565ZM258.138 121.128c.174-.782.254-1.571.384-2.359l-.5 1.512c.051.283.073.565.116.847ZM258.16 116.018l-.724-1.448a5.402 5.402 0 0 1-.13 1.962l.854-.514ZM53.871 172.032l.405-.789-.26-.449-.145 1.238ZM61.058 198.631c-.724-.767-.854-.101-1.042-.138 1.368 1.137 1.107 0 1.042.138ZM74.745 208.872l2.418.999-2.034-1.006-.384.007ZM85.63 215.227a19.889 19.889 0 0 1-4.24-2.374l-.283-.434h-1.52c.76.441 1.592.89 2.432 1.346.84.456 1.694.934 2.555 1.325a35.19 35.19 0 0 1 4.27 2.33c-.449-.825-1.73-1.505-3.213-2.193ZM94.287 222.284c.326.137.775.333 1.528.724-.348-.565 1.867.455-1.832-.927.167.087.21.13.304.203ZM94.287 222.284c-1.6-.666.912.724 0 0ZM101.778 225.085l-2.25-.492c.368.376 2.258 1.143 1.49 1.028 2.266.658 1.882.275.76-.536ZM104.037 225.151a15.713 15.713 0 0 1-1.158-.254c.166.167.441.312 1.158.254Z"/><path fill="#9BCD8F" d="M101.778 224.6c.29-.195-.268-.108-1.332-.296l2.439.6c-.246-.267-.181-.571-1.107-.304ZM98.832 222.812c-2.02-.723-2.938-.969-2.895-.723.036.108.333.318.869.6.751.398 1.536.73 2.345.992a9.872 9.872 0 0 1-1.448-.876c-.174-.231.007-.246 1.13.007ZM87.288 215.423c.563.26 1.099.575 1.6.941.593.369 1.121.651 1.143.499-.456-.326-.912-.651-1.346-1.013l-1.397-.427ZM115.263 229.594c.188-.166-.63-.723-.724-.991-.565 0-1.122-.109-1.686-.181.788.391 2.366.847 2.41 1.172Z"/><path fill="#9BCD8F" d="m114.531 228.603 2.526.195c-2.171-.521-2.605-.441-2.526-.195ZM103.74 224.108l-1.02-.188-2.041-.376c1.614.34 3.213.724 4.842.926l-.724-.231-1.057-.131ZM123.26 231.642l1.317-.144 1.317-.203-1.143.108c-.5.095-.992.16-1.491.239ZM131.12 232.069c-1.093.319 1.397.768.254.927a21.808 21.808 0 0 0 4.617-.406 15.91 15.91 0 0 1-4.871-.521ZM138.257 232.179c-.724.079-1.447.231-2.258.391a13.485 13.485 0 0 0 2.258-.391ZM121.227 229.718a3.553 3.553 0 0 0 1.852.905l-.897-.724-.955-.181ZM120.98 229.674l.247.044c-.08-.073-.138-.102-.247-.044ZM112.642 225.946c-1.107.109.449.818-1.802.724 1.505.065 4.509.514 1.802-.724ZM117.05 228.567c.955.065 1.903.159 2.895.188-.861-.188-1.708-.449-2.562-.673-.015.167.405.485-.333.485ZM119.909 228.762l.963.21.347-.174-1.31-.036ZM132.98 230.897c-.224.167-.904.442.724.543a12.228 12.228 0 0 1 1.824-.108h2.02c-.724-.087-1.528-.116-2.295-.203-.767-.087-1.534-.181-2.273-.232ZM128.081 230.767h.261c-.152-.065-.275-.101-.261 0ZM151.503 230.912l-.232-.087a.916.916 0 0 1-.043.102l.275-.015ZM132.735 230.767a6.216 6.216 0 0 0-2.483 0c.854 0 1.766 0 2.729.094.094-.043.115-.094-.246-.094ZM142.173 231.954l-1.984-.318c.579.217 1.774.477 1.984.318ZM128.696 230.97h-.174c.37.173.333.108.174 0Z"/><path fill="#9BCD8F" d="M128.341 230.767c.13.054.253.122.369.202a10.942 10.942 0 0 0 1.542-.173 24.835 24.835 0 0 0-1.911-.029ZM146.277 231.114l-1.079.094c1.269.096 2.531.27 3.778.521 1.788-.391 2.172-.615 2.244-.803-1.773.087-3.539.239-5.312.275l.369-.087ZM140.349 231.288c.854-.528 3.416-.89 1.838-1.447a8.918 8.918 0 0 0-2.504.282 4.852 4.852 0 0 1-1.578.413c5.067 0-1.447.289 2.172.723a37.36 37.36 0 0 1-2.765.087 60.06 60.06 0 0 1 2.642.326l-.116-.036c-.217-.08-.29-.123-.044-.073h.109a.61.61 0 0 1 .231-.217c1.448.152.232.159-.231.217 0 0-.058.058-.065.087.854 0 1.715-.094 2.569-.166l2.562-.217c-1.056-.131-2.41-.029-4.82.021ZM115.545 225.389c.137.087.123.123.123.166.333 0 .463 0-.123-.166ZM115.255 226.178h.369a20.566 20.566 0 0 1 3.858 1.744 7.276 7.276 0 0 0-2.005-1.751 4.23 4.23 0 0 1-1.867-.145c-.963-.391.072-.268.058-.47-.724 0-2.533-.167-.413.622ZM119.475 227.923l.122.158c.079 0 .022-.064-.122-.158ZM128.877 229.174c1.404.102 2.815.08 4.22.087l-2.092-.658.08.311c-2.389-.333-1.89.05-2.208.26ZM151.502 231.823a30.75 30.75 0 0 0 2.374-1.129l-1.867.478-.507.651ZM157.401 230.991c.471-.167.941-.369 1.405-.557h-1.282l-.123.557ZM209.456 208.648a32.433 32.433 0 0 0 3.337-2.135c-1.723.912-3.228 1.44-3.337 2.135ZM172.847 8.036c-.767-.101-1.115-.065-1.129.065.767.101 1.23.116 1.129-.065ZM212.793 206.513a9.9 9.9 0 0 0 3.489-2.953c-.254.137-.478.296-.724.441a23.671 23.671 0 0 1-2.765 2.512ZM49.658 184.466c.404.59.854 1.146 1.346 1.665-.347-.384-.854-1.05-1.346-1.665ZM179.311 225.339c-1.101.427-.152.13 0 0ZM173.57 224.478a.782.782 0 0 1-.354.412c.181-.137.354-.275.354-.412ZM177.537 225.643c.442-.065.948-.167 1.491-.304-.246.043-.702.123-1.491.304ZM177.848 225.838l-.999.26c-.108.138.036.181.999-.26ZM179.311 225.338l1.527-.608c-.63.247-1.231.442-1.81.616.232-.044.333-.051.283-.008ZM167.925 228.972c.724-.21 1.448-.463 2.172-.724a7.286 7.286 0 0 1-2.287.369c.065.13.427.225.115.355ZM167.925 228.972l-.282.087c.096-.021.19-.05.282-.087ZM145.43 228.023c-.361.087-.767 0-1.121.116l.108.304c1.549-.065 2.613-.333 1.013-.42ZM162.446 228.219c.82-.202 1.625-.461 2.41-.775-.152-.246-.608-.238-1.231-.115a17.85 17.85 0 0 0-1.056.267l-1.238.29.304-.051c-.174.42.181.493.811.384ZM159.334 228.263c-.152.34.666-.044 1.599-.283-.528.109-1.071.218-1.599.283ZM182.777 223.544c-.846.166-.246.839-.774.803-.319.492.934-.202 1.737-.774.405-.282.68-.557.601-.615-.08-.058-.507.101-1.564.586ZM55.948 193.297c.434.68.934 1.295 1.404 1.94l-.723-1.448c-.232-.137-.45-.318-.68-.492ZM59.799 195.917l-.246 1.013 1.541.471a5.395 5.395 0 0 1-1.295-1.484Z"/><path stroke="#26274B" stroke-linecap="round" stroke-linejoin="round" stroke-width="3" d="M114.293 184.705s-24.117 10.263-24.609 12.898c-.492 2.635 50.767 9.641 51.317 11.269.55 1.629 0 10.314 0 10.314M172.254 184.705s24.116 10.263 24.608 12.898c.493 2.635-50.795 9.641-51.294 11.269-.5 1.629 0 10.314 0 10.314"/><path fill="#FBC9BE" d="M85.269 90.106s-12.667-2.895-19.73 7.057a23.707 23.707 0 0 0-3.743 19.955s-10.205 7.05-9.822 19.702c.384 12.651 2.896 14.845 2.896 14.845s-.623 13.136 8.721 21.894 18.898 2.432 18.898 2.432 4.777 5.356 10.59 5.841c5.811.485 11.63-2.171 13.708-4.625 0 0 2.49 6.08 8.721 7.296 6.232 1.216 11.842-3.619 11.842-3.619s12.463 14.114 30.319 1.216c0 0 12.666 10.22 23.885.97 0 0 7.889 5.356 14.121-2.432 0 0 11.219 4.379 17.241-6.811 0 0 15.365 3.409 12.876-21.41 0 0 5.399-10.82 2.077-20.859-3.322-10.039-8.932-12.963-8.932-12.963s.21-12.652-11.008-18.732c0 0-5.61-2.895-11.842-.97 0 0-1.447-13.629-13.918-20.44-12.471-6.81-21.185 0-21.185 0s-9.142-15.814-25.333-7.056c0 0-5.79 3.163-8.309 7.057 0 0-9.966-7.057-18.485 0 .05-.03-16.56-7.325-23.588 11.653Z"/><path fill="#EFACA0" d="M182.394 78.525A88.212 88.212 0 0 0 172 86.588c-7.166 6.384-13.875 14.129-17.436 23.162-3.105 7.853-3.192 17.841 3.959 23.617 8.186 6.615 21.106 3.792 30.095.557 11.45-4.118 21.222-11.146 29.878-19.542-.89-4.242-3.409-10.727-10.517-14.577 0 0-5.609-2.895-11.841-.97 0 .058-1.44-13.463-13.744-20.31ZM121.849 172.48c-2.649-6.854-5.791-15.076-11.784-19.766a9.612 9.612 0 0 0-8.613-1.991c-4.176 1.151-7.91 4.647-10.22 8.179-1.143 1.752-2.17 3.872-4.24 4.712-2.172.912-4.77.253-6.703-.97-2.613-1.65-4.676-4.002-8.041-3.619a6.918 6.918 0 0 0-5.14 3.018c-2.28 3.504-1.758 8.44-1.005 12.305.087.444.18.888.282 1.332 8.381 5.421 16.155.275 16.155.275s4.777 5.356 10.589 5.841c5.812.484 11.631-2.172 13.708-4.625 0 0 2.49 6.079 8.722 7.295 3.879.724 7.513-.839 9.706-2.171-1.093-3.257-2.164-6.587-3.416-9.815ZM100.968 90.519c3.857-.464 5.392-5.154 6.173-8.36.316-1.351.558-2.719.724-4.097-2.034-.665-6.861-1.838-11.797-.08-.883 5.574-.587 13.195 4.9 12.537ZM222.969 158.019c-6.941-1.072-20.411-2.237-22.582 6.919-1.361 5.747 2.605 11.233 6.362 15.2a14.273 14.273 0 0 0 6.217-6.319s12.666 2.808 13.137-15.243a47.582 47.582 0 0 0-3.134-.557ZM103.081 96.136a5.552 5.552 0 0 0 .507 4.342 5.077 5.077 0 0 0 2.323 1.716 9.75 9.75 0 0 0 7.962-.391 11.255 11.255 0 0 0 5.327-6.03 7 7 0 0 0 .449-4.016 5.958 5.958 0 0 0-3.279-3.865c-5.884-2.874-12.036 2.576-13.289 8.244Z"/><path fill="#EFACA0" d="M78.458 158.084a5.199 5.199 0 0 0 3.337 2.092 5.266 5.266 0 0 0 3.061-.927 6.918 6.918 0 0 0 2.968-3.054c.803-1.904.217-4.118-.789-5.921-1.788-3.213-6.724-6.644-10.242-3.619-3.177 2.765-.463 8.881 1.665 11.429ZM197.043 166.574c.181 2.063.796 4.111.558 6.167-.239 2.055-1.745 4.205-3.815 4.19a3.865 3.865 0 0 1-2.967-1.686 8.814 8.814 0 0 1-1.325-3.25 20.929 20.929 0 0 1 .08-10.379c.796-2.837 5.32-11.725 9.098-8.215 1.78 1.658.68 3.387-.051 5.233-1.042 2.613-1.831 5.059-1.578 7.94ZM146.53 144.021c2.895 1.874 7.158 2.779 9.619.333 2.323-2.302 1.701-6.283 0-9.091-1.701-2.808-4.191-5.066-5.566-8.056-2.041-4.4 1.831-11.392-1.744-14.533-3.576-3.142-6.848.89-8.418 4.031-4.683 9.446-3.235 21.316 6.109 27.316Z"/><path stroke="#D8958D" stroke-linecap="round" stroke-linejoin="round" d="M85.269 90.106s-12.667-2.895-19.73 7.057a23.707 23.707 0 0 0-3.743 19.955s-10.205 7.05-9.822 19.702c.384 12.651 2.896 14.845 2.896 14.845s-.623 13.136 8.721 21.894 18.898 2.432 18.898 2.432 4.777 5.356 10.59 5.841c5.811.485 11.63-2.171 13.708-4.625 0 0 2.49 6.08 8.721 7.296 6.232 1.216 11.842-3.619 11.842-3.619s12.463 14.114 30.319 1.216c0 0 12.666 10.22 23.885.97 0 0 7.889 5.356 14.121-2.432 0 0 11.219 4.379 17.241-6.811 0 0 15.365 3.409 12.876-21.41 0 0 5.399-10.82 2.077-20.859-3.322-10.039-8.932-12.963-8.932-12.963s.21-12.652-11.008-18.732c0 0-5.61-2.895-11.842-.97 0 0-1.447-13.629-13.918-20.44-12.471-6.81-21.185 0-21.185 0s-9.142-15.814-25.333-7.056c0 0-5.79 3.163-8.309 7.057 0 0-9.966-7.057-18.485 0 .05-.03-16.56-7.325-23.588 11.653Z"/><path stroke="#D8958D" stroke-linecap="round" stroke-linejoin="round" d="M85.27 90.106a46.432 46.432 0 0 0-1.448 16.061M127.394 78.425s-9.344 9.735-4.777 29.928"/><path stroke="#D8958D" stroke-linecap="round" stroke-linejoin="round" d="M115.35 113.947s5.399-9.242 14.54-3.619M105.383 84.026s.955-3.886 3.532-5.594M161.042 78.425s-6.854 5.84-8.722 18.731"/><path stroke="#D8958D" stroke-linecap="round" stroke-linejoin="round" d="M146.711 98.169s6.232-3.894 9.966 3.619M196.138 98.893s.833 12.651-6.854 17.03M82.533 175.998a22.497 22.497 0 0 1-3.532-7.788M61.768 117.118s5.63-2.808 11.233-.869M218.981 118.573s-.514 4.582-2.265 5.863M121.494 94.442s-23.784-5.327-22.908 19.542c.876 24.87 14.657 25.861 20.78 22.018M178.435 93.964s-9.627 5.92-10.061 19.991M216.723 155.189s-9.41-2.309-10.285-8.685c-.876-6.377 2.403-18.16-5.472-24.971s-12.029-5.971-16.408-2.895M195.726 180.616s-8.642-1.882-8.642-18.058M157.72 182.078a20.483 20.483 0 0 1-6.022-17.719c1.636-11.081 11.58-16.777 11.58-16.777M85.269 118.573s-21.236 5.943-6.232 29.01c0 0-1.448 16.176 19.542 19.469M136.296 162.225a22.438 22.438 0 0 0 1.505 10.408 34.169 34.169 0 0 0 5.161 8.757"/><path stroke="#D8958D" stroke-linecap="round" stroke-linejoin="round" d="M115.87 137.174a13.58 13.58 0 0 0 2.823 10.437 15.412 15.412 0 0 0-1.578 11.038 20.94 20.94 0 0 0 5.334 9.546c4.104 4.307 10.01 6.84 15.2 4.777M174.548 148.603a25.86 25.86 0 0 0 10.314 12.702 20.265 20.265 0 0 0 14.801 2.584"/><path stroke="#26274B" stroke-linecap="round" stroke-linejoin="round" stroke-width="3" d="M208.928 124.435s31.593 24.464 37.499 23.162c5.906-1.303 17.465-26.057 17.465-26.057s11.161-.383 13.752-9.887"/><path stroke="#26274B" stroke-linecap="round" stroke-linejoin="round" stroke-width="3" d="M267.186 120.469c6.42.123 8.294.043 13.136-4.169M267.186 120.469c3.061-3.141 5.833-6.514 6.572-11.979M263.552 111.009a3.26 3.26 0 0 1 2.04-.852 3.258 3.258 0 0 1 2.115.642 4.53 4.53 0 0 1 1.657 4.017 7.566 7.566 0 0 1-1.831 4.082 4.28 4.28 0 0 1-2.656 1.737c-1.766.196-3.533.543-5.024-.42a4.49 4.49 0 0 1-1.237-1.085 3.85 3.85 0 0 1-.644-1.658 4.22 4.22 0 0 1 .34-2.641 2.753 2.753 0 0 1 2.113-1.506M73.073 124.435s-31.594 24.464-37.5 23.162c-5.906-1.303-17.465-26.057-17.465-26.057s-11.16-.383-13.752-9.887"/><path stroke="#26274B" stroke-linecap="round" stroke-linejoin="round" stroke-width="3" d="M14.815 120.469c-6.42.123-8.294.043-13.136-4.169M14.815 120.469c-3.061-3.141-5.834-6.514-6.572-11.979M18.448 111.009a3.26 3.26 0 0 0-4.154-.21 4.531 4.531 0 0 0-1.65 4.017 7.57 7.57 0 0 0 1.83 4.082c.63.898 1.582 1.52 2.657 1.737 1.766.196 3.532.543 5.023-.42.47-.274.888-.633 1.23-1.056.341-.495.562-1.063.645-1.658a4.228 4.228 0 0 0-.34-2.642 2.762 2.762 0 0 0-2.114-1.541M105.383 122.228s-.622-12.666 4.647-12.847c5.269-.181 5.32 12.847 5.32 12.847M164.082 122.228s-.622-12.666 4.647-12.847c5.269-.181 5.32 12.847 5.32 12.847M122.362 129.697a52.031 52.031 0 0 0 36.971-.152"/><path fill="#DB7B65" d="M162.041 20.493c-11.653-8.686-18.862 11.87-18.862 11.87s-7.238-20.548-18.862-11.87c-12.399 9.235 18.999 36.754 18.999 36.754s31.123-27.519 18.725-36.754ZM180.889 61.148c-1.962-6.992-11.096-1.057-11.096-1.057s3.423-10.336-3.843-10.459c-7.73-.13-3.699 20.353-3.699 20.353s20.729-1.397 18.638-8.837ZM108.047 61.148c1.961-6.992 11.095-1.057 11.095-1.057s-3.423-10.336 3.844-10.459c7.73-.13 3.698 20.353 3.698 20.353s-20.729-1.397-18.637-8.837Z"/></svg>