<svg id="Layer_1" data-name="Layer 1" xmlns="http://www.w3.org/2000/svg" viewBox="0 0 432 432"><defs><style>.cls-1{fill:#9bcd8f;}</style></defs><title>LifeSync</title><path class="cls-1" d="M174.42,216.47c7.26,1.28,20.89,1.37,28.19,0,0-82.1,8.94-95.11-39.37-89.74a42,42,0,0,0,0,19.66C177.8,146.39,174.42,148.22,174.42,216.47Z"/><path class="cls-1" d="M255.62,216.47V146.08l21.62.31a45.88,45.88,0,0,0,0-20l-23.46.25c-4.35-21.38,4.34-25.66,25-20C283,102.19,285,94.09,284.86,88c-35.47-13.21-64.32-.86-58.17,38.52l-14.07-.19a48.63,48.63,0,0,0,0,20l15.54-.31v70.39A95.35,95.35,0,0,0,255.62,216.47Z"/><path class="cls-1" d="M357.58,208.92c-.81-5.33-3.35-12.57-7.61-16.71-30.34,13.08-38,2.26-39.44-11.61h46.93c21.53-75.33-93-80.1-73.65,8.91C293,231.45,342,220.13,357.58,208.92Zm-23.65-47.67H310.41C311.57,136.8,333.93,138.17,333.93,161.25Z"/><path class="cls-1" d="M67.05,225.13c0-30.29,91.33,21,91.33-33-33.91,0-37.21-.16-48.15.61,0-102,6.8-100.55-27.64-100.55l-1.23,1.23v98c-42.69,0-53,40.78-36.55,58.29C63.7,270,96.35,266.75,96.35,284.78c0,20.2-32.69,10.88-51.29.12-5.72,5-10.45,13.46-11.06,21.5,49.76,32.71,109.83,2,89.8-39.81C110.61,238.66,67.05,242,67.05,225.13Z"/><path class="cls-1" d="M190.32,227.28l-15.66,70c-8.88,0,3.46-90.53-45-67.87,22.6,83.53,19.2,88.94,39.74,88.94-4.15,15.22-12.11,21.54-34.64,14.5-3.86,4.5-6.24,14.11-5.65,20.08,64.76,24.29,68-45.37,88.39-122.9C214.63,225,196.06,225.74,190.32,227.28Z"/><path class="cls-1" d="M303.78,241c-6.42-16.13-25.36-23-47.79-4.12-3.67-12.11-22.34-14.3-26.78-9.64v89.93c7.83,1.38,21.6,1.23,28.19,0V257c5.34-5,16.28-9.26,19.47-3.25,4.77,8.22-2.55,50.15,4.92,60.31,5,6.7,20.48,5.78,29.42-1.53C301.28,299.43,311.23,259.15,303.78,241Z"/><path class="cls-1" d="M386.64,290.3c-32.77,23.52-42.6-12.78-33.05-38.51,2.67-7.08,19.23-15.84,19.23,15.3C386.23,270,398,268.16,398,254.43,398,230,370.58,219,348.31,227.1,303.7,243.11,316.4,342,381.72,316a43.06,43.06,0,0,0,15.54-10C396.09,300.7,391.43,293,386.64,290.3Z"/><path class="cls-1" d="M184.23,74.19c-24.09,0-30.78,29.38-14.51,40.49,8,5.49,23.23,4.49,30.52-6C210.3,94.12,201.91,74.19,184.23,74.19Zm-6.55,4.07c-9.7,14.84,11,21.8,6.81,31.9-1.76,4.27-7.13,6-13,2C159.89,104.25,161.31,83.36,177.68,78.26Z"/></svg>