<svg width="64" height="65" viewBox="0 0 64 65" fill="none" xmlns="http://www.w3.org/2000/svg">
<path d="M61.4921 32.3599C60.4671 30.7769 51.4431 16.7209 44.0431 14.4469C43.0811 14.1459 42.0081 13.9929 40.8521 13.9929C38.4011 13.9929 35.5361 14.6779 32.3361 16.0279L32.0011 16.1579H31.9991L31.6641 16.0279C28.4651 14.6779 25.6001 13.9929 23.1481 13.9929C21.9921 13.9929 20.9191 14.1459 19.9571 14.4479C12.5571 16.7219 3.53206 30.7779 2.50806 32.3609C1.74806 33.5349 1.87706 34.0849 2.65306 35.1629C3.56706 36.4309 4.34106 37.7919 5.10006 39.2749C8.15406 45.2359 11.6141 51.9929 31.9991 51.9929H32.0011C52.3861 51.9929 55.8461 45.2359 58.8991 39.2739C59.6601 37.7909 60.4331 36.4289 61.3471 35.1619C62.1221 34.0839 62.2521 33.5339 61.4921 32.3599ZM32.0011 49.6179C32.0001 49.6179 32.0001 49.6179 32.0011 49.6179H31.9991C10.5771 49.6179 9.53106 42.2499 5.99206 36.0199C7.43006 35.8729 8.89206 35.3899 10.4351 34.7209C16.1031 39.3539 22.6711 37.0699 31.9981 37.0699H32.0011C41.3281 37.0699 47.8961 39.3539 53.5641 34.7209C55.1071 35.3899 56.5691 35.8719 58.0071 36.0199C54.4691 42.2499 53.4231 49.6179 32.0011 49.6179ZM16.0631 32.0039C20.2661 29.9829 25.3811 27.9299 32.0001 27.9299C38.6181 27.9299 43.7341 29.9829 47.9381 32.0039H16.0631ZM58.8871 33.6999C53.2031 33.6999 45.6801 25.5539 32.0011 25.5539H31.9991C18.3201 25.5539 10.7971 33.6999 5.11306 33.6999C4.88406 33.6999 4.65606 33.6869 4.43106 33.6589C4.43106 33.6589 13.8061 18.8149 20.6201 16.7209C21.3551 16.4909 22.1961 16.3679 23.1471 16.3679C25.2001 16.3679 27.7601 16.9419 30.8311 18.2419C31.2141 18.3889 31.6061 18.5469 31.9981 18.7169H32.0001C32.3921 18.5469 32.7841 18.3889 33.1671 18.2419C36.2371 16.9419 38.7981 16.3679 40.8511 16.3679C41.8021 16.3679 42.6431 16.4909 43.3781 16.7209C50.1921 18.8159 59.5671 33.6589 59.5671 33.6589C59.3415 33.6867 59.1144 33.7004 58.8871 33.6999Z" fill="black"/>
<path d="M43.7148 45.6054C43.7148 51.8946 49.0598 55.9929 55.6531 55.9929L58.9999 55.9929V55.9929" stroke="black" stroke-linecap="round"/>
<path d="M55 60.9929L60 55.9929L55 50.9929" stroke="black" stroke-linecap="round"/>
<path d="M20.2852 45.6054C20.2852 51.8946 14.9402 55.9929 8.34692 55.9929L5.00009 55.9929V55.9929" stroke="black" stroke-linecap="round"/>
<path d="M9 60.9929L4 55.9929L9 50.9929" stroke="black" stroke-linecap="round"/>
</svg>
