<svg width="64" height="65" viewBox="0 0 64 65" fill="none" xmlns="http://www.w3.org/2000/svg">
<path d="M46.721 37.2879C46.451 35.8069 46.152 34.2699 45.859 32.7699C45.101 28.8869 44.318 24.8719 44.318 23.0099C44.317 9.16592 40.518 2.99292 31.998 2.99292C23.479 2.99292 19.68 9.16592 19.68 23.0109C19.68 24.8749 18.896 28.8939 18.137 32.7809C17.846 34.2769 17.547 35.8109 17.278 37.2889C11.529 37.7679 7 42.5499 7 48.3599C7 53.7629 12.273 58.3459 16.056 59.2539C16.463 59.3519 16.935 59.3999 17.501 59.3999C18.573 59.3999 20.006 59.2149 21.129 58.9889C24.146 61.5809 27.959 62.9929 31.998 62.9929C36.039 62.9929 39.852 61.5799 42.868 58.9879C43.992 59.2139 45.426 59.3989 46.499 59.3989C47.066 59.3989 47.538 59.3509 47.944 59.2529C51.726 58.3469 57 53.7639 57 48.3599C57 42.5499 52.469 37.7659 46.721 37.2879ZM47.423 57.0089C47.119 57.0708 46.8091 57.0986 46.499 57.0919C45.238 57.0919 43.484 56.7919 42.642 56.5719C43.503 56.1149 44.58 55.6409 45.737 55.3959C51.864 54.0899 49.204 51.2209 45.105 52.5279C41.887 53.5539 40.86 57.4569 40.8 57.6909C38.278 59.6351 35.1824 60.688 31.998 60.6849C28.8157 60.6883 25.7221 59.6368 23.201 57.6949C23.152 57.5019 22.131 53.5599 18.894 52.5279C14.796 51.2209 12.136 54.0909 18.263 55.3959C19.418 55.6409 20.495 56.1159 21.357 56.5719C20.517 56.7909 18.76 57.0919 17.501 57.0919C17.141 57.0919 16.82 57.0669 16.578 57.0089C13.848 56.3539 9.272 52.6679 9.272 48.3609C9.272 43.4999 13.282 39.5569 18.228 39.5569C18.55 39.5569 18.868 39.5749 19.18 39.6079C20.156 33.7379 21.951 26.1899 21.951 23.0109C21.951 8.08992 26.448 5.30092 31.997 5.30092C37.551 5.30092 42.044 8.08992 42.044 23.0109C42.044 26.1889 43.84 33.7379 44.816 39.6089C45.129 39.5749 45.448 39.5569 45.77 39.5569C50.716 39.5569 54.726 43.4989 54.726 48.3609C54.728 52.6679 50.152 56.3539 47.423 57.0089Z" fill="black"/>
</svg>
