<svg width="15" height="15" viewBox="0 0 15 15" fill="none" xmlns="http://www.w3.org/2000/svg">
<path d="M7.08333 11.25H7.91667V6.66667H7.08333V11.25ZM7.5 5.48083C7.64556 5.48083 7.76722 5.43167 7.865 5.33333C7.96333 5.235 8.0125 5.11333 8.0125 4.96833C8.0125 4.82278 7.96333 4.70083 7.865 4.6025C7.76722 4.50417 7.64556 4.455 7.5 4.455C7.35444 4.455 7.23278 4.50417 7.135 4.6025C7.03667 4.70083 6.9875 4.82278 6.9875 4.96833C6.9875 5.11333 7.03667 5.235 7.135 5.33333C7.23278 5.43167 7.35444 5.48083 7.5 5.48083ZM7.5025 15C6.46583 15 5.49083 14.8033 4.5775 14.41C3.66472 14.0161 2.87056 13.4817 2.195 12.8067C1.51944 12.1322 0.984722 11.3389 0.590833 10.4267C0.196945 9.51444 0 8.53972 0 7.5025C0 6.46583 0.196667 5.49083 0.59 4.5775C0.983889 3.66472 1.51833 2.87056 2.19333 2.195C2.86778 1.51944 3.66111 0.984722 4.57333 0.590833C5.48556 0.196945 6.46028 0 7.4975 0C8.53417 0 9.50917 0.196667 10.4225 0.59C11.3353 0.983889 12.1294 1.51833 12.805 2.19333C13.4806 2.86778 14.0153 3.66111 14.4092 4.57333C14.8031 5.48556 15 6.46028 15 7.4975C15 8.53417 14.8033 9.50917 14.41 10.4225C14.0161 11.3353 13.4817 12.1294 12.8067 12.805C12.1322 13.4806 11.3389 14.0153 10.4267 14.4092C9.51444 14.8031 8.53972 15 7.5025 15ZM7.5 14.1667C9.36111 14.1667 10.9375 13.5208 12.2292 12.2292C13.5208 10.9375 14.1667 9.36111 14.1667 7.5C14.1667 5.63889 13.5208 4.0625 12.2292 2.77083C10.9375 1.47917 9.36111 0.833333 7.5 0.833333C5.63889 0.833333 4.0625 1.47917 2.77083 2.77083C1.47917 4.0625 0.833333 5.63889 0.833333 7.5C0.833333 9.36111 1.47917 10.9375 2.77083 12.2292C4.0625 13.5208 5.63889 14.1667 7.5 14.1667Z" fill="black"/>
</svg>
