<svg width="15" height="15" viewBox="0 0 15 15" fill="none" xmlns="http://www.w3.org/2000/svg">
<path d="M1.51406 15C1.08281 15 0.722812 14.8556 0.434062 14.5669C0.144687 14.2775 0 13.9172 0 13.4859V1.51406C0 1.08281 0.144687 0.722812 0.434062 0.434062C0.722812 0.144687 1.08281 0 1.51406 0H7.51781V0.9375H1.51406C1.37031 0.9375 1.23812 0.9975 1.1175 1.1175C0.9975 1.23812 0.9375 1.37031 0.9375 1.51406V13.4859C0.9375 13.6297 0.9975 13.7619 1.1175 13.8825C1.23812 14.0025 1.37031 14.0625 1.51406 14.0625H7.51781V15H1.51406ZM11.6831 10.8169L11.025 10.1428L13.1991 7.96875H4.8675V7.03125H13.1991L11.0241 4.85625L11.6831 4.18313L15 7.5L11.6831 10.8169Z" fill="black"/>
</svg>
