<svg width="13" height="15" viewBox="0 0 13 15" fill="none" xmlns="http://www.w3.org/2000/svg">
<path d="M12.8535 9.33097L11.5 8.02416V6.29302C11.4985 5.09668 11.0375 3.94339 10.2063 3.05616C9.37512 2.16893 8.23271 1.61078 7 1.48964V0.5H6V1.48964C4.76729 1.61078 3.62488 2.16893 2.79368 3.05616C1.96249 3.94339 1.50155 5.09668 1.5 6.29302V8.02416L0.1465 9.33097C0.0527253 9.42148 2.83187e-05 9.54425 0 9.67228V11.1205C0 11.2486 0.0526784 11.3714 0.146447 11.4619C0.240215 11.5524 0.367392 11.6033 0.5 11.6033H4V11.9784C3.98912 12.5908 4.2127 13.1856 4.62789 13.6487C5.04308 14.1119 5.62068 14.4108 6.25 14.4882C6.59759 14.5215 6.94854 14.4842 7.28029 14.3786C7.61204 14.2731 7.91724 14.1017 8.17626 13.8754C8.43528 13.6492 8.64238 13.3731 8.78425 13.0649C8.92612 12.7567 8.99961 12.4233 9 12.086V11.6033H12.5C12.6326 11.6033 12.7598 11.5524 12.8536 11.4619C12.9473 11.3714 13 11.2486 13 11.1205V9.67228C13 9.54425 12.9473 9.42148 12.8535 9.33097ZM8 12.086C8 12.4701 7.84197 12.8385 7.56066 13.1101C7.27936 13.3817 6.89783 13.5343 6.5 13.5343C6.10218 13.5343 5.72064 13.3817 5.43934 13.1101C5.15804 12.8385 5 12.4701 5 12.086V11.6033H8V12.086ZM12 10.6378H1V9.87213L2.3535 8.56533C2.44727 8.47481 2.49997 8.35205 2.5 8.22402V6.29302C2.5 5.26875 2.92143 4.28643 3.67157 3.56216C4.42172 2.83789 5.43913 2.43101 6.5 2.43101C7.56087 2.43101 8.57828 2.83789 9.32843 3.56216C10.0786 4.28643 10.5 5.26875 10.5 6.29302V8.22402C10.5 8.35205 10.5527 8.47481 10.6465 8.56533L12 9.87213V10.6378Z" fill="black"/>
</svg>
