<svg width="17" height="17" viewBox="0 0 17 17" fill="none" xmlns="http://www.w3.org/2000/svg">
<path d="M1 14.3125C1 13.2848 1.40826 12.2992 2.13496 11.5725C2.86166 10.8458 3.84729 10.4375 4.875 10.4375H12.625C13.6527 10.4375 14.6383 10.8458 15.365 11.5725C16.0917 12.2992 16.5 13.2848 16.5 14.3125C16.5 14.8264 16.2959 15.3192 15.9325 15.6825C15.5692 16.0459 15.0764 16.25 14.5625 16.25H2.9375C2.42364 16.25 1.93083 16.0459 1.56748 15.6825C1.20413 15.3192 1 14.8264 1 14.3125Z" stroke="black" stroke-width="0.9375" stroke-linejoin="round"/>
<path d="M8.75 6.5625C10.3551 6.5625 11.6562 5.26133 11.6562 3.65625C11.6562 2.05117 10.3551 0.75 8.75 0.75C7.14492 0.75 5.84375 2.05117 5.84375 3.65625C5.84375 5.26133 7.14492 6.5625 8.75 6.5625Z" stroke="black" stroke-width="0.9375"/>
</svg>
