<svg width="16" height="17" viewBox="0 0 16 17" fill="none" xmlns="http://www.w3.org/2000/svg">
<path d="M14.582 10.1276L14.5439 9.74888L14.5325 9.74964L14.5195 9.75193L14.582 10.1276ZM14.582 10.1276L14.6201 10.507L14.6331 10.5055L14.6453 10.5032L14.582 10.1276ZM11.5038 14.3047L11.7453 14.0099L11.7415 14.0076L11.5038 14.3047ZM11.5038 14.3047L11.2622 14.5996L11.2661 14.6027L11.5038 14.3047ZM4.49698 14.3047L4.25544 14.0106L4.25011 14.0152L4.24401 14.0205L4.49698 14.3047ZM4.49698 14.3047L4.73851 14.6004L4.74461 14.5951L4.74994 14.5905L4.49698 14.3047ZM1.41797 6.87242V6.49143H1.39969L1.38064 6.49295L1.41797 6.87242ZM1.41797 6.87242V7.25341H1.43702L1.45607 7.25112L1.41797 6.87242ZM10.0058 1.87918C9.99439 1.74102 9.97838 1.60328 9.95781 1.46619C9.94037 1.34488 9.90385 1.2271 9.84961 1.1172L9.17225 1.46695C9.17987 1.48219 9.19282 1.51267 9.20577 1.59191C9.22025 1.67573 9.23092 1.78469 9.24844 1.95461L10.0058 1.87918ZM10.1551 2.79584C10.146 2.78441 10.1186 2.73793 10.0889 2.57486C10.0534 2.34399 10.0267 2.11196 10.0073 1.87918L9.24844 1.95461C9.27892 2.26017 9.30406 2.51314 9.33911 2.70973C9.3734 2.90175 9.42673 3.09758 9.54941 3.25836L10.1551 2.79584ZM10.5087 2.94214C10.4421 2.9511 10.3743 2.94229 10.3122 2.91659C10.2501 2.8909 10.1959 2.84924 10.1551 2.79584L9.54864 3.2576C9.671 3.41806 9.83366 3.54326 10.0201 3.62048C10.2065 3.69771 10.4101 3.7242 10.61 3.69726L10.5087 2.94214ZM11.2615 2.39885C11.0139 2.6023 10.8447 2.74021 10.7114 2.83241C10.575 2.9269 10.5224 2.93985 10.5087 2.94214L10.61 3.69726C10.8097 3.67059 10.9857 3.57001 11.1464 3.458C11.3103 3.3437 11.5061 3.18368 11.7446 2.98862L11.2615 2.39885ZM11.9107 1.97138C11.7888 2.01024 11.6859 2.07196 11.5884 2.1413C11.4939 2.20835 11.3864 2.29674 11.2615 2.39885L11.7446 2.98862C11.8764 2.88042 11.9617 2.81108 12.0303 2.76231C12.0643 2.73488 12.1024 2.71278 12.1431 2.69678L11.9107 1.97138ZM12.713 2.011C12.4591 1.90114 12.1741 1.88706 11.9107 1.97138L12.1431 2.69678C12.2307 2.66903 12.3254 2.6739 12.4097 2.7105L12.713 2.011ZM13.3164 2.50171C13.2022 2.38742 13.1039 2.28836 13.017 2.21216C12.9269 2.12952 12.8243 2.06163 12.713 2.011L12.4097 2.7105C12.4257 2.71735 12.4547 2.73336 12.5156 2.78669C12.5789 2.84156 12.6566 2.91928 12.7778 3.04043L13.3164 2.50171ZM13.9969 3.18216L13.3164 2.50171L12.7778 3.04043L13.4582 3.72088L13.9969 3.18216ZM14.4875 3.78565C14.4367 3.67431 14.3685 3.57171 14.2856 3.48162C14.2094 3.39475 14.1104 3.29646 13.9969 3.18216L13.4582 3.72088C13.5793 3.84203 13.6563 3.91975 13.7127 3.983C13.766 4.04396 13.7812 4.07291 13.7881 4.08891L14.4875 3.78565ZM14.5272 4.58801C14.6115 4.32457 14.5974 4.0395 14.4875 3.78565L13.7881 4.08891C13.8244 4.17334 13.829 4.26806 13.801 4.35561L14.5272 4.58801ZM14.0997 5.23721C14.2018 5.11225 14.2902 5.00481 14.3573 4.91032C14.4258 4.81279 14.4883 4.70992 14.5272 4.58801L13.801 4.35561C13.7853 4.39626 13.7634 4.43428 13.7363 4.46838C13.6637 4.56585 13.5882 4.66114 13.51 4.75412L14.0997 5.23721ZM13.5565 5.99005C13.5587 5.97633 13.5717 5.92375 13.6662 5.78736C13.7584 5.65401 13.8963 5.48486 14.0997 5.23721L13.51 4.75412C13.3149 4.99262 13.1541 5.18845 13.0406 5.35227C12.9286 5.51229 12.828 5.68907 12.8014 5.8887L13.5565 5.99005ZM13.7027 6.3436C13.6493 6.30281 13.6077 6.24862 13.582 6.18652C13.5563 6.12443 13.5475 6.05665 13.5565 5.99005L12.8014 5.8887C12.7746 6.08857 12.8011 6.29197 12.8783 6.47825C12.9556 6.66454 13.0807 6.82708 13.241 6.94938L13.7027 6.3436ZM14.6194 6.49219C14.3001 6.46019 14.0837 6.43885 13.9237 6.4099C13.7607 6.38018 13.7142 6.35275 13.7027 6.3436L13.241 6.94938C13.401 7.07129 13.5968 7.12463 13.7896 7.15968C13.9854 7.19473 14.2376 7.22064 14.5439 7.25112L14.6194 6.49219ZM15.3813 6.64916C15.2714 6.59491 15.1536 6.55839 15.0323 6.54096C14.918 6.52191 14.7794 6.50819 14.6194 6.49219L14.5432 7.25036C14.7138 7.26788 14.8228 7.27855 14.9066 7.29303C14.9497 7.29788 14.9918 7.30918 15.0316 7.32655L15.3813 6.64916ZM15.92 7.24426C15.8183 6.98728 15.6269 6.77587 15.3813 6.64916L15.0316 7.32655C15.1135 7.36868 15.1774 7.43906 15.2114 7.52467L15.92 7.24426ZM16 8.01767C16 7.85689 16 7.71745 15.9924 7.60163C15.9872 7.47943 15.9628 7.35882 15.92 7.24426L15.2114 7.52467C15.2175 7.54067 15.2266 7.57267 15.232 7.65268C15.2379 7.7745 15.2399 7.89648 15.2381 8.01843L16 8.01767ZM16 8.98081V8.01767H15.2381V8.98081H16ZM15.92 9.75345C15.9672 9.63458 15.9848 9.51571 15.9924 9.39608C16 9.28103 16 9.14158 16 8.98081H15.2381C15.2381 9.15149 15.2381 9.26121 15.232 9.34579C15.2316 9.38926 15.2246 9.43241 15.2114 9.47381L15.92 9.75345ZM15.3813 10.3493C15.627 10.2224 15.8184 10.0107 15.92 9.75345L15.2114 9.47381C15.1774 9.55941 15.1135 9.62979 15.0316 9.67192L15.3813 10.3493ZM14.6194 10.5063C14.7794 10.4903 14.9188 10.4758 15.0323 10.4568C15.1504 10.4377 15.267 10.408 15.3805 10.3501L15.0316 9.67192C14.9918 9.68933 14.9497 9.70063 14.9066 9.70545C14.8228 9.71992 14.7138 9.73059 14.5439 9.74812L14.6194 10.5063ZM13.7035 10.6549C13.7149 10.6457 13.7614 10.6175 13.9245 10.5886C14.0845 10.5596 14.3009 10.5375 14.6194 10.5063L14.5439 9.74812C14.2384 9.7786 13.9854 9.80298 13.7888 9.83879C13.5968 9.87308 13.4018 9.92642 13.241 10.0483L13.7035 10.6549ZM13.5565 11.0084C13.5476 10.9418 13.5565 10.8739 13.5823 10.8118C13.6082 10.7497 13.65 10.6956 13.7035 10.6549L13.241 10.0483C13.0806 10.1707 12.9554 10.3334 12.8781 10.5198C12.8009 10.7062 12.7744 10.9098 12.8014 11.1098L13.5565 11.0084ZM14.0997 11.7613C13.9489 11.5829 13.8043 11.3994 13.6662 11.2111C13.5717 11.0755 13.5587 11.0221 13.5565 11.0084L12.8021 11.1105C12.8288 11.3102 12.9294 11.4854 13.0406 11.6462C13.1549 11.8093 13.3149 12.0059 13.51 12.2436L14.0997 11.7613ZM14.5272 12.4105C14.4879 12.2945 14.4305 12.1855 14.3573 12.0874C14.2748 11.976 14.1889 11.8673 14.0997 11.7613L13.51 12.2436C13.6182 12.3762 13.6875 12.4608 13.7363 12.5301C13.7634 12.564 13.7852 12.6017 13.801 12.6421L14.5272 12.4105ZM14.4875 13.2128C14.5974 12.959 14.6115 12.6739 14.5272 12.4105L13.801 12.6421C13.8292 12.7299 13.8246 12.8249 13.7881 12.9096L14.4875 13.2128ZM13.9976 13.8156C14.1111 13.702 14.2094 13.6037 14.2856 13.5169C14.3649 13.4262 14.4365 13.3309 14.4875 13.2128L13.7881 12.9096C13.7681 12.9483 13.7424 12.9837 13.7119 13.0147C13.6299 13.1046 13.5453 13.192 13.4582 13.2768L13.9976 13.8156ZM13.3164 14.4968L13.9976 13.8156L13.4582 13.2768L12.7778 13.958L13.3164 14.4968ZM12.713 14.9867C12.8303 14.9357 12.9263 14.8648 13.017 14.7856C13.1039 14.7094 13.2022 14.6103 13.3164 14.496L12.7778 13.958C12.6566 14.0792 12.5789 14.1562 12.5156 14.2118C12.4844 14.2424 12.4487 14.2681 12.4097 14.288L12.713 14.9867ZM11.9107 15.0271C12.1742 15.1112 12.4592 15.0968 12.713 14.9867L12.4097 14.288C12.3253 14.3243 12.2306 14.3289 12.1431 14.3009L11.9107 15.0271ZM11.2615 14.5989C11.3864 14.701 11.4939 14.7894 11.5884 14.8564C11.6859 14.9258 11.7888 14.9882 11.9107 15.0271L12.1431 14.3009C12.1024 14.2852 12.0644 14.2633 12.0303 14.2362C11.9328 14.1633 11.8375 14.0876 11.7446 14.0091L11.2615 14.5989ZM10.5087 14.0563C10.5224 14.0579 10.5757 14.0716 10.7114 14.1661C10.8447 14.2583 11.0139 14.3962 11.2615 14.5989L11.7446 14.0091C11.5061 13.8148 11.3103 13.654 11.1464 13.5397C10.9864 13.4285 10.8097 13.3279 10.61 13.3012L10.5087 14.0563ZM10.1551 14.2026C10.1959 14.1492 10.2501 14.1076 10.3122 14.0819C10.3743 14.0562 10.4421 14.0474 10.5087 14.0563L10.61 13.3012C10.4102 13.2743 10.2069 13.3008 10.0206 13.3779C9.83436 13.4549 9.67178 13.5799 9.54941 13.7401L10.1551 14.2026ZM10.0066 15.1193C10.0386 14.8 10.0599 14.5836 10.0889 14.4236C10.1186 14.2605 10.146 14.2141 10.1551 14.2026L9.54941 13.7401C9.4275 13.9001 9.37416 14.0967 9.33911 14.2887C9.30406 14.4846 9.27816 14.7368 9.24768 15.0431L10.0066 15.1193ZM9.84961 15.8813C9.90828 15.767 9.93723 15.6504 9.95704 15.5323C9.97686 15.418 9.99057 15.2793 10.0066 15.1193L9.24768 15.0431C9.2371 15.1647 9.22363 15.2859 9.20577 15.4066C9.20093 15.4497 9.18963 15.4918 9.17225 15.5315L9.84961 15.8813ZM9.25454 16.42C9.5115 16.3183 9.72291 16.1269 9.84961 15.8813L9.17225 15.5315C9.13012 15.6134 9.05974 15.6773 8.97414 15.7114L9.25454 16.42ZM8.48116 16.5C8.64193 16.5 8.78137 16.5 8.89719 16.4924C9.01605 16.4848 9.13567 16.4672 9.25454 16.42L8.97414 15.7114C8.93275 15.7246 8.8896 15.7315 8.84614 15.7319C8.76232 15.738 8.65184 15.738 8.4804 15.738L8.48116 16.5ZM7.51807 16.5H8.48116L8.4804 15.738H7.51807V16.5ZM6.7447 16.42C6.86433 16.4672 6.98319 16.4848 7.10281 16.4924C7.21787 16.5 7.3573 16.5 7.51807 16.5V15.738C7.3474 15.738 7.23768 15.738 7.1531 15.7319C7.10964 15.7315 7.06649 15.7246 7.0251 15.7114L6.7447 16.42ZM6.14963 15.8813C6.27633 16.1269 6.48774 16.3183 6.7447 16.42L7.0251 15.7114C6.93949 15.6773 6.86912 15.6134 6.82699 15.5315L6.14963 15.8813ZM5.99267 15.1193C6.00867 15.2793 6.02314 15.4188 6.04143 15.5323C6.06124 15.6504 6.09096 15.767 6.14963 15.8813L6.82699 15.5315C6.80962 15.4918 6.79832 15.4497 6.79347 15.4066C6.77561 15.2861 6.76138 15.1652 6.7508 15.0439L5.99267 15.1193ZM5.84409 14.2026C5.85323 14.2141 5.88066 14.2605 5.91038 14.4236C5.93933 14.5836 5.96066 14.8008 5.99267 15.1193L6.7508 15.0439C6.72032 14.7383 6.69518 14.4853 6.66013 14.2887C6.62584 14.0967 6.5725 13.9009 6.44983 13.7401L5.84409 14.2026ZM5.49055 14.0563C5.55714 14.0474 5.62492 14.0562 5.68701 14.0819C5.7491 14.1076 5.8033 14.1492 5.84409 14.2026L6.44983 13.7401C6.32754 13.5798 6.16501 13.4554 5.97873 13.3782C5.79245 13.301 5.58907 13.2744 5.38921 13.3012L5.49055 14.0563ZM4.73775 14.5996C4.98538 14.3962 5.15453 14.2583 5.28787 14.1661C5.42426 14.0716 5.47683 14.0579 5.49055 14.0563L5.38921 13.3012C5.18958 13.3279 5.01357 13.4285 4.8528 13.5405C4.68898 13.654 4.49317 13.8148 4.25468 14.0099L4.73775 14.5996ZM4.08858 15.0271C4.21049 14.9882 4.31335 14.9265 4.41088 14.8572C4.50536 14.7901 4.61279 14.7017 4.73775 14.5996L4.25468 14.0099C4.1617 14.0881 4.06642 14.1636 3.96895 14.2362C3.93487 14.2634 3.89685 14.2852 3.85618 14.3009L4.08858 15.0271ZM3.28625 14.9882C3.54009 15.0981 3.82515 15.1114 4.08858 15.0271L3.85618 14.3009C3.76864 14.3289 3.67392 14.3243 3.5895 14.288L3.28625 14.9882ZM2.68279 14.4968C2.79709 14.6111 2.89538 14.7101 2.98224 14.7863C3.07215 14.8648 3.16891 14.9372 3.28625 14.9882L3.5895 14.288C3.55053 14.2681 3.51482 14.2424 3.48359 14.2118C3.39374 14.1298 3.30633 14.0452 3.22149 13.958L2.68279 14.4968ZM2.00238 13.8163L2.68279 14.4968L3.22149 13.958L2.54107 13.2776L2.00238 13.8163ZM1.51169 13.2128C1.56274 13.3302 1.63436 13.4262 1.71361 13.5169C1.7898 13.6037 1.88885 13.702 2.00238 13.8163L2.54107 13.2776C2.45367 13.1928 2.3688 13.1054 2.28658 13.0155C2.25597 12.9842 2.23028 12.9485 2.21039 12.9096L1.51169 13.2128ZM1.47207 12.4105C1.38776 12.6739 1.40184 12.959 1.51169 13.2128L2.21039 12.9096C2.17379 12.8252 2.16969 12.7305 2.19744 12.6429L1.47207 12.4105ZM1.89952 11.7613C1.79742 11.8862 1.70903 11.9937 1.64198 12.0882C1.56878 12.186 1.51144 12.2948 1.47207 12.4105L2.19744 12.6429C2.21344 12.6022 2.23553 12.5641 2.26296 12.5301C2.31173 12.4615 2.38107 12.3762 2.48926 12.2444L1.89952 11.7613ZM2.44278 11.0084C2.4405 11.0221 2.42754 11.0747 2.33306 11.2111C2.24011 11.3445 2.10296 11.5136 1.89952 11.7613L2.48926 12.2444C2.68432 12.0059 2.84509 11.81 2.95862 11.6462C3.07062 11.4862 3.1712 11.3094 3.19787 11.1098L2.44278 11.0084ZM2.29649 10.6549C2.34989 10.6957 2.39155 10.7499 2.41724 10.812C2.44293 10.874 2.45174 10.9418 2.44278 11.0084L3.19787 11.1098C3.22466 10.9099 3.19811 10.7065 3.12089 10.5202C3.04368 10.3339 2.91856 10.1714 2.75823 10.0491L2.29649 10.6549ZM1.37988 10.507C1.69913 10.5383 1.91552 10.5596 2.07553 10.5886C2.23858 10.6183 2.28506 10.6457 2.29649 10.6549L2.75823 10.0483C2.59822 9.92642 2.4024 9.87308 2.20963 9.83879C2.01381 9.80374 1.76161 9.77784 1.45531 9.74736L1.37988 10.507ZM0.617934 10.3493C0.732225 10.408 0.848802 10.4369 0.966903 10.4568C1.08119 10.4766 1.21911 10.491 1.37988 10.507L1.45607 9.74812C1.33452 9.73755 1.21332 9.72332 1.09262 9.70545C1.04953 9.7006 1.0074 9.68929 0.967665 9.67192L0.617934 10.3493ZM0.0792418 9.75345C0.180799 10.0107 0.372192 10.2224 0.617934 10.3493L0.967665 9.67192C0.885747 9.62979 0.821866 9.55941 0.787847 9.47381L0.0792418 9.75345ZM0 8.98233C0 9.14311 -7.09613e-09 9.28255 0.0076194 9.39837C0.0125506 9.52034 0.0369883 9.64074 0.0800038 9.75498L0.788609 9.47533C0.775363 9.43393 0.768428 9.39078 0.768036 9.34732C0.762374 9.22549 0.760341 9.10352 0.761941 8.98157L0 8.98233ZM0 8.01919V8.98233H0.761941V8.01919H0ZM0.0800038 7.24578C0.0371547 7.3606 0.012725 7.48147 0.0076194 7.60391C-7.09613e-09 7.71897 0 7.85842 0 8.01919H0.761941C0.761941 7.84851 0.761941 7.73878 0.768036 7.6542C0.768404 7.61074 0.77534 7.56758 0.788609 7.52619L0.0800038 7.24578ZM0.618696 6.65068C0.373092 6.77739 0.181716 6.98881 0.0800038 7.24578L0.788609 7.52619C0.822628 7.44059 0.886509 7.3702 0.968427 7.32808L0.618696 6.65068ZM1.38064 6.49295C1.22063 6.50895 1.08119 6.52419 0.967665 6.54248C0.846364 6.55992 0.728586 6.59644 0.618696 6.65068L0.968427 7.32808C0.983666 7.32046 1.01414 7.30751 1.09339 7.29455C1.1772 7.28007 1.28616 7.26941 1.45607 7.25188L1.38064 6.49295ZM2.29725 6.34513C2.28582 6.35427 2.23934 6.3817 2.07629 6.41142C1.91628 6.44037 1.69989 6.46095 1.38064 6.49295L1.45607 7.25188C1.76161 7.2214 2.01533 7.19626 2.21115 7.16121C2.40392 7.12692 2.59974 7.07358 2.75975 6.9509L2.29725 6.34513ZM2.44354 5.99157C2.45251 6.05817 2.44369 6.12595 2.418 6.18805C2.39231 6.25014 2.35065 6.30433 2.29725 6.34513L2.75975 6.9509C2.91994 6.82852 3.04492 6.66594 3.12199 6.47966C3.19907 6.29338 3.22551 6.08926 3.19863 5.88947L2.44354 5.99157ZM1.90028 5.23798C2.10372 5.48638 2.24163 5.65554 2.33459 5.78889C2.42907 5.92528 2.44126 5.97786 2.44354 5.99157L3.19863 5.88947C3.17196 5.68983 3.07138 5.51457 2.95938 5.3538C2.84585 5.18997 2.68508 4.99414 2.49002 4.75564L1.90028 5.23798ZM1.47283 4.58877C1.51093 4.71069 1.57341 4.81432 1.64274 4.91185C1.7098 5.00557 1.79818 5.11377 1.90028 5.23798L2.49002 4.75564C2.41177 4.66241 2.3363 4.56686 2.26373 4.46914C2.23636 4.43532 2.21427 4.39756 2.1982 4.35713L1.47283 4.58877ZM1.51245 3.78717C1.40279 4.0408 1.38871 4.32557 1.47283 4.58877L2.1982 4.35713C2.17045 4.26949 2.17532 4.17477 2.21191 4.09044L1.51245 3.78717ZM2.00314 3.18368C1.88885 3.29722 1.7898 3.39551 1.71361 3.48314C1.63098 3.57327 1.56309 3.67587 1.51245 3.78717L2.21191 4.09044C2.23186 4.05174 2.25755 4.01553 2.28811 3.98452C2.36973 3.89434 2.45436 3.80692 2.54184 3.7224L2.00314 3.18368ZM2.68356 2.50248L2.00314 3.18368L2.54184 3.7224L3.22225 3.04119L2.68356 2.50248ZM3.28701 2.01252C3.17575 2.06322 3.07316 2.1311 2.983 2.21369C2.89614 2.28988 2.79709 2.38818 2.68356 2.50248L3.22225 3.04119C3.3434 2.9208 3.42112 2.84308 3.48436 2.78746C3.54531 2.73412 3.57427 2.71888 3.59027 2.71126L3.28701 2.01252ZM4.08934 1.97214C3.82582 1.88807 3.54076 1.90241 3.28701 2.01252L3.59027 2.71126C3.67459 2.67466 3.76931 2.67055 3.85695 2.6983L4.08934 1.97214ZM4.73851 2.40037C4.61355 2.29827 4.50612 2.20988 4.41164 2.14282C4.31386 2.06932 4.20509 2.01171 4.08934 1.97214L3.85695 2.6983C3.89759 2.71407 3.93561 2.73591 3.96971 2.76307C4.03829 2.8126 4.12362 2.88194 4.2562 2.99014L4.73851 2.40037ZM5.49131 2.94366C5.47759 2.94138 5.42502 2.92842 5.28863 2.83394C5.10032 2.69553 4.91684 2.55143 4.73851 2.40037L4.2562 2.99014C4.49393 3.18521 4.69051 3.34599 4.85356 3.45952C5.01357 3.57077 5.19034 3.67135 5.38997 3.69878L5.49131 2.94366ZM5.84485 2.7966C5.80414 2.85014 5.74999 2.89195 5.6879 2.91778C5.6258 2.94361 5.55797 2.95254 5.49131 2.94366L5.38997 3.69878C5.58988 3.7258 5.79338 3.69867 5.9798 3.62158C6.16621 3.5445 6.32891 3.41944 6.45135 3.25912L5.84485 2.7966ZM5.99343 1.8807C5.96143 2.19921 5.94009 2.41637 5.91114 2.57563C5.88142 2.73869 5.85399 2.78517 5.84485 2.7966L6.45135 3.25912C6.57327 3.0991 6.6266 2.90328 6.66089 2.7105C6.69594 2.51467 6.72184 2.26245 6.75232 1.95614L5.99343 1.8807ZM6.15039 1.11873C6.09172 1.23302 6.062 1.3496 6.04219 1.46771C6.02314 1.58201 6.00943 1.71993 5.99343 1.8807L6.75156 1.9569C6.76213 1.83535 6.77636 1.71414 6.79423 1.59344C6.79903 1.55033 6.81034 1.5082 6.82775 1.46847L6.15039 1.11873ZM6.74623 0.580008C6.48885 0.681758 6.27713 0.872685 6.15039 1.11873L6.82775 1.46847C6.86988 1.38655 6.94026 1.32267 7.02586 1.28865L6.74623 0.580008ZM7.51883 0.5C7.35806 0.5 7.21863 0.5 7.10281 0.50762C6.98085 0.512551 6.86046 0.53699 6.74623 0.580008L7.02586 1.28865C7.06725 1.27538 7.1104 1.26844 7.15386 1.26807C7.23768 1.26198 7.34816 1.26198 7.5196 1.26198L7.51883 0.5ZM8.48193 0.5H7.51883V1.26198H8.48193V0.5ZM9.2553 0.580008C9.14049 0.537144 9.01963 0.512713 8.89719 0.50762C8.78213 0.5 8.6427 0.5 8.48193 0.5V1.26198C8.6526 1.26198 8.76232 1.26198 8.8469 1.26807C8.89034 1.26869 8.93346 1.27562 8.9749 1.28865L9.2553 0.580008ZM9.85037 1.11873C9.72348 0.872972 9.51178 0.681569 9.25454 0.580008L8.9749 1.28865C9.06051 1.32267 9.13088 1.38655 9.17301 1.46847L9.85037 1.11873ZM10.6672 8.5C10.6672 9.20731 10.3862 9.88565 9.88609 10.3858C9.38597 10.8859 8.70766 11.1669 8.00038 11.1669V11.9289C8.90974 11.9289 9.78185 11.5676 10.4249 10.9246C11.0679 10.2816 11.4291 9.4094 11.4291 8.5H10.6672ZM8.00038 5.83308C8.70766 5.83308 9.38597 6.11406 9.88609 6.6142C10.3862 7.11435 10.6672 7.79269 10.6672 8.5H11.4291C11.4291 7.5906 11.0679 6.71845 10.4249 6.0754C9.78185 5.43236 8.90974 5.0711 8.00038 5.0711V5.83308ZM5.33359 8.5C5.33359 7.79269 5.61455 7.11435 6.11467 6.6142C6.61479 6.11406 7.2931 5.83308 8.00038 5.83308V5.0711C7.09102 5.0711 6.21891 5.43236 5.5759 6.0754C4.93289 6.71845 4.57165 7.5906 4.57165 8.5H5.33359ZM8.00038 11.1669C7.2931 11.1669 6.61479 10.8859 6.11467 10.3858C5.61455 9.88565 5.33359 9.20731 5.33359 8.5H4.57165C4.57165 9.4094 4.93289 10.2816 5.5759 10.9246C6.21891 11.5676 7.09102 11.9289 8.00038 11.9289V11.1669Z" fill="black"/>
</svg>
