<svg width="14" height="17" viewBox="0 0 14 17" fill="none" xmlns="http://www.w3.org/2000/svg">
<path d="M8.4 16.5L8.34587 14.3969H7C5.05431 14.3969 3.40138 13.7215 2.0412 12.3708C0.6804 11.0206 0 9.37983 0 7.44847C0 5.5171 0.6804 3.87634 2.0412 2.52617C3.40138 1.17539 5.05431 0.5 7 0.5C7.97253 0.5 8.88347 0.680969 9.7328 1.04291C10.5815 1.40423 11.3229 1.89927 11.9569 2.52803C12.5904 3.1574 13.0891 3.89332 13.4531 4.73578C13.8177 5.57887 14 6.48309 14 7.44847C14 8.39284 13.8603 9.29985 13.5809 10.1695C13.3009 11.0385 12.9145 11.8603 12.4217 12.6348C11.9277 13.4093 11.3366 14.1227 10.6484 14.7749C9.96022 15.4272 9.21076 16.0019 8.4 16.4991M9.33333 14.7212C10.4378 13.7947 11.3363 12.7102 12.0288 11.4675C12.7213 10.2248 13.0673 8.8851 13.0667 7.44847C13.0667 5.76539 12.4793 4.34111 11.3045 3.17562C10.1298 2.01013 8.69493 1.42708 7 1.42646C5.30444 1.42646 3.8696 2.00952 2.69547 3.17562C1.52133 4.34173 0.933956 5.76601 0.933333 7.44847C0.933333 9.13154 1.52071 10.5561 2.69547 11.7222C3.87022 12.8883 5.30507 13.4711 7 13.4705H9.33333V14.7212ZM7.0308 12.1466C7.22369 12.1466 7.3864 12.0808 7.51893 11.9492C7.65147 11.817 7.71773 11.6555 7.71773 11.4647C7.71773 11.2732 7.65147 11.1117 7.51893 10.9801C7.38578 10.848 7.22307 10.7819 7.0308 10.7819C6.83791 10.7819 6.6752 10.848 6.54267 10.9801C6.40951 11.1117 6.34293 11.2732 6.34293 11.4647C6.34293 11.6561 6.40951 11.8177 6.54267 11.9492C6.6752 12.0808 6.83791 12.1466 7.0308 12.1466ZM6.62293 9.43665H7.44893C7.47258 9.0568 7.546 8.75632 7.6692 8.53521C7.7924 8.31409 8.08484 7.97439 8.54653 7.5161C8.81471 7.25051 9.0272 6.97906 9.184 6.70174C9.3408 6.42503 9.4192 6.10726 9.4192 5.74841C9.4192 5.08012 9.1868 4.55512 8.722 4.17342C8.2572 3.7911 7.69502 3.59994 7.03547 3.59994C6.45929 3.59994 5.97084 3.75651 5.57013 4.06966C5.1688 4.3828 4.8748 4.75617 4.68813 5.18975L5.45627 5.48529C5.58196 5.21106 5.76551 4.96122 6.00693 4.73578C6.24898 4.51096 6.59182 4.39855 7.03547 4.39855C7.56373 4.39855 7.95356 4.54092 8.20493 4.82565C8.45693 5.111 8.58293 5.42229 8.58293 5.75953C8.58293 6.06958 8.50204 6.33177 8.34027 6.54609C8.17849 6.76041 7.97098 6.99357 7.71773 7.24557C7.26973 7.63716 6.97511 7.98921 6.83387 8.30174C6.69324 8.61303 6.62293 8.99133 6.62293 9.43665Z" fill="black"/>
</svg>
