<svg width="30" height="30" viewBox="0 0 30 30" fill="none" xmlns="http://www.w3.org/2000/svg">
<path d="M10.8337 14.39C10.6223 14.3915 10.4126 14.3509 10.217 14.2707C10.0214 14.1904 9.84365 14.072 9.69418 13.9224C9.54471 13.7729 9.42647 13.595 9.34636 13.3993C9.26624 13.2036 9.22584 12.994 9.2275 12.7825C9.2275 11.885 9.9375 11.175 10.8337 11.175C11.7312 11.175 12.44 11.885 12.44 12.7825C12.44 13.6788 11.7312 14.39 10.8337 14.39ZM19.1675 14.39C18.956 14.3915 18.7464 14.3509 18.5508 14.2707C18.3551 14.1904 18.1774 14.072 18.0279 13.9224C17.8785 13.7729 17.7602 13.595 17.6801 13.3993C17.6 13.2036 17.5596 12.994 17.5612 12.7825C17.5612 11.885 18.2712 11.175 19.1675 11.175C20.0637 11.175 20.7737 11.885 20.7737 12.7825C20.7737 13.6788 20.0637 14.39 19.1675 14.39ZM8.52875 24.02L9.4225 23.4737C10.4349 22.8564 11.6337 22.6189 12.805 22.8038C13.0688 22.845 13.2862 22.8775 13.455 22.9C13.9625 22.9662 14.4788 23 15.0013 23C20.5263 23 24.8762 19.2225 24.8762 14.75C24.8762 10.2788 20.5263 6.5 15.0013 6.5C9.475 6.5 5.12625 10.2788 5.12625 14.75C5.12625 16.4575 5.75125 18.0913 6.915 19.4763C6.97625 19.5488 7.065 19.6475 7.18375 19.77C7.67487 20.2818 8.05147 20.8922 8.28853 21.5608C8.5256 22.2293 8.61771 22.9406 8.55875 23.6475L8.52875 24.02ZM7.74125 27.4275C7.54464 27.5505 7.31769 27.6164 7.08578 27.6178C6.85387 27.6192 6.62614 27.556 6.42807 27.4354C6.22999 27.3148 6.06939 27.1414 5.96421 26.9347C5.85903 26.728 5.81343 26.4961 5.8325 26.265L6.06875 23.44C6.09823 23.0866 6.05218 22.7309 5.93364 22.3966C5.81511 22.0624 5.62681 21.7572 5.38125 21.5013C5.25055 21.367 5.12423 21.2286 5.0025 21.0863C3.5075 19.3087 2.625 17.1188 2.625 14.75C2.625 8.8125 8.165 4 15 4C21.8337 4 27.375 8.8125 27.375 14.75C27.375 20.6875 21.8337 25.5 15 25.5C14.3625 25.5 13.7375 25.4587 13.125 25.3775C12.935 25.3525 12.6975 25.3175 12.415 25.2725C11.8292 25.1805 11.2298 25.2996 10.7238 25.6087L7.74 27.4287L7.74125 27.4275Z" fill="white"/>
</svg>
