<svg width="30" height="30" viewBox="0 0 30 30" fill="none" xmlns="http://www.w3.org/2000/svg">
<path d="M13.15 24.8288C13.2411 23.3643 13.5907 21.9276 14.1825 20.585C12.3186 20.4119 10.5598 19.6436 9.16625 18.3938L10.8337 16.5312C11.4827 17.1141 12.2469 17.5539 13.0769 17.8222C13.9068 18.0906 14.7839 18.1814 15.6512 18.0887C16.7348 16.6529 18.1159 15.4683 19.7 14.6158C21.284 13.7634 23.0335 13.2634 24.8288 13.15C24.4918 11.362 23.6735 9.6998 22.4619 8.34245C21.2503 6.98509 19.6913 5.98402 17.9528 5.44707C16.2144 4.91012 14.3624 4.85763 12.5964 5.29526C10.8303 5.73289 9.21717 6.64406 7.93061 7.93061C6.64406 9.21717 5.73289 10.8303 5.29526 12.5964C4.85763 14.3624 4.91012 16.2144 5.44707 17.9528C5.98402 19.6913 6.98509 21.2503 8.34245 22.4619C9.6998 23.6735 11.362 24.4918 13.15 24.8288ZM23.7788 15.795C21.7992 16.1679 19.9782 17.1294 18.5538 18.5538C17.1294 19.9782 16.1679 21.7992 15.795 23.7788L23.7788 15.795ZM27.5 15C27.5 15.21 27.495 15.4175 27.485 15.625L15.625 27.485C15.4168 27.4952 15.2084 27.5002 15 27.5C8.09625 27.5 2.5 21.9037 2.5 15C2.5 8.09625 8.09625 2.5 15 2.5C21.9037 2.5 27.5 8.09625 27.5 15ZM12.5 12.5C12.5 12.9973 12.3025 13.4742 11.9508 13.8258C11.5992 14.1775 11.1223 14.375 10.625 14.375C10.1277 14.375 9.65081 14.1775 9.29917 13.8258C8.94754 13.4742 8.75 12.9973 8.75 12.5C8.75 12.0027 8.94754 11.5258 9.29917 11.1742C9.65081 10.8225 10.1277 10.625 10.625 10.625C11.1223 10.625 11.5992 10.8225 11.9508 11.1742C12.3025 11.5258 12.5 12.0027 12.5 12.5ZM21.25 12.5C21.25 12.9973 21.0525 13.4742 20.7008 13.8258C20.3492 14.1775 19.8723 14.375 19.375 14.375C18.8777 14.375 18.4008 14.1775 18.0492 13.8258C17.6975 13.4742 17.5 12.9973 17.5 12.5C17.5 12.0027 17.6975 11.5258 18.0492 11.1742C18.4008 10.8225 18.8777 10.625 19.375 10.625C19.8723 10.625 20.3492 10.8225 20.7008 11.1742C21.0525 11.5258 21.25 12.0027 21.25 12.5Z" fill="white"/>
</svg>
