<svg width="30" height="28" viewBox="0 0 30 28" fill="none" xmlns="http://www.w3.org/2000/svg">
<path d="M24.6874 10.4999C24.6874 10.2513 24.5887 10.0128 24.4129 9.837C24.237 9.66118 23.9986 9.56241 23.7499 9.56241C23.5013 9.56241 23.2629 9.66118 23.087 9.837C22.9112 10.0128 22.8124 10.2513 22.8124 10.4999H24.6874ZM7.18745 10.4999C7.18745 10.2513 7.08868 10.0128 6.91286 9.837C6.73705 9.66118 6.49859 9.56241 6.24995 9.56241C6.00131 9.56241 5.76285 9.66118 5.58704 9.837C5.41122 10.0128 5.31245 10.2513 5.31245 10.4999H7.18745ZM25.5874 13.6624C25.6733 13.7545 25.7768 13.8284 25.8918 13.8796C26.0068 13.9309 26.1309 13.9584 26.2568 13.9606C26.3827 13.9629 26.5077 13.9397 26.6244 13.8926C26.7412 13.8454 26.8472 13.7752 26.9362 13.6862C27.0253 13.5972 27.0955 13.4911 27.1426 13.3744C27.1898 13.2577 27.2129 13.1326 27.2107 13.0068C27.2085 12.8809 27.1809 12.7567 27.1297 12.6417C27.0784 12.5267 27.0046 12.4232 26.9124 12.3374L25.5874 13.6624ZM14.9999 1.74991L15.6624 1.08741C15.4867 0.911844 15.2484 0.813232 14.9999 0.813232C14.7515 0.813232 14.5132 0.911844 14.3374 1.08741L14.9999 1.74991ZM3.08745 12.3374C2.99534 12.4232 2.92146 12.5267 2.87022 12.6417C2.81898 12.7567 2.79143 12.8809 2.78921 13.0068C2.78699 13.1326 2.81014 13.2577 2.85729 13.3744C2.90445 13.4911 2.97463 13.5972 3.06365 13.6862C3.15267 13.7752 3.25872 13.8454 3.37545 13.8926C3.49219 13.9397 3.61722 13.9629 3.7431 13.9606C3.86898 13.9584 3.99312 13.9309 4.10812 13.8796C4.22312 13.8284 4.32662 13.7545 4.41245 13.6624L3.08745 12.3374ZM8.74995 25.1874H21.2499V23.3124H8.74995V25.1874ZM24.6874 21.7499V10.4999H22.8124V21.7499H24.6874ZM7.18745 21.7499V10.4999H5.31245V21.7499H7.18745ZM26.9124 12.3374L15.6624 1.08741L14.3374 2.41241L25.5874 13.6624L26.9124 12.3374ZM14.3374 1.08741L3.08745 12.3374L4.41245 13.6624L15.6624 2.41241L14.3374 1.08741ZM21.2499 25.1874C22.1616 25.1874 23.036 24.8252 23.6806 24.1806C24.3253 23.5359 24.6874 22.6616 24.6874 21.7499H22.8124C22.8124 22.6124 22.1124 23.3124 21.2499 23.3124V25.1874ZM8.74995 23.3124C7.88745 23.3124 7.18745 22.6124 7.18745 21.7499H5.31245C5.31245 22.6616 5.67461 23.5359 6.31927 24.1806C6.96392 24.8252 7.83827 25.1874 8.74995 25.1874V23.3124Z" fill="white"/>
</svg>
