<svg width="30" height="30" viewBox="0 0 30 30" fill="none" xmlns="http://www.w3.org/2000/svg">
<path d="M16.6762 5C16.393 5.80303 16.2489 6.64849 16.25 7.5H6.25V25H23.75V15C24.6015 15.0011 25.447 14.857 26.25 14.5738V26.25C26.25 26.5815 26.1183 26.8995 25.8839 27.1339C25.6495 27.3683 25.3315 27.5 25 27.5H5C4.66848 27.5 4.35054 27.3683 4.11612 27.1339C3.8817 26.8995 3.75 26.5815 3.75 26.25V6.25C3.75 5.91848 3.8817 5.60054 4.11612 5.36612C4.35054 5.1317 4.66848 5 5 5H16.6762ZM23.75 10C24.413 10 25.0489 9.73661 25.5178 9.26777C25.9866 8.79893 26.25 8.16304 26.25 7.5C26.25 6.83696 25.9866 6.20107 25.5178 5.73223C25.0489 5.26339 24.413 5 23.75 5C23.087 5 22.4511 5.26339 21.9822 5.73223C21.5134 6.20107 21.25 6.83696 21.25 7.5C21.25 8.16304 21.5134 8.79893 21.9822 9.26777C22.4511 9.73661 23.087 10 23.75 10ZM23.75 12.5C22.4239 12.5 21.1521 11.9732 20.2145 11.0355C19.2768 10.0979 18.75 8.82608 18.75 7.5C18.75 6.17392 19.2768 4.90215 20.2145 3.96447C21.1521 3.02678 22.4239 2.5 23.75 2.5C25.0761 2.5 26.3479 3.02678 27.2855 3.96447C28.2232 4.90215 28.75 6.17392 28.75 7.5C28.75 8.82608 28.2232 10.0979 27.2855 11.0355C26.3479 11.9732 25.0761 12.5 23.75 12.5Z" fill="white"/>
</svg>
